<svg width="17" height="19" viewBox="0 0 17 19" fill="none" xmlns="http://www.w3.org/2000/svg">
<mask id="path-1-inside-1_7282_12842" fill="white">
<path fill-rule="evenodd" clip-rule="evenodd" d="M16.1052 4.64917L8.0526 0L0 4.64917V13.9475L8.0526 18.5967L16.1052 13.9475V4.64917ZM7.86783 13.5899C10.238 13.5899 12.1594 11.6685 12.1594 9.29837C12.1594 6.92821 10.238 5.00683 7.86783 5.00683C5.49767 5.00683 3.57628 6.92821 3.57628 9.29837C3.57628 11.6685 5.49767 13.5899 7.86783 13.5899Z"/>
</mask>
<path d="M8.0526 0L8.5526 -0.866025L8.0526 -1.1547L7.5526 -0.866025L8.0526 0ZM16.1052 4.64917H17.1052V4.07182L16.6052 3.78314L16.1052 4.64917ZM0 4.64917L-0.5 3.78314L-1 4.07182V4.64917H0ZM0 13.9475H-1V14.5249L-0.5 14.8135L0 13.9475ZM8.0526 18.5967L7.5526 19.4627L8.0526 19.7514L8.5526 19.4627L8.0526 18.5967ZM16.1052 13.9475L16.6052 14.8135L17.1052 14.5249V13.9475H16.1052ZM7.5526 0.866025L15.6052 5.5152L16.6052 3.78314L8.5526 -0.866025L7.5526 0.866025ZM0.5 5.5152L8.5526 0.866025L7.5526 -0.866025L-0.5 3.78314L0.5 5.5152ZM1 13.9475V4.64917H-1V13.9475H1ZM8.5526 17.7307L0.5 13.0815L-0.5 14.8135L7.5526 19.4627L8.5526 17.7307ZM15.6052 13.0815L7.5526 17.7307L8.5526 19.4627L16.6052 14.8135L15.6052 13.0815ZM15.1052 4.64917V13.9475H17.1052V4.64917H15.1052ZM11.1594 9.29837C11.1594 11.1162 9.68569 12.5899 7.86783 12.5899V14.5899C10.7903 14.5899 13.1594 12.2208 13.1594 9.29837H11.1594ZM7.86783 6.00683C9.68569 6.00683 11.1594 7.4805 11.1594 9.29837H13.1594C13.1594 6.37593 10.7903 4.00683 7.86783 4.00683V6.00683ZM4.57628 9.29837C4.57628 7.4805 6.04996 6.00683 7.86783 6.00683V4.00683C4.94539 4.00683 2.57628 6.37593 2.57628 9.29837H4.57628ZM7.86783 12.5899C6.04996 12.5899 4.57628 11.1162 4.57628 9.29837H2.57628C2.57628 12.2208 4.94539 14.5899 7.86783 14.5899V12.5899Z" fill="#2C2C2C" mask="url(#path-1-inside-1_7282_12842)"/>
</svg>
