<svg width="17" height="22" viewBox="0 0 17 22" fill="none" xmlns="http://www.w3.org/2000/svg">
<path d="M6.12155 4.425C4.99843 5.71107 3.9181 7.35833 3.63103 8C3.29741 7.33055 2.80862 6.38334 2.18793 5.36667C1.56724 4.35 1.00862 3.76666 0.473274 3.25833C0.473274 3.25833 0.529138 3.055 0.442241 2.775C0.355345 2.495 0.106034 2.11111 0 1.99167C0.0232759 2.00556 0.146242 2.0975 0.302585 2.21667C0.543103 2.4 0.74224 2.61111 0.931033 2.81666C0.936205 2.79166 0.988446 2.72334 1.03189 2.51667C1.07534 2.31 1.01896 2.15833 1.00086 2.125C1.00086 2.125 1.54405 2.52082 2.33534 3.35C3.26638 4.32561 3.68534 4.99166 3.68534 4.99166C3.68534 4.99166 4.05093 4.18515 5.19828 2.9C6.82759 1.07499 8.17759 0.258327 8.17759 0.258327C8.17759 0.258327 6.68793 1.525 5.74138 2.53334C5.04898 3.27093 4.4612 4.15833 4.4612 4.15833C4.4612 4.15833 5.52241 2.775 6.88966 1.55C8.12782 0.440654 8.8681 0 8.8681 0C8.8681 0 8.78535 0.141667 8.75172 0.358334C8.73642 0.456973 8.79828 0.6 8.79828 0.6C8.79828 0.6 8.39483 0.955978 7.53362 1.775C6.90517 2.37266 6.47845 2.9 6.47845 2.9C7.12241 2.28333 8.17759 1.44167 9 0.916661C9 0.916661 8.55259 1.33333 8.27845 1.775C8.01888 2.19318 8.02751 2.51664 8.03014 2.61539L8.03017 2.61666C8.03017 2.61666 7.06034 3.35 6.12155 4.425Z" fill="#2C2C2C"/>
<path d="M6.12155 11.425C4.99843 12.7111 3.9181 14.3583 3.63103 15C3.29741 14.3306 2.80862 13.3833 2.18793 12.3667C1.56724 11.35 1.00862 10.7667 0.473274 10.2583C0.473274 10.2583 0.529138 10.055 0.442241 9.775C0.355345 9.495 0.106034 9.11111 0 8.99167C0.0232759 9.00556 0.146242 9.0975 0.302585 9.21667C0.543103 9.4 0.74224 9.61111 0.931033 9.81666C0.936205 9.79166 0.988446 9.72334 1.03189 9.51667C1.07534 9.31 1.01896 9.15833 1.00086 9.125C1.00086 9.125 1.54405 9.52082 2.33534 10.35C3.26638 11.3256 3.68534 11.9917 3.68534 11.9917C3.68534 11.9917 4.05093 11.1852 5.19828 9.9C6.82759 8.07499 8.17759 7.25833 8.17759 7.25833C8.17759 7.25833 6.68793 8.525 5.74138 9.53334C5.04898 10.2709 4.4612 11.1583 4.4612 11.1583C4.4612 11.1583 5.52241 9.775 6.88966 8.55C8.12782 7.44065 8.8681 7 8.8681 7C8.8681 7 8.78535 7.14167 8.75172 7.35833C8.73642 7.45697 8.79828 7.6 8.79828 7.6C8.79828 7.6 8.39483 7.95598 7.53362 8.775C6.90517 9.37266 6.47845 9.9 6.47845 9.9C7.12241 9.28333 8.17759 8.44167 9 7.91666C9 7.91666 8.55259 8.33333 8.27845 8.775C8.01888 9.19318 8.02751 9.51664 8.03014 9.61539L8.03017 9.61666C8.03017 9.61666 7.06034 10.35 6.12155 11.425Z" fill="#2C2C2C"/>
<rect x="9" y="3" width="8" height="2" rx="1" fill="#2C2C2C"/>
<rect x="9" y="10" width="8" height="2" rx="1" fill="#2C2C2C"/>
<path d="M6.12155 18.425C4.99843 19.7111 3.9181 21.3583 3.63103 22C3.29741 21.3306 2.80862 20.3833 2.18793 19.3667C1.56724 18.35 1.00862 17.7667 0.473274 17.2583C0.473274 17.2583 0.529138 17.055 0.442241 16.775C0.355345 16.495 0.106034 16.1111 0 15.9917C0.0232759 16.0056 0.146242 16.0975 0.302585 16.2167C0.543103 16.4 0.74224 16.6111 0.931033 16.8167C0.936205 16.7917 0.988446 16.7233 1.03189 16.5167C1.07534 16.31 1.01896 16.1583 1.00086 16.125C1.00086 16.125 1.54405 16.5208 2.33534 17.35C3.26638 18.3256 3.68534 18.9917 3.68534 18.9917C3.68534 18.9917 4.05093 18.1852 5.19828 16.9C6.82759 15.075 8.17759 14.2583 8.17759 14.2583C8.17759 14.2583 6.68793 15.525 5.74138 16.5333C5.04898 17.2709 4.4612 18.1583 4.4612 18.1583C4.4612 18.1583 5.52241 16.775 6.88966 15.55C8.12782 14.4407 8.8681 14 8.8681 14C8.8681 14 8.78535 14.1417 8.75172 14.3583C8.73642 14.457 8.79828 14.6 8.79828 14.6C8.79828 14.6 8.39483 14.956 7.53362 15.775C6.90517 16.3727 6.47845 16.9 6.47845 16.9C7.12241 16.2833 8.17759 15.4417 9 14.9167C9 14.9167 8.55259 15.3333 8.27845 15.775C8.01888 16.1932 8.02751 16.5166 8.03014 16.6154L8.03017 16.6167C8.03017 16.6167 7.06034 17.35 6.12155 18.425Z" fill="#2C2C2C"/>
<rect x="9" y="18" width="8" height="2" rx="1" fill="#2C2C2C"/>
</svg>
