<svg width="24" height="24" viewBox="0 0 24 24" fill="none" xmlns="http://www.w3.org/2000/svg">
<path d="M5 6.76309L4.10199 6.32311L3.93303 6.66795L4.03832 7.03725L5 6.76309ZM5 6.76309C4.03832 7.03725 4.0384 7.03756 4.0385 7.03788L4.0387 7.0386L4.03919 7.0403L4.04048 7.04477L4.04434 7.05791L4.05725 7.1007C4.06821 7.13644 4.08396 7.18645 4.10484 7.24971C4.1466 7.37622 4.20895 7.55589 4.29479 7.7806C4.46637 8.2298 4.73228 8.86035 5.11581 9.60688C5.88206 11.0984 7.12352 13.0638 9.02974 14.97C11.0014 16.9416 13.0666 18.1921 14.6459 18.948C15.4363 19.3263 16.1091 19.5828 16.5939 19.7449C16.836 19.8258 17.034 19.8841 17.179 19.9228C17.2505 19.9418 17.3149 19.9576 17.3687 19.9691C17.3935 19.9745 17.4283 19.9815 17.4658 19.9873C17.4816 19.9897 17.5191 19.9952 17.5654 19.998C17.5863 19.9993 17.6352 20.0019 17.6969 19.9977C17.7277 19.9957 17.7821 19.9907 17.8483 19.9759C17.9014 19.9641 18.0385 19.9302 18.1863 19.8317C18.6592 19.5164 19.4554 18.8562 20.0426 17.9754C20.3026 17.5854 20.5257 17.1347 20.6771 16.8035C20.7548 16.6334 20.8178 16.4854 20.8617 16.3791C20.8837 16.3259 20.9011 16.2827 20.9132 16.2521L20.9275 16.2159L20.9316 16.2053L20.9329 16.202L20.9333 16.2009L20.9335 16.2004L20.9336 16.2002C20.9336 16.2001 20.9336 16.2001 20 15.8418L20.9336 16.2001L21.2344 15.4162L20.5145 14.9843L16.5672 12.616L16.0527 12.3073L15.5382 12.616L14.1189 13.4675C14.0854 13.4425 14.0505 13.416 14.014 13.3881C13.6237 13.0891 13.0652 12.6244 12.4177 11.9769C11.8594 11.4187 11.2912 10.7568 10.8562 10.2251C10.7443 10.0883 10.6421 9.96122 10.5521 9.84805L11.3838 8.46178L11.6926 7.94727L11.3838 7.43277L9.01542 3.48549L8.72412 3H8.15793C7.94842 3 7.58621 3.00849 7.08841 3.24428C6.63475 3.45917 6.11449 3.83974 5.47715 4.47706C5.01807 4.93613 4.68111 5.38533 4.45733 5.72209C4.34501 5.89111 4.25999 6.03365 4.2013 6.13747C4.17192 6.18943 4.14905 6.23187 4.13255 6.26327C4.1243 6.27897 4.11764 6.29193 4.11256 6.30196L4.1061 6.3148L4.10376 6.31952L4.1028 6.32146L4.10238 6.32232L4.10218 6.32272C4.10209 6.32291 4.10199 6.32311 5 6.76309ZM14.5992 13.8036L14.5984 13.8031L14.5987 13.8033L14.5992 13.8036Z" fill="white" stroke="#5A5A5A" stroke-width="2"/>
</svg>
