<svg width="21" height="19" viewBox="0 0 21 19" fill="none" xmlns="http://www.w3.org/2000/svg">
<path d="M3 4.76309C2.03832 5.03725 2.0384 5.03756 2.0385 5.03788L2.0387 5.0386L2.03919 5.0403L2.04048 5.04477L2.04434 5.05791L2.05725 5.1007C2.06821 5.13644 2.08396 5.18645 2.10484 5.24971C2.1466 5.37622 2.20895 5.55589 2.29479 5.7806C2.46637 6.2298 2.73228 6.86035 3.11581 7.60688C3.88206 9.09835 5.12352 11.0638 7.02974 12.97C9.00137 14.9416 11.0666 16.1921 12.6459 16.948C13.4363 17.3263 14.1091 17.5828 14.5939 17.7449C14.836 17.8258 15.034 17.8841 15.179 17.9228C15.2505 17.9418 15.3149 17.9576 15.3687 17.9691C15.3935 17.9745 15.4283 17.9815 15.4658 17.9873C15.4816 17.9897 15.5191 17.9952 15.5654 17.998C15.5863 17.9993 15.6352 18.0019 15.6969 17.9977C15.7277 17.9957 15.7821 17.9907 15.8483 17.9759C15.9014 17.9641 16.0385 17.9302 16.1863 17.8317C16.6592 17.5164 17.4554 16.8562 18.0426 15.9754C18.3026 15.5854 18.5257 15.1347 18.6771 14.8035C18.7548 14.6334 18.8178 14.4854 18.8617 14.3791C18.8837 14.3259 18.9011 14.2827 18.9132 14.2521L18.9275 14.2159L18.9316 14.2053L18.9329 14.202L18.9333 14.2009L18.9335 14.2004L18.9336 14.2002C18.9336 14.2001 18.9336 14.2001 18 13.8418L18.9336 14.2001L19.2344 13.4162L18.5145 12.9843L14.5672 10.616L14.0527 10.3073L13.5382 10.616L12.1189 11.4675C12.0854 11.4425 12.0505 11.416 12.014 11.3881C11.6237 11.0891 11.0652 10.6244 10.4177 9.97688C9.85944 9.41867 9.29124 8.75681 8.85623 8.22514C8.74429 8.08833 8.64205 7.96122 8.55206 7.84805L9.38384 6.46178L9.69255 5.94727L9.38384 5.43277L7.01542 1.48549L6.72412 1H6.15793C5.94842 1 5.58621 1.00849 5.08841 1.24428C4.63475 1.45917 4.11449 1.83974 3.47715 2.47706C3.01807 2.93613 2.68111 3.38533 2.45733 3.72209C2.34501 3.89111 2.25999 4.03365 2.2013 4.13747C2.17192 4.18943 2.14905 4.23187 2.13255 4.26327C2.1243 4.27897 2.11764 4.29193 2.11256 4.30196L2.1061 4.3148L2.10376 4.31952L2.1028 4.32146L2.10238 4.32232L2.10218 4.32272C2.10209 4.32291 2.10199 4.32311 3 4.76309ZM3 4.76309L2.03832 5.03725L1.93303 4.66795L2.10199 4.32311L3 4.76309ZM12.5992 11.8036L12.5984 11.8031L12.5987 11.8033L12.5992 11.8036Z" fill="white" stroke="#5A5A5A" stroke-width="2"/>
</svg>
