<svg width="24" height="24" fill="none" xmlns="http://www.w3.org/2000/svg"><mask id="a" maskUnits="userSpaceOnUse" x="4" y="2" width="17" height="19" fill="#000"><path fill="#fff" d="M4 2h17v19H4z"/><path fillRule="evenodd" clipRule="evenodd" d="M17.593 9.758a1 1 0 001.12-.864l.484-3.766a1 1 0 00-1.984-.255l-.201 1.566a7.33 7.33 0 10-.204 11.44 1 1 0 10-1.222-1.583 5.329 5.329 0 11-.72-8.905l-.785-.1a1 1 0 00-.255 1.983l3.767.484z"/></mask><path fillRule="evenodd" clipRule="evenodd" d="M17.593 9.758a1 1 0 001.12-.864l.484-3.766a1 1 0 00-1.984-.255l-.201 1.566a7.33 7.33 0 10-.204 11.44 1 1 0 10-1.222-1.583 5.329 5.329 0 11-.72-8.905l-.785-.1a1 1 0 00-.255 1.983l3.767.484z" fill="#fff"/><path d="M18.712 8.894l.992.128-.992-.128zm-1.12.864l-.127.992.128-.992zm1.605-4.63L18.205 5l.992.128zm-.864-1.12l.127-.992-.128.992zm-1.12.865l-.992-.128.992.128zm-.201 1.566l-.64.77a1 1 0 001.631-.642l-.991-.128zm-2.347-1.308l-.32.948.32-.948zm-4.254-.127l-.261-.965.261.965zM6.805 7.262l-.754-.658.754.658zm-1.745 3.88l-.992-.127.992.128zm.705 4.197l.896-.445-.896.445zm2.918 3.097l.498-.868-.498.868zm4.147.954l-.068-.998.068.998zm3.978-1.51l-.611-.792.611.791zm.18-1.403l.792-.611-.792.61zm-1.402-.18l-.611-.792.61.791zm-2.893 1.098l-.068-.998.068.998zM9.678 16.7l.498-.868-.498.868zm-2.121-2.252l.895-.445-.895.445zm-.513-3.051l.991.127-.991-.127zm1.268-2.822l-.754-.657.754.657zm2.623-1.642l.261.965-.261-.965zm3.092.092l-.318.948.318-.948zm.839.365l-.128.992a1 1 0 00.604-1.871l-.476.88zm-.785-.1l.128-.993-.128.992zm-1.119.863l.992.128-.992-.128zm.864 1.12l.128-.992-.128.992zm3.894-.507l-.255 1.983a2 2 0 002.239-1.728l-1.984-.255zM18.205 5l-.485 3.767 1.984.255.485-3.767L18.205 5zm0 0l1.984.255a2 2 0 00-1.729-2.239L18.205 5zm0 0l.255-1.984a2 2 0 00-2.239 1.729L18.205 5zm-.202 1.567L18.205 5l-1.984-.255-.201 1.567 1.983.255zm-3.657-.488c.743.25 1.43.634 2.027 1.13l1.277-1.54a8.329 8.329 0 00-2.667-1.486l-.637 1.896zm-3.673-.11a6.33 6.33 0 013.673.11l.637-1.896a8.33 8.33 0 00-4.833-.144l.523 1.93zM7.558 7.92a6.33 6.33 0 013.115-1.95l-.523-1.93a8.33 8.33 0 00-4.1 2.565L7.559 7.92zm-1.506 3.35a6.33 6.33 0 011.506-3.35L6.051 6.604a8.33 8.33 0 00-1.983 4.411l1.984.255zm.609 3.624a6.329 6.329 0 01-.61-3.624l-1.983-.255a8.33 8.33 0 00.802 4.769l1.791-.89zm2.52 2.674a6.329 6.329 0 01-2.52-2.674l-1.791.89a8.33 8.33 0 003.316 3.52l.995-1.736zm3.58.824a6.33 6.33 0 01-3.58-.824l-.995 1.735a8.329 8.329 0 004.712 1.084l-.136-1.995zm3.436-1.304a6.33 6.33 0 01-3.435 1.304l.136 1.995a8.33 8.33 0 004.521-1.716l-1.222-1.583zm0 0l1.222 1.583a2 2 0 00.361-2.805l-1.583 1.222zm0 0l1.583-1.223a2 2 0 00-2.805-.36l1.222 1.583zm-3.435 1.304a6.329 6.329 0 003.435-1.304l-1.222-1.583a4.329 4.329 0 01-2.35.892l.137 1.995zm-3.581-.824a6.329 6.329 0 003.58.824l-.136-1.995a4.33 4.33 0 01-2.45-.564l-.994 1.735zm-2.52-2.674a6.329 6.329 0 002.52 2.674l.995-1.735a4.329 4.329 0 01-1.724-1.829l-1.791.89zm-.61-3.624a6.329 6.329 0 00.61 3.624l1.791-.89a4.33 4.33 0 01-.417-2.479l-1.983-.255zm1.508-3.35a6.33 6.33 0 00-1.506 3.351l1.983.255a4.33 4.33 0 011.03-2.292L7.559 7.919zm3.115-1.95a6.33 6.33 0 00-3.115 1.95l1.508 1.314a4.33 4.33 0 012.13-1.334l-.523-1.93zm3.673.11a6.33 6.33 0 00-3.673-.11l.523 1.93a4.329 4.329 0 012.513.075l.637-1.895zm.996.433a6.324 6.324 0 00-.996-.433l-.637 1.895c.236.08.464.179.68.297l.953-1.76zm-1.388 1.77l.784.1.255-1.983-.784-.1-.255 1.983zm0 0l.255-1.984a2 2 0 00-2.239 1.729l1.984.255zm0 0l-1.984-.255a2 2 0 001.729 2.239l.255-1.984zm3.766.485l-3.766-.485-.255 1.984 3.766.484.255-1.983z" fill="#5A5A5A" mask="url(#a)"/></svg>