<svg width="24" height="24" fill="none" xmlns="http://www.w3.org/2000/svg"><path d="M19.082 7.585c-.82 0-1.484.663-1.484 1.482v5.255a1.482 1.482 0 102.967 0V9.067c0-.819-.663-1.482-1.483-1.482zm-14.718 0c-.82 0-1.484.663-1.484 1.482v5.255a1.482 1.482 0 102.967 0V9.067a1.482 1.482 0 00-1.483-1.482zm10.31-4.418l.892-1.61a.398.398 0 00-.155-.546.4.4 0 00-.546.157l-.915 1.647a5.99 5.99 0 00-2.227-.427 5.99 5.99 0 00-2.228.426L8.58 1.169a.398.398 0 00-.546-.157.4.4 0 00-.154.546l.89 1.61c-1.604.914-2.676 2.548-2.676 4.417 0 .013 0 .024.003.04-.003.006-.003.014-.003.021v.002H17.35v-.063c.001-1.869-1.07-3.502-2.675-4.418zm-5.55 2.282a.402.402 0 11.006-.803.402.402 0 01-.006.803zm5.197 0a.402.402 0 010-.802.401.401 0 010 .802zM6.094 16.18c0 .75.61 1.359 1.362 1.359h.68v2.785a1.483 1.483 0 002.967 0V17.54h1.237v2.785c0 .82.663 1.482 1.481 1.482.823 0 1.486-.662 1.486-1.482V17.54h.68a1.36 1.36 0 001.362-1.359V7.954H6.094v8.226z" fill="#00A0AB"/></svg>