<svg width="24" height="24" fill="none" xmlns="http://www.w3.org/2000/svg"><path d="M20.042 8.545c-.82 0-1.484.663-1.484 1.482v5.255a1.482 1.482 0 102.967 0v-5.255c0-.819-.663-1.482-1.483-1.482zm-14.718 0c-.82 0-1.484.663-1.484 1.482v5.255a1.482 1.482 0 102.967 0v-5.255a1.482 1.482 0 00-1.483-1.482zm10.31-4.419l.892-1.61a.398.398 0 00-.154-.545.4.4 0 00-.547.157l-.915 1.647a5.99 5.99 0 00-2.227-.427 5.99 5.99 0 00-2.227.426L9.54 2.129a.398.398 0 00-.546-.157.4.4 0 00-.154.546l.89 1.61c-1.604.914-2.676 2.548-2.676 4.417 0 .013 0 .024.003.04-.003.006-.003.014-.003.021v.002H18.31v-.064c.001-1.868-1.07-3.501-2.675-4.418zm-5.55 2.283a.402.402 0 11.006-.803.402.402 0 01-.006.803zm5.197 0a.402.402 0 010-.802.401.401 0 010 .802zM7.054 17.141c0 .749.61 1.358 1.362 1.358h.68v2.785a1.483 1.483 0 002.967 0v-2.785H13.3v2.785c0 .82.663 1.483 1.481 1.483.823 0 1.486-.663 1.486-1.483v-2.785h.68a1.36 1.36 0 001.362-1.358V8.913H7.054v8.226z" fill="#C7C7C7"/></svg>