<svg width="24" height="24" fill="none" xmlns="http://www.w3.org/2000/svg"><path d="M15.76 12.231a5.302 5.302 0 00-4.482-2.453 5.308 5.308 0 00-4.482 2.453l-2.37 3.701a3.351 3.351 0 00-.525 2.052 3.365 3.365 0 004.713 2.854l.043-.021a6.613 6.613 0 015.272.021 3.375 3.375 0 002.109.201 3.367 3.367 0 002.612-3.055 3.344 3.344 0 00-.525-2.052l-2.365-3.7zm-10.693-.009c.704-.27 1.242-.842 1.507-1.602a3.322 3.322 0 00-.06-2.304c-.295-.76-.824-1.38-1.498-1.748-.71-.384-1.486-.449-2.19-.175-1.418.543-2.066 2.295-1.447 3.906.495 1.282 1.643 2.09 2.808 2.09.295 0 .594-.056.88-.167zm4.597-2.897c1.772 0 3.21-1.641 3.21-3.663 0-2.02-1.438-3.662-3.21-3.662-1.771 0-3.21 1.641-3.21 3.662 0 2.018 1.439 3.663 3.21 3.663zm5.546.897c.273.09.55.133.828.133 1.289 0 2.548-.94 3.03-2.385.278-.833.26-1.714-.05-2.479-.33-.799-.927-1.38-1.695-1.637-.765-.256-1.597-.15-2.335.3-.705.427-1.247 1.12-1.524 1.953-.577 1.756.204 3.602 1.745 4.115zm6.761-.428c-1.22-.901-3.048-.512-4.072.872-1.025 1.385-.863 3.248.354 4.15.444.329.97.487 1.507.487.935 0 1.912-.479 2.566-1.359 1.024-1.38.862-3.244-.355-4.15z" fill="#00A0AB"/></svg>