<svg width="24" height="24" viewBox="0 0 24 24" fill="none" xmlns="http://www.w3.org/2000/svg">
<path fill-rule="evenodd" clip-rule="evenodd" d="M12 24C18.6274 24 24 18.6274 24 12C24 5.37258 18.6274 0 12 0C5.37258 0 0 5.37258 0 12C0 18.6274 5.37258 24 12 24ZM17.8131 17.8912C18.1577 17.3886 18.4551 16.8421 18.7061 16.2482C18.8093 15.996 18.9073 15.7339 19 15.4593C18.5749 15.2768 18.1927 15.0201 17.8499 14.6874C17.0942 13.971 16.7085 13.0685 16.698 11.9836C16.6858 10.591 17.3041 9.50603 18.5548 8.73057C17.856 7.7145 16.8056 7.15101 15.4062 7.03563C14.8902 6.99091 14.2604 7.1045 13.5144 7.37909C12.7237 7.67515 12.2593 7.82451 12.1211 7.82451C11.9383 7.82451 11.5185 7.69751 10.8652 7.44707C10.2118 7.19663 9.68445 7.06962 9.28213 7.06962C8.54832 7.08214 7.86612 7.27802 7.23552 7.66173C6.6058 8.04454 6.10202 8.56599 5.72243 9.22786C5.24052 10.0507 5 11.0337 5 12.1723C5 13.1669 5.17842 14.1937 5.53439 15.2554C5.86675 16.2366 6.29094 17.0997 6.80696 17.8412C7.28887 18.537 7.69032 19.0289 8.01131 19.3152C8.51421 19.7937 9.01887 20.0209 9.52352 19.9985C9.85675 19.9878 10.2923 19.8706 10.8311 19.647C11.3707 19.4243 11.8745 19.3152 12.3442 19.3152C12.7928 19.3152 13.2826 19.4243 13.8161 19.647C14.3479 19.8706 14.8045 19.9806 15.1823 19.9806C15.7097 19.9681 16.203 19.7463 16.6621 19.3152C16.9578 19.0513 17.3435 18.5773 17.8131 17.8912ZM14.5902 5.71904C15.1945 4.98472 15.4989 4.19048 15.4989 3.34078C15.4989 3.22808 15.4937 3.11449 15.4823 3C15.0607 3.02236 14.6129 3.15295 14.1389 3.38907C13.664 3.62878 13.2721 3.9302 12.9643 4.29155C12.3459 5.00619 11.9996 5.87915 11.9996 6.69575C11.9996 6.80845 12.0057 6.91578 12.0179 7.01775C12.9756 7.09735 13.859 6.592 14.5902 5.71904Z" fill="#00A0AB"/>
</svg>
