<svg width="24" height="24" fill="none" xmlns="http://www.w3.org/2000/svg"><path d="M20.098 18.142a11.94 11.94 0 01-1.184 2.13c-.623.89-1.135 1.505-1.527 1.848-.609.559-1.263.846-1.962.863-.501 0-1.107-.143-1.812-.433-.708-.289-1.357-.43-1.952-.43-.623 0-1.292.141-2.007.43-.715.29-1.293.442-1.734.456-.67.029-1.34-.266-2.006-.887-.426-.37-.958-1.009-1.597-1.911-.685-.962-1.247-2.081-1.688-3.354-.472-1.377-.709-2.708-.709-3.998 0-1.477.319-2.752.958-3.819a5.634 5.634 0 012.007-2.031 5.394 5.394 0 012.714-.768c.534 0 1.233.165 2.1.49.867.324 1.423.489 1.666.489.183 0 .799-.194 1.848-.578.99-.356 1.824-.503 2.509-.445 1.856.15 3.249.88 4.176 2.198-1.66 1.006-2.48 2.413-2.463 4.219.014 1.407.526 2.577 1.528 3.507.454.431.961.764 1.525 1-.123.357-.253.697-.39 1.024zm-4.253-16.74c0 1.102-.404 2.132-1.206 3.084-.97 1.133-2.141 1.788-3.411 1.685a3.436 3.436 0 01-.024-.418c0-1.059.459-2.191 1.279-3.118.408-.469.928-.86 1.558-1.17.629-.307 1.223-.476 1.782-.505.015.148.022.296.022.442z" fill="#2C2C2C"/></svg>