<svg width="24" height="24" fill="none" xmlns="http://www.w3.org/2000/svg"><path fillRule="evenodd" clipRule="evenodd" d="M12 24c6.627 0 12-5.373 12-12S18.627 0 12 0 0 5.373 0 12s5.373 12 12 12zm5.813-6.109a9.235 9.235 0 00.893-1.643c.103-.252.201-.514.294-.789a3.78 3.78 0 01-1.15-.772c-.756-.716-1.142-1.618-1.152-2.703-.012-1.393.606-2.478 1.857-3.253-.699-1.016-1.75-1.58-3.149-1.695-.516-.045-1.146.069-1.892.343-.79.296-1.255.446-1.393.446-.183 0-.603-.127-1.256-.378-.653-.25-1.18-.377-1.583-.377a4 4 0 00-2.046.592 4.299 4.299 0 00-1.514 1.566C5.241 10.05 5 11.034 5 12.172c0 .995.178 2.022.534 3.083.333.982.757 1.845 1.273 2.586.482.696.883 1.188 1.204 1.474.503.479 1.008.706 1.513.683.333-.01.768-.127 1.307-.351.54-.223 1.043-.332 1.513-.332.449 0 .939.11 1.472.332.532.224.989.334 1.366.334.528-.013 1.021-.235 1.48-.666.296-.264.681-.738 1.151-1.424zM14.59 5.72c.604-.734.909-1.529.909-2.378 0-.113-.005-.227-.017-.341-.421.022-.87.153-1.343.39-.475.239-.867.54-1.175.902C12.346 5.007 12 5.88 12 6.697c0 .112.006.22.018.322.958.08 1.841-.426 2.572-1.299z" fill="#fff"/></svg>