<svg width="24" height="24" fill="none" xmlns="http://www.w3.org/2000/svg"><path fill-rule="evenodd" clip-rule="evenodd" d="M16.248 13.918H6.912a1.798 1.798 0 01-3.544.004c-1.138-.004-1.87-.105-2.272-1.052-.356-.838.393-1.287.393-1.287V9.575h3.23l2.312.36-.15-.749h.899l.15.75 1.158.011-.15-.76.9.011.263 1.275h2.977l.194.002c.545.006 1.098.012 1.098-.39 0-.26-.677-.633-1.738-1.217l-.509-.28c-.37-.206-.093-.96.956-.361.39.223 2.246 1.198 2.995 1.498.468.187.936.199 1.697.218a31.54 31.54 0 011.748.081c2.097.161 3.295.749 3.445 1.798.15 1.05-.193 1.448-.583 1.9l-.166.196h-2.421a1.798 1.798 0 01-3.546 0zm2.672-.299a.899.899 0 11-1.797 0 .899.899 0 011.797 0zm-13.78.899a.899.899 0 100-1.798.899.899 0 000 1.798z" fill="#00A0AB"/></svg>