<svg width="24" height="24" fill="none" xmlns="http://www.w3.org/2000/svg"><mask id="a" fill="#fff"><path fill-rule="evenodd" clip-rule="evenodd" d="M8.5 3a2 2 0 00-2 2v.2H3a2 2 0 00-2 2v11.4a2 2 0 002 2h18a2 2 0 002-2V7.2a2 2 0 00-2-2h-3.5V5a2 2 0 00-2-2h-7z"/></mask><path fill-rule="evenodd" clip-rule="evenodd" d="M8.5 3a2 2 0 00-2 2v.2H3a2 2 0 00-2 2v11.4a2 2 0 002 2h18a2 2 0 002-2V7.2a2 2 0 00-2-2h-3.5V5a2 2 0 00-2-2h-7z" fill="#fff"/><path d="M6.5 5.2v1h1v-1h-1zm11 0h-1v1h1v-1zM7.5 5a1 1 0 011-1V2a3 3 0 00-3 3h2zm0 .2V5h-2v.2h2zM3 6.2h3.5v-2H3v2zm-1 1a1 1 0 011-1v-2a3 3 0 00-3 3h2zm0 11.4V7.2H0v11.4h2zm1 1a1 1 0 01-1-1H0a3 3 0 003 3v-2zm18 0H3v2h18v-2zm1-1a1 1 0 01-1 1v2a3 3 0 003-3h-2zm0-11.4v11.4h2V7.2h-2zm-1-1a1 1 0 011 1h2a3 3 0 00-3-3v2zm-3.5 0H21v-2h-3.5v2zm-1-1.2v.2h2V5h-2zm-1-1a1 1 0 011 1h2a3 3 0 00-3-3v2zm-7 0h7V2h-7v2z" fill="#3A3A3A" mask="url(#a)"/><circle cx="12" cy="12.9" r="5" fill="#fff" stroke="#3A3A3A"/><circle r=".6" transform="matrix(-1 0 0 1 19.7 8.5)" fill="#fff" stroke="#3A3A3A"/></svg>