<svg width="24" height="24" fill="none" xmlns="http://www.w3.org/2000/svg"><g clip-path="url(#clip0)"><circle cx="19.088" cy="5.808" r="3.155" transform="rotate(45 19.088 5.808)" fill="#00A0AB"/><rect x="17.415" y="5.25" width="3.155" height="3.944" rx="1" transform="rotate(45 17.415 5.25)" fill="#00A0AB"/><rect x="12.396" y="10.27" width="3.155" height="3.155" rx="1" transform="rotate(45 12.396 10.27)" fill="#00A0AB"/><path d="M13.831 15.05a5.522 5.522 0 11-4.154-4.026" stroke="#00A0AB" strokeWidth="2" strokeLinecap="round" strokeLinejoin="round"/><path d="M14.905 9.99c-1.589-1.588-2.88-3.364-3.73-4.688-.446-.693-1.361-.594-1.339.23.045 1.669.746 4.04 3.117 6.411 2.34 2.34 4.565 3.015 6.223 3.074.854.03 1.006-.955.287-1.416-1.311-.841-2.98-2.033-4.558-3.61z" fill="#00A0AB"/></g><defs><clipPath id="clip0"><path fill="#fff" d="M0 0h24v24H0z"/></clipPath></defs></svg>