<svg width="24" height="24" fill="none" xmlns="http://www.w3.org/2000/svg"><path fillRule="evenodd" clipRule="evenodd" d="M16.193 14.992h-9.2a1.772 1.772 0 01-3.505-.077c-.953-.13-1.833-.43-2.227-.956-.664-.886.148-1.476.148-1.476v-1.18c0-.739.886-.886 1.771-.886.43 0 .82-.165 1.312-.372.522-.22 1.16-.488 2.083-.662 2.362-.442 3.247-.442 5.019-.295 1.72.144 3.579 1.261 4.36 1.731l.068.04c.533.32.982.336 2.033.373.402.014.892.032 1.509.07 2.09.13 3.21.79 3.436 1.698.295 1.18-1.075 1.992-1.96 1.992h-1.353a1.772 1.772 0 01-3.494 0zM9.97 11.45l-.59-1.771c.228 0 .43-.002.614-.004 1.004-.008 1.448-.012 2.485.299 1.125.337 2.509.886 1.623 1.476H9.97zm-.739 0H6.575l-1.034-.738c.296-.197.945-.502 1.772-.738a8.908 8.908 0 011.476-.295l.442 1.77zm-3.1 3.247a.886.886 0 11-1.77 0 .886.886 0 011.77 0zm11.809.886a.886.886 0 100-1.772.886.886 0 000 1.772z" fill="#00A0AB"/></svg>