<svg width="24" height="24" fill="none" xmlns="http://www.w3.org/2000/svg"><mask id="a" maskUnits="userSpaceOnUse" x="5.101" y="5.115" width="14" height="14" fill="#000"><path fill="#fff" d="M5.101 5.115h14v14h-14z"/><path fill-rule="evenodd" clip-rule="evenodd" d="M8.235 6.481A1.25 1.25 0 006.467 8.25l3.75 3.75-3.75 3.751a1.25 1.25 0 001.768 1.768l3.75-3.75 3.75 3.75a1.25 1.25 0 001.769-1.768L13.754 12l3.75-3.75a1.25 1.25 0 10-1.768-1.769l-3.75 3.751-3.751-3.75z"/></mask><path fill-rule="evenodd" clip-rule="evenodd" d="M8.235 6.481A1.25 1.25 0 006.467 8.25l3.75 3.75-3.75 3.751a1.25 1.25 0 001.768 1.768l3.75-3.75 3.75 3.75a1.25 1.25 0 001.769-1.768L13.754 12l3.75-3.75a1.25 1.25 0 10-1.768-1.769l-3.75 3.751-3.751-3.75z" fill="#fff"/><path d="M6.467 6.481l.707.707-.707-.707zm1.768 0l-.707.707.707-.707zM6.467 8.25l-.707.707.707-.707zm3.75 3.75l.708.708.707-.707-.707-.707-.707.707zm-3.75 3.751l.707.707-.707-.707zm0 1.768l-.707.707.707-.707zm1.768 0l-.707-.707.707.707zm3.75-3.75l.708-.708-.708-.707-.707.707.707.707zm3.75 3.75l-.706.707.707-.707zm1.769-1.768l-.707.707.707-.707zM13.754 12l-.708-.707-.707.707.707.707.707-.707zm3.75-3.75l-.707-.708.707.707zm0-1.769l.707-.707-.707.707zm-1.768 0l-.707-.707.707.707zm-3.75 3.751l-.708.707.707.707.708-.707-.708-.707zM7.173 7.188a.25.25 0 01.354 0l1.414-1.414a2.25 2.25 0 00-3.182 0l1.414 1.414zm0 .354a.25.25 0 010-.354L5.76 5.774a2.25 2.25 0 000 3.182l1.414-1.414zm3.75 3.75l-3.75-3.75L5.76 8.956l3.75 3.75 1.415-1.413zm-3.75 5.165l3.75-3.75-1.413-1.414-3.751 3.75 1.414 1.415zm0 .354a.25.25 0 010-.354L5.76 15.043a2.25 2.25 0 000 3.182l1.414-1.414zm.354 0a.25.25 0 01-.354 0L5.76 18.225a2.25 2.25 0 003.182 0l-1.414-1.414zm3.75-3.75l-3.75 3.75 1.414 1.414 3.75-3.75-1.414-1.415zm5.165 3.75l-3.75-3.75-1.415 1.414 3.75 3.75 1.415-1.414zm.354 0a.25.25 0 01-.354 0l-1.414 1.414a2.25 2.25 0 003.182 0l-1.414-1.414zm0-.354a.25.25 0 010 .354l1.414 1.414a2.25 2.25 0 000-3.182l-1.414 1.414zm-3.751-3.75l3.75 3.75 1.415-1.414-3.75-3.75-1.415 1.414zm3.75-5.165l-3.75 3.75 1.414 1.415 3.75-3.75-1.413-1.415zm0-.353a.25.25 0 010 .353l1.415 1.414a2.25 2.25 0 000-3.182L16.797 7.19zm-.353 0a.25.25 0 01.354 0l1.414-1.415a2.25 2.25 0 00-3.182 0l1.414 1.415zm-3.75 3.75l3.75-3.75-1.414-1.415-3.75 3.75 1.414 1.415zM7.528 7.19l3.75 3.75 1.415-1.414-3.751-3.75-1.414 1.413z" fill="#5A5A5A" mask="url(#a)"/></svg>