<svg width="24" height="24" fill="none" xmlns="http://www.w3.org/2000/svg"><path d="M21.24 11.04s-1.408 2.024-3.52 1.32c-2.64-.88-4.4-2.2-4.84-2.64-.44-.44-.88-.44-1.32-.44-.498 0-1.76.88-1.76.88-.293.146-1.056.352-1.76 0-.88-.44-.44-1.32-.44-1.32l3.96-2.64 3.52.44L18 5.5" stroke="#2C2C2C" stroke-linecap="round" stroke-linejoin="round"/><rect x="3.787" y="11.92" width="1.995" height="3.989" rx=".997" transform="rotate(36.04 3.787 11.92)" stroke="#2C2C2C"/><rect x="9.947" y="15.44" width="1.995" height="3.989" rx=".997" transform="rotate(36.04 9.947 15.44)" stroke="#2C2C2C"/><rect x="7.893" y="14.268" width="1.995" height="4.987" rx=".997" transform="rotate(36.04 7.893 14.268)" stroke="#2C2C2C"/><rect x="6.134" y="12.8" width="1.995" height="4.987" rx=".997" transform="rotate(36.04 6.134 12.8)" stroke="#2C2C2C"/><path d="M11 18l2 1.5s.74.04 1-.5c.27-.56.188-1.21.188-1.21L12 16l3.08 2.52s.67.65 1.32 0c.684-.684.44-1.32.44-1.32m0 0s1.32.44 1.76-.44c.44-.88-.44-1.76-.44-1.76m-1.32 2.2l-1.76-1.32-1.76-1.32m4.84.44l-3.66-2.5m3.66 2.5s.84.5 1.34-.5c.5-1-1-2-1-2m-7.82-5.86L5.4 5.32m-2.2 7.04l-.88-1.76M1 10.16L4.52 4m14.52.44L23 10.16" stroke="#2C2C2C" stroke-linecap="round" stroke-linejoin="round"/></svg>