<svg width="24" height="24" fill="none" xmlns="http://www.w3.org/2000/svg"><mask id="a" maskUnits="userSpaceOnUse" x="4" y="0" width="16" height="23" fill="#000"><path fill="#fff" d="M4 0h16v23H4z"/><path fill-rule="evenodd" clip-rule="evenodd" d="M5 5l7-3 7 3v7.5C18 20 12 21 12 21s-6-1-7-8.5V5zm8.133 4.077l-.694-1.272a.5.5 0 00-.878 0l-.694 1.272a.5.5 0 01-.346.252l-1.424.266a.5.5 0 00-.271.835l.995 1.053a.5.5 0 01.132.407l-.186 1.437a.5.5 0 00.71.516l1.309-.621a.5.5 0 01.428 0l1.309.62a.5.5 0 00.71-.515l-.186-1.437a.5.5 0 01.132-.407l.995-1.053a.5.5 0 00-.27-.835l-1.425-.266a.5.5 0 01-.346-.252z"/></mask><path fill-rule="evenodd" clip-rule="evenodd" d="M5 5l7-3 7 3v7.5C18 20 12 21 12 21s-6-1-7-8.5V5zm8.133 4.077l-.694-1.272a.5.5 0 00-.878 0l-.694 1.272a.5.5 0 01-.346.252l-1.424.266a.5.5 0 00-.271.835l.995 1.053a.5.5 0 01.132.407l-.186 1.437a.5.5 0 00.71.516l1.309-.621a.5.5 0 01.428 0l1.309.62a.5.5 0 00.71-.515l-.186-1.437a.5.5 0 01.132-.407l.995-1.053a.5.5 0 00-.27-.835l-1.425-.266a.5.5 0 01-.346-.252z" fill="#fff"/><path d="M12 2l.394-.92L12 .913l-.394.169L12 2zM5 5l-.394-.92L4 4.34V5h1zm14 0h1v-.66l-.606-.26L19 5zm0 7.5l.991.132.009-.066V12.5h-1zM12 21l-.164.986.164.028.164-.028L12 21zm-7-8.5H4v.066l.009.066L5 12.5zm7.439-4.695l-.878.479.878-.48zm.694 1.272l-.878.478.877-.478zM11.56 7.805l.878.479-.878-.48zm-.694 1.272l-.877-.48.877.48zm-.346.252l.184.982-.184-.982zm-1.424.266l.184.983-.184-.983zm-.271.835l-.727.687.727-.687zm.995 1.053l.726-.687-.726.687zm.132.407l-.991-.128.991.128zm-.186 1.437l.992.129-.992-.13zm.71.516l.429.903-.429-.903zm1.309-.621l-.43-.904.43.904zm.428 0l.43-.904-.43.904zm1.309.62l-.429.904.429-.903zm.71-.515l-.992.129.992-.13zm-.186-1.437l-.992.13.992-.13zm.132-.407l.727.687-.727-.687zm.995-1.053l.727.687-.727-.687zm-.27-.835l-.185.983.184-.983zm-1.425-.266l-.184.982.184-.982zM11.606 1.08l-7 3 .788 1.838 7-3-.788-1.838zm7.788 3l-7-3-.788 1.838 7 3 .788-1.838zM20 12.5V5h-2v7.5h2zM12 21c.164.986.165.986.166.986h.004l.008-.002.022-.004.07-.014a8.176 8.176 0 001.025-.3 9.849 9.849 0 002.42-1.296c1.83-1.337 3.738-3.699 4.276-7.738l-1.982-.264c-.462 3.46-2.053 5.349-3.474 6.387a7.849 7.849 0 01-1.925 1.032 6.154 6.154 0 01-.745.22 1.455 1.455 0 01-.034.007h.003c.001 0 .002 0 .166.986zm-7.991-8.368c.538 4.04 2.446 6.401 4.276 7.738a9.849 9.849 0 002.42 1.296 8.176 8.176 0 001.024.3l.07.014.023.004.008.001.003.001h.001c.001 0 .002 0 .166-.986l.165-.986h.001l-.03-.006a6.154 6.154 0 01-.746-.22 7.849 7.849 0 01-1.925-1.033c-1.42-1.038-3.012-2.926-3.474-6.387l-1.982.264zM4 5v7.5h2V5H4zm7.561 3.284l.694 1.271 1.755-.957-.693-1.272-1.756.958zm.878 0a.5.5 0 01-.878 0l1.756-.958a1.5 1.5 0 00-2.634 0l1.756.958zm-.694 1.271l.694-1.271-1.756-.958-.693 1.272 1.755.957zm-1.04.757a1.5 1.5 0 001.04-.757L9.99 8.598a.5.5 0 01.346-.252l.369 1.966zm-1.424.266l1.424-.266-.369-1.966-1.423.266.368 1.966zm.271-.835a.5.5 0 01-.271.835l-.368-1.966c-1.167.219-1.63 1.642-.814 2.505l1.453-1.374zm.995 1.053l-.995-1.053L8.1 11.117l.995 1.053 1.453-1.374zm.398 1.223a1.5 1.5 0 00-.398-1.223L9.094 12.17a.5.5 0 01-.132-.408l1.983.257zm-.187 1.437l.187-1.437-1.983-.257-.187 1.436 1.983.258zm-.71-.516a.5.5 0 01.71.516l-1.983-.258c-.153 1.178 1.058 2.057 2.13 1.548l-.857-1.806zm1.309-.622l-1.309.622.858 1.806 1.308-.62-.857-1.808zm1.286 0a1.5 1.5 0 00-1.286 0l.857 1.807a.5.5 0 01-.428 0l.857-1.807zm1.309.622l-1.309-.622-.857 1.807 1.308.621.858-1.806zm-.71.516a.5.5 0 01.71-.516l-.858 1.806c1.073.51 2.284-.37 2.13-1.548l-1.982.258zm-.187-1.437l.187 1.437 1.983-.258-.186-1.436-1.984.257zm.398-1.223a1.5 1.5 0 00-.398 1.223l1.984-.257a.5.5 0 01-.133.408l-1.453-1.374zm.995-1.053l-.995 1.053 1.453 1.374.995-1.053-1.453-1.374zm.271.835a.5.5 0 01-.271-.835l1.453 1.374c.816-.863.353-2.286-.814-2.505l-.368 1.966zm-1.424-.266l1.424.266.368-1.966-1.423-.266-.369 1.966zm-1.04-.757a1.5 1.5 0 001.04.757l.369-1.966a.5.5 0 01.346.252l-1.755.957z" fill="#2C2C2C" mask="url(#a)"/></svg>