<svg width="24" height="24" fill="none" xmlns="http://www.w3.org/2000/svg"><path d="M6.317 4.669H2.27A1.34 1.34 0 00.92 6v14.667A1.34 1.34 0 002.269 22h4.048a1.34 1.34 0 001.349-1.332V6c0-.739-.601-1.332-1.349-1.332zm-3.372 13.33a.672.672 0 01-.676-.668.67.67 0 01.676-.668c.374 0 .676.299.676.668a.67.67 0 01-.676.668zm3.372-7.997H2.27V8.67h4.048v1.332zm0-2.669H2.27V6.001h4.048v1.332zm8.77 11.998V18h-4.05v1.332a1.34 1.34 0 00-1.347 1.332h6.745c0-.734-.6-1.332-1.348-1.332z" fill="#00A0AB"/><path d="M21.16 2H4.97a1.34 1.34 0 00-1.35 1.332h17.54v10.666H9.02v2.669h12.14a1.34 1.34 0 001.349-1.332V3.332c0-.734-.605-1.332-1.348-1.332zm-8.098 13.998a.672.672 0 01-.676-.668c0-.37.303-.668.676-.668.374 0 .677.299.677.668 0 .37-.303.668-.677.668z" fill="#00A0AB"/></svg>