<svg width="24" height="24" viewBox="0 0 24 24" fill="none" xmlns="http://www.w3.org/2000/svg">
<path fill-rule="evenodd" clip-rule="evenodd" d="M12 24C18.6274 24 24 18.6274 24 12C24 5.37258 18.6274 0 12 0C5.37258 0 0 5.37258 0 12C0 18.6274 5.37258 24 12 24ZM16 4.11801C15.4375 4.03934 14.6458 4 13.625 4C12.4236 4 11.4618 4.33599 10.7396 5.00798C10.0174 5.67996 9.65625 6.62566 9.65625 7.84506V9.98885H7V12.8997H9.65625V20.3636H12.8438V12.8997H15.4896L15.8958 9.98885H12.8438V8.13024C12.8438 7.65822 12.9479 7.3042 13.1562 7.06818C13.3646 6.83217 13.7674 6.71416 14.3646 6.71416H16V4.11801Z" fill="#2C2C2C"/>
</svg>
