<svg width="24" height="24" fill="none" xmlns="http://www.w3.org/2000/svg"><path fillRule="evenodd" clipRule="evenodd" d="M16.307 15.039H7.035a1.785 1.785 0 01-3.53-.069c-.981-.12-1.894-.41-2.246-.972C-.42 11.32 6.614 9.386 6.614 9.386c2.38-.446 3.272-.446 5.057-.297 1.734.144 3.607 1.27 4.395 1.744l.068.04c.538.324.99.34 2.049.377.405.014.9.031 1.52.07 2.107.132 3.564 1.217 3.256 2.14-.384 1.154-.876 1.579-1.768 1.579h-1.363a1.785 1.785 0 01-3.52 0zm-6.272-3.57L9.44 9.684c.23 0 .434-.002.62-.003 1.011-.01 1.459-.013 2.503.3 1.134.34 2.53.893 1.637 1.488h-4.165zm-.744 0H6.613c-1.957-.47-.707-1.031.197-1.392.769-.308 2.034-.393 2.034-.393l.447 1.785zm-3.124 3.273a.893.893 0 11-1.785 0 .893.893 0 011.785 0zm11.9.892a.893.893 0 100-1.785.893.893 0 000 1.785z" fill="#00A0AB"/></svg>