<svg width="24" height="24" fill="none" xmlns="http://www.w3.org/2000/svg"><path d="M18.847 20c-.519 0-.865-.346-.865-.865v-.866h.865c1.384 0 1.73-.432 1.73-.432v1.298c0 .519-.346.865-.865.865h-.865zM4.139 20c-.52 0-.865-.346-.865-.865v-1.298s.346.433 1.73.433h.865v.865c0 .519-.346.865-.865.865h-.865zM23 10.916c0-1.125-.865-1.99-1.99-1.99-.865 0-1.557.519-1.903 1.298l-.866 2.163c-.086-.087-2.941-.952-6.229-.952-3.288 0-6.23.865-6.316.952l-.865-1.99c-.346-.866-1.038-1.471-1.99-1.471-1.125 0-1.99.865-1.99 1.99 0 .951.606 1.644 1.47 1.903l.347 3.201c.433 1.385 2.336 1.385 2.336 1.385h13.843s1.903 0 2.336-1.385l.346-3.2c.865-.174 1.471-.953 1.471-1.904z" fill="#00A0AB"/><path d="M2.841 7.887c1.298 0 2.51.865 2.855 2.077l.433.951c.865-.346 3.893-.605 5.796-.605 1.904 0 4.846.26 5.71.605l.52-1.124c.432-1.125 1.557-1.904 2.855-1.904h.26c0-2.336-1.904-4.153-4.153-4.153H6.734c-2.25 0-4.153 1.904-4.153 4.153h.26z" fill="#00A0AB"/></svg>