<svg width="216" height="211" viewBox="0 0 216 211" fill="none" xmlns="http://www.w3.org/2000/svg">
<path fill-rule="evenodd" clip-rule="evenodd" d="M143.09 1H168.917L168.928 1.13205C169.357 6.48898 170.469 10.0262 171.975 12.2267C173.476 14.4191 175.37 15.2894 177.398 15.3133C179.435 15.3374 181.621 14.5065 183.687 13.2639C185.75 12.0226 187.681 10.3783 189.206 8.7945L189.307 8.68909L208.598 27.9798L208.503 28.0812C204.864 31.9786 202.948 35.0771 202.236 37.52C201.527 39.9536 202.013 41.7309 203.18 43.0183C204.355 44.3156 206.238 45.1346 208.356 45.6006C210.471 46.0659 212.802 46.1751 214.849 46.0679L215 46.06V75.9326L214.846 75.9211C209.458 75.5199 205.961 76.0509 203.845 77.1579C202.791 77.7098 202.082 78.4034 201.649 79.1948C201.216 79.9866 201.054 80.8864 201.11 81.8589C201.222 83.8093 202.209 86.0354 203.606 88.2102C205.001 90.3817 206.795 92.4866 208.5 94.1916L208.602 94.2939L189.315 113.291L189.214 113.203C185.088 109.593 181.812 107.785 179.231 107.226C176.661 106.67 174.779 107.352 173.415 108.739C172.042 110.136 171.181 112.259 170.695 114.602C170.209 116.942 170.1 119.484 170.22 121.699L170.228 121.85H143.103L143.093 121.717C142.721 116.505 141.62 113.019 140.094 110.806C138.572 108.6 136.622 107.651 134.523 107.519C132.415 107.386 130.144 108.075 127.994 109.168C125.846 110.26 123.83 111.749 122.235 113.201L122.129 113.298L103.424 92.8534L103.521 92.7563C106.988 89.2895 108.816 86.4992 109.502 84.2721C110.184 82.0553 109.734 80.399 108.636 79.1675C107.529 77.9259 105.749 77.1001 103.745 76.5917C101.744 76.0842 99.5368 75.8977 97.5965 75.9215L97.4512 75.9233V47.3595H97.5947C103.142 47.3595 106.313 46.1595 107.998 44.3943C109.677 42.634 109.91 40.2764 109.492 37.8754C109.074 35.4742 108.009 33.0585 107.133 31.216C106.994 30.9247 106.86 30.6471 106.734 30.3859C106.463 29.8252 106.229 29.3406 106.067 28.9605C105.95 28.6835 105.864 28.4488 105.834 28.2743C105.819 28.1887 105.814 28.0994 105.838 28.0217C105.851 27.9806 105.873 27.9394 105.909 27.9057C105.93 27.8861 105.954 27.8712 105.978 27.8603L120.674 9.9945L120.782 10.0662C130.011 16.1997 135.612 15.9273 138.882 13.2115C140.526 11.8456 141.604 9.84638 142.259 7.67391C142.913 5.50231 143.141 3.16815 143.093 1.1469L143.09 1ZM143.383 1.28706C143.417 3.29827 143.182 5.60333 142.533 7.75671C141.869 9.96184 140.768 12.0184 139.065 13.4323C135.655 16.2647 129.926 16.4564 120.731 10.3769L106.141 28.1139L106.11 28.1202C106.108 28.1383 106.108 28.1714 106.117 28.2252C106.141 28.364 106.214 28.5719 106.331 28.8482C106.49 29.2217 106.719 29.696 106.988 30.2523C107.115 30.5148 107.251 30.7956 107.392 31.0926C108.27 32.9369 109.349 35.3832 109.774 37.8262C110.2 40.2692 109.975 42.7377 108.205 44.5925C106.455 46.4266 103.227 47.6258 97.7382 47.6463V75.6331C99.6617 75.6199 101.835 75.8111 103.816 76.3135C105.843 76.8277 107.688 77.6727 108.85 78.9765C110.021 80.2902 110.485 82.0534 109.776 84.3565C109.077 86.628 107.239 89.4267 103.821 92.8621L122.147 112.893C123.741 111.457 125.736 109.993 127.864 108.912C130.038 107.807 132.362 107.095 134.541 107.232C136.727 107.37 138.758 108.363 140.33 110.643C141.884 112.896 142.987 116.4 143.37 121.563H169.925C169.818 119.365 169.933 116.86 170.414 114.544C170.905 112.177 171.782 109.991 173.21 108.538C174.647 107.077 176.631 106.37 179.291 106.946C181.92 107.515 185.209 109.334 189.303 112.9L208.195 94.2921C206.509 92.5947 204.745 90.5146 203.365 88.3654C201.958 86.176 200.94 83.8995 200.824 81.8754C200.765 80.8607 200.934 79.9052 201.397 79.0571C201.861 78.2086 202.615 77.4776 203.712 76.9036C205.879 75.7696 209.395 75.2425 214.713 75.6236V46.3621C212.683 46.4572 210.389 46.3416 208.295 45.8809C206.152 45.4095 204.2 44.5726 202.967 43.211C201.724 41.8395 201.228 39.9551 201.96 37.4397C202.684 34.9553 204.608 31.8501 208.199 27.9868L189.311 9.09871C187.789 10.664 185.879 12.2805 183.835 13.5099C181.747 14.7656 179.507 15.6253 177.394 15.6004C175.272 15.5753 173.291 14.6568 171.738 12.3888C170.204 10.1474 169.091 6.59286 168.652 1.28706H143.383Z" fill="#8F8F8F" stroke="#8F8F8F"/>
<path fill-rule="evenodd" clip-rule="evenodd" d="M62.2886 49.3687H83.385V49.6557H62.5709C62.5134 52.6459 62.128 56.0699 61.2677 59.245C60.3945 62.4678 59.0281 65.4486 57.0052 67.4546C54.9751 69.4677 52.2899 70.492 48.8118 69.8043C45.3654 69.1228 41.1501 66.7626 36.0173 62.0474L12.5321 82.1165C14.4028 84.7368 16.3143 87.9842 17.7217 91.3808C19.1478 94.8222 20.0607 98.4271 19.8809 101.692C19.7007 104.964 18.4228 107.896 15.4703 109.97C12.5458 112.023 7.99597 113.221 1.28706 113.098V146.952C4.16543 146.656 7.45056 146.642 10.485 147.143C13.5723 147.652 16.4182 148.695 18.3055 150.532C20.2018 152.377 21.1131 155.007 20.3576 158.64C19.6082 162.242 17.2193 166.835 12.5289 172.652L34.5884 196.135C36.8976 193.817 39.7665 191.446 42.7796 189.693C45.8358 187.915 49.0562 186.764 51.9982 186.969C54.9532 187.175 57.6054 188.747 59.5114 192.364C61.4012 195.95 62.5595 201.546 62.5733 209.826L95.0177 208.403C95.1928 205.137 95.7223 201.434 96.731 198.063C97.7522 194.651 99.2696 191.563 101.424 189.621C103.588 187.671 106.385 186.888 109.923 188.075C113.424 189.249 117.646 192.351 122.715 198.137L146.622 172.665C144.303 170.474 141.913 167.723 140.115 164.793C138.292 161.822 137.069 158.653 137.165 155.689C137.261 152.715 138.685 149.967 142.112 147.854C145.514 145.756 150.887 144.285 158.897 143.817L160.317 132.883L160.602 132.92L159.151 144.09L159.032 144.097C150.976 144.556 145.622 146.027 142.263 148.098C138.912 150.164 137.545 152.827 137.452 155.699C137.359 158.582 138.55 161.694 140.36 164.643C142.168 167.59 144.585 170.36 146.923 172.554L147.027 172.653L122.708 198.564L122.603 198.445C117.5 192.596 113.285 189.505 109.832 188.347C106.391 187.193 103.702 187.954 101.616 189.835C99.519 191.724 98.0211 194.754 97.006 198.145C95.9919 201.534 95.4646 205.268 95.2976 208.548L95.291 208.679L62.2864 210.126V209.976C62.2864 201.632 61.1268 196.045 59.2575 192.498C57.3929 188.96 54.8242 187.454 51.9783 187.255C49.1194 187.056 45.9588 188.176 42.924 189.941C39.8919 191.705 37.0013 194.104 34.6875 196.442L34.5828 196.548L12.1484 172.666L12.2271 172.569C16.9576 166.72 19.3365 162.139 20.0765 158.581C20.8146 155.033 19.9228 152.507 18.1053 150.738C16.2788 148.96 13.5003 147.931 10.4383 147.426C7.37936 146.922 4.05574 146.944 1.1588 147.254L1 147.271V112.805L1.14657 112.808C7.90631 112.951 12.4304 111.754 15.3053 109.735C18.1734 107.721 19.418 104.876 19.5942 101.677C19.7708 98.4713 18.8741 94.9117 17.4565 91.4907C16.0396 88.0714 14.1066 84.8007 12.2221 82.1767L12.1452 82.0696L36.0244 61.6637L36.1181 61.7501C41.2768 66.5075 45.4754 68.852 48.8675 69.5227C52.2488 70.1913 54.8382 69.1991 56.803 67.2508C58.7749 65.2954 60.1236 62.37 60.9907 59.17C61.8571 55.9723 62.2387 52.5147 62.2864 49.5099L62.2886 49.3687Z" fill="#8F8F8F" stroke="#8F8F8F"/>
<mask id="path-3-inside-1_4568:39834" fill="white">
<path fill-rule="evenodd" clip-rule="evenodd" d="M125.499 130.004C125.499 130.006 125.499 130.008 125.499 130.01C125.474 139.846 122.454 149.442 116.842 157.521C111.228 165.601 103.286 171.779 94.0738 175.234C84.8615 178.688 74.8155 179.255 65.2731 176.858C55.7307 174.462 47.1447 169.215 40.6579 161.818C34.1711 154.421 30.0912 145.223 28.9615 135.449C27.8317 125.675 29.7056 115.79 34.3337 107.107C38.9619 98.4251 46.1246 91.3585 54.8686 86.8481C63.6126 82.3377 73.5229 80.5975 83.2804 81.8592L83.3095 81.634C83.2146 81.6217 83.1197 81.6097 83.0247 81.598C73.3136 80.4005 63.4644 82.1585 54.7645 86.6462C45.9795 91.1778 38.7831 98.2776 34.1333 107.001C29.4835 115.723 27.6008 125.656 28.7359 135.475C29.8709 145.295 33.9699 154.536 40.4871 161.968C47.0043 169.4 55.6307 174.671 65.2178 177.078C74.8049 179.486 84.898 178.917 94.1535 175.446C103.409 171.976 111.388 165.768 117.028 157.65C122.614 149.611 125.643 140.076 125.724 130.292C125.725 130.203 125.725 130.114 125.726 130.025C125.726 130.018 125.726 130.011 125.726 130.005L125.499 130.004Z"/>
</mask>
<path fill-rule="evenodd" clip-rule="evenodd" d="M125.499 130.004C125.499 130.006 125.499 130.008 125.499 130.01C125.474 139.846 122.454 149.442 116.842 157.521C111.228 165.601 103.286 171.779 94.0738 175.234C84.8615 178.688 74.8155 179.255 65.2731 176.858C55.7307 174.462 47.1447 169.215 40.6579 161.818C34.1711 154.421 30.0912 145.223 28.9615 135.449C27.8317 125.675 29.7056 115.79 34.3337 107.107C38.9619 98.4251 46.1246 91.3585 54.8686 86.8481C63.6126 82.3377 73.5229 80.5975 83.2804 81.8592L83.3095 81.634C83.2146 81.6217 83.1197 81.6097 83.0247 81.598C73.3136 80.4005 63.4644 82.1585 54.7645 86.6462C45.9795 91.1778 38.7831 98.2776 34.1333 107.001C29.4835 115.723 27.6008 125.656 28.7359 135.475C29.8709 145.295 33.9699 154.536 40.4871 161.968C47.0043 169.4 55.6307 174.671 65.2178 177.078C74.8049 179.486 84.898 178.917 94.1535 175.446C103.409 171.976 111.388 165.768 117.028 157.65C122.614 149.611 125.643 140.076 125.724 130.292C125.725 130.203 125.725 130.114 125.726 130.025C125.726 130.018 125.726 130.011 125.726 130.005L125.499 130.004Z" fill="#8F8F8F"/>
<path d="M125.499 130.004L125.506 127.004L122.506 126.997L122.499 129.997L125.499 130.004ZM125.499 130.01L128.499 130.017L128.499 130.017L125.499 130.01ZM116.842 157.521L114.378 155.809L116.842 157.521ZM94.0738 175.234L93.0205 172.425L94.0738 175.234ZM65.2731 176.858L64.5423 179.768L65.2731 176.858ZM40.6579 161.818L38.4023 163.796L40.6579 161.818ZM28.9615 135.449L31.9416 135.105L31.9416 135.105L28.9615 135.449ZM34.3337 107.107L31.6864 105.696L31.6864 105.696L34.3337 107.107ZM54.8686 86.8481L56.2439 89.5142L54.8686 86.8481ZM83.2804 81.8592L82.8957 84.8344L85.8709 85.2191L86.2556 82.2439L83.2804 81.8592ZM83.3095 81.634L86.2848 82.0187L86.6695 79.0434L83.6942 78.6587L83.3095 81.634ZM83.0247 81.598L83.392 78.6206L83.3919 78.6205L83.0247 81.598ZM54.7645 86.6462L56.1398 89.3124L54.7645 86.6462ZM34.1333 107.001L31.486 105.589L31.486 105.589L34.1333 107.001ZM28.7359 135.475L25.7557 135.82L28.7359 135.475ZM40.4871 161.968L42.7427 159.99L40.4871 161.968ZM117.028 157.65L119.492 159.362L119.492 159.362L117.028 157.65ZM125.724 130.292L128.724 130.317L128.724 130.316L125.724 130.292ZM125.726 130.025L122.726 130.016L122.726 130.016L125.726 130.025ZM125.726 130.005L128.726 130.013L128.735 127.012L125.733 127.005L125.726 130.005ZM122.499 129.997C122.499 129.997 122.499 129.998 122.499 129.999C122.499 130 122.499 130.001 122.499 130.002L128.499 130.017C128.499 130.017 128.499 130.016 128.499 130.015C128.499 130.014 128.499 130.013 128.499 130.012L122.499 129.997ZM122.499 130.002C122.475 139.23 119.643 148.231 114.378 155.809L119.305 159.233C125.266 150.654 128.472 140.463 128.499 130.017L122.499 130.002ZM114.378 155.809C109.112 163.389 101.662 169.184 93.0205 172.425L95.1271 178.043C104.91 174.374 113.344 167.813 119.305 159.233L114.378 155.809ZM93.0205 172.425C84.3788 175.665 74.9551 176.197 66.0039 173.949L64.5423 179.768C74.6758 182.313 85.3441 181.711 95.1271 178.043L93.0205 172.425ZM66.0039 173.949C57.0526 171.7 48.9984 166.779 42.9135 159.84L38.4023 163.796C45.2909 171.652 54.4088 177.223 64.5423 179.768L66.0039 173.949ZM42.9135 159.84C36.8285 152.901 33.0014 144.273 31.9416 135.105L25.9813 135.794C27.1811 146.173 31.5136 155.94 38.4023 163.796L42.9135 159.84ZM31.9416 135.105C30.8819 125.936 32.6397 116.663 36.9811 108.519L31.6864 105.696C26.7716 114.916 24.7816 125.415 25.9813 135.794L31.9416 135.105ZM36.9811 108.519C41.3225 100.374 48.0416 93.7452 56.2439 89.5142L53.4933 84.1819C44.2077 88.9717 36.6012 96.4761 31.6864 105.696L36.9811 108.519ZM56.2439 89.5142C64.4462 85.2833 73.7426 83.6509 82.8957 84.8344L83.6651 78.884C73.3032 77.5441 62.7789 79.3921 53.4933 84.1819L56.2439 89.5142ZM86.2556 82.2439L86.2848 82.0187L80.3343 81.2492L80.3052 81.4745L86.2556 82.2439ZM83.6942 78.6587C83.5933 78.6457 83.4926 78.633 83.392 78.6206L82.6575 84.5754C82.7468 84.5864 82.8359 84.5977 82.9248 84.6092L83.6942 78.6587ZM83.3919 78.6205C73.082 77.3492 62.6255 79.2157 53.3892 83.98L56.1398 89.3124C64.3033 85.1014 73.5452 83.4517 82.6576 84.5754L83.3919 78.6205ZM53.3892 83.98C44.0626 88.791 36.4225 96.3285 31.486 105.589L36.7807 108.412C41.1438 100.227 47.8965 93.5645 56.1398 89.3124L53.3892 83.98ZM31.486 105.589C26.5494 114.85 24.5507 125.395 25.7557 135.82L31.716 135.131C30.6509 125.917 32.4176 116.597 36.7807 108.412L31.486 105.589ZM25.7557 135.82C26.9607 146.245 31.3124 156.055 38.2315 163.946L42.7427 159.99C36.6273 153.016 32.7811 144.345 31.716 135.131L25.7557 135.82ZM38.2315 163.946C45.1506 171.836 54.3088 177.432 64.487 179.988L65.9485 174.169C56.9526 171.909 48.8581 166.964 42.7427 159.99L38.2315 163.946ZM64.487 179.988C74.6652 182.544 85.3806 181.94 95.2069 178.255L93.1002 172.637C84.4153 175.894 74.9445 176.428 65.9485 174.169L64.487 179.988ZM95.2069 178.255C105.033 174.571 113.504 167.981 119.492 159.362L114.564 155.939C109.272 163.556 101.785 169.381 93.1002 172.637L95.2069 178.255ZM119.492 159.362C125.422 150.827 128.638 140.704 128.724 130.317L122.724 130.267C122.648 139.448 119.806 148.395 114.564 155.939L119.492 159.362ZM128.724 130.316C128.725 130.222 128.725 130.128 128.726 130.033L122.726 130.016C122.725 130.1 122.725 130.183 122.724 130.267L128.724 130.316ZM128.726 130.034C128.726 130.029 128.726 130.025 128.726 130.022C128.726 130.018 128.726 130.016 128.726 130.013L122.726 129.996C122.726 130 122.726 130.005 122.726 130.008C122.726 130.011 122.726 130.014 122.726 130.016L128.726 130.034ZM125.733 127.005L125.506 127.004L125.491 133.004L125.719 133.005L125.733 127.005Z" fill="#8F8F8F" mask="url(#path-3-inside-1_4568:39834)"/>
<mask id="path-5-inside-2_4568:39834" fill="white">
<path d="M84.7895 97.0543C77.7624 95.402 70.3907 96.0478 63.758 98.8967C57.1252 101.746 51.5815 106.647 47.9417 112.881C44.302 119.115 42.7582 126.352 43.5374 133.529C44.3166 140.705 47.3777 147.442 52.2706 152.75C57.1635 158.057 63.6301 161.655 70.7197 163.014C77.8093 164.373 85.1479 163.421 91.6565 160.299C98.1652 157.178 103.501 152.05 106.878 145.67C110.256 139.29 111.498 131.995 110.421 124.857L110.182 124.894C111.251 131.98 110.018 139.223 106.664 145.557C103.311 151.891 98.0138 156.982 91.5518 160.081C85.0899 163.181 77.804 164.125 70.7653 162.776C63.7265 161.427 57.3064 157.855 52.4486 152.586C47.5908 147.316 44.5517 140.628 43.7781 133.503C43.0045 126.378 44.5371 119.192 48.1508 113.003C51.7644 106.814 57.2684 101.948 63.8535 99.1191C70.4386 96.2907 77.7575 95.6495 84.7341 97.2899L84.7895 97.0543Z"/>
</mask>
<path d="M84.7895 97.0543C77.7624 95.402 70.3907 96.0478 63.758 98.8967C57.1252 101.746 51.5815 106.647 47.9417 112.881C44.302 119.115 42.7582 126.352 43.5374 133.529C44.3166 140.705 47.3777 147.442 52.2706 152.75C57.1635 158.057 63.6301 161.655 70.7197 163.014C77.8093 164.373 85.1479 163.421 91.6565 160.299C98.1652 157.178 103.501 152.05 106.878 145.67C110.256 139.29 111.498 131.995 110.421 124.857L110.182 124.894C111.251 131.98 110.018 139.223 106.664 145.557C103.311 151.891 98.0138 156.982 91.5518 160.081C85.0899 163.181 77.804 164.125 70.7653 162.776C63.7265 161.427 57.3064 157.855 52.4486 152.586C47.5908 147.316 44.5517 140.628 43.7781 133.503C43.0045 126.378 44.5371 119.192 48.1508 113.003C51.7644 106.814 57.2684 101.948 63.8535 99.1191C70.4386 96.2907 77.7575 95.6495 84.7341 97.2899L84.7895 97.0543Z" fill="#8F8F8F"/>
<path d="M84.7895 97.0543L87.7098 97.7409L88.3965 94.8206L85.4761 94.1339L84.7895 97.0543ZM110.421 124.857L113.388 124.41L112.94 121.444L109.974 121.891L110.421 124.857ZM110.182 124.894L109.734 121.927L106.768 122.375L107.215 125.341L110.182 124.894ZM84.7341 97.2899L84.0474 100.21L86.9678 100.897L87.6544 97.9766L84.7341 97.2899ZM85.4761 94.1339C77.8241 92.3347 69.7966 93.0379 62.574 96.1402L64.9419 101.653C70.9847 99.0577 77.7008 98.4693 84.1028 99.9746L85.4761 94.1339ZM62.574 96.1402C55.3513 99.2425 49.3145 104.58 45.351 111.369L50.5325 114.394C53.8485 108.714 58.8991 104.249 64.9419 101.653L62.574 96.1402ZM45.351 111.369C41.3875 118.157 39.7064 126.038 40.5549 133.853L46.5199 133.205C45.81 126.667 47.2164 120.073 50.5325 114.394L45.351 111.369ZM40.5549 133.853C41.4035 141.667 44.7368 149.004 50.0649 154.783L54.4763 150.716C50.0186 145.881 47.2298 139.743 46.5199 133.205L40.5549 133.853ZM50.0649 154.783C55.393 160.563 62.4347 164.48 70.1549 165.96L71.2845 160.068C64.8254 158.829 58.934 155.552 54.4763 150.716L50.0649 154.783ZM70.1549 165.96C77.8751 167.44 85.8664 166.404 92.954 163.004L90.3591 157.595C84.4293 160.439 77.7435 161.306 71.2845 160.068L70.1549 165.96ZM92.954 163.004C100.042 159.605 105.851 154.021 109.53 147.074L104.227 144.266C101.15 150.079 96.2888 154.75 90.3591 157.595L92.954 163.004ZM109.53 147.074C113.208 140.127 114.56 132.183 113.388 124.41L107.455 125.305C108.436 131.808 107.304 138.454 104.227 144.266L109.53 147.074ZM109.974 121.891L109.734 121.927L110.629 127.86L110.869 127.824L109.974 121.891ZM107.215 125.341C108.188 131.793 107.066 138.387 104.013 144.153L109.316 146.961C112.97 140.059 114.313 132.168 113.148 124.446L107.215 125.341ZM104.013 144.153C100.96 149.92 96.1374 154.554 90.2544 157.376L92.8493 162.786C99.8901 159.409 105.662 153.862 109.316 146.961L104.013 144.153ZM90.2544 157.376C84.3713 160.198 77.7382 161.058 71.33 159.83L70.2005 165.722C77.8698 167.193 85.8084 166.163 92.8493 162.786L90.2544 157.376ZM71.33 159.83C64.9219 158.601 59.0769 155.35 54.6543 150.552L50.2429 154.619C55.5359 160.361 62.5312 164.252 70.2005 165.722L71.33 159.83ZM54.6543 150.552C50.2317 145.755 47.4649 139.665 46.7605 133.179L40.7956 133.826C41.6385 141.59 44.9499 148.878 50.2429 154.619L54.6543 150.552ZM46.7605 133.179C46.0562 126.692 47.4516 120.151 50.7415 114.516L45.56 111.491C41.6227 118.234 39.9527 126.063 40.7956 133.826L46.7605 133.179ZM50.7415 114.516C54.0314 108.881 59.0423 104.451 65.0375 101.876L62.6695 96.3626C55.4945 99.4445 49.4974 104.747 45.56 111.491L50.7415 114.516ZM65.0375 101.876C71.0326 99.3006 77.6958 98.7168 84.0474 100.21L85.4207 94.3695C77.8191 92.5822 69.8446 93.2808 62.6695 96.3626L65.0375 101.876ZM87.6544 97.9766L87.7098 97.7409L81.8691 96.3676L81.8137 96.6033L87.6544 97.9766Z" fill="#8F8F8F" mask="url(#path-5-inside-2_4568:39834)"/>
<mask id="path-7-inside-3_4568:39834" fill="white">
<path fill-rule="evenodd" clip-rule="evenodd" d="M155.723 84.6769C168.485 84.6769 178.831 74.3311 178.831 61.5689C178.831 48.8067 168.485 38.4609 155.723 38.4609C142.961 38.4609 132.615 48.8067 132.615 61.5689C132.615 74.3311 142.961 84.6769 155.723 84.6769ZM155.723 84.9639C168.644 84.9639 179.118 74.4896 179.118 61.5689C179.118 48.6481 168.644 38.1738 155.723 38.1738C142.802 38.1738 132.328 48.6481 132.328 61.5689C132.328 74.4896 142.802 84.9639 155.723 84.9639Z"/>
</mask>
<path fill-rule="evenodd" clip-rule="evenodd" d="M155.723 84.6769C168.485 84.6769 178.831 74.3311 178.831 61.5689C178.831 48.8067 168.485 38.4609 155.723 38.4609C142.961 38.4609 132.615 48.8067 132.615 61.5689C132.615 74.3311 142.961 84.6769 155.723 84.6769ZM155.723 84.9639C168.644 84.9639 179.118 74.4896 179.118 61.5689C179.118 48.6481 168.644 38.1738 155.723 38.1738C142.802 38.1738 132.328 48.6481 132.328 61.5689C132.328 74.4896 142.802 84.9639 155.723 84.9639Z" fill="#8F8F8F"/>
<path d="M175.831 61.5689C175.831 72.6742 166.828 81.6769 155.723 81.6769V87.6769C170.142 87.6769 181.831 75.9879 181.831 61.5689H175.831ZM155.723 41.4609C166.828 41.4609 175.831 50.4635 175.831 61.5689H181.831C181.831 47.1498 170.142 35.4609 155.723 35.4609V41.4609ZM135.615 61.5689C135.615 50.4635 144.618 41.4609 155.723 41.4609V35.4609C141.304 35.4609 129.615 47.1498 129.615 61.5689H135.615ZM155.723 81.6769C144.618 81.6769 135.615 72.6742 135.615 61.5689H129.615C129.615 75.9879 141.304 87.6769 155.723 87.6769V81.6769ZM176.118 61.5689C176.118 72.8327 166.987 81.9639 155.723 81.9639V87.9639C170.301 87.9639 182.118 76.1464 182.118 61.5689H176.118ZM155.723 41.1738C166.987 41.1738 176.118 50.305 176.118 61.5689H182.118C182.118 46.9913 170.301 35.1738 155.723 35.1738V41.1738ZM135.328 61.5689C135.328 50.305 144.459 41.1738 155.723 41.1738V35.1738C141.146 35.1738 129.328 46.9913 129.328 61.5689H135.328ZM155.723 81.9639C144.459 81.9639 135.328 72.8327 135.328 61.5689H129.328C129.328 76.1464 141.146 87.9639 155.723 87.9639V81.9639Z" fill="#8F8F8F" mask="url(#path-7-inside-3_4568:39834)"/>
<mask id="path-9-inside-4_4568:39834" fill="white">
<path fill-rule="evenodd" clip-rule="evenodd" d="M155.579 99.6038C176.664 99.6038 193.757 82.5108 193.757 61.4254C193.757 40.3401 176.664 23.247 155.579 23.247C134.493 23.247 117.4 40.3401 117.4 61.4254C117.4 82.5108 134.493 99.6038 155.579 99.6038ZM155.579 99.8909C176.823 99.8909 194.044 82.6693 194.044 61.4254C194.044 40.1815 176.823 22.96 155.579 22.96C134.335 22.96 117.113 40.1815 117.113 61.4254C117.113 82.6693 134.335 99.8909 155.579 99.8909Z"/>
</mask>
<path fill-rule="evenodd" clip-rule="evenodd" d="M155.579 99.6038C176.664 99.6038 193.757 82.5108 193.757 61.4254C193.757 40.3401 176.664 23.247 155.579 23.247C134.493 23.247 117.4 40.3401 117.4 61.4254C117.4 82.5108 134.493 99.6038 155.579 99.6038ZM155.579 99.8909C176.823 99.8909 194.044 82.6693 194.044 61.4254C194.044 40.1815 176.823 22.96 155.579 22.96C134.335 22.96 117.113 40.1815 117.113 61.4254C117.113 82.6693 134.335 99.8909 155.579 99.8909Z" fill="#8F8F8F"/>
<path d="M190.757 61.4254C190.757 80.8539 175.007 96.6038 155.579 96.6038V102.604C178.321 102.604 196.757 84.1676 196.757 61.4254H190.757ZM155.579 26.247C175.007 26.247 190.757 41.9969 190.757 61.4254H196.757C196.757 38.6832 178.321 20.247 155.579 20.247V26.247ZM120.4 61.4254C120.4 41.9969 136.15 26.247 155.579 26.247V20.247C132.837 20.247 114.4 38.6832 114.4 61.4254H120.4ZM155.579 96.6038C136.15 96.6038 120.4 80.8539 120.4 61.4254H114.4C114.4 84.1676 132.837 102.604 155.579 102.604V96.6038ZM191.044 61.4254C191.044 81.0125 175.166 96.8909 155.579 96.8909V102.891C178.479 102.891 197.044 84.3262 197.044 61.4254H191.044ZM155.579 25.96C175.166 25.96 191.044 41.8384 191.044 61.4254H197.044C197.044 38.5247 178.479 19.96 155.579 19.96V25.96ZM120.113 61.4254C120.113 41.8384 135.992 25.96 155.579 25.96V19.96C132.678 19.96 114.113 38.5247 114.113 61.4254H120.113ZM155.579 96.8909C135.992 96.8909 120.113 81.0125 120.113 61.4254H114.113C114.113 84.3262 132.678 102.891 155.579 102.891V96.8909Z" fill="#8F8F8F" mask="url(#path-9-inside-4_4568:39834)"/>
</svg>
