<svg width="24" height="24" viewBox="0 0 24 24" fill="none" xmlns="http://www.w3.org/2000/svg">
<path fill-rule="evenodd" clip-rule="evenodd" d="M12 24C18.6274 24 24 18.6274 24 12C24 5.37258 18.6274 0 12 0C5.37258 0 0 5.37258 0 12C0 18.6274 5.37258 24 12 24ZM9.49993 8.25839C10.3656 7.67998 11.405 7.41962 12.4411 7.52167C13.4772 7.62371 14.4458 8.08185 15.182 8.81802L17.3033 6.6967C16.0764 5.46975 14.4619 4.70619 12.7351 4.53611C11.0083 4.36604 9.27596 4.79997 7.83322 5.76398C6.39049 6.72798 5.32664 8.16242 4.82295 9.82287C4.31926 11.4833 4.40689 13.267 5.0709 14.8701C5.73492 16.4732 6.93425 17.7965 8.46453 18.6144C9.9948 19.4324 11.7614 19.6944 13.4632 19.3559C15.165 19.0174 16.6968 18.0992 17.7976 16.7579C18.8984 15.4166 19.5 13.7352 19.5 12V10.5H18H12V13.5H16.2426C16.0698 13.9889 15.8124 14.4479 15.4785 14.8548C14.8181 15.6595 13.899 16.2104 12.8779 16.4135C11.8568 16.6166 10.7969 16.4594 9.87871 15.9686C8.96055 15.4779 8.24095 14.6839 7.84254 13.7221C7.44413 12.7602 7.39155 11.69 7.69377 10.6937C7.99598 9.69745 8.63429 8.83679 9.49993 8.25839Z" fill="#2C2C2C"/>
</svg>
