<svg width="24" height="24" fill="none" xmlns="http://www.w3.org/2000/svg"><path fillRule="evenodd" clipRule="evenodd" d="M22.346 14.814h-1.45a1.633 1.633 0 01-3.266 0H7.208a1.634 1.634 0 01-3.21 0c-1.425 0-2.378-.023-2.86-.987-.493-.986.493-1.48.493-1.48v-1.479h2.042c.163 0 .475-.206.89-.48C5.402 9.833 6.664 9 8 9h4c1.2-.003 2.894.985 3.86 1.548.24.14.436.254.568.32 0 0 1.499.08 3.577.378 1.934.276 2.809 1.03 2.97 2.078.134.872-.3 1.325-.629 1.49zM5.5 10.996H10l-.5-1.5a6.44 6.44 0 01-.145-.003c-.536-.014-2.021-.053-2.855.503-1.498 1-1.001 1-1 1zm8 0H11l-.5-1.5c3.5 0 5 1.5 3 1.5zm-7.155 3.516a.742.742 0 11-1.484 0 .742.742 0 011.484 0zm12.918 1.04a.742.742 0 100-1.486.742.742 0 000 1.485z" fill="#8F8F8F"/></svg>