<svg width="24" height="24" fill="none" xmlns="http://www.w3.org/2000/svg"><path fill-rule="evenodd" clip-rule="evenodd" d="M22.562 15h-1.498a2 2 0 01-4 0h-10a2 2 0 11-4 0H2.061S1.501 15 1 14c-.086-.172-.042-.38.005-.596.028-.133.057-.27.057-.404 0 0 .1-1.3.5-2.5s2-2 2-2S4.7 8 7.5 8c2.938 0 3.563 0 5.062.5l4 2c.167 0 1.04.108 3 .5 2.5.5 4 1.5 4 2.5 0 .8-.666 1.333-1 1.5zM9.063 11V8.5c2.406 0 5.189 1.342 5.877 2.102.194.214-.042.398-.331.398H9.063zm-.5 0h-3c-.333 0-1-.2-1-1 0-1.21 2.667-1.5 4-1.5V11zm-2.5 4a1 1 0 11-2 0 1 1 0 012 0zm13 1a1 1 0 100-2 1 1 0 000 2z" fill="#8F8F8F"/></svg>