<svg width="24" height="24" fill="none" xmlns="http://www.w3.org/2000/svg"><path fill-rule="evenodd" clip-rule="evenodd" d="M12 24c6.627 0 12-5.373 12-12S18.627 0 12 0 0 5.373 0 12s5.373 12 12 12zM10 4.5A5.5 5.5 0 004.5 10v4a5.5 5.5 0 005.5 5.5h4a5.5 5.5 0 005.5-5.5v-4A5.5 5.5 0 0014 4.5h-4zM5.5 10A4.5 4.5 0 0110 5.5h4a4.5 4.5 0 014.5 4.5v4a4.5 4.5 0 01-4.5 4.5h-4A4.5 4.5 0 015.5 14v-4zm6.5 4.889a2.889 2.889 0 100-5.778 2.889 2.889 0 000 5.778zm0 1a3.889 3.889 0 100-7.778 3.889 3.889 0 000 7.778zm3.889-7a.778.778 0 100-1.556.778.778 0 000 1.556z" fill="#fff"/></svg>