<svg width="224" height="480" fill="none" xmlns="http://www.w3.org/2000/svg"><g clip-path="url(#clip0)"><path d="M0 8a8 8 0 018-8h208a8 8 0 018 8v464a8 8 0 01-8 8H8a8 8 0 01-8-8V8z" fill="#fff"/><path d="M120.688 68.998c-2.635.682-4.846-.62-5.527-3.254l-1.137-4.39 4.391-1.137c7.025-1.818 8.213-4.468 8.213-4.468l1.705 6.586c.681 2.634-.62 4.845-3.255 5.527l-4.39 1.136zM46.047 88.314c-2.635.682-4.846-.62-5.527-3.254l-1.705-6.586s2.325 1.74 9.35-.077l4.39-1.136 1.136 4.39c.682 2.635-.62 4.845-3.254 5.527l-4.39 1.136zm83.785-70.872c-1.477-5.708-7.004-8.962-12.712-7.485-4.391 1.136-7.221 4.68-7.955 9.086l-1.55 12.113c-.553-.325-16.178-.966-32.863 3.351-16.684 4.318-30.476 12.572-30.801 13.125l-7.005-8.962c-2.892-3.936-7.2-6.1-12.03-4.85-5.708 1.476-8.962 7.003-7.485 12.711 1.25 4.83 5.232 7.547 9.964 7.728l5.96 15.79c4.014 6.458 13.673 3.958 13.673 3.958l70.251-18.18s9.659-2.5 10.037-10.094l-2.448-16.7c4.163-2.014 6.214-6.761 4.964-11.59z" fill="#FFFCDE"/><path d="M23.553 28.55c6.586-1.704 13.869 1.096 17.216 6.789l3.445 4.261c3.936-2.892 18.963-8.187 28.622-10.687 9.66-2.5 24.929-5.046 29.774-4.425l1.157-6.39c.718-6.276 5.403-11.705 11.989-13.41l1.318-.34c-3.068-11.855-15.114-18.575-26.53-15.621L37.856 2.362c-11.415 2.955-18.575 15.114-15.62 26.53l1.317-.341z" fill="#FFFCDE"/><path fillRule="evenodd" clipRule="evenodd" d="M2.008 114.661l6.956-11.389 34.826 12.777-2.06 13.186-39.722-14.574zm50.32-1.43l-2.94 18.813-.114.733 5.37 1.971a3 3 0 011.783 3.85l-8.985 24.492-6.827-2.505-2.724 7.424a3 3 0 01-3.85 1.783l-4.608-1.691a3 3 0 01-1.783-3.849l2.724-7.424-37.55-13.776-2.723 7.424a3 3 0 01-3.85 1.783l-4.607-1.691a3 3 0 01-1.784-3.849l2.724-7.424-6.827-2.505 8.986-24.492a3 3 0 013.85-1.783l5.37 1.97.387-.633 9.925-16.25a3 3 0 013.593-1.254l42.529 15.603a3 3 0 011.93 3.28zM.306 122.558a3.637 3.637 0 10.066.024l-.066-.024zm37.552 13.777a3.637 3.637 0 10.06.022l-.06-.022z" fill="#FFFCDE"/><path d="M224.661 425.063c-4.722-9.366-13.792-15.616-24.233-16.687-10.442-1.072-20.568 3.208-27.118 11.417L157.563 439.6c-2.612 3.294-4.08 7.25-4.214 11.442-.134 4.191 1.032 8.244 3.42 11.705 2.387 3.461 5.761 5.985 9.724 7.331a19.174 19.174 0 0012.174.087l.257-.097c10.035-3.151 21.036-1.997 30.187 3.221 2.359 1.331 4.918 2.163 7.583 2.436 1.443.148 2.903.125 4.379-.045a19.395 19.395 0 0011.011-5.203 19.34 19.34 0 005.75-10.765c.723-4.156.086-8.303-1.802-12.059l-11.371-22.59zm-61.249-6.338c4.193-1.128 7.61-4.092 9.574-8.294 1.894-4.011 2.251-8.699 1.011-13.23-1.24-4.531-3.908-8.392-7.555-10.893-3.833-2.62-8.246-3.444-12.441-2.292-8.438 2.276-13.185 11.932-10.586 21.525 2.083 7.635 8.186 12.937 14.861 13.622 1.688.173 3.432.031 5.136-.438zm28.038-13.894c10.148 1.042 19.353-7.513 20.542-19.092 1.188-11.579-6.088-21.825-16.236-22.867-10.148-1.041-19.353 7.513-20.542 19.093-1.185 11.554 6.088 21.825 16.236 22.866zm31.238 8.402a15.198 15.198 0 004.666 1.246c7.384.758 15.151-3.888 18.763-11.878 2.079-4.611 2.499-9.664 1.164-14.229-1.413-4.771-4.495-8.452-8.746-10.372-4.226-1.918-9.057-1.796-13.551.341-4.286 2.033-7.799 5.681-9.878 10.291-4.334 9.723-.944 20.758 7.582 24.601zM56.873 319.107a2.886 2.886 0 102.638-5.133 2.886 2.886 0 00-2.639 5.133zm-41.005-27.561l25.672 13.192-2.638 5.135-25.673-13.192 2.639-5.135zm40.688 173.43l51.448-100.123-112.96-58.045-51.448 100.123a2.896 2.896 0 001.248 3.887L52.67 466.224a2.894 2.894 0 003.887-1.248zM4.032 428.252c-22.688-11.658-31.627-39.495-19.969-62.183 11.659-22.688 39.495-31.628 62.183-19.969 22.689 11.658 31.628 39.495 19.97 62.183-11.69 22.672-39.479 31.595-62.184 19.969z" fill="#FFFCDE"/><path d="M43.61 351.233c-19.865-10.207-44.203-2.391-54.41 17.473-10.208 19.864-2.392 44.203 17.472 54.411 19.864 10.207 44.203 2.391 54.41-17.473 10.16-19.849 2.343-44.188-17.472-54.411zm12.338 51.772c-8.74 17.008-29.63 23.717-46.637 14.977-17.008-8.74-23.717-29.629-14.977-46.637.626-1.22 1.3-2.374 2.071-3.479 10.664-15.857 32.188-20.09 48.045-9.427 13.294 8.941 18.724 25.847 13.12 40.857-.45 1.27-.995 2.49-1.622 3.709zm66.568-66.393a2.896 2.896 0 00-1.248-3.887L13.443 277.319a2.895 2.895 0 00-3.887 1.248l-11.872 23.106 112.959 58.044 11.873-23.105zm-79.799-21.534a2.894 2.894 0 01-3.886 1.248l-30.807-15.83a2.896 2.896 0 01-1.248-3.887l5.276-10.269a2.895 2.895 0 013.887-1.248l30.807 15.83a2.896 2.896 0 011.248 3.887l-5.277 10.269zm11.517 9.163a8.638 8.638 0 01-3.744-11.659 8.638 8.638 0 0111.66-3.744 8.638 8.638 0 013.744 11.659 8.638 8.638 0 01-11.66 3.744zm20.538 10.554a8.639 8.639 0 01-3.744-11.66 8.638 8.638 0 0111.66-3.744 8.638 8.638 0 013.744 11.659 8.638 8.638 0 01-11.66 3.745zm20.61 4.1l-2.568-1.32a2.894 2.894 0 01-1.248-3.886 2.894 2.894 0 013.887-1.248l2.567 1.319a2.895 2.895 0 011.248 3.886 2.896 2.896 0 01-3.886 1.249zm12.836 6.595l-2.567-1.319a2.894 2.894 0 01-1.248-3.886 2.894 2.894 0 013.886-1.248l2.567 1.319a2.894 2.894 0 011.248 3.886 2.894 2.894 0 01-3.886 1.248z" fill="#FFFCDE"/><path d="M38.333 361.503c-12.243-6.251-27.189-3.059-35.763 7.706 3.993 2.335 7.559 5.263 10.586 8.766 3.33 3.861 7.394 7.004 11.985 9.2 4.475 2.422 9.412 3.945 14.49 4.404a42.624 42.624 0 0113.258 3.486c3.76-13.238-2.346-27.247-14.556-33.562zm9.13 108.536l-102.69-52.768-1.32 2.568a2.894 2.894 0 001.249 3.886l97.556 50.13a2.896 2.896 0 003.886-1.249l1.32-2.567z" fill="#FFFCDE"/><path d="M22.503 392.31a42.056 42.056 0 01-13.585-10.429 36.058 36.058 0 00-9.483-7.833c-7.288 14.184-1.703 31.576 12.481 38.864 14.184 7.289 31.576 1.704 38.865-12.481a36.265 36.265 0 00-11.89-3.148 42.05 42.05 0 01-16.388-4.973zm54.907-62.649a2.887 2.887 0 102.638-5.137 2.887 2.887 0 00-2.637 5.137z" fill="#FFFCDE"/><path fillRule="evenodd" clipRule="evenodd" d="M139 218.721l35.683-4.766 1.854 13.878-35.683 4.766L139 218.721zm-.128 14.143l-1.854-13.878a2 2 0 011.717-2.247l35.683-4.767a2 2 0 012.247 1.718l1.854 13.878 25.771-3.443a2 2 0 012.247 1.718l2.317 17.344-95.153 12.712-2.317-17.345a1.999 1.999 0 011.717-2.247l25.771-3.443zm70.115 11.314l4.965 37.171a1.999 1.999 0 01-1.717 2.247l-91.189 12.182a2 2 0 01-2.247-1.717l-4.966-37.171 95.154-12.712zm-60.597-.479l23.789-3.178.529 3.965-23.788 3.178-.53-3.965zm25.378 8.717l-23.789 3.177.53 3.965 23.788-3.178-.529-3.964zm2.428-201.643a8 8 0 00-9.555 2.935l-26.579 39.018c-1.309 1.92.532 4.416 2.754 3.734a2.459 2.459 0 013.072 1.628l17.779 57.877a7.999 7.999 0 009.996 5.298l57.104-17.541a8.001 8.001 0 005.298-9.997l-17.779-57.877a2.458 2.458 0 011.628-3.072c2.221-.682 2.343-3.78.182-4.636l-43.9-17.367zm3.778 29.32a4.733 4.733 0 10-2.78-9.05 4.733 4.733 0 002.78 9.05zm11.045 19.832a8 8 0 015.298-9.997l2.805-.861a8 8 0 019.996 5.298l.862 2.805a8 8 0 01-5.298 9.996l-2.805.862a8.001 8.001 0 01-9.997-5.298l-.861-2.805zm26.44 21.591a8 8 0 00-9.997-5.298l-2.805.861a8.001 8.001 0 00-5.298 9.997l.862 2.805a8 8 0 009.996 5.298l2.805-.862a7.999 7.999 0 005.298-9.996l-.861-2.805zm-45.249 13.9a7.999 7.999 0 015.298-9.996l2.805-.862a8 8 0 019.996 5.299l.862 2.804a8 8 0 01-5.298 9.997l-2.805.862a8.001 8.001 0 01-9.997-5.299l-.861-2.805zm9.759-32.71a8 8 0 00-9.997-5.299l-2.805.862a8.001 8.001 0 00-5.298 9.997l.862 2.804a8 8 0 009.996 5.299l2.805-.862a8 8 0 005.298-9.997l-.861-2.804z" fill="#FFFCDE"/><path d="M83.493 244.64v1.404h-3.042V254h-1.674v-7.956h-3.042v-1.404h7.758zm1.204 4.698c0-.828.12-1.548.36-2.16.24-.624.558-1.14.954-1.548a3.873 3.873 0 011.368-.918 4.273 4.273 0 011.584-.306c1.26 0 2.226.396 2.898 1.188.672.78 1.008 1.974 1.008 3.582v.288c0 .108-.006.21-.018.306h-6.408c.072.972.354 1.71.846 2.214s1.26.756 2.304.756c.588 0 1.08-.048 1.476-.144.408-.108.714-.21.918-.306l.234 1.404c-.204.108-.564.222-1.08.342-.504.12-1.08.18-1.728.18-.816 0-1.524-.12-2.124-.36a4.05 4.05 0 01-1.458-1.026 4.264 4.264 0 01-.864-1.53c-.18-.6-.27-1.254-.27-1.962zm6.426-.918c.012-.756-.18-1.374-.576-1.854-.384-.492-.918-.738-1.602-.738-.384 0-.726.078-1.026.234a2.318 2.318 0 00-.738.576c-.204.24-.366.516-.486.828a4.39 4.39 0 00-.216.954h4.644zm9.749 5.58a14.279 14.279 0 00-.486-.882 19.18 19.18 0 00-.63-.99c-.228-.348-.462-.69-.702-1.026-.24-.336-.474-.654-.702-.954-.228.3-.462.624-.702.972-.24.336-.474.678-.702 1.026-.216.336-.42.666-.612.99-.192.324-.354.612-.486.864h-1.728c.42-.816.918-1.644 1.494-2.484a75.98 75.98 0 011.746-2.43l-3.096-4.446h1.89l2.232 3.276 2.25-3.276h1.782l-3.024 4.338c.576.78 1.164 1.608 1.764 2.484.612.864 1.128 1.71 1.548 2.538h-1.836zm11.263 0h-1.674v-4.14h-4.32V254h-1.674v-9.36h1.674v3.816h4.32v-3.816h1.674V254zm10.745-9.36V254h-1.62v-7.128c-.36.456-.756.99-1.188 1.602a65.746 65.746 0 00-1.296 1.908c-.432.648-.846 1.29-1.242 1.926a73.47 73.47 0 00-1.026 1.692h-1.494v-9.36h1.62v6.732a66 66 0 011.062-1.692 48.772 48.772 0 012.502-3.582c.432-.564.834-1.05 1.206-1.458h1.476zm6.294 4.266c.372.264.774.6 1.206 1.008.432.396.852.828 1.26 1.296.42.468.81.948 1.17 1.44.36.48.666.93.918 1.35h-1.98a11.61 11.61 0 00-.936-1.242 18.037 18.037 0 00-1.098-1.242 16.521 16.521 0 00-1.17-1.098 11.43 11.43 0 00-1.116-.846V254h-1.674v-9.36h1.674v4.014c.288-.276.618-.594.99-.954l1.116-1.116c.384-.384.738-.744 1.062-1.08.324-.348.588-.636.792-.864h1.944c-.264.288-.576.618-.936.99-.348.36-.714.732-1.098 1.116l-1.116 1.152-1.008 1.008zm9.416 3.888c.396 0 .744-.006 1.044-.018.312-.024.57-.06.774-.108v-2.79c-.12-.06-.318-.108-.594-.144a5.548 5.548 0 00-.972-.072 6.55 6.55 0 00-.81.054 2.416 2.416 0 00-.774.234c-.228.108-.42.264-.576.468-.156.192-.234.45-.234.774 0 .6.192 1.02.576 1.26.384.228.906.342 1.566.342zm-.144-8.388c.672 0 1.236.09 1.692.27.468.168.84.414 1.116.738.288.312.492.69.612 1.134.12.432.18.912.18 1.44v5.85c-.144.024-.348.06-.612.108-.252.036-.54.072-.864.108-.324.036-.678.066-1.062.09a11.58 11.58 0 01-1.116.054 6.165 6.165 0 01-1.458-.162 3.36 3.36 0 01-1.152-.504 2.42 2.42 0 01-.756-.936c-.18-.384-.27-.846-.27-1.386 0-.516.102-.96.306-1.332.216-.372.504-.672.864-.9a3.96 3.96 0 011.26-.504 6.87 6.87 0 011.512-.162c.168 0 .342.012.522.036.18.012.348.036.504.072a8.05 8.05 0 01.684.126v-.468c0-.276-.03-.546-.09-.81a1.796 1.796 0 00-.324-.72 1.53 1.53 0 00-.648-.504c-.264-.132-.612-.198-1.044-.198-.552 0-1.038.042-1.458.126-.408.072-.714.15-.918.234l-.198-1.386c.216-.096.576-.186 1.08-.27a8.76 8.76 0 011.638-.144zM75.944 277.64v1.404H72.9V287h-1.673v-7.956h-3.042v-1.404h7.757zm8.224 4.698c0-1.092-.27-1.932-.81-2.52-.54-.588-1.26-.882-2.16-.882-.504 0-.9.018-1.188.054a4.748 4.748 0 00-.666.126v5.904c.204.168.498.33.882.486a3.31 3.31 0 001.26.234c.48 0 .888-.084 1.224-.252.348-.18.63-.42.846-.72a3.14 3.14 0 00.468-1.08c.096-.42.144-.87.144-1.35zm1.745 0c0 .708-.096 1.362-.287 1.962-.18.6-.45 1.116-.81 1.548-.36.432-.805.768-1.332 1.008-.516.24-1.11.36-1.782.36a4.43 4.43 0 01-1.44-.216c-.409-.144-.715-.282-.918-.414v3.744H77.67v-12.402c.395-.096.888-.198 1.475-.306.6-.12 1.29-.18 2.07-.18.72 0 1.368.114 1.944.342a4.166 4.166 0 011.476.972c.408.42.72.936.936 1.548.228.6.343 1.278.343 2.034zm5.524 3.456c.396 0 .744-.006 1.044-.018.312-.024.57-.06.774-.108v-2.79c-.12-.06-.318-.108-.594-.144a5.548 5.548 0 00-.972-.072 6.55 6.55 0 00-.81.054 2.416 2.416 0 00-.774.234c-.228.108-.42.264-.576.468-.156.192-.234.45-.234.774 0 .6.192 1.02.576 1.26.384.228.906.342 1.566.342zm-.144-8.388c.672 0 1.236.09 1.692.27.468.168.84.414 1.116.738.288.312.492.69.612 1.134.12.432.18.912.18 1.44v5.85c-.144.024-.348.06-.612.108-.252.036-.54.072-.864.108-.324.036-.678.066-1.062.09a11.58 11.58 0 01-1.116.054 6.165 6.165 0 01-1.458-.162 3.36 3.36 0 01-1.152-.504 2.42 2.42 0 01-.756-.936c-.18-.384-.27-.846-.27-1.386 0-.516.102-.96.306-1.332.216-.372.504-.672.864-.9a3.96 3.96 0 011.26-.504 6.87 6.87 0 011.512-.162c.168 0 .342.012.522.036.18.012.348.036.504.072a8.05 8.05 0 01.684.126v-.468c0-.276-.03-.546-.09-.81a1.796 1.796 0 00-.324-.72 1.53 1.53 0 00-.648-.504c-.264-.132-.612-.198-1.044-.198-.552 0-1.038.042-1.458.126-.408.072-.714.15-.918.234l-.198-1.386c.216-.096.576-.186 1.08-.27a8.76 8.76 0 011.638-.144zM105.341 287h-1.674v-4.14h-4.32V287h-1.674v-9.36h1.674v3.816h4.32v-3.816h1.674V287zm6.947.216c-.756 0-1.422-.12-1.998-.36a4.108 4.108 0 01-1.44-1.008 4.264 4.264 0 01-.864-1.53 6.47 6.47 0 01-.288-1.98c0-.72.102-1.38.306-1.98.216-.6.516-1.116.9-1.548a3.87 3.87 0 011.404-1.026 4.538 4.538 0 011.872-.378c.42 0 .84.036 1.26.108.42.072.822.186 1.206.342l-.378 1.422a4.005 4.005 0 00-.882-.288 4.807 4.807 0 00-1.044-.108c-.936 0-1.656.294-2.16.882-.492.588-.738 1.446-.738 2.574 0 .504.054.966.162 1.386.12.42.3.78.54 1.08.252.3.57.534.954.702.384.156.852.234 1.404.234.444 0 .846-.042 1.206-.126a4.41 4.41 0 00.846-.27l.234 1.404c-.096.06-.234.12-.414.18-.18.048-.384.09-.612.126a6.402 6.402 0 01-.738.108 5.216 5.216 0 01-.738.054zm11.823-.216h-1.674v-7.956h-4.176V287h-1.674v-9.36h7.524V287zm11.145-4.68c0 .744-.108 1.416-.324 2.016a4.532 4.532 0 01-.918 1.548 4.01 4.01 0 01-1.386 1.008 4.489 4.489 0 01-1.764.342 4.489 4.489 0 01-1.764-.342 4.195 4.195 0 01-1.404-1.008 4.693 4.693 0 01-.9-1.548c-.216-.6-.324-1.272-.324-2.016 0-.732.108-1.398.324-1.998a4.66 4.66 0 01.9-1.566 3.987 3.987 0 011.404-.99c.54-.24 1.128-.36 1.764-.36.636 0 1.224.12 1.764.36.54.228 1.002.558 1.386.99.396.432.702.954.918 1.566.216.6.324 1.266.324 1.998zm-1.746 0c0-1.056-.24-1.89-.72-2.502-.468-.624-1.11-.936-1.926-.936-.816 0-1.464.312-1.944.936-.468.612-.702 1.446-.702 2.502 0 1.056.234 1.896.702 2.52.48.612 1.128.918 1.944.918.816 0 1.458-.306 1.926-.918.48-.624.72-1.464.72-2.52zm10.599.018c0-1.092-.27-1.932-.81-2.52-.54-.588-1.26-.882-2.16-.882-.504 0-.9.018-1.188.054a4.748 4.748 0 00-.666.126v5.904c.204.168.498.33.882.486.384.156.804.234 1.26.234.48 0 .888-.084 1.224-.252.348-.18.63-.42.846-.72a3.14 3.14 0 00.468-1.08c.096-.42.144-.87.144-1.35zm1.746 0c0 .708-.096 1.362-.288 1.962-.18.6-.45 1.116-.81 1.548-.36.432-.804.768-1.332 1.008-.516.24-1.11.36-1.782.36a4.43 4.43 0 01-1.44-.216c-.408-.144-.714-.282-.918-.414v3.744h-1.674v-12.402c.396-.096.888-.198 1.476-.306.6-.12 1.29-.18 2.07-.18.72 0 1.368.114 1.944.342a4.166 4.166 0 011.476.972c.408.42.72.936.936 1.548.228.6.342 1.278.342 2.034zm8.962-4.698v1.404h-3.042V287h-1.674v-7.956h-3.042v-1.404h7.758zM57.221 320h-1.674v-4.14h-4.32V320h-1.674v-9.36h1.674v3.816h4.32v-3.816h1.674V320zm2.357-4.662c0-.828.12-1.548.36-2.16.24-.624.558-1.14.954-1.548a3.873 3.873 0 011.368-.918 4.273 4.273 0 011.584-.306c1.26 0 2.226.396 2.898 1.188.672.78 1.008 1.974 1.008 3.582v.288c0 .108-.006.21-.018.306h-6.408c.072.972.354 1.71.846 2.214s1.26.756 2.304.756c.588 0 1.08-.048 1.476-.144.408-.108.714-.21.918-.306l.234 1.404c-.204.108-.564.222-1.08.342-.504.12-1.08.18-1.728.18-.816 0-1.524-.12-2.124-.36a4.05 4.05 0 01-1.458-1.026 4.264 4.264 0 01-.864-1.53c-.18-.6-.27-1.254-.27-1.962zm6.426-.918c.012-.756-.18-1.374-.576-1.854-.384-.492-.918-.738-1.602-.738-.384 0-.726.078-1.026.234a2.318 2.318 0 00-.738.576c-.204.24-.366.516-.486.828a4.39 4.39 0 00-.216.954h4.644zm2.999 4.212h1.008a8.19 8.19 0 00.936-1.782c.24-.612.42-1.242.54-1.89.12-.66.198-1.344.234-2.052.036-.72.06-1.476.072-2.268h6.138v7.992h1.26v3.978h-1.584V320h-7.02v2.61h-1.584v-3.978zm7.254 0v-6.588h-2.934a27.679 27.679 0 01-.09 1.71 16.374 16.374 0 01-.234 1.692 10.136 10.136 0 01-.468 1.638 9.112 9.112 0 01-.738 1.548h4.464zm6.381.108c.072.012.174.024.306.036.132.012.282.024.45.036.168 0 .343.006.522.018h.54c.349 0 .678-.024.99-.072.325-.048.6-.132.829-.252.24-.12.425-.276.557-.468.145-.204.217-.462.217-.774 0-.3-.067-.546-.199-.738a1.31 1.31 0 00-.503-.486 2.35 2.35 0 00-.774-.252 5.702 5.702 0 00-.936-.072h-1.999v3.024zm1.782-4.266c.325 0 .618-.018.882-.054.276-.048.51-.126.702-.234.204-.108.36-.252.468-.432.12-.18.18-.408.18-.684 0-.288-.072-.516-.216-.684a1.309 1.309 0 00-.576-.378 2.562 2.562 0 00-.791-.18 7.105 7.105 0 00-.883-.054c-.276 0-.558.006-.846.018-.276.012-.51.024-.702.036v2.646h1.782zm-.035 5.688c-.709 0-1.363-.036-1.963-.108-.6-.06-1.073-.132-1.421-.216v-9.108c.347-.084.822-.156 1.421-.216.6-.072 1.255-.108 1.963-.108.491 0 .971.042 1.44.126.468.084.882.228 1.242.432.36.192.648.462.864.81.228.336.341.756.341 1.26 0 .456-.114.846-.342 1.17a2.28 2.28 0 01-.918.756c.516.18.924.45 1.225.81.312.348.468.84.468 1.476 0 .564-.114 1.032-.343 1.404a2.45 2.45 0 01-.917.9c-.384.228-.84.384-1.368.468a9.457 9.457 0 01-1.692.144zm14.343-9.522V320h-1.62v-7.128c-.36.456-.756.99-1.188 1.602a65.746 65.746 0 00-1.296 1.908c-.432.648-.846 1.29-1.242 1.926A73.47 73.47 0 0092.356 320h-1.494v-9.36h1.62v6.732a66 66 0 011.062-1.692 48.772 48.772 0 012.502-3.582c.432-.564.834-1.05 1.206-1.458h1.476zm14.412 0c-.24.3-.51.63-.81.99-.3.348-.612.714-.936 1.098a82.64 82.64 0 01-.99 1.116c-.324.372-.636.726-.936 1.062.36.348.732.726 1.116 1.134.384.408.756.834 1.116 1.278.372.432.726.882 1.062 1.35.336.456.63.9.882 1.332h-1.872a16.22 16.22 0 00-.882-1.242 17.7 17.7 0 00-1.026-1.278 16.17 16.17 0 00-1.062-1.134 8.735 8.735 0 00-.972-.882V320h-1.602v-4.536c-.3.228-.63.522-.99.882-.348.348-.702.726-1.062 1.134-.348.408-.69.834-1.026 1.278-.324.432-.612.846-.864 1.242h-1.854c.252-.432.54-.876.864-1.332a28.34 28.34 0 012.178-2.61c.384-.408.756-.786 1.116-1.134-.3-.336-.618-.69-.954-1.062l-.972-1.116c-.324-.384-.636-.75-.936-1.098-.3-.36-.576-.696-.828-1.008h1.854c.432.54.93 1.14 1.494 1.8.564.66 1.224 1.422 1.98 2.286v-4.086h1.602v4.086c.756-.864 1.416-1.626 1.98-2.286.564-.66 1.062-1.26 1.494-1.8h1.836zm10.057 0V320h-1.62v-7.128c-.36.456-.756.99-1.188 1.602a65.746 65.746 0 00-1.296 1.908c-.432.648-.846 1.29-1.242 1.926a73.47 73.47 0 00-1.026 1.692h-1.494v-9.36h1.62v6.732a66 66 0 011.062-1.692 48.772 48.772 0 012.502-3.582c.432-.564.834-1.05 1.206-1.458h1.476zm4.656 2.466a71.187 71.187 0 00-.27 3.564c-.06 1.176-.108 2.286-.144 3.33h-1.602c.024-.732.06-1.494.108-2.286a162.701 162.701 0 01.36-4.806c.072-.792.15-1.548.234-2.268h1.53c.384.624.834 1.482 1.35 2.574.516 1.08 1.11 2.328 1.782 3.744.672-1.416 1.266-2.664 1.782-3.744.516-1.092.966-1.95 1.35-2.574h1.548c.084.72.162 1.476.234 2.268a162.701 162.701 0 01.36 4.806c.048.792.084 1.554.108 2.286h-1.656a202.462 202.462 0 00-.144-3.33 71.187 71.187 0 00-.27-3.564c-.192.372-.414.822-.666 1.35a99.327 99.327 0 00-.756 1.584c-.24.54-.468 1.056-.684 1.548-.216.492-.384.882-.504 1.17h-1.404c-.132-.3-.312-.696-.54-1.188a74.25 74.25 0 00-.702-1.548 39.943 39.943 0 00-.738-1.602 25.734 25.734 0 00-.666-1.314zm19.646 2.214c0 .744-.108 1.416-.324 2.016a4.532 4.532 0 01-.918 1.548 4.01 4.01 0 01-1.386 1.008 4.489 4.489 0 01-1.764.342 4.489 4.489 0 01-1.764-.342 4.195 4.195 0 01-1.404-1.008 4.693 4.693 0 01-.9-1.548c-.216-.6-.324-1.272-.324-2.016 0-.732.108-1.398.324-1.998a4.66 4.66 0 01.9-1.566 3.987 3.987 0 011.404-.99c.54-.24 1.128-.36 1.764-.36.636 0 1.224.12 1.764.36.54.228 1.002.558 1.386.99.396.432.702.954.918 1.566.216.6.324 1.266.324 1.998zm-1.746 0c0-1.056-.24-1.89-.72-2.502-.468-.624-1.11-.936-1.926-.936-.816 0-1.464.312-1.944.936-.468.612-.702 1.446-.702 2.502 0 1.056.234 1.896.702 2.52.48.612 1.128.918 1.944.918.816 0 1.458-.306 1.926-.918.48-.624.72-1.464.72-2.52zm8.169 4.896c-.756 0-1.422-.12-1.998-.36a4.108 4.108 0 01-1.44-1.008 4.264 4.264 0 01-.864-1.53 6.47 6.47 0 01-.288-1.98c0-.72.102-1.38.306-1.98.216-.6.516-1.116.9-1.548a3.87 3.87 0 011.404-1.026 4.538 4.538 0 011.872-.378c.42 0 .84.036 1.26.108.42.072.822.186 1.206.342l-.378 1.422a4.005 4.005 0 00-.882-.288 4.807 4.807 0 00-1.044-.108c-.936 0-1.656.294-2.16.882-.492.588-.738 1.446-.738 2.574 0 .504.054.966.162 1.386.12.42.3.78.54 1.08.252.3.57.534.954.702.384.156.852.234 1.404.234.444 0 .846-.042 1.206-.126a4.41 4.41 0 00.846-.27l.234 1.404c-.096.06-.234.12-.414.18-.18.048-.384.09-.612.126a6.402 6.402 0 01-.738.108 5.216 5.216 0 01-.738.054zm11.169-9.576v1.404h-3.042V320h-1.674v-7.956h-3.042v-1.404h7.758zm5.272 8.19c.708 0 1.266-.138 1.674-.414.408-.276.612-.72.612-1.332 0-.3-.06-.558-.18-.774a1.401 1.401 0 00-.504-.522 1.952 1.952 0 00-.72-.306 3.483 3.483 0 00-.882-.108c-.324 0-.66.012-1.008.036a4.231 4.231 0 00-.864.108v3.222c.072.012.18.024.324.036l.468.036c.18 0 .36.006.54.018h.54zm-3.546.972v-9.162h1.674v3.582a4.34 4.34 0 01.378-.072l.522-.072a9.837 9.837 0 011.17-.072c.516 0 1.002.06 1.458.18.456.108.852.288 1.188.54.348.24.624.558.828.954.204.384.306.846.306 1.386 0 .564-.096 1.044-.288 1.44-.192.396-.468.72-.828.972-.36.252-.792.432-1.296.54-.492.12-1.044.18-1.656.18-.6 0-1.188-.036-1.764-.108-.576-.06-1.14-.156-1.692-.288zm-76.91 28.536c0-1.092-.27-1.932-.81-2.52-.54-.588-1.26-.882-2.16-.882-.504 0-.9.018-1.188.054a4.748 4.748 0 00-.666.126v5.904c.204.168.498.33.882.486.384.156.804.234 1.26.234.48 0 .888-.084 1.224-.252.348-.18.63-.42.846-.72a3.14 3.14 0 00.468-1.08c.096-.42.144-.87.144-1.35zm1.746 0c0 .708-.096 1.362-.288 1.962-.18.6-.45 1.116-.81 1.548-.36.432-.804.768-1.332 1.008-.516.24-1.11.36-1.782.36A4.43 4.43 0 0186 353c-.408-.144-.714-.282-.918-.414v3.744h-1.674v-12.402c.396-.096.888-.198 1.476-.306.6-.12 1.29-.18 2.07-.18.72 0 1.368.114 1.944.342a4.166 4.166 0 011.476.972c.408.42.72.936.936 1.548.228.6.342 1.278.342 2.034zm5.523 3.456c.396 0 .744-.006 1.044-.018.312-.024.57-.06.774-.108v-2.79c-.12-.06-.318-.108-.594-.144a5.548 5.548 0 00-.972-.072 6.55 6.55 0 00-.81.054 2.416 2.416 0 00-.774.234c-.228.108-.42.264-.576.468-.156.192-.234.45-.234.774 0 .6.192 1.02.576 1.26.384.228.906.342 1.566.342zm-.144-8.388c.672 0 1.236.09 1.692.27.468.168.84.414 1.116.738.288.312.492.69.612 1.134.12.432.18.912.18 1.44v5.85c-.144.024-.348.06-.612.108-.252.036-.54.072-.864.108-.324.036-.678.066-1.062.09a11.58 11.58 0 01-1.116.054 6.165 6.165 0 01-1.458-.162 3.36 3.36 0 01-1.152-.504 2.42 2.42 0 01-.756-.936c-.18-.384-.27-.846-.27-1.386 0-.516.102-.96.306-1.332.216-.372.504-.672.864-.9a3.96 3.96 0 011.26-.504 6.87 6.87 0 011.512-.162c.168 0 .342.012.522.036.18.012.348.036.504.072a8.05 8.05 0 01.684.126v-.468c0-.276-.03-.546-.09-.81a1.796 1.796 0 00-.324-.72 1.53 1.53 0 00-.648-.504c-.264-.132-.612-.198-1.044-.198-.552 0-1.038.042-1.458.126-.408.072-.714.15-.918.234l-.198-1.386c.216-.096.576-.186 1.08-.27a8.76 8.76 0 011.638-.144zm7.893 1.314c.372-.3.804-.528 1.296-.684a4.554 4.554 0 011.44-.252c1.344 0 2.358.414 3.042 1.242.696.816 1.044 1.956 1.044 3.42 0 .624-.084 1.224-.252 1.8a4.322 4.322 0 01-.792 1.53 3.762 3.762 0 01-1.332 1.062c-.54.264-1.182.396-1.926.396-.852 0-1.56-.156-2.124-.468a3.634 3.634 0 01-1.35-1.278c-.324-.54-.552-1.17-.684-1.89a12.667 12.667 0 01-.198-2.286c0-1.044.072-2.016.216-2.916.156-.9.432-1.692.828-2.376a4.904 4.904 0 011.638-1.692c.708-.456 1.614-.762 2.718-.918.324-.048.606-.084.846-.108l.648-.09c.192-.024.366-.048.522-.072.156-.036.318-.072.486-.108l.18 1.512a1.791 1.791 0 01-.27.054l-.378.054a44.219 44.219 0 01-1.692.216c-1.188.132-2.1.492-2.736 1.08-.636.588-1.026 1.512-1.17 2.772zm-.108 2.862c0 .564.036 1.098.108 1.602.084.504.222.948.414 1.332.204.384.474.69.81.918.336.216.768.324 1.296.324.456 0 .846-.084 1.17-.252.324-.18.588-.42.792-.72.204-.3.354-.648.45-1.044.096-.408.144-.84.144-1.296 0-.408-.042-.804-.126-1.188a2.68 2.68 0 00-.414-1.026c-.204-.3-.48-.54-.828-.72-.336-.18-.762-.27-1.278-.27-.504 0-.99.108-1.458.324-.456.216-.81.48-1.062.792a6.576 6.576 0 00-.018.558v.666zm17.563.738c0 .744-.108 1.416-.324 2.016a4.532 4.532 0 01-.918 1.548 4.01 4.01 0 01-1.386 1.008 4.489 4.489 0 01-1.764.342 4.489 4.489 0 01-1.764-.342 4.195 4.195 0 01-1.404-1.008 4.693 4.693 0 01-.9-1.548c-.216-.6-.324-1.272-.324-2.016 0-.732.108-1.398.324-1.998a4.66 4.66 0 01.9-1.566 3.987 3.987 0 011.404-.99c.54-.24 1.128-.36 1.764-.36.636 0 1.224.12 1.764.36.54.228 1.002.558 1.386.99.396.432.702.954.918 1.566.216.6.324 1.266.324 1.998zm-1.746 0c0-1.056-.24-1.89-.72-2.502-.468-.624-1.11-.936-1.926-.936-.816 0-1.464.312-1.944.936-.468.612-.702 1.446-.702 2.502 0 1.056.234 1.896.702 2.52.48.612 1.128.918 1.944.918.816 0 1.458-.306 1.926-.918.48-.624.72-1.464.72-2.52zm10.707-4.68v1.404h-3.042V353h-1.674v-7.956h-3.042v-1.404h7.758zm4.894 8.154c.396 0 .744-.006 1.044-.018.312-.024.57-.06.774-.108v-2.79c-.12-.06-.318-.108-.594-.144a5.548 5.548 0 00-.972-.072 6.55 6.55 0 00-.81.054 2.416 2.416 0 00-.774.234c-.228.108-.42.264-.576.468-.156.192-.234.45-.234.774 0 .6.192 1.02.576 1.26.384.228.906.342 1.566.342zm-.144-8.388c.672 0 1.236.09 1.692.27.468.168.84.414 1.116.738.288.312.492.69.612 1.134.12.432.18.912.18 1.44v5.85c-.144.024-.348.06-.612.108-.252.036-.54.072-.864.108-.324.036-.678.066-1.062.09a11.58 11.58 0 01-1.116.054 6.165 6.165 0 01-1.458-.162 3.36 3.36 0 01-1.152-.504 2.42 2.42 0 01-.756-.936c-.18-.384-.27-.846-.27-1.386 0-.516.102-.96.306-1.332.216-.372.504-.672.864-.9a3.96 3.96 0 011.26-.504 6.87 6.87 0 011.512-.162c.168 0 .342.012.522.036.18.012.348.036.504.072a8.05 8.05 0 01.684.126v-.468c0-.276-.03-.546-.09-.81a1.796 1.796 0 00-.324-.72 1.53 1.53 0 00-.648-.504c-.264-.132-.612-.198-1.044-.198-.552 0-1.038.042-1.458.126-.408.072-.714.15-.918.234l-.198-1.386c.216-.096.576-.186 1.08-.27a8.76 8.76 0 011.638-.144zm-51.25 34.314c.373-.3.805-.528 1.297-.684a4.554 4.554 0 011.44-.252c1.344 0 2.358.414 3.042 1.242.696.816 1.044 1.956 1.044 3.42 0 .624-.084 1.224-.252 1.8a4.322 4.322 0 01-.792 1.53 3.762 3.762 0 01-1.332 1.062c-.54.264-1.182.396-1.926.396-.852 0-1.56-.156-2.124-.468a3.634 3.634 0 01-1.35-1.278c-.324-.54-.552-1.17-.684-1.89a12.667 12.667 0 01-.198-2.286c0-1.044.072-2.016.216-2.916.156-.9.432-1.692.828-2.376a4.904 4.904 0 011.638-1.692c.708-.456 1.614-.762 2.718-.918.324-.048.606-.084.846-.108l.648-.09c.192-.024.366-.048.522-.072.156-.036.318-.072.486-.108l.18 1.512a1.791 1.791 0 01-.27.054l-.378.054a44.219 44.219 0 01-1.692.216c-1.188.132-2.1.492-2.736 1.08-.636.588-1.026 1.512-1.17 2.772zm-.107 2.862c0 .564.036 1.098.108 1.602.084.504.222.948.414 1.332.204.384.474.69.81.918.336.216.768.324 1.296.324.456 0 .846-.084 1.17-.252.324-.18.588-.42.792-.72.204-.3.354-.648.45-1.044.096-.408.144-.84.144-1.296 0-.408-.042-.804-.126-1.188a2.68 2.68 0 00-.414-1.026c-.204-.3-.48-.54-.828-.72-.336-.18-.762-.27-1.278-.27-.504 0-.99.108-1.458.324-.456.216-.81.48-1.062.792a6.576 6.576 0 00-.018.558v.666zm17.167-3.942V386h-1.62v-7.128c-.36.456-.756.99-1.188 1.602a65.746 65.746 0 00-1.296 1.908c-.432.648-.846 1.29-1.242 1.926A73.47 73.47 0 0095.529 386h-1.494v-9.36h1.62v6.732a66 66 0 011.062-1.692 48.772 48.772 0 012.502-3.582c.432-.564.834-1.05 1.206-1.458h1.476zm5.25-.234c.54 0 1.044.054 1.512.162.468.108.87.27 1.206.486.336.216.6.486.792.81.192.324.288.702.288 1.134 0 .276-.048.528-.144.756a2.569 2.569 0 01-.846 1.08c-.168.12-.33.204-.486.252.552.168.984.468 1.296.9.324.42.486.954.486 1.602 0 .888-.36 1.548-1.08 1.98-.72.432-1.698.648-2.934.648-.756 0-1.41-.06-1.962-.18-.54-.12-.924-.234-1.152-.342l.288-1.422c.192.072.534.174 1.026.306.504.12 1.104.18 1.8.18.756 0 1.332-.114 1.728-.342.396-.24.594-.594.594-1.062 0-.336-.078-.606-.234-.81a1.362 1.362 0 00-.558-.486 2.503 2.503 0 00-.738-.216 5.483 5.483 0 00-.738-.054h-1.566v-1.332h1.512c.216 0 .438-.012.666-.036.24-.036.456-.102.648-.198.204-.096.372-.228.504-.396.132-.18.198-.414.198-.702 0-.228-.06-.42-.18-.576a1.252 1.252 0 00-.45-.414 2.185 2.185 0 00-.684-.234 3.409 3.409 0 00-.792-.09c-.216 0-.45.018-.702.054a7.294 7.294 0 00-.738.144c-.24.048-.456.102-.648.162a2.27 2.27 0 00-.414.162l-.306-1.44a7.231 7.231 0 011.134-.306c.264-.048.54-.09.828-.126.288-.036.57-.054.846-.054zM121.25 386h-1.674v-4.14h-4.32V386h-1.674v-9.36h1.674v3.816h4.32v-3.816h1.674V386zm2.356-4.662c0-.828.12-1.548.36-2.16.24-.624.558-1.14.954-1.548a3.873 3.873 0 011.368-.918 4.273 4.273 0 011.584-.306c1.26 0 2.226.396 2.898 1.188.672.78 1.008 1.974 1.008 3.582v.288c0 .108-.006.21-.018.306h-6.408c.072.972.354 1.71.846 2.214s1.26.756 2.304.756c.588 0 1.08-.048 1.476-.144.408-.108.714-.21.918-.306l.234 1.404c-.204.108-.564.222-1.08.342-.504.12-1.08.18-1.728.18-.816 0-1.524-.12-2.124-.36a4.05 4.05 0 01-1.458-1.026 4.264 4.264 0 01-.864-1.53c-.18-.6-.27-1.254-.27-1.962zm6.426-.918c.012-.756-.18-1.374-.576-1.854-.384-.492-.918-.738-1.602-.738-.384 0-.726.078-1.026.234a2.318 2.318 0 00-.738.576c-.204.24-.366.516-.486.828a4.39 4.39 0 00-.216.954h4.644zm8.219 5.796c-.756 0-1.422-.12-1.998-.36a4.108 4.108 0 01-1.44-1.008 4.264 4.264 0 01-.864-1.53 6.47 6.47 0 01-.288-1.98c0-.72.102-1.38.306-1.98.216-.6.516-1.116.9-1.548a3.87 3.87 0 011.404-1.026 4.538 4.538 0 011.872-.378c.42 0 .84.036 1.26.108.42.072.822.186 1.206.342l-.378 1.422a4.005 4.005 0 00-.882-.288 4.807 4.807 0 00-1.044-.108c-.936 0-1.656.294-2.16.882-.492.588-.738 1.446-.738 2.574 0 .504.054.966.162 1.386.12.42.3.78.54 1.08.252.3.57.534.954.702.384.156.852.234 1.404.234.444 0 .846-.042 1.206-.126a4.41 4.41 0 00.846-.27l.234 1.404c-.096.06-.234.12-.414.18-.18.048-.384.09-.612.126a6.402 6.402 0 01-.738.108 5.216 5.216 0 01-.738.054zM80.717 409.64c-.24.3-.51.63-.81.99-.3.348-.612.714-.936 1.098a82.64 82.64 0 01-.99 1.116c-.324.372-.636.726-.936 1.062.36.348.732.726 1.116 1.134.384.408.756.834 1.116 1.278.372.432.726.882 1.062 1.35.336.456.63.9.882 1.332H79.35a16.22 16.22 0 00-.882-1.242 17.7 17.7 0 00-1.026-1.278 16.17 16.17 0 00-1.062-1.134 8.735 8.735 0 00-.972-.882V419h-1.602v-4.536c-.3.228-.63.522-.99.882-.348.348-.702.726-1.062 1.134-.348.408-.69.834-1.026 1.278-.324.432-.612.846-.864 1.242H68.01c.252-.432.54-.876.864-1.332a28.34 28.34 0 012.178-2.61c.384-.408.756-.786 1.116-1.134-.3-.336-.618-.69-.954-1.062l-.972-1.116c-.324-.384-.636-.75-.936-1.098-.3-.36-.576-.696-.828-1.008h1.854c.432.54.93 1.14 1.494 1.8.564.66 1.224 1.422 1.98 2.286v-4.086h1.602v4.086c.756-.864 1.416-1.626 1.98-2.286.564-.66 1.062-1.26 1.494-1.8h1.836zm10.057 0V419h-1.62v-7.128c-.36.456-.756.99-1.188 1.602a65.746 65.746 0 00-1.296 1.908c-.432.648-.846 1.29-1.242 1.926A73.47 73.47 0 0084.402 419h-1.494v-9.36h1.62v6.732a66 66 0 011.062-1.692 48.772 48.772 0 012.502-3.582c.432-.564.834-1.05 1.206-1.458h1.476zm4.512 8.1c.072.012.174.024.306.036.132.012.282.024.45.036.168 0 .342.006.522.018h.54c.348 0 .678-.024.99-.072.324-.048.6-.132.828-.252.24-.12.426-.276.558-.468.144-.204.216-.462.216-.774 0-.3-.066-.546-.198-.738a1.31 1.31 0 00-.504-.486 2.35 2.35 0 00-.774-.252 5.702 5.702 0 00-.936-.072h-1.998v3.024zm1.782-4.266c.324 0 .618-.018.882-.054.276-.048.51-.126.702-.234.204-.108.36-.252.468-.432.12-.18.18-.408.18-.684 0-.288-.072-.516-.216-.684a1.309 1.309 0 00-.576-.378 2.562 2.562 0 00-.792-.18 7.105 7.105 0 00-.882-.054c-.276 0-.558.006-.846.018-.276.012-.51.024-.702.036v2.646h1.782zm-.036 5.688c-.708 0-1.362-.036-1.962-.108-.6-.06-1.074-.132-1.422-.216v-9.108c.348-.084.822-.156 1.422-.216.6-.072 1.254-.108 1.962-.108.492 0 .972.042 1.44.126.468.084.882.228 1.242.432.36.192.648.462.864.81.228.336.342.756.342 1.26 0 .456-.114.846-.342 1.17a2.28 2.28 0 01-.918.756c.516.18.924.45 1.224.81.312.348.468.84.468 1.476 0 .564-.114 1.032-.342 1.404a2.45 2.45 0 01-.918.9c-.384.228-.84.384-1.368.468a9.457 9.457 0 01-1.692.144zm14.739-4.842c0 .744-.108 1.416-.324 2.016a4.532 4.532 0 01-.918 1.548 4.01 4.01 0 01-1.386 1.008 4.489 4.489 0 01-1.764.342 4.489 4.489 0 01-1.764-.342 4.195 4.195 0 01-1.404-1.008 4.693 4.693 0 01-.9-1.548c-.216-.6-.324-1.272-.324-2.016 0-.732.108-1.398.324-1.998a4.66 4.66 0 01.9-1.566 3.987 3.987 0 011.404-.99c.54-.24 1.128-.36 1.764-.36.636 0 1.224.12 1.764.36.54.228 1.002.558 1.386.99.396.432.702.954.918 1.566.216.6.324 1.266.324 1.998zm-1.746 0c0-1.056-.24-1.89-.72-2.502-.468-.624-1.11-.936-1.926-.936-.816 0-1.464.312-1.944.936-.468.612-.702 1.446-.702 2.502 0 1.056.234 1.896.702 2.52.48.612 1.128.918 1.944.918.816 0 1.458-.306 1.926-.918.48-.624.72-1.464.72-2.52zm10.708-4.68v1.404h-3.042V419h-1.674v-7.956h-3.042v-1.404h7.758zm9.394 9.36h-1.674v-4.14h-4.32V419h-1.674v-9.36h1.674v3.816h4.32v-3.816h1.674V419zm6.316-4.626c-.324 0-.642.012-.954.036-.3.012-.57.048-.81.108v3.222c.072.012.174.024.306.036l.45.036c.168 0 .336.006.504.018h.45c.732 0 1.296-.138 1.692-.414.396-.276.594-.72.594-1.332 0-.3-.066-.558-.198-.774a1.401 1.401 0 00-.504-.522 1.954 1.954 0 00-.702-.306 3.133 3.133 0 00-.828-.108zm-3.438-4.734h1.674v3.582a8.98 8.98 0 01.882-.144 9.436 9.436 0 011.134-.072c.492 0 .96.06 1.404.18.444.108.834.288 1.17.54.336.24.6.558.792.954.204.384.306.846.306 1.386 0 .564-.096 1.044-.288 1.44-.192.396-.462.72-.81.972a3.343 3.343 0 01-1.26.54c-.492.12-1.032.18-1.62.18-.564 0-1.134-.036-1.71-.108a12.493 12.493 0 01-1.674-.288v-9.162zm10.764 9.36h-1.674v-9.36h1.674V419zm2.355-4.662c0-.828.12-1.548.36-2.16.24-.624.558-1.14.954-1.548a3.873 3.873 0 011.368-.918 4.273 4.273 0 011.584-.306c1.26 0 2.226.396 2.898 1.188.672.78 1.008 1.974 1.008 3.582v.288c0 .108-.006.21-.018.306h-6.408c.072.972.354 1.71.846 2.214s1.26.756 2.304.756c.588 0 1.08-.048 1.476-.144.408-.108.714-.21.918-.306l.234 1.404c-.204.108-.564.222-1.08.342-.504.12-1.08.18-1.728.18-.816 0-1.524-.12-2.124-.36a4.05 4.05 0 01-1.458-1.026 4.264 4.264 0 01-.864-1.53c-.18-.6-.27-1.254-.27-1.962zm6.426-.918c.012-.756-.18-1.374-.576-1.854-.384-.492-.918-.738-1.602-.738-.384 0-.726.078-1.026.234a2.318 2.318 0 00-.738.576c-.204.24-.366.516-.486.828a4.39 4.39 0 00-.216.954h4.644zm-68.411 40.326c.132.06.3.114.504.162.216.06.426.09.63.09.66 0 1.176-.15 1.548-.45.372-.288.708-.762 1.008-1.422a53.684 53.684 0 01-2.124-4.572 41.276 41.276 0 01-1.62-4.914h1.8c.132.54.288 1.122.468 1.746.192.624.402 1.266.63 1.926.228.66.474 1.32.738 1.98.264.66.54 1.296.828 1.908.456-1.26.852-2.508 1.188-3.744.336-1.236.654-2.508.954-3.816h1.728a72.82 72.82 0 01-1.44 5.094 52.458 52.458 0 01-1.71 4.554 8.663 8.663 0 01-.756 1.386 3.98 3.98 0 01-.846.972 3.106 3.106 0 01-1.062.558c-.384.12-.822.18-1.314.18a2.52 2.52 0 01-.414-.036 2.705 2.705 0 01-.432-.072 3.484 3.484 0 01-.378-.09 1.963 1.963 0 01-.234-.09l.306-1.35zm13.902-1.53c-.756 0-1.422-.12-1.998-.36a4.108 4.108 0 01-1.44-1.008 4.264 4.264 0 01-.864-1.53 6.47 6.47 0 01-.288-1.98c0-.72.102-1.38.306-1.98.216-.6.516-1.116.9-1.548a3.87 3.87 0 011.404-1.026 4.538 4.538 0 011.872-.378c.42 0 .84.036 1.26.108.42.072.822.186 1.206.342l-.378 1.422a4 4 0 00-.882-.288 4.807 4.807 0 00-1.044-.108c-.936 0-1.656.294-2.16.882-.492.588-.738 1.446-.738 2.574 0 .504.054.966.162 1.386.12.42.3.78.54 1.08.252.3.57.534.954.702.384.156.852.234 1.404.234.444 0 .846-.042 1.206-.126a4.41 4.41 0 00.846-.27l.234 1.404c-.096.06-.234.12-.414.18-.18.048-.384.09-.612.126a6.402 6.402 0 01-.738.108 5.216 5.216 0 01-.738.054zm7.891-8.172c0 .396-.012.822-.036 1.278a16.982 16.982 0 01-.288 2.682c-.084.432-.192.84-.324 1.224a5.55 5.55 0 01-.504 1.08 3.714 3.714 0 01-.72.9 4.274 4.274 0 01-1.008.648 4.371 4.371 0 01-1.35.324l-.234-1.404c.588-.12 1.05-.342 1.386-.666.348-.324.624-.72.828-1.188.18-.408.312-.87.396-1.386.084-.516.144-1.05.18-1.602.036-.564.054-1.128.054-1.692.012-.564.018-1.098.018-1.602h6.228V452h-1.674v-7.956h-2.952zm6.402 9.702c.132.06.3.114.504.162.216.06.426.09.63.09.66 0 1.176-.15 1.548-.45.372-.288.708-.762 1.008-1.422a53.684 53.684 0 01-2.124-4.572 41.276 41.276 0 01-1.62-4.914h1.8c.132.54.288 1.122.468 1.746.192.624.402 1.266.63 1.926.228.66.474 1.32.738 1.98.264.66.54 1.296.828 1.908.456-1.26.852-2.508 1.188-3.744.336-1.236.654-2.508.954-3.816h1.728a72.82 72.82 0 01-1.44 5.094 52.458 52.458 0 01-1.71 4.554 8.663 8.663 0 01-.756 1.386 3.98 3.98 0 01-.846.972 3.106 3.106 0 01-1.062.558c-.384.12-.822.18-1.314.18a2.52 2.52 0 01-.414-.036 2.705 2.705 0 01-.432-.072 3.484 3.484 0 01-.378-.09 1.963 1.963 0 01-.234-.09l.306-1.35zm15.841-9.702h-4.122V452h-1.674v-9.36h5.796v1.404zm9.594-1.404V452h-1.62v-7.128c-.36.456-.756.99-1.188 1.602a65.746 65.746 0 00-1.296 1.908c-.432.648-.846 1.29-1.242 1.926a73.47 73.47 0 00-1.026 1.692h-1.494v-9.36h1.62v6.732a66 66 0 011.062-1.692 48.772 48.772 0 012.502-3.582c.432-.564.834-1.05 1.206-1.458h1.476zM72.858 26.754V42h-2.134V28.58h-7.326V42h-2.134V26.754h11.594zm13.755 9.526c0 .91-.132 1.73-.396 2.464a5.54 5.54 0 01-1.122 1.892 4.9 4.9 0 01-1.694 1.232 5.486 5.486 0 01-2.156.418c-.778 0-1.496-.14-2.156-.418a5.127 5.127 0 01-1.716-1.232 5.736 5.736 0 01-1.1-1.892c-.264-.733-.396-1.555-.396-2.464 0-.895.132-1.709.396-2.442.264-.748.63-1.386 1.1-1.914a4.873 4.873 0 011.716-1.21 5.249 5.249 0 012.156-.44c.777 0 1.496.147 2.156.44.66.279 1.225.682 1.694 1.21a5.503 5.503 0 011.122 1.914c.264.733.396 1.547.396 2.442zm-2.134 0c0-1.29-.293-2.31-.88-3.058-.572-.763-1.357-1.144-2.354-1.144-.998 0-1.79.381-2.376 1.144-.572.748-.858 1.767-.858 3.058 0 1.29.286 2.317.858 3.08.587.748 1.379 1.122 2.376 1.122.997 0 1.782-.374 2.354-1.122.587-.763.88-1.79.88-3.08zm3.604 4.048h1.232a9.982 9.982 0 001.144-2.178 12.49 12.49 0 00.66-2.31 19.56 19.56 0 00.286-2.508c.044-.88.074-1.804.088-2.772h7.502v9.768h1.54v4.862h-1.936V42h-8.58v3.19h-1.936v-4.862zm8.866 0v-8.052h-3.586a32.31 32.31 0 01-.11 2.09c-.058.69-.154 1.379-.286 2.068a12.38 12.38 0 01-.572 2.002 11.13 11.13 0 01-.902 1.892h5.456zm9.67.198c.484 0 .91-.007 1.276-.022a6.4 6.4 0 00.946-.132v-3.41c-.146-.073-.388-.132-.726-.176a6.767 6.767 0 00-1.188-.088c-.308 0-.638.022-.99.066a2.96 2.96 0 00-.946.286 1.907 1.907 0 00-.704.572c-.19.235-.286.55-.286.946 0 .733.235 1.247.704 1.54.47.279 1.108.418 1.914.418zm-.176-10.252c.822 0 1.511.11 2.068.33.572.205 1.027.506 1.364.902.352.381.602.843.748 1.386.147.528.22 1.115.22 1.76v7.15c-.176.03-.425.073-.748.132-.308.044-.66.088-1.056.132-.396.044-.828.08-1.298.11-.454.044-.909.066-1.364.066a7.539 7.539 0 01-1.782-.198 4.112 4.112 0 01-1.408-.616 2.958 2.958 0 01-.924-1.144c-.22-.47-.33-1.034-.33-1.694 0-.63.125-1.173.374-1.628a3.161 3.161 0 011.056-1.1c.44-.279.954-.484 1.54-.616a8.402 8.402 0 011.848-.198c.206 0 .418.015.638.044.22.015.426.044.616.088a9.618 9.618 0 01.836.154v-.572c0-.337-.036-.667-.11-.99a2.185 2.185 0 00-.396-.88 1.862 1.862 0 00-.792-.616c-.322-.161-.748-.242-1.276-.242-.674 0-1.268.051-1.782.154-.498.088-.872.183-1.122.286l-.242-1.694c.264-.117.704-.227 1.32-.33a10.715 10.715 0 012.002-.176zm9.8 10.186c.088.015.213.03.374.044.162.015.345.03.55.044.206 0 .418.007.638.022h.66c.426 0 .829-.03 1.21-.088a3.157 3.157 0 001.012-.308c.294-.147.521-.337.682-.572.176-.25.264-.565.264-.946 0-.367-.08-.667-.242-.902a1.596 1.596 0 00-.616-.594 2.869 2.869 0 00-.946-.308 6.963 6.963 0 00-1.144-.088h-2.442v3.696zm2.178-5.214c.396 0 .756-.022 1.078-.066a2.67 2.67 0 00.858-.286c.25-.132.44-.308.572-.528.147-.22.22-.499.22-.836 0-.352-.088-.63-.264-.836a1.596 1.596 0 00-.704-.462 3.124 3.124 0 00-.968-.22 8.68 8.68 0 00-1.078-.066c-.337 0-.682.007-1.034.022-.337.015-.623.03-.858.044v3.234h2.178zm-.044 6.952a20.21 20.21 0 01-2.398-.132c-.733-.073-1.312-.161-1.738-.264V30.67c.426-.103 1.005-.19 1.738-.264a20.21 20.21 0 012.398-.132c.602 0 1.188.051 1.76.154a4.764 4.764 0 011.518.528c.44.235.792.565 1.056.99.279.41.418.924.418 1.54 0 .557-.139 1.034-.418 1.43a2.778 2.778 0 01-1.122.924c.631.22 1.13.55 1.496.99.382.425.572 1.027.572 1.804 0 .69-.139 1.261-.418 1.716a2.994 2.994 0 01-1.122 1.1c-.469.279-1.026.47-1.672.572-.645.117-1.334.176-2.068.176zm11.789-1.672c.484 0 .91-.007 1.276-.022a6.4 6.4 0 00.946-.132v-3.41c-.146-.073-.388-.132-.726-.176a6.767 6.767 0 00-1.188-.088c-.308 0-.638.022-.99.066a2.96 2.96 0 00-.946.286 1.907 1.907 0 00-.704.572c-.19.235-.286.55-.286.946 0 .733.235 1.247.704 1.54.47.279 1.108.418 1.914.418zm-.176-10.252c.822 0 1.511.11 2.068.33.572.205 1.027.506 1.364.902.352.381.602.843.748 1.386.147.528.22 1.115.22 1.76v7.15c-.176.03-.425.073-.748.132-.308.044-.66.088-1.056.132-.396.044-.828.08-1.298.11-.454.044-.909.066-1.364.066a7.539 7.539 0 01-1.782-.198 4.112 4.112 0 01-1.408-.616 2.958 2.958 0 01-.924-1.144c-.22-.47-.33-1.034-.33-1.694 0-.63.125-1.173.374-1.628a3.161 3.161 0 011.056-1.1c.44-.279.954-.484 1.54-.616a8.402 8.402 0 011.848-.198c.206 0 .418.015.638.044.22.015.426.044.616.088a9.618 9.618 0 01.836.154v-.572c0-.337-.036-.667-.11-.99a2.185 2.185 0 00-.396-.88 1.862 1.862 0 00-.792-.616c-.322-.161-.748-.242-1.276-.242-.674 0-1.268.051-1.782.154-.498.088-.872.183-1.122.286l-.242-1.694c.264-.117.704-.227 1.32-.33a10.715 10.715 0 012.002-.176zm17.412.286V42h-1.98v-8.712c-.44.557-.924 1.21-1.452 1.958a80.31 80.31 0 00-1.584 2.332 90.141 90.141 0 00-1.518 2.354A89.797 89.797 0 00139.614 42h-1.826V30.56h1.98v8.228c.382-.63.814-1.32 1.298-2.068a59.964 59.964 0 013.058-4.378 27.45 27.45 0 011.474-1.782h1.804zm-4.796-1.848c-.924 0-1.679-.235-2.266-.704-.572-.47-.916-1.122-1.034-1.958l1.562-.418c.118.47.316.85.594 1.144.279.293.66.44 1.144.44.484 0 .866-.147 1.144-.44.279-.293.477-.675.594-1.144l1.54.418c-.117.836-.462 1.489-1.034 1.958-.572.47-1.32.704-2.244.704zm16.383 1.848v1.716h-3.718V42h-2.046v-9.724h-3.718V30.56h9.482zm1.472 5.742c0-1.012.147-1.892.44-2.64.293-.763.682-1.393 1.166-1.892a4.73 4.73 0 011.672-1.122 5.225 5.225 0 011.936-.374c1.54 0 2.721.484 3.542 1.452.821.953 1.232 2.413 1.232 4.378v.352c0 .132-.007.257-.022.374h-7.832c.088 1.188.433 2.09 1.034 2.706.601.616 1.54.924 2.816.924.719 0 1.32-.059 1.804-.176.499-.132.873-.257 1.122-.374l.286 1.716c-.249.132-.689.271-1.32.418-.616.147-1.32.22-2.112.22-.997 0-1.863-.147-2.596-.44-.719-.308-1.313-.726-1.782-1.254a5.221 5.221 0 01-1.056-1.87 8.314 8.314 0 01-.33-2.398zm7.854-1.122c.015-.924-.22-1.68-.704-2.266-.469-.601-1.122-.902-1.958-.902a2.68 2.68 0 00-1.254.286 2.83 2.83 0 00-.902.704c-.249.293-.447.63-.594 1.012-.132.381-.22.77-.264 1.166h5.676zM63.947 69.28c0 .91-.132 1.73-.396 2.464a5.54 5.54 0 01-1.122 1.892 4.9 4.9 0 01-1.694 1.232 5.486 5.486 0 01-2.156.418c-.778 0-1.496-.14-2.156-.418a5.127 5.127 0 01-1.716-1.232 5.736 5.736 0 01-1.1-1.892c-.264-.733-.396-1.555-.396-2.464 0-.895.132-1.709.396-2.442.264-.748.63-1.386 1.1-1.914a4.873 4.873 0 011.716-1.21 5.249 5.249 0 012.156-.44c.777 0 1.496.147 2.156.44.66.279 1.224.682 1.694 1.21a5.503 5.503 0 011.122 1.914c.264.733.396 1.547.396 2.442zm-2.134 0c0-1.29-.294-2.31-.88-3.058-.572-.763-1.357-1.144-2.354-1.144-.998 0-1.79.381-2.376 1.144-.572.748-.858 1.767-.858 3.058 0 1.29.286 2.317.858 3.08.586.748 1.378 1.122 2.376 1.122.997 0 1.782-.374 2.354-1.122.587-.763.88-1.79.88-3.08zm6.86-4.4a4.812 4.812 0 011.584-.836 5.567 5.567 0 011.76-.308c1.643 0 2.882.506 3.718 1.518.851.997 1.276 2.39 1.276 4.18 0 .763-.102 1.496-.308 2.2a5.282 5.282 0 01-.968 1.87 4.598 4.598 0 01-1.628 1.298c-.66.323-1.444.484-2.354.484-1.04 0-1.906-.19-2.596-.572a4.442 4.442 0 01-1.65-1.562c-.396-.66-.674-1.43-.836-2.31a15.485 15.485 0 01-.242-2.794c0-1.276.088-2.464.264-3.564.191-1.1.528-2.068 1.012-2.904a5.995 5.995 0 012.002-2.068c.866-.557 1.973-.931 3.322-1.122.396-.059.741-.103 1.034-.132.308-.044.572-.08.792-.11.235-.03.448-.059.638-.088.191-.044.39-.088.594-.132l.22 1.848c-.102.03-.212.051-.33.066l-.462.066a54.18 54.18 0 01-2.068.264c-1.452.161-2.566.601-3.344 1.32-.777.719-1.254 1.848-1.43 3.388zm-.132 3.498c0 .69.044 1.342.132 1.958.103.616.272 1.159.506 1.628.25.47.58.843.99 1.122.411.264.94.396 1.584.396.558 0 1.034-.103 1.43-.308.396-.22.72-.513.968-.88.25-.367.433-.792.55-1.276a6.895 6.895 0 00.176-1.584c0-.499-.05-.983-.154-1.452a3.275 3.275 0 00-.506-1.254 2.691 2.691 0 00-1.012-.88c-.41-.22-.93-.33-1.562-.33-.616 0-1.21.132-1.782.396-.557.264-.99.587-1.298.968a8.066 8.066 0 00-.022.682v.814zm12.908-3.102h-2.948V63.56h4.994v4.378a5.3 5.3 0 01.462-.088c.206-.03.418-.059.638-.088a11.993 11.993 0 011.43-.088 6.96 6.96 0 011.782.22 3.877 3.877 0 011.452.66c.426.293.763.682 1.012 1.166.25.47.374 1.034.374 1.694 0 .69-.117 1.276-.352 1.76-.234.484-.572.88-1.012 1.188-.44.308-.968.528-1.584.66a8.556 8.556 0 01-2.024.22c-.733 0-1.452-.044-2.156-.132a16.018 16.018 0 01-2.068-.352v-9.482zm4.334 8.294c.866 0 1.548-.169 2.046-.506.5-.337.748-.88.748-1.628 0-.367-.073-.682-.22-.946a1.713 1.713 0 00-.616-.638 2.39 2.39 0 00-.88-.374 4.257 4.257 0 00-1.078-.132c-.396 0-.806.015-1.232.044-.41.015-.762.059-1.056.132v3.938c.088.015.22.03.396.044.176.015.367.03.572.044.22 0 .44.007.66.022h.66zm12.005-3.014h-.638l-.594-.044a29.78 29.78 0 00-1.364 2.266A66.382 66.382 0 0094.048 75H91.98c.176-.425.381-.858.616-1.298.234-.455.47-.895.704-1.32a29.041 29.041 0 011.452-2.244 3.631 3.631 0 01-1.012-.528 2.95 2.95 0 01-.638-.726 2.98 2.98 0 01-.352-.836 4.925 4.925 0 01-.088-.924c0-.645.117-1.21.352-1.694.25-.484.587-.88 1.012-1.188a4.44 4.44 0 011.496-.726 7.2 7.2 0 011.914-.242c.968 0 1.79.044 2.464.132.675.088 1.239.19 1.694.308V75H99.57v-4.444h-1.782zm1.782-5.478a9.08 9.08 0 00-.814-.088c-.367-.03-.792-.044-1.276-.044-.836 0-1.51.176-2.024.528-.514.337-.77.88-.77 1.628 0 .733.264 1.24.792 1.518.528.279 1.21.418 2.046.418h2.046v-3.96zm7.543 8.382c.088.015.212.03.374.044.161.015.344.03.55.044.205 0 .418.007.638.022h.66c.425 0 .828-.03 1.21-.088a3.165 3.165 0 001.012-.308c.293-.147.52-.337.682-.572.176-.25.264-.565.264-.946 0-.367-.081-.667-.242-.902a1.603 1.603 0 00-.616-.594 2.876 2.876 0 00-.946-.308 6.972 6.972 0 00-1.144-.088h-2.442v3.696zm2.178-5.214c.396 0 .755-.022 1.078-.066.337-.059.623-.154.858-.286.249-.132.44-.308.572-.528.146-.22.22-.499.22-.836 0-.352-.088-.63-.264-.836a1.602 1.602 0 00-.704-.462 3.138 3.138 0 00-.968-.22 8.692 8.692 0 00-1.078-.066c-.338 0-.682.007-1.034.022-.338.015-.624.03-.858.044v3.234h2.178zm-.044 6.952c-.866 0-1.665-.044-2.398-.132-.734-.073-1.313-.161-1.738-.264V63.67c.425-.103 1.004-.19 1.738-.264a20.186 20.186 0 012.398-.132c.601 0 1.188.051 1.76.154a4.764 4.764 0 011.518.528c.44.235.792.565 1.056.99.278.41.418.924.418 1.54 0 .557-.14 1.034-.418 1.43a2.791 2.791 0 01-1.122.924c.63.22 1.129.55 1.496.99.381.425.572 1.027.572 1.804 0 .69-.14 1.261-.418 1.716a2.994 2.994 0 01-1.122 1.1c-.47.279-1.027.47-1.672.572a11.57 11.57 0 01-2.068.176zm11.898-9.922c0 .484-.014 1.005-.044 1.562a20.757 20.757 0 01-.352 3.278 10.941 10.941 0 01-.396 1.496 6.69 6.69 0 01-.616 1.32c-.234.41-.528.777-.88 1.1a5.21 5.21 0 01-1.232.792c-.469.205-1.019.337-1.65.396l-.286-1.716c.719-.147 1.284-.418 1.694-.814.426-.396.763-.88 1.012-1.452.22-.499.382-1.063.484-1.694.103-.63.176-1.283.22-1.958.044-.69.066-1.379.066-2.068.015-.69.022-1.342.022-1.958h7.612V75h-2.046v-9.724h-3.608zm8.529 4.026c0-1.012.146-1.892.44-2.64.293-.763.682-1.393 1.166-1.892a4.73 4.73 0 011.672-1.122 5.221 5.221 0 011.936-.374c1.54 0 2.72.484 3.542 1.452.821.953 1.232 2.413 1.232 4.378v.352c0 .132-.008.257-.022.374h-7.832c.088 1.188.432 2.09 1.034 2.706.601.616 1.54.924 2.816.924.718 0 1.32-.059 1.804-.176.498-.132.872-.257 1.122-.374l.286 1.716c-.25.132-.69.271-1.32.418-.616.147-1.32.22-2.112.22-.998 0-1.863-.147-2.596-.44-.719-.308-1.313-.726-1.782-1.254a5.192 5.192 0 01-1.056-1.87 8.314 8.314 0 01-.33-2.398zm7.854-1.122c.014-.924-.22-1.68-.704-2.266-.47-.601-1.122-.902-1.958-.902-.47 0-.888.095-1.254.286a2.83 2.83 0 00-.902.704 3.43 3.43 0 00-.594 1.012c-.132.381-.22.77-.264 1.166h5.676zM151.973 75h-2.046v-5.06h-5.28V75h-2.046V63.56h2.046v4.664h5.28V63.56h2.046V75zm13.132-11.44V75h-1.98v-8.712c-.44.557-.924 1.21-1.452 1.958a80.31 80.31 0 00-1.584 2.332 90.141 90.141 0 00-1.518 2.354A89.797 89.797 0 00157.317 75h-1.826V63.56h1.98v8.228c.382-.63.814-1.32 1.298-2.068a59.964 59.964 0 013.058-4.378 27.45 27.45 0 011.474-1.782h1.804zm8.243 6.996h-.638l-.594-.044c-.469.704-.924 1.46-1.364 2.266A68.523 68.523 0 00169.608 75h-2.068c.176-.425.382-.858.616-1.298.235-.455.47-.895.704-1.32a30.26 30.26 0 011.452-2.244 3.64 3.64 0 01-1.012-.528 2.965 2.965 0 01-.638-.726 3.013 3.013 0 01-.352-.836 4.984 4.984 0 01-.088-.924c0-.645.118-1.21.352-1.694.25-.484.587-.88 1.012-1.188a4.447 4.447 0 011.496-.726 7.204 7.204 0 011.914-.242c.968 0 1.79.044 2.464.132.675.088 1.24.19 1.694.308V75h-2.024v-4.444h-1.782zm1.782-5.478a9.03 9.03 0 00-.814-.088 15.89 15.89 0 00-1.276-.044c-.836 0-1.51.176-2.024.528-.513.337-.77.88-.77 1.628 0 .733.264 1.24.792 1.518.528.279 1.21.418 2.046.418h2.046v-3.96zM59.51 97.88a4.812 4.812 0 011.584-.836 5.567 5.567 0 011.76-.308c1.643 0 2.882.506 3.718 1.518.851.997 1.276 2.391 1.276 4.18 0 .763-.102 1.496-.308 2.2a5.285 5.285 0 01-.968 1.87 4.598 4.598 0 01-1.628 1.298c-.66.323-1.444.484-2.354.484-1.041 0-1.906-.191-2.596-.572a4.44 4.44 0 01-1.65-1.562c-.396-.66-.674-1.43-.836-2.31a15.482 15.482 0 01-.242-2.794c0-1.276.088-2.464.264-3.564.191-1.1.528-2.068 1.012-2.904a5.995 5.995 0 012.002-2.068c.866-.557 1.973-.931 3.322-1.122.396-.059.741-.103 1.034-.132.308-.044.572-.08.792-.11.235-.03.448-.059.638-.088.191-.044.389-.088.594-.132l.22 1.848c-.102.03-.212.051-.33.066l-.462.066a54.18 54.18 0 01-2.068.264c-1.452.161-2.566.601-3.344 1.32-.777.719-1.254 1.848-1.43 3.388zm-.132 3.498c0 .689.044 1.342.132 1.958.103.616.272 1.159.506 1.628.25.469.58.843.99 1.122.411.264.939.396 1.584.396.558 0 1.034-.103 1.43-.308.396-.22.719-.513.968-.88.25-.367.433-.792.55-1.276a6.899 6.899 0 00.176-1.584 6.75 6.75 0 00-.154-1.452 3.279 3.279 0 00-.506-1.254 2.691 2.691 0 00-1.012-.88c-.41-.22-.931-.33-1.562-.33-.616 0-1.21.132-1.782.396-.557.264-.99.587-1.298.968a8.066 8.066 0 00-.022.682v.814zm10.73.924c0-1.012.147-1.892.44-2.64.294-.763.682-1.393 1.166-1.892a4.734 4.734 0 011.672-1.122 5.224 5.224 0 011.936-.374c1.54 0 2.721.484 3.542 1.452.822.953 1.232 2.413 1.232 4.378v.352c0 .132-.007.257-.022.374h-7.832c.088 1.188.433 2.09 1.034 2.706.602.616 1.54.924 2.816.924.719 0 1.32-.059 1.804-.176.499-.132.873-.257 1.122-.374l.286 1.716c-.249.132-.689.271-1.32.418-.616.147-1.32.22-2.112.22-.997 0-1.862-.147-2.596-.44-.718-.308-1.312-.726-1.782-1.254a5.21 5.21 0 01-1.056-1.87 8.314 8.314 0 01-.33-2.398zm7.854-1.122c.015-.924-.22-1.68-.704-2.266-.469-.601-1.122-.902-1.958-.902-.469 0-.887.095-1.254.286a2.83 2.83 0 00-.902.704c-.249.293-.447.63-.594 1.012-.132.381-.22.77-.264 1.166h5.676zm10.045 7.084c-.924 0-1.738-.147-2.442-.44a5.016 5.016 0 01-1.76-1.232 5.21 5.21 0 01-1.056-1.87 7.926 7.926 0 01-.352-2.42c0-.88.125-1.687.374-2.42a5.737 5.737 0 011.1-1.892 4.728 4.728 0 011.716-1.254c.69-.308 1.452-.462 2.288-.462a9.09 9.09 0 011.54.132 7.082 7.082 0 011.474.418l-.462 1.738a4.892 4.892 0 00-1.078-.352 5.875 5.875 0 00-1.276-.132c-1.144 0-2.024.36-2.64 1.078-.6.719-.902 1.767-.902 3.146 0 .616.066 1.181.198 1.694.147.513.367.953.66 1.32.308.367.697.653 1.166.858.47.191 1.042.286 1.716.286a6.48 6.48 0 001.474-.154c.44-.103.785-.213 1.034-.33l.286 1.716a2.445 2.445 0 01-.506.22c-.22.059-.469.11-.748.154a7.65 7.65 0 01-.902.132 6.376 6.376 0 01-.902.066zm14.451-.264h-2.046v-9.724h-5.104V108h-2.046V96.56h9.196V108zm7.505-9.724c0 .484-.015 1.005-.044 1.562a21.723 21.723 0 01-.11 1.65c-.059.543-.14 1.085-.242 1.628a11.226 11.226 0 01-.396 1.496 6.862 6.862 0 01-.616 1.32 4.548 4.548 0 01-.88 1.1 5.23 5.23 0 01-1.232.792c-.47.205-1.02.337-1.65.396l-.286-1.716c.718-.147 1.283-.418 1.694-.814a4.32 4.32 0 001.012-1.452c.22-.499.381-1.063.484-1.694.102-.631.176-1.283.22-1.958.044-.69.066-1.379.066-2.068.014-.69.022-1.342.022-1.958h7.612V108h-2.046v-9.724h-3.608zm13.038 8.25c.484 0 .909-.007 1.276-.022.381-.029.697-.073.946-.132v-3.41c-.147-.073-.389-.132-.726-.176a6.754 6.754 0 00-1.188-.088c-.308 0-.638.022-.99.066a2.945 2.945 0 00-.946.286 1.902 1.902 0 00-.704.572c-.191.235-.286.55-.286.946 0 .733.235 1.247.704 1.54.469.279 1.107.418 1.914.418zm-.176-10.252c.821 0 1.511.11 2.068.33.572.205 1.027.506 1.364.902.352.381.601.843.748 1.386.147.528.22 1.115.22 1.76v7.15c-.176.029-.425.073-.748.132-.308.044-.66.088-1.056.132-.396.044-.829.081-1.298.11-.455.044-.909.066-1.364.066a7.539 7.539 0 01-1.782-.198 4.098 4.098 0 01-1.408-.616 2.958 2.958 0 01-.924-1.144c-.22-.469-.33-1.034-.33-1.694 0-.631.125-1.173.374-1.628a3.161 3.161 0 011.056-1.1c.44-.279.953-.484 1.54-.616a8.402 8.402 0 011.848-.198c.205 0 .418.015.638.044.22.015.425.044.616.088a9.954 9.954 0 01.836.154v-.572c0-.337-.037-.667-.11-.99a2.185 2.185 0 00-.396-.88 1.874 1.874 0 00-.792-.616c-.323-.161-.748-.242-1.276-.242-.675 0-1.269.051-1.782.154-.499.088-.873.183-1.122.286l-.242-1.694c.264-.117.704-.227 1.32-.33a10.707 10.707 0 012.002-.176zm15.872.286v1.716h-3.718V108h-2.046v-9.724h-3.718V96.56h9.482zM150.179 108h-2.046v-5.06h-5.28V108h-2.046V96.56h2.046v4.664h5.28V96.56h2.046V108zm13.617-5.72c0 .909-.132 1.731-.396 2.464a5.542 5.542 0 01-1.122 1.892 4.902 4.902 0 01-1.694 1.232 5.481 5.481 0 01-2.156.418 5.478 5.478 0 01-2.156-.418 5.122 5.122 0 01-1.716-1.232 5.728 5.728 0 01-1.1-1.892c-.264-.733-.396-1.555-.396-2.464 0-.895.132-1.709.396-2.442.264-.748.63-1.386 1.1-1.914a4.873 4.873 0 011.716-1.21 5.247 5.247 0 012.156-.44 5.25 5.25 0 012.156.44 4.67 4.67 0 011.694 1.21 5.503 5.503 0 011.122 1.914c.264.733.396 1.547.396 2.442zm-2.134 0c0-1.291-.294-2.31-.88-3.058-.572-.763-1.357-1.144-2.354-1.144-.998 0-1.79.381-2.376 1.144-.572.748-.858 1.767-.858 3.058s.286 2.317.858 3.08c.586.748 1.378 1.122 2.376 1.122.997 0 1.782-.374 2.354-1.122.586-.763.88-1.789.88-3.08zM60.879 207.833H43.795l-7.627-16.915h-.152l-1.678 16.915H20l3.813-39.849h14.338l-1.525 15.614h.153l10.372-15.614h16.32l-14.337 18.705 11.745 21.144zm93.357 0h-12.878l3.425-39.849h12.877l-3.424 39.849zm55.171 0h-17.084l-7.626-16.915h-.153l-1.678 16.915h-14.338l3.814-39.849h14.338l-1.526 15.614h.153l10.372-15.614H212l-14.338 18.705 11.745 21.144z" fill="#2C2C2C"/><path d="M135.484 172.488c-15.679 16.708-30.761 38.108-34.769 46.444-4.657-8.697-11.48-21.002-20.146-34.211-8.665-13.208-16.463-20.786-23.937-27.39 0 0 .78-2.642-.433-6.279-1.213-3.638-4.694-8.625-6.174-10.177.325.18 2.041 1.375 4.224 2.923 3.358 2.382 6.138 5.124 8.773 7.795.073-.325.802-1.213 1.408-3.898.607-2.684-.18-4.655-.433-5.088 0 0 7.583 5.142 18.63 15.915 12.998 12.674 18.846 21.327 18.846 21.327s5.104-10.477 21.121-27.174c22.746-23.709 41.593-34.319 41.593-34.319s-20.797 16.456-34.011 29.556c-9.666 9.582-17.871 21.111-17.871 21.111s14.814-17.971 33.902-33.886C163.492 120.725 173.826 115 173.826 115s-1.155 1.84-1.624 4.655c-.214 1.282.65 3.14.65 3.14s-5.633 4.625-17.655 15.265c-8.774 7.764-14.731 14.615-14.731 14.615 8.99-8.011 23.721-18.945 35.202-25.766 0 0-6.246 5.413-10.073 11.151-3.624 5.433-3.504 9.635-3.467 10.918l.001.017s-13.54 9.527-26.645 23.493z" fill="url(#paint0_linear)"/></g><defs><linearGradient id="paint0_linear" x1="112.846" y1="115" x2="112.846" y2="218.932" gradientUnits="userSpaceOnUse"><stop stopColor="#52B9C5"/><stop offset="1" stopColor="#00A0AB"/></linearGradient><clipPath id="clip0"><path d="M0 8a8 8 0 018-8h208a8 8 0 018 8v464a8 8 0 01-8 8H8a8 8 0 01-8-8V8z" fill="#fff"/></clipPath></defs></svg>