<svg width="224" height="480" fill="none" xmlns="http://www.w3.org/2000/svg"><g clip-path="url(#clip0)"><path d="M0 8a8 8 0 018-8h208a8 8 0 018 8v464a8 8 0 01-8 8H8a8 8 0 01-8-8V8z" fill="#E5F5F7"/><path fillRule="evenodd" clipRule="evenodd" d="M30.031 201.837a1 1 0 00-1.414 0l-17.34 17.339a1 1 0 000 1.414l50.158 50.157a1 1 0 001.414 0l17.339-17.339a1 1 0 000-1.414L30.03 201.837zm-5.133 14.206a1 1 0 010-1.414l5.362-5.362a1 1 0 011.414 0L71.6 249.191a1 1 0 010 1.414l-5.362 5.362a1 1 0 01-1.415 0l-39.924-39.924z" fill="#fff"/><path d="M71.47 262l4.737 4.763-16.409 16.409-30.474-30.474L22.023 260" stroke="#fff" strokeOpacity=".74" strokeWidth="4" strokeLinejoin="round"/><rect x="15.259" y="252.701" width="19.891" height="53.042" rx="1" transform="rotate(45 15.26 252.701)" fill="#fff"/><path d="M75.5 242.616L37.062 204.18a1 1 0 010-1.414l22.028-22.028c.39-.39 1.047-.399 1.322.08 1.24 2.161-.615 4.937-.615 13.278 0 4.588 0 4.686 4.392 9.081a.987.987 0 00.71.292c4.503-.072 8.254-1.323 11.306-2.34 6.882-2.294 7.03-2.343 11.425 2.048a.958.958 0 01.287.71c-.186 4.47-3.384 7.667-7.023 11.307-3.75 3.75-2.345 7.032 0 9.376 1.468 1.468 3.938.378 4.548.073.094-.047.188-.082.29-.102.94-.178 6.032-1.09 8.348-.427.531.152.562.773.171 1.164l-17.339 17.338a1 1 0 01-1.414 0zm48.846-102.826l-18.889 3.336c-3.466.613-5.8 3.88-5.191 7.326l12.085 68.424c.609 3.446 3.921 5.716 7.387 5.104l18.888-3.336c3.487-.616 5.797-3.901 5.192-7.326l-12.086-68.424c-.608-3.446-3.899-5.72-7.386-5.104zm-4.75 64.968c-1.743.308-3.401-.838-3.705-2.561-.305-1.723.861-3.367 2.604-3.675 1.744-.308 3.401.838 3.706 2.561.304 1.723-.861 3.367-2.605 3.675zm9.144-40.088l-18.888 3.336-1.098-6.215 18.888-3.336 1.098 6.215zm-2.199-12.45l-18.888 3.336-1.098-6.215 18.888-3.336 1.098 6.215zm50.797 48.748l-1.098-6.215-18.888 3.336 1.097 6.215c-3.487.616-5.796 3.9-5.191 7.325l31.466-5.557c-.605-3.426-3.899-5.72-7.386-5.104z" fill="#fff"/><path d="M191.39 115.112l-75.532 13.34c-3.487.616-5.796 3.901-5.191 7.326l6.289-1.111 18.888-3.336 56.644-10.005 8.788 49.759-56.643 10.005 2.199 12.45 56.643-10.005c3.487-.616 5.797-3.9 5.192-7.325l-9.89-55.995c-.605-3.425-3.921-5.716-7.387-5.103zm-26.242 71.978c-1.743.308-3.401-.838-3.705-2.561-.305-1.722.861-3.366 2.604-3.674 1.744-.308 3.401.837 3.706 2.56.304 1.723-.861 3.367-2.605 3.675z" fill="#fff"/><path fillRule="evenodd" clipRule="evenodd" d="M108.257 50.714c-.498.82.334 1.804 1.226 1.447l15.715-6.274a1 1 0 011.299.558l26.839 67.221a1 1 0 001.299.558l76.987-30.739a1 1 0 00.558-1.3l-26.838-67.22a1 1 0 01.557-1.3l18.177-7.256c.901-.36.813-1.664-.129-1.9l-75.356-18.816a1 1 0 00-1.097.451l-39.237 64.57zm53.392-30.705a5.306 5.306 0 10-3.935-9.856 5.306 5.306 0 003.935 9.856zm11.2 13.744a1 1 0 01.558-1.3l17.854-7.128a1 1 0 011.299.558l7.128 17.853a1 1 0 01-.557 1.3l-17.854 7.128a1 1 0 01-1.3-.558l-7.128-17.853zm12.364 28.27a1 1 0 00-.558 1.3l7.129 17.853a1 1 0 001.299.558l17.854-7.128a1 1 0 00.558-1.3l-7.129-17.854a1 1 0 00-1.299-.558l-17.854 7.129zm-30.124 13.104a1 1 0 01.558-1.3L173.5 66.7a1 1 0 011.3.558l7.128 17.854a1 1 0 01-.558 1.3l-17.853 7.128a1 1 0 01-1.3-.558l-7.128-17.854zm-11.248-30.869a1 1 0 00-.558 1.3l7.128 17.853a1 1 0 001.3.558l17.853-7.128a1 1 0 00.558-1.3l-7.128-17.853a1 1 0 00-1.3-.558l-17.853 7.128z" fill="#fff"/><path d="M149.695 374.744c-3.114-.498-4.858-2.907-4.36-6.021l1.245-7.786s1.662 2.927 9.967 4.256l5.191.83-.83 5.191c-.499 3.115-2.907 4.859-6.022 4.361l-5.191-.831zm121.881-36.401c1.08-6.748-3.281-12.769-10.029-13.849-5.191-.83-9.842 1.62-12.665 5.96l-7.267 12.146c-.436-.602-16.736-8.533-36.462-11.688-19.725-3.156-38.205-.788-38.807-.352l-3.281-12.77c-1.246-5.523-4.817-9.821-10.527-10.734-6.748-1.08-12.77 3.281-13.849 10.029-.914 5.71 2.056 10.444 6.998 12.832l-.997 19.538c1.267 8.721 12.687 10.548 12.687 10.548l83.055 13.286s11.42 1.827 15.344-6.063l5.149-18.875c5.357-.207 9.738-4.298 10.651-10.008z" fill="#fff"/><path d="M153.535 300.826c7.786 1.246 14.223 7.599 15.137 15.199l1.682 6.125c5.523-1.246 23.94.103 35.36 1.93 11.42 1.827 28.82 6.207 33.679 9.114l4.194-6.25c3.675-6.333 11.171-9.925 18.957-8.68l1.557.249c2.242-14.015-7.434-26.743-20.93-28.902l-62.291-9.964c-13.497-2.159-26.744 7.434-28.903 20.93l1.558.249z" fill="#fff"/><path fillRule="evenodd" clipRule="evenodd" d="M-8.152 389.551l4.477-34.661 83.998-5.736 9.148 33.73-97.623 6.667zm-8.138.556l5.207-40.31a3 3 0 012.77-2.609l92.184-6.295a2.999 2.999 0 013.1 2.207l10.638 39.228 13.866-.947a3 3 0 013.198 2.789l3.636 53.242-14.059.96 1.236 18.095a3 3 0 01-2.789 3.197l-15.102 1.031a3 3 0 01-3.198-2.788l-1.235-18.094-77.324 5.28 1.236 18.096a3 3 0 01-2.789 3.197l-15.102 1.032a3 3 0 01-3.198-2.789l-1.236-18.096-14.058.961-3.636-53.243a3 3 0 012.788-3.197l13.867-.947zm97.531 21.588a7.046 7.046 0 10-.96-14.059 7.046 7.046 0 00.96 14.059zm-70.774-2.229a7.045 7.045 0 11-14.058.96 7.045 7.045 0 0114.058-.96z" fill="#fff"/><path d="M75.062 285.336c-4.354-.37-5.592 1.664-5.092 3.664h4.5l4.5 1s.741-4.27-3.908-4.664z" fill="#fff"/><path fillRule="evenodd" clipRule="evenodd" d="M86.032 291.627c-1.623-.661-3.342-1.1-5.348-1.572l-1.682 19.825a.91.91 0 11-1.814-.154l1.703-20.082a44.793 44.793 0 00-9.056-.949l-1.718 20.262a.91.91 0 11-1.815-.154l1.703-20.078a42.15 42.15 0 00-.917.043c-1.78.102-3.282.241-4.609.476l-.696 8.212a.91.91 0 11-1.815-.154l.648-7.631c-2.492.725-4.426 2.001-6.767 4.37-3.883 3.93-8.158 12.482-9.034 20.451a.981.981 0 00.573.997l.927.429c5.08 2.355 12.918 5.989 25.183 7.029 12.69 1.077 18.68-.533 23.819-1.915 1.361-.366 2.663-.716 4.014-.996a1 1 0 00.807-.905c.331-5.044-.023-14.176-5.544-20.721-2.542-3.012-4.648-4.778-6.805-5.952l-.606 7.152a.91.91 0 11-1.815-.154l.664-7.829zM69.36 337.385c-21.63-1.835-28.694-10.028-26.113-18.511.17-.562.81-.807 1.339-.549 4.751 2.314 14.01 6.269 26.681 7.344 15.566 1.32 23.959-1.645 27.108-2.757 1.003-.355 1.474-.521 1.475-.301.061 10.055-2.369 17.159-30.49 14.774zM17.442 118.916a4 4 0 012.914-4.849l22.757-5.673a4 4 0 014.849 2.914l1.012 4.059a4 4 0 01-2.914 4.849l-22.757 5.672a4 4 0 01-4.849-2.913l-1.012-4.059zm-3.842 9.391a4 4 0 002.913-4.849l-1.979-7.94a2 2 0 011.457-2.424l30.52-7.608a2 2 0 012.424 1.457l1.98 7.94a4 4 0 004.848 2.914l18.259-4.552a2 2 0 012.424 1.457l2.715 10.893a4 4 0 01-2.913 4.848l-78.196 19.493a.5.5 0 10.242.97l78.196-19.492a4 4 0 014.848 2.913l7.004 28.095a2 2 0 01-1.457 2.425L8.204 184.46a2 2 0 01-2.425-1.457l-11.895-47.72a2 2 0 011.457-2.424l18.259-4.552zm13.763 9.357a1.773 1.773 0 011.29-2.149l17.201-4.287a1.772 1.772 0 11.858 3.44l-17.2 4.287a1.772 1.772 0 01-2.15-1.291zm23.213 5.176a1.772 1.772 0 00-2.149-1.291l-17.2 4.287a1.773 1.773 0 00.857 3.44l17.2-4.287a1.773 1.773 0 001.292-2.149z" fill="#fff"/><path d="M137.891 271.539a17.079 17.079 0 00-9.374-13.527c-5.251-2.628-11.395-2.394-16.447.604l-12.16 7.245a10.794 10.794 0 00-4.47 5.151 10.839 10.839 0 00-.528 6.801 10.761 10.761 0 003.636 5.761 10.724 10.724 0 006.352 2.455h.154c5.873.338 11.4 3.12 15.154 7.662a10.863 10.863 0 003.485 2.775c.726.363 1.494.64 2.3.843 2.275.554 4.631.363 6.79-.542a10.817 10.817 0 005.14-4.493 10.772 10.772 0 001.445-6.665l-1.477-14.07zm-30.788-15.44c2.417.24 4.791-.634 6.65-2.444 1.786-1.723 2.901-4.105 3.149-6.721.248-2.616-.383-5.164-1.796-7.195-1.487-2.129-3.632-3.434-6.055-3.661-4.865-.48-9.26 3.631-9.8 9.164-.422 4.407 1.722 8.389 5.078 10.069.849.425 1.79.696 2.774.788zm17.419-1.717c5.103 2.553 11.612-.1 14.526-5.922 2.914-5.823 1.136-12.623-3.967-15.177-5.102-2.554-11.612.099-14.526 5.921-2.908 5.811-1.136 12.624 3.967 15.178zm14.678 10.58a8.515 8.515 0 002.195 1.575c3.713 1.858 8.696.966 12.167-2.5 2.001-2 3.221-4.56 3.426-7.213.205-2.776-.678-5.311-2.522-7.158-1.831-1.84-4.383-2.732-7.157-2.504-2.645.215-5.204 1.428-7.205 3.428-4.192 4.229-4.603 10.673-.904 14.372zm20.094 8.514c-2.217-4.357-8.04-5.871-12.987-3.36-4.947 2.512-7.166 8.113-4.962 12.464.805 1.588 2.089 2.8 3.639 3.575 2.692 1.348 6.198 1.379 9.349-.215 4.94-2.5 7.159-8.1 4.961-12.464zM63.238 17.422c-3.07.371-5.678.874-7.904 1.616 10.615 19.207 14.76 43.473 15.782 61.063 10.538-11.1 17.214-26.12 17.854-42.757-7.264-9.246-16.856-20.982-25.732-19.922zM.086.836C7.555-.78 14.563-4.674 20.165-8.781 8.5-17.099-1.22-21.417-3.163-22.238c-12.124 6.781-21.792 17.563-27.42 30.65 7.316-3.02 15.245-4.556 23.047-6.066 2.506-.477 5.115-.98 7.622-1.51z" fill="#fff"/><path d="M43.288 2.716c.665.688 1.33 1.404 1.995 2.119a67.948 67.948 0 016.676 8.61c2.942-1.166 6.42-1.96 10.59-2.464 9.796-1.14 18.518 6.888 25.987 15.736-1.612-13.405-7.162-25.564-15.45-35.128-4.527.556-9.566 1.51-14.681 3.1-3.377 1.033-8.722 3.867-15.117 8.027zM35.077 36.15c2.558-9.006 5.525-15.47 11.28-19.682-1.739-2.57-3.58-4.98-5.601-7.18a100.286 100.286 0 00-2.814-2.94C14.845 22.614-16.77 52.523-19.634 78.432c9.591 10.888 22.739 18.332 37.523 20.451 5.397-11.1 10.461-33.67 13.454-47.102 1.458-6.464 2.711-12.027 3.734-15.63z" fill="#fff"/><path d="M8.885 21.87C16.942 14.186 25.435 7.3 33.21 1.761c-2.583-2.384-5.192-4.556-7.75-6.57C19.014.226 10.548 5.18 1.34 7.167c-2.584.556-5.218 1.06-7.776 1.563-9.822 1.88-19.26 3.735-27.215 8.318a67.408 67.408 0 00-2.38 17.723c0 13.75 4.144 26.492 11.204 36.982 4.604-18.782 20.31-37.062 33.712-49.883zm32.178 16.11c-.972 3.418-2.2 8.902-3.632 15.26-4.195 18.756-8.236 35.525-12.943 46.201.665.026 1.33.053 1.995.053 14.58 0 27.957-5.166 38.598-13.829-.41-18.411-4.681-44.426-15.398-63.739-4.144 3.206-6.395 8.24-8.62 16.054zm193.093 384.659c-.771-6.713-.771-6.713-1.766-15.566-1.582-6.097-10.782-11.84-10.782-11.84-6.489-4.055-12.612-6.696-12.612-6.696l1.634-7.674c-5.074-4.422-10.945-6.675-15.101-7.56l-5.756-1.226c-4.224-.565-10.435-1.219-16.872.753l-1.634 7.673s-6.667-.082-14.245.978c.09-.427-11.439 2.536-15.556 6.232-3.74 6.152-6.748 13.752-6.748 13.752-2.869 4.361-15.518 41.483-20.639 71.81l1.598.341-.136.639c-.408 1.919.918 3.538 2.837 3.947l7.993 1.702c1.918.408 3.789-.53 4.198-2.449l.136-.639 1.599.34s8.477-47.661 19.378-58.041l-9.396 44.124-.817 3.836-2.315 10.871s14.463 7.425 27.116 10.788l23.285-109.35s-7.103-1.178-11.239-3.73c-1.027.115.613-2.878 10.205-.835l5.755 1.225c9.593 2.043 10.259 5.193 10.259 5.193-4.565 1.033-11.463-1.104-11.463-1.104l-23.285 109.35c12.926 2.084 29.158 1.195 29.158 1.195l2.247-10.551.817-3.837 9.464-44.444c5.726 13.921-5.949 60.901-5.949 60.901l1.598.341-.136.639c-.408 1.919.918 3.538 2.836 3.946l7.994 1.703c1.918.408 3.789-.53 4.198-2.449l.136-.639 1.599.34c7.678-29.783 9.88-57.39 10.407-73.989z" fill="#fff"/><path d="M24.808 37v4.07h-2.024v-5.896h1.606a9.316 9.316 0 001.716-2.816c.41-1.041.704-2.134.88-3.278.19-1.159.3-2.354.33-3.586.044-1.232.073-2.479.088-3.74h8.624v13.42h1.914v5.896h-2.024V37h-11.11zm4.686-13.42c-.044.968-.096 1.958-.154 2.97a23.044 23.044 0 01-.33 2.992c-.162.983-.404 1.95-.726 2.904a11.303 11.303 0 01-1.364 2.728h6.974V23.58h-4.4zm20.694 7.7c0 .91-.132 1.73-.396 2.464a5.54 5.54 0 01-1.122 1.892 4.9 4.9 0 01-1.694 1.232 5.486 5.486 0 01-2.156.418 5.5 5.5 0 01-2.156-.418 5.127 5.127 0 01-1.716-1.232 5.736 5.736 0 01-1.1-1.892c-.264-.733-.396-1.555-.396-2.464 0-.895.132-1.709.396-2.442.264-.748.63-1.386 1.1-1.914a4.873 4.873 0 011.716-1.21 5.249 5.249 0 012.156-.44c.777 0 1.496.147 2.156.44.66.279 1.225.682 1.694 1.21a5.503 5.503 0 011.122 1.914c.264.733.396 1.547.396 2.442zm-2.134 0c0-1.29-.293-2.31-.88-3.058-.572-.763-1.357-1.144-2.354-1.144-.997 0-1.79.381-2.376 1.144-.572.748-.858 1.767-.858 3.058 0 1.29.286 2.317.858 3.08.587.748 1.379 1.122 2.376 1.122.997 0 1.782-.374 2.354-1.122.587-.763.88-1.79.88-3.08zM62.263 37h-2.046v-9.724h-5.104V37h-2.046V25.56h9.196V37zm13.62-5.72c0 .91-.132 1.73-.396 2.464a5.54 5.54 0 01-1.122 1.892 4.9 4.9 0 01-1.694 1.232 5.486 5.486 0 01-2.156.418 5.5 5.5 0 01-2.156-.418 5.127 5.127 0 01-1.716-1.232 5.737 5.737 0 01-1.1-1.892c-.264-.733-.396-1.555-.396-2.464 0-.895.132-1.709.396-2.442.264-.748.631-1.386 1.1-1.914a4.873 4.873 0 011.716-1.21 5.249 5.249 0 012.156-.44c.778 0 1.496.147 2.156.44.66.279 1.225.682 1.694 1.21a5.503 5.503 0 011.122 1.914c.264.733.396 1.547.396 2.442zm-2.134 0c0-1.29-.293-2.31-.88-3.058-.572-.763-1.356-1.144-2.354-1.144-.997 0-1.789.381-2.376 1.144-.572.748-.858 1.767-.858 3.058 0 1.29.286 2.317.858 3.08.587.748 1.38 1.122 2.376 1.122.998 0 1.782-.374 2.354-1.122.587-.763.88-1.79.88-3.08zm8.995-4.004c0 .484-.015 1.005-.044 1.562a21.288 21.288 0 01-.11 1.65c-.059.543-.14 1.085-.242 1.628a11.147 11.147 0 01-.396 1.496c-.161.47-.367.91-.616 1.32a4.54 4.54 0 01-.88 1.1 5.224 5.224 0 01-1.232.792c-.47.205-1.02.337-1.65.396l-.286-1.716c.719-.147 1.283-.418 1.694-.814.425-.396.763-.88 1.012-1.452.22-.499.381-1.063.484-1.694a20.5 20.5 0 00.22-1.958c.044-.69.066-1.379.066-2.068.015-.69.022-1.342.022-1.958h7.612V37h-2.046v-9.724h-3.608zM101.282 37h-2.046v-5.06h-5.28V37H91.91V25.56h2.046v4.664h5.28V25.56h2.046V37zm13.133-11.44V37h-1.98v-8.712c-.44.557-.924 1.21-1.452 1.958a80.31 80.31 0 00-1.584 2.332 90.141 90.141 0 00-1.518 2.354A89.797 89.797 0 00106.627 37h-1.826V25.56h1.98v8.228c.381-.63.814-1.32 1.298-2.068a59.964 59.964 0 013.058-4.378 27.234 27.234 0 011.474-1.782h1.804zm11.587 0v1.716h-3.718V37h-2.046v-9.724h-3.718V25.56h9.482zm1.472 5.742c0-1.012.146-1.892.44-2.64.293-.763.682-1.393 1.166-1.892a4.73 4.73 0 011.672-1.122 5.221 5.221 0 011.936-.374c1.54 0 2.72.484 3.542 1.452.821.953 1.232 2.413 1.232 4.378v.352c0 .132-.008.257-.022.374h-7.832c.088 1.188.432 2.09 1.034 2.706.601.616 1.54.924 2.816.924.718 0 1.32-.059 1.804-.176.498-.132.872-.257 1.122-.374l.286 1.716c-.25.132-.69.271-1.32.418-.616.147-1.32.22-2.112.22-.998 0-1.863-.147-2.596-.44-.719-.308-1.313-.726-1.782-1.254a5.192 5.192 0 01-1.056-1.87 8.314 8.314 0 01-.33-2.398zm7.854-1.122c.014-.924-.22-1.68-.704-2.266-.47-.601-1.122-.902-1.958-.902-.47 0-.888.095-1.254.286a2.83 2.83 0 00-.902.704 3.43 3.43 0 00-.594 1.012c-.132.381-.22.77-.264 1.166h5.676zm9.055-2.904c0 .484-.015 1.005-.044 1.562a21.744 21.744 0 01-.11 1.65c-.059.543-.14 1.085-.242 1.628a11.238 11.238 0 01-.396 1.496c-.162.47-.367.91-.616 1.32-.235.41-.528.777-.88 1.1a5.23 5.23 0 01-1.232.792c-.47.205-1.02.337-1.65.396l-.286-1.716c.718-.147 1.283-.418 1.694-.814a4.32 4.32 0 001.012-1.452c.22-.499.381-1.063.484-1.694.102-.63.176-1.283.22-1.958.044-.69.066-1.379.066-2.068.014-.69.022-1.342.022-1.958h7.612V37h-2.046v-9.724h-3.608zm13.5 8.294c.865 0 1.547-.169 2.046-.506.499-.337.748-.88.748-1.628 0-.367-.073-.682-.22-.946a1.715 1.715 0 00-.616-.638 2.385 2.385 0 00-.88-.374 4.257 4.257 0 00-1.078-.132c-.396 0-.807.015-1.232.044a5.17 5.17 0 00-1.056.132v3.938c.088.015.22.03.396.044.176.015.367.03.572.044.22 0 .44.007.66.022h.66zm-4.334 1.188V25.56h2.046v4.378c.117-.03.271-.059.462-.088.205-.03.418-.059.638-.088a11.985 11.985 0 011.43-.088 6.96 6.96 0 011.782.22 3.882 3.882 0 011.452.66c.425.293.763.682 1.012 1.166.249.47.374 1.034.374 1.694 0 .69-.117 1.276-.352 1.76s-.572.88-1.012 1.188c-.44.308-.968.528-1.584.66a8.554 8.554 0 01-2.024.22c-.733 0-1.452-.044-2.156-.132a16.027 16.027 0 01-2.068-.352zm20.995.242h-2.046v-5.06h-5.28V37h-2.046V25.56h2.046v4.664h5.28V25.56h2.046V37zm13.617-5.72c0 .91-.132 1.73-.396 2.464a5.54 5.54 0 01-1.122 1.892 4.906 4.906 0 01-1.694 1.232 5.487 5.487 0 01-2.156.418c-.778 0-1.496-.14-2.156-.418a5.127 5.127 0 01-1.716-1.232 5.725 5.725 0 01-1.1-1.892c-.264-.733-.396-1.555-.396-2.464 0-.895.132-1.709.396-2.442.264-.748.63-1.386 1.1-1.914a4.873 4.873 0 011.716-1.21 5.247 5.247 0 012.156-.44 5.25 5.25 0 012.156.44 4.67 4.67 0 011.694 1.21 5.503 5.503 0 011.122 1.914c.264.733.396 1.547.396 2.442zm-2.134 0c0-1.29-.294-2.31-.88-3.058-.572-.763-1.357-1.144-2.354-1.144-.998 0-1.79.381-2.376 1.144-.572.748-.858 1.767-.858 3.058 0 1.29.286 2.317.858 3.08.586.748 1.378 1.122 2.376 1.122.997 0 1.782-.374 2.354-1.122.586-.763.88-1.79.88-3.08zm4.374.022c0-1.012.147-1.892.44-2.64.294-.763.682-1.393 1.166-1.892a4.74 4.74 0 011.672-1.122 5.225 5.225 0 011.936-.374c1.54 0 2.721.484 3.542 1.452.822.953 1.232 2.413 1.232 4.378v.352c0 .132-.007.257-.022.374h-7.832c.088 1.188.433 2.09 1.034 2.706.602.616 1.54.924 2.816.924.719 0 1.32-.059 1.804-.176.499-.132.873-.257 1.122-.374l.286 1.716c-.249.132-.689.271-1.32.418-.616.147-1.32.22-2.112.22-.997 0-1.862-.147-2.596-.44-.718-.308-1.312-.726-1.782-1.254a5.221 5.221 0 01-1.056-1.87 8.314 8.314 0 01-.33-2.398zm7.854-1.122c.015-.924-.22-1.68-.704-2.266-.469-.601-1.122-.902-1.958-.902a2.68 2.68 0 00-1.254.286 2.84 2.84 0 00-.902.704c-.249.293-.447.63-.594 1.012-.132.381-.22.77-.264 1.166h5.676zM51.015 70H48.97v-9.724h-5.104V70H41.82V58.56h9.196V70zm11.465-5.698c0-1.335-.33-2.361-.99-3.08-.66-.719-1.54-1.078-2.64-1.078-.616 0-1.1.022-1.452.066a5.802 5.802 0 00-.814.154v7.216c.25.205.609.403 1.078.594.47.19.983.286 1.54.286.587 0 1.086-.103 1.496-.308a2.88 2.88 0 001.034-.88c.264-.381.455-.821.572-1.32a7.389 7.389 0 00.176-1.65zm2.134 0a7.83 7.83 0 01-.352 2.398 5.29 5.29 0 01-.99 1.892c-.44.528-.982.939-1.628 1.232-.63.293-1.356.44-2.178.44-.66 0-1.246-.088-1.76-.264-.498-.176-.872-.345-1.122-.506v4.576h-2.046V58.912a33.75 33.75 0 011.804-.374c.734-.147 1.577-.22 2.53-.22.88 0 1.672.14 2.376.418a5.092 5.092 0 011.804 1.188c.499.513.88 1.144 1.144 1.892.279.733.418 1.562.418 2.486zm12.977-.022c0 .91-.132 1.73-.396 2.464a5.54 5.54 0 01-1.122 1.892 4.9 4.9 0 01-1.694 1.232 5.486 5.486 0 01-2.156.418 5.5 5.5 0 01-2.156-.418 5.127 5.127 0 01-1.716-1.232 5.737 5.737 0 01-1.1-1.892c-.264-.733-.396-1.555-.396-2.464 0-.895.132-1.709.396-2.442.264-.748.631-1.386 1.1-1.914a4.873 4.873 0 011.716-1.21 5.249 5.249 0 012.156-.44c.778 0 1.496.147 2.156.44.66.279 1.225.682 1.694 1.21a5.503 5.503 0 011.122 1.914c.264.733.396 1.547.396 2.442zm-2.134 0c0-1.29-.293-2.31-.88-3.058-.572-.763-1.356-1.144-2.354-1.144-.997 0-1.789.381-2.376 1.144-.572.748-.858 1.767-.858 3.058 0 1.29.286 2.317.858 3.08.587.748 1.38 1.122 2.376 1.122.998 0 1.782-.374 2.354-1.122.587-.763.88-1.79.88-3.08zm3.605 4.048h1.232c.484-.704.865-1.43 1.144-2.178a12.6 12.6 0 00.66-2.31c.147-.807.242-1.643.286-2.508.044-.88.073-1.804.088-2.772h7.502v9.768h1.54v4.862h-1.936V70h-8.58v3.19h-1.936v-4.862zm8.866 0v-8.052h-3.586a33.91 33.91 0 01-.11 2.09c-.059.69-.154 1.379-.286 2.068a12.39 12.39 0 01-.572 2.002 11.145 11.145 0 01-.902 1.892h5.456zm7.8.132c.088.015.213.03.374.044.161.015.344.03.55.044.205 0 .418.007.638.022h.66c.425 0 .828-.03 1.21-.088a3.164 3.164 0 001.012-.308c.293-.147.52-.337.682-.572.176-.25.264-.565.264-.946 0-.367-.081-.667-.242-.902a1.603 1.603 0 00-.616-.594 2.874 2.874 0 00-.946-.308 6.965 6.965 0 00-1.144-.088h-2.442v3.696zm2.178-5.214c.396 0 .755-.022 1.078-.066.337-.059.623-.154.858-.286.249-.132.44-.308.572-.528.146-.22.22-.499.22-.836 0-.352-.088-.63-.264-.836a1.6 1.6 0 00-.704-.462 3.13 3.13 0 00-.968-.22 8.684 8.684 0 00-1.078-.066c-.338 0-.682.007-1.034.022-.337.015-.623.03-.858.044v3.234h2.178zm-.044 6.952a20.2 20.2 0 01-2.398-.132c-.733-.073-1.313-.161-1.738-.264V58.67c.425-.103 1.005-.19 1.738-.264a20.2 20.2 0 012.398-.132 9.94 9.94 0 011.76.154 4.763 4.763 0 011.518.528c.44.235.792.565 1.056.99.278.41.418.924.418 1.54 0 .557-.14 1.034-.418 1.43a2.791 2.791 0 01-1.122.924c.63.22 1.129.55 1.496.99.381.425.572 1.027.572 1.804 0 .69-.14 1.261-.418 1.716a2.994 2.994 0 01-1.122 1.1c-.47.279-1.027.47-1.672.572-.646.117-1.335.176-2.068.176zm17.531-11.638V70h-1.98v-8.712c-.44.557-.924 1.21-1.452 1.958a80.31 80.31 0 00-1.584 2.332 90.141 90.141 0 00-1.518 2.354A89.797 89.797 0 00107.605 70h-1.826V58.56h1.98v8.228c.381-.63.814-1.32 1.298-2.068.484-.763.982-1.51 1.496-2.244a72.838 72.838 0 011.562-2.134 27.234 27.234 0 011.474-1.782h1.804zm17.615 0c-.294.367-.624.77-.99 1.21-.367.425-.748.873-1.144 1.342-.396.455-.8.91-1.21 1.364-.396.455-.778.887-1.144 1.298.44.425.894.887 1.364 1.386.469.499.924 1.02 1.364 1.562.454.528.887 1.078 1.298 1.65.41.557.77 1.1 1.078 1.628h-2.288c-.308-.484-.668-.99-1.078-1.518a21.633 21.633 0 00-1.254-1.562c-.426-.499-.858-.96-1.298-1.386a10.8 10.8 0 00-1.188-1.078V70h-1.958v-5.544c-.367.279-.77.638-1.21 1.078-.426.425-.858.887-1.298 1.386-.426.499-.844 1.02-1.254 1.562A24.173 24.173 0 00119.742 70h-2.266c.308-.528.66-1.07 1.056-1.628a34.22 34.22 0 012.662-3.19c.469-.499.924-.96 1.364-1.386l-1.166-1.298-1.188-1.364c-.396-.47-.778-.917-1.144-1.342-.367-.44-.704-.85-1.012-1.232h2.266c.528.66 1.136 1.393 1.826 2.2a314.41 314.41 0 002.42 2.794V58.56h1.958v4.994c.924-1.056 1.73-1.987 2.42-2.794a89.96 89.96 0 001.826-2.2h2.244zm1.459 5.742c0-1.012.146-1.892.44-2.64.293-.763.682-1.393 1.166-1.892a4.73 4.73 0 011.672-1.122 5.221 5.221 0 011.936-.374c1.54 0 2.72.484 3.542 1.452.821.953 1.232 2.413 1.232 4.378v.352c0 .132-.008.257-.022.374h-7.832c.088 1.188.432 2.09 1.034 2.706.601.616 1.54.924 2.816.924.718 0 1.32-.059 1.804-.176.498-.132.872-.257 1.122-.374l.286 1.716c-.25.132-.69.271-1.32.418-.616.147-1.32.22-2.112.22-.998 0-1.863-.147-2.596-.44-.719-.308-1.313-.726-1.782-1.254a5.192 5.192 0 01-1.056-1.87 8.314 8.314 0 01-.33-2.398zm7.854-1.122c.014-.924-.22-1.68-.704-2.266-.47-.601-1.122-.902-1.958-.902-.47 0-.888.095-1.254.286a2.83 2.83 0 00-.902.704 3.43 3.43 0 00-.594 1.012c-.132.381-.22.77-.264 1.166h5.676zM156.766 70h-2.046v-5.06h-5.28V70h-2.046V58.56h2.046v4.664h5.28V58.56h2.046V70zm13.132-11.44V70h-1.98v-8.712c-.44.557-.924 1.21-1.452 1.958a80.31 80.31 0 00-1.584 2.332 90.141 90.141 0 00-1.518 2.354A89.797 89.797 0 00162.11 70h-1.826V58.56h1.98v8.228c.382-.63.814-1.32 1.298-2.068a59.964 59.964 0 013.058-4.378 27.45 27.45 0 011.474-1.782h1.804zm2.875 5.742c0-1.012.147-1.892.44-2.64.294-.763.682-1.393 1.166-1.892a4.74 4.74 0 011.672-1.122 5.225 5.225 0 011.936-.374c1.54 0 2.721.484 3.542 1.452.822.953 1.232 2.413 1.232 4.378v.352c0 .132-.007.257-.022.374h-7.832c.088 1.188.433 2.09 1.034 2.706.602.616 1.54.924 2.816.924.719 0 1.32-.059 1.804-.176.499-.132.873-.257 1.122-.374l.286 1.716c-.249.132-.689.271-1.32.418-.616.147-1.32.22-2.112.22-.997 0-1.862-.147-2.596-.44-.718-.308-1.312-.726-1.782-1.254a5.221 5.221 0 01-1.056-1.87 8.314 8.314 0 01-.33-2.398zm7.854-1.122c.015-.924-.22-1.68-.704-2.266-.469-.601-1.122-.902-1.958-.902a2.68 2.68 0 00-1.254.286 2.84 2.84 0 00-.902.704c-.249.293-.447.63-.594 1.012-.132.381-.22.77-.264 1.166h5.676zM37.991 91.56v1.716h-3.718V103h-2.046v-9.724H28.51V91.56h9.482zM50.2 97.28c0 .91-.132 1.73-.396 2.464a5.542 5.542 0 01-1.122 1.892 4.896 4.896 0 01-1.694 1.232 5.48 5.48 0 01-2.156.418 5.48 5.48 0 01-2.156-.418 5.122 5.122 0 01-1.716-1.232 5.74 5.74 0 01-1.1-1.892c-.264-.733-.396-1.555-.396-2.464 0-.895.132-1.709.396-2.442.264-.748.63-1.386 1.1-1.914a4.873 4.873 0 011.716-1.21 5.249 5.249 0 012.156-.44c.777 0 1.496.147 2.156.44.66.279 1.224.682 1.694 1.21a5.503 5.503 0 011.122 1.914c.264.733.396 1.547.396 2.442zm-2.134 0c0-1.29-.293-2.31-.88-3.058-.572-.763-1.357-1.144-2.354-1.144-.998 0-1.79.381-2.376 1.144-.572.748-.858 1.767-.858 3.058 0 1.29.286 2.317.858 3.08.587.748 1.379 1.122 2.376 1.122.997 0 1.782-.374 2.354-1.122.587-.763.88-1.79.88-3.08zm7.014 4.18c.088.015.213.029.374.044.162.015.345.029.55.044.206 0 .418.007.638.022h.66c.426 0 .83-.029 1.21-.088a3.162 3.162 0 001.012-.308c.294-.147.521-.337.682-.572.176-.249.264-.565.264-.946 0-.367-.08-.667-.242-.902a1.6 1.6 0 00-.616-.594 2.87 2.87 0 00-.946-.308 6.966 6.966 0 00-1.144-.088H55.08v3.696zm2.178-5.214c.396 0 .756-.022 1.078-.066.338-.059.624-.154.858-.286.25-.132.44-.308.572-.528.147-.22.22-.499.22-.836 0-.352-.088-.63-.264-.836a1.6 1.6 0 00-.704-.462 3.131 3.131 0 00-.968-.22 8.685 8.685 0 00-1.078-.066c-.337 0-.682.007-1.034.022-.337.015-.623.03-.858.044v3.234h2.178zm-.044 6.952a20.21 20.21 0 01-2.398-.132c-.733-.073-1.312-.161-1.738-.264V91.67c.426-.103 1.005-.19 1.738-.264a20.197 20.197 0 012.398-.132 9.94 9.94 0 011.76.154 4.764 4.764 0 011.518.528c.44.235.792.565 1.056.99.28.41.418.924.418 1.54 0 .557-.139 1.034-.418 1.43a2.787 2.787 0 01-1.122.924c.631.22 1.13.55 1.496.99.382.425.572 1.027.572 1.804 0 .689-.139 1.261-.418 1.716a2.994 2.994 0 01-1.122 1.1c-.469.279-1.026.469-1.672.572a11.59 11.59 0 01-2.068.176zm11.79-1.672c.483 0 .909-.007 1.275-.022.381-.029.697-.073.946-.132v-3.41c-.147-.073-.389-.132-.726-.176a6.776 6.776 0 00-1.188-.088c-.308 0-.638.022-.99.066-.337.044-.652.14-.946.286a1.9 1.9 0 00-.704.572c-.19.235-.286.55-.286.946 0 .733.235 1.247.704 1.54.47.279 1.108.418 1.914.418zm-.177-10.252c.822 0 1.51.11 2.068.33.572.205 1.027.506 1.364.902.352.381.602.843.748 1.386.147.528.22 1.115.22 1.76v7.15c-.176.029-.425.073-.748.132-.308.044-.66.088-1.056.132-.396.044-.828.081-1.298.11-.454.044-.91.066-1.364.066-.645 0-1.24-.066-1.782-.198a4.101 4.101 0 01-1.408-.616 2.958 2.958 0 01-.924-1.144c-.22-.469-.33-1.034-.33-1.694 0-.63.125-1.173.374-1.628a3.161 3.161 0 011.056-1.1 4.84 4.84 0 011.54-.616 8.398 8.398 0 011.848-.198c.206 0 .418.015.638.044.22.015.425.044.616.088a9.817 9.817 0 01.836.154v-.572a4.45 4.45 0 00-.11-.99 2.194 2.194 0 00-.396-.88 1.869 1.869 0 00-.792-.616c-.323-.161-.748-.242-1.276-.242-.675 0-1.269.051-1.782.154-.498.088-.872.183-1.122.286l-.242-1.694c.264-.117.704-.227 1.32-.33a10.71 10.71 0 012.002-.176zm15.74 6.028c0-1.335-.33-2.361-.99-3.08-.66-.719-1.54-1.078-2.64-1.078-.616 0-1.1.022-1.452.066a5.796 5.796 0 00-.814.154v7.216c.25.205.609.403 1.078.594.47.191.983.286 1.54.286.587 0 1.086-.103 1.496-.308.426-.22.77-.513 1.034-.88.264-.381.455-.821.572-1.32a7.394 7.394 0 00.176-1.65zm2.134 0a7.82 7.82 0 01-.352 2.398c-.22.733-.55 1.364-.99 1.892-.44.528-.982.939-1.628 1.232-.63.293-1.356.44-2.178.44-.66 0-1.246-.088-1.76-.264-.498-.176-.872-.345-1.122-.506v4.576h-2.046V91.912a33.728 33.728 0 011.804-.374c.734-.147 1.577-.22 2.53-.22.88 0 1.672.14 2.376.418a5.093 5.093 0 011.804 1.188c.499.513.88 1.144 1.144 1.892.279.733.418 1.562.418 2.486zm12.977-.022c0 .91-.132 1.73-.396 2.464a5.542 5.542 0 01-1.122 1.892 4.896 4.896 0 01-1.694 1.232 5.48 5.48 0 01-2.156.418 5.48 5.48 0 01-2.156-.418 5.122 5.122 0 01-1.716-1.232 5.74 5.74 0 01-1.1-1.892c-.264-.733-.396-1.555-.396-2.464 0-.895.132-1.709.396-2.442.264-.748.631-1.386 1.1-1.914a4.873 4.873 0 011.716-1.21 5.249 5.249 0 012.156-.44c.778 0 1.496.147 2.156.44.66.279 1.225.682 1.694 1.21a5.503 5.503 0 011.122 1.914c.264.733.396 1.547.396 2.442zm-2.134 0c0-1.29-.293-2.31-.88-3.058-.572-.763-1.356-1.144-2.354-1.144-.997 0-1.789.381-2.376 1.144-.572.748-.858 1.767-.858 3.058 0 1.29.286 2.317.858 3.08.587.748 1.379 1.122 2.376 1.122.998 0 1.782-.374 2.354-1.122.587-.763.88-1.79.88-3.08zm7.015 4.18c.088.015.213.029.374.044.161.015.345.029.55.044.205 0 .418.007.638.022h.66c.425 0 .829-.029 1.21-.088a3.165 3.165 0 001.012-.308 1.76 1.76 0 00.682-.572c.176-.249.264-.565.264-.946 0-.367-.081-.667-.242-.902a1.603 1.603 0 00-.616-.594 2.869 2.869 0 00-.946-.308 6.963 6.963 0 00-1.144-.088h-2.442v3.696zm2.178-5.214c.396 0 .755-.022 1.078-.066.337-.059.623-.154.858-.286.249-.132.44-.308.572-.528.147-.22.22-.499.22-.836 0-.352-.088-.63-.264-.836a1.602 1.602 0 00-.704-.462 3.131 3.131 0 00-.968-.22 8.68 8.68 0 00-1.078-.066c-.337 0-.682.007-1.034.022-.337.015-.623.03-.858.044v3.234h2.178zm-.044 6.952c-.865 0-1.665-.044-2.398-.132-.733-.073-1.313-.161-1.738-.264V91.67c.425-.103 1.005-.19 1.738-.264a20.198 20.198 0 012.398-.132c.601 0 1.188.051 1.76.154a4.764 4.764 0 011.518.528c.44.235.792.565 1.056.99.279.41.418.924.418 1.54 0 .557-.139 1.034-.418 1.43a2.791 2.791 0 01-1.122.924c.631.22 1.129.55 1.496.99.381.425.572 1.027.572 1.804 0 .689-.139 1.261-.418 1.716a2.994 2.994 0 01-1.122 1.1c-.469.279-1.027.469-1.672.572a11.59 11.59 0 01-2.068.176zm22.622-11.638V103h-1.98v-8.712c-.44.557-.924 1.21-1.452 1.958a80.31 80.31 0 00-1.584 2.332 90.649 90.649 0 00-1.518 2.354 89.797 89.797 0 00-1.254 2.068H119.7V91.56h1.98v8.228c.382-.63.814-1.32 1.298-2.068a59.964 59.964 0 013.058-4.378 27.45 27.45 0 011.474-1.782h1.804zm7.263 13.574c.162.073.367.139.616.198.264.073.521.11.77.11.807 0 1.438-.183 1.892-.55.455-.352.866-.931 1.232-1.738a65.722 65.722 0 01-2.596-5.588 50.448 50.448 0 01-1.98-6.006h2.2c.162.66.352 1.371.572 2.134.235.763.492 1.547.77 2.354.279.807.58 1.613.902 2.42.323.807.66 1.584 1.012 2.332a58.128 58.128 0 001.452-4.576c.411-1.51.8-3.065 1.166-4.664h2.112a88.646 88.646 0 01-1.76 6.226 64.047 64.047 0 01-2.09 5.566c-.293.66-.601 1.225-.924 1.694a4.85 4.85 0 01-1.034 1.188 3.799 3.799 0 01-1.298.682c-.469.147-1.004.22-1.606.22a3.12 3.12 0 01-.506-.044 3.344 3.344 0 01-.528-.088 4.218 4.218 0 01-.462-.11 2.484 2.484 0 01-.286-.11l.374-1.65zm16.992-1.87c-.924 0-1.738-.147-2.442-.44a5.019 5.019 0 01-1.76-1.232 5.219 5.219 0 01-1.056-1.87c-.235-.733-.352-1.54-.352-2.42 0-.88.125-1.687.374-2.42a5.743 5.743 0 011.1-1.892 4.723 4.723 0 011.716-1.254c.689-.308 1.452-.462 2.288-.462.513 0 1.027.044 1.54.132a7.082 7.082 0 011.474.418l-.462 1.738a4.887 4.887 0 00-1.078-.352 5.873 5.873 0 00-1.276-.132c-1.144 0-2.024.36-2.64 1.078-.601.719-.902 1.767-.902 3.146a6.8 6.8 0 00.198 1.694c.147.513.367.953.66 1.32.308.367.697.653 1.166.858.469.191 1.041.286 1.716.286.543 0 1.034-.051 1.474-.154.44-.103.785-.213 1.034-.33l.286 1.716a2.438 2.438 0 01-.506.22c-.22.059-.469.11-.748.154a7.682 7.682 0 01-.902.132 6.379 6.379 0 01-.902.066zm9.645-9.988c0 .484-.015 1.005-.044 1.562a21.744 21.744 0 01-.11 1.65c-.059.543-.14 1.085-.242 1.628a11.238 11.238 0 01-.396 1.496 6.862 6.862 0 01-.616 1.32 4.548 4.548 0 01-.88 1.1 5.23 5.23 0 01-1.232.792c-.47.205-1.02.337-1.65.396l-.286-1.716c.718-.147 1.283-.418 1.694-.814a4.32 4.32 0 001.012-1.452c.22-.499.381-1.063.484-1.694.102-.63.176-1.283.22-1.958.044-.69.066-1.379.066-2.068.014-.69.022-1.342.022-1.958h7.612V103h-2.046v-9.724h-3.608zm7.824 11.858c.161.073.367.139.616.198.264.073.521.11.77.11.807 0 1.437-.183 1.892-.55.455-.352.865-.931 1.232-1.738a65.722 65.722 0 01-2.596-5.588 50.448 50.448 0 01-1.98-6.006h2.2c.161.66.352 1.371.572 2.134.235.763.491 1.547.77 2.354.279.807.579 1.613.902 2.42.323.807.66 1.584 1.012 2.332a58.978 58.978 0 001.452-4.576c.411-1.51.799-3.065 1.166-4.664h2.112a89.19 89.19 0 01-1.76 6.226 64.047 64.047 0 01-2.09 5.566c-.293.66-.601 1.225-.924 1.694a4.87 4.87 0 01-1.034 1.188 3.799 3.799 0 01-1.298.682c-.469.147-1.005.22-1.606.22a3.12 3.12 0 01-.506-.044 3.344 3.344 0 01-.528-.088 4.218 4.218 0 01-.462-.11 2.484 2.484 0 01-.286-.11l.374-1.65zM190.4 93.276h-5.038V103h-2.046V91.56h7.084v1.716z" fill="#2C2C2C"/><path d="M158.084 277.628l-44.799-44.8a4 4 0 00-5.657 0l-44.8 44.8c-2.52 2.52-.735 6.828 2.829 6.828h89.599c3.563 0 5.348-4.308 2.828-6.828zm-95.256 90.657l44.8 44.799a4 4 0 005.657 0l44.799-44.799c2.52-2.52.735-6.829-2.828-6.829h-89.6c-3.563 0-5.348 4.309-2.828 6.829z" fill="#B1E2E6"/><rect x="5" y="307" width="210" height="32" rx="8" fill="#FFFCDE"/><path d="M62.299 262.298V272H60.94v-8.54h-4.662V272H54.92v-9.702h7.378zm8.753 6.062c0 .579-.084 1.101-.252 1.568a3.522 3.522 0 01-.714 1.204 3.123 3.123 0 01-1.078.784c-.42.177-.877.266-1.372.266-.495 0-.952-.089-1.372-.266a3.267 3.267 0 01-1.092-.784 3.646 3.646 0 01-.7-1.204 4.605 4.605 0 01-.252-1.568c0-.569.084-1.087.252-1.554a3.62 3.62 0 01.7-1.218 3.096 3.096 0 011.092-.77c.42-.187.877-.28 1.372-.28.495 0 .952.093 1.372.28.42.177.78.434 1.078.77.308.336.546.742.714 1.218.168.467.252.985.252 1.554zm-1.358 0c0-.821-.187-1.47-.56-1.946-.364-.485-.864-.728-1.498-.728-.635 0-1.139.243-1.512.728-.364.476-.546 1.125-.546 1.946s.182 1.475.546 1.96c.373.476.877.714 1.512.714s1.134-.238 1.498-.714c.373-.485.56-1.139.56-1.96zm2.294 2.576h.784a6.4 6.4 0 00.728-1.386 8.12 8.12 0 00.42-1.47c.093-.513.154-1.045.182-1.596.028-.56.046-1.148.056-1.764h4.774v6.216h.98v3.094H78.68V272h-5.46v2.03h-1.232v-3.094zm5.642 0v-5.124h-2.282c-.01.439-.033.882-.07 1.33a12.92 12.92 0 01-.182 1.316 7.9 7.9 0 01-.364 1.274c-.15.411-.341.812-.574 1.204h3.472zM87.283 272h-1.302v-3.22h-3.36V272H81.32v-7.28h1.302v2.968h3.36v-2.968h1.302V272zm5.25-2.828h-.407l-.378-.028c-.298.448-.588.929-.868 1.442-.27.504-.513.975-.728 1.414h-1.316a9.34 9.34 0 01.392-.826c.15-.289.299-.569.448-.84a18.656 18.656 0 01.924-1.428 2.293 2.293 0 01-.644-.336 1.878 1.878 0 01-.63-.994 3.139 3.139 0 01-.056-.588c0-.411.075-.77.224-1.078.159-.308.374-.56.644-.756a2.84 2.84 0 01.952-.462c.374-.103.78-.154 1.218-.154.616 0 1.139.028 1.568.084.43.056.789.121 1.078.196V272h-1.288v-2.828h-1.134zm1.133-3.486a5.77 5.77 0 00-.518-.056 10.161 10.161 0 00-.812-.028c-.532 0-.961.112-1.288.336-.326.215-.49.56-.49 1.036 0 .467.168.789.504.966.336.177.77.266 1.302.266h1.302v-2.52zm8.664-.966v1.092h-2.366V272h-1.302v-6.188h-2.366v-1.092h6.034zm4.101 6.37c.55 0 .984-.107 1.302-.322.317-.215.476-.56.476-1.036 0-.233-.047-.434-.14-.602a1.098 1.098 0 00-.392-.406 1.531 1.531 0 00-.56-.238 2.714 2.714 0 00-.686-.084c-.252 0-.514.009-.784.028a3.233 3.233 0 00-.672.084v2.506c.056.009.14.019.252.028.112.009.233.019.364.028.14 0 .28.005.42.014h.42zm-2.758.756v-7.126h1.302v2.786a3.28 3.28 0 01.294-.056c.13-.019.266-.037.406-.056a7.935 7.935 0 01.91-.056c.401 0 .779.047 1.134.14.354.084.662.224.924.42.27.187.485.434.644.742.158.299.238.658.238 1.078 0 .439-.075.812-.224 1.12-.15.308-.364.56-.644.756-.28.196-.616.336-1.008.42-.383.093-.812.14-1.288.14-.467 0-.924-.028-1.372-.084a10.183 10.183 0 01-1.316-.224zm11.91-.826c.056.009.136.019.238.028.103.009.22.019.35.028.131 0 .266.005.406.014h.42c.271 0 .528-.019.77-.056a2.01 2.01 0 00.644-.196c.187-.093.332-.215.434-.364.112-.159.168-.359.168-.602 0-.233-.051-.425-.154-.574a1.011 1.011 0 00-.392-.378 1.822 1.822 0 00-.602-.196 4.466 4.466 0 00-.728-.056h-1.554v2.352zm1.386-3.318c.252 0 .481-.014.686-.042.215-.037.397-.098.546-.182a.934.934 0 00.504-.868c0-.224-.056-.401-.168-.532a1.01 1.01 0 00-.448-.294 1.986 1.986 0 00-.616-.14 5.518 5.518 0 00-.686-.042c-.214 0-.434.005-.658.014-.214.009-.396.019-.546.028v2.058h1.386zm-.028 4.424c-.55 0-1.059-.028-1.526-.084a8.726 8.726 0 01-1.106-.168v-7.084c.271-.065.64-.121 1.106-.168.467-.056.976-.084 1.526-.084.383 0 .756.033 1.12.098.364.065.686.177.966.336.28.149.504.359.672.63.178.261.266.588.266.98 0 .355-.088.658-.266.91a1.769 1.769 0 01-.714.588c.402.14.719.35.952.63.243.271.364.653.364 1.148 0 .439-.088.803-.266 1.092a1.905 1.905 0 01-.714.7 2.977 2.977 0 01-1.064.364c-.41.075-.849.112-1.316.112zm14.131-.126h-1.302v-6.188h-3.248V272h-1.302v-7.28h5.852V272zm8.667-3.64c0 .579-.084 1.101-.252 1.568a3.522 3.522 0 01-.714 1.204 3.116 3.116 0 01-1.078.784c-.42.177-.877.266-1.372.266a3.5 3.5 0 01-1.372-.266 3.267 3.267 0 01-1.092-.784 3.659 3.659 0 01-.7-1.204 4.605 4.605 0 01-.252-1.568c0-.569.084-1.087.252-1.554.168-.476.402-.882.7-1.218a3.096 3.096 0 011.092-.77c.42-.187.878-.28 1.372-.28.495 0 .952.093 1.372.28.42.177.78.434 1.078.77.308.336.546.742.714 1.218.168.467.252.985.252 1.554zm-1.358 0c0-.821-.186-1.47-.56-1.946-.364-.485-.863-.728-1.498-.728-.634 0-1.138.243-1.512.728-.364.476-.546 1.125-.546 1.946s.182 1.475.546 1.96c.374.476.878.714 1.512.714.635 0 1.134-.238 1.498-.714.374-.485.56-1.139.56-1.96zm9.308-3.64V272h-1.26v-5.544c-.28.355-.588.77-.924 1.246-.336.476-.672.971-1.008 1.484a56.772 56.772 0 00-1.764 2.814h-1.162v-7.28h1.26v5.236c.243-.401.518-.84.826-1.316a39.338 39.338 0 011.946-2.786c.336-.439.649-.817.938-1.134h1.148zm5.4 7.448c-.588 0-1.106-.093-1.554-.28a3.196 3.196 0 01-1.12-.784 3.31 3.31 0 01-.672-1.19 5.013 5.013 0 01-.224-1.54c0-.56.079-1.073.238-1.54.168-.467.401-.868.7-1.204a3.006 3.006 0 011.092-.798 3.527 3.527 0 011.456-.294c.326 0 .653.028.98.084.326.056.639.145.938.266l-.294 1.106a3.138 3.138 0 00-.686-.224 3.74 3.74 0 00-.812-.084c-.728 0-1.288.229-1.68.686-.383.457-.574 1.125-.574 2.002 0 .392.042.751.126 1.078.093.327.233.607.42.84.196.233.443.415.742.546.298.121.662.182 1.092.182.345 0 .658-.033.938-.098.28-.065.499-.135.658-.21l.182 1.092a1.565 1.565 0 01-.322.14c-.14.037-.299.07-.476.098a5.164 5.164 0 01-.574.084 4.064 4.064 0 01-.574.042zm6.004-4.13a8.9 8.9 0 01.938.784c.336.308.662.644.98 1.008.326.364.63.737.91 1.12.28.373.518.723.714 1.05h-1.54a9.189 9.189 0 00-.728-.966 14.3 14.3 0 00-.854-.966 12.845 12.845 0 00-.91-.854 8.971 8.971 0 00-.868-.658V272h-1.302v-7.28h1.302v3.122l.77-.742.868-.868c.298-.299.574-.579.826-.84.252-.271.457-.495.616-.672h1.512c-.206.224-.448.481-.728.77-.271.28-.556.569-.854.868l-.868.896-.784.784zm4.084.336c0-.644.093-1.204.28-1.68.187-.485.434-.887.742-1.204a3.025 3.025 0 011.064-.714 3.316 3.316 0 011.232-.238c.98 0 1.731.308 2.254.924.523.607.784 1.535.784 2.786v.224c0 .084-.005.163-.014.238h-4.984c.056.756.275 1.33.658 1.722.383.392.98.588 1.792.588.457 0 .84-.037 1.148-.112a4.46 4.46 0 00.714-.238l.182 1.092c-.159.084-.439.173-.84.266-.392.093-.84.14-1.344.14-.635 0-1.185-.093-1.652-.28a3.156 3.156 0 01-1.134-.798 3.31 3.31 0 01-.672-1.19 5.29 5.29 0 01-.21-1.526zm4.998-.714c.009-.588-.14-1.069-.448-1.442-.299-.383-.714-.574-1.246-.574-.299 0-.565.061-.798.182a1.802 1.802 0 00-.574.448 2.195 2.195 0 00-.378.644c-.084.243-.14.49-.168.742h3.612zM12.968 328.084a16.863 16.863 0 01-2.002-.126 5.148 5.148 0 01-.615-.112v-9.408c.186-.047.391-.084.615-.112a17 17 0 011.359-.112c.224-.009.434-.014.63-.014.56 0 1.082.042 1.568.126.494.084.919.229 1.274.434.363.196.648.457.854.784.205.327.308.728.308 1.204 0 .532-.127.971-.378 1.316a2.293 2.293 0 01-1.008.756c.569.168 1.021.434 1.357.798.337.364.505.877.505 1.54 0 .971-.36 1.703-1.078 2.198-.71.485-1.84.728-3.388.728zm-1.274-4.606v3.416a23.636 23.636 0 00.784.056h.575c.4 0 .779-.023 1.133-.07a3.35 3.35 0 00.953-.28 1.61 1.61 0 00.644-.546c.168-.233.252-.527.252-.882 0-.317-.061-.583-.183-.798a1.329 1.329 0 00-.532-.532 2.439 2.439 0 00-.812-.28 6.15 6.15 0 00-1.063-.084h-1.75zm0-1.092h1.428c.337 0 .654-.023.953-.07a2.28 2.28 0 00.77-.252c.223-.121.396-.28.518-.476.13-.196.196-.443.196-.742 0-.28-.066-.513-.196-.7a1.331 1.331 0 00-.546-.462 2.682 2.682 0 00-.799-.266 5.475 5.475 0 00-.98-.084c-.345 0-.616.005-.812.014a7.34 7.34 0 00-.532.042v2.996zm10.243 2.016c-.252 0-.5.009-.742.028a3.072 3.072 0 00-.63.084v2.506c.056.009.135.019.238.028l.35.028c.13 0 .26.005.392.014h.35c.569 0 1.008-.107 1.316-.322.308-.215.462-.56.462-1.036a1.14 1.14 0 00-.154-.602 1.093 1.093 0 00-.392-.406 1.526 1.526 0 00-.546-.238 2.437 2.437 0 00-.644-.084zm-2.674-3.682h1.302v2.786a6.98 6.98 0 01.686-.112c.308-.037.602-.056.882-.056.382 0 .746.047 1.092.14.345.084.648.224.91.42.26.187.466.434.616.742.158.299.238.658.238 1.078 0 .439-.075.812-.224 1.12a2 2 0 01-.63.756 2.6 2.6 0 01-.98.42c-.383.093-.803.14-1.26.14-.44 0-.882-.028-1.33-.084a9.717 9.717 0 01-1.302-.224v-7.126zm8.372 7.28h-1.302v-7.28h1.302V328zm1.341-1.064h.784a6.4 6.4 0 00.728-1.386c.187-.476.327-.966.42-1.47.093-.513.154-1.045.182-1.596.028-.56.047-1.148.056-1.764h4.774v6.216h.98v3.094h-1.232V328h-5.46v2.03h-1.232v-3.094zm5.642 0v-5.124h-2.282c-.01.439-.033.882-.07 1.33-.037.439-.098.877-.182 1.316a7.9 7.9 0 01-.364 1.274c-.15.411-.34.812-.574 1.204h3.472zm3.283-2.562c0-.644.094-1.204.28-1.68.187-.485.434-.887.742-1.204a3.022 3.022 0 011.064-.714 3.317 3.317 0 011.232-.238c.98 0 1.732.308 2.255.924.522.607.784 1.535.784 2.786v.224c0 .084-.005.163-.015.238H39.26c.056.756.275 1.33.657 1.722.383.392.98.588 1.792.588.458 0 .84-.037 1.148-.112a4.44 4.44 0 00.715-.238l.181 1.092c-.158.084-.438.173-.84.266-.391.093-.84.14-1.343.14-.635 0-1.186-.093-1.653-.28a3.151 3.151 0 01-1.134-.798 3.318 3.318 0 01-.672-1.19 5.29 5.29 0 01-.21-1.526zm4.998-.714c.01-.588-.14-1.069-.447-1.442-.3-.383-.715-.574-1.246-.574-.3 0-.565.061-.799.182a1.798 1.798 0 00-.573.448 2.209 2.209 0 00-.379.644 3.36 3.36 0 00-.167.742H42.9zm5.763-1.848c0 .308-.01.639-.028.994a13.208 13.208 0 01-.224 2.086c-.066.336-.15.653-.252.952a4.299 4.299 0 01-.392.84c-.15.261-.336.495-.56.7a3.323 3.323 0 01-.784.504 3.381 3.381 0 01-1.05.252l-.182-1.092c.457-.093.817-.266 1.078-.518.27-.252.485-.56.644-.924.14-.317.242-.677.308-1.078.065-.401.112-.817.14-1.246.028-.439.042-.877.042-1.316.01-.439.014-.854.014-1.246h4.844V328h-1.302v-6.188h-2.296zm11.951-1.092V328h-1.26v-5.544c-.28.355-.588.77-.924 1.246-.336.476-.672.971-1.008 1.484A56.772 56.772 0 0055.657 328h-1.162v-7.28h1.26v5.236c.243-.401.518-.84.826-1.316a38.442 38.442 0 011.946-2.786c.336-.439.649-.817.938-1.134h1.148zm7.374 0v1.092H65.62V328h-1.302v-6.188h-2.367v-1.092h6.035zm4.1 6.37c.55 0 .985-.107 1.302-.322.317-.215.476-.56.476-1.036 0-.233-.047-.434-.14-.602a1.092 1.092 0 00-.392-.406 1.524 1.524 0 00-.56-.238 2.709 2.709 0 00-.686-.084c-.252 0-.513.009-.784.028a3.245 3.245 0 00-.672.084v2.506c.056.009.14.019.252.028.112.009.233.019.364.028.14 0 .28.005.42.014h.42zm-2.758.756v-7.126h1.302v2.786a3.38 3.38 0 01.294-.056c.13-.019.266-.037.406-.056a7.955 7.955 0 01.91-.056c.401 0 .78.047 1.134.14.355.084.663.224.924.42.27.187.485.434.644.742.159.299.238.658.238 1.078 0 .439-.075.812-.224 1.12-.15.308-.364.56-.644.756-.28.196-.616.336-1.008.42-.383.093-.812.14-1.288.14-.467 0-.924-.028-1.372-.084a10.192 10.192 0 01-1.316-.224zm17.063-3.486c0 .579-.084 1.101-.252 1.568a3.522 3.522 0 01-.714 1.204 3.123 3.123 0 01-1.078.784 3.5 3.5 0 01-1.372.266c-.495 0-.952-.089-1.372-.266a3.267 3.267 0 01-1.092-.784 3.646 3.646 0 01-.7-1.204 4.605 4.605 0 01-.252-1.568c0-.569.084-1.087.252-1.554a3.62 3.62 0 01.7-1.218 3.096 3.096 0 011.092-.77c.42-.187.877-.28 1.372-.28.494 0 .952.093 1.372.28.42.177.779.434 1.078.77.308.336.546.742.714 1.218.168.467.252.985.252 1.554zm-1.358 0c0-.821-.187-1.47-.56-1.946-.364-.485-.864-.728-1.498-.728-.635 0-1.139.243-1.512.728-.364.476-.546 1.125-.546 1.946s.182 1.475.546 1.96c.373.476.877.714 1.512.714.634 0 1.134-.238 1.498-.714.373-.485.56-1.139.56-1.96zm4.365-2.8c.29-.233.626-.411 1.008-.532a3.532 3.532 0 011.12-.196c1.046 0 1.835.322 2.367.966.54.635.811 1.521.811 2.66a5 5 0 01-.195 1.4 3.36 3.36 0 01-.617 1.19c-.27.345-.615.621-1.035.826-.42.205-.92.308-1.499.308-.662 0-1.213-.121-1.651-.364a2.829 2.829 0 01-1.05-.994c-.252-.42-.43-.91-.532-1.47a9.852 9.852 0 01-.154-1.778c0-.812.056-1.568.168-2.268.12-.7.335-1.316.644-1.848a3.812 3.812 0 011.273-1.316c.551-.355 1.256-.593 2.114-.714.252-.037.472-.065.658-.084a70.793 70.793 0 01.91-.126c.122-.028.248-.056.379-.084l.14 1.176a1.314 1.314 0 01-.21.042l-.294.042a32.68 32.68 0 01-1.316.168c-.924.103-1.634.383-2.128.84-.495.457-.799 1.176-.91 2.156zm-.084 2.226c0 .439.029.854.085 1.246.065.392.172.737.322 1.036.158.299.368.537.63.714.26.168.597.252 1.007.252.355 0 .659-.065.91-.196a1.78 1.78 0 00.616-.56c.16-.233.276-.504.35-.812.075-.317.112-.653.112-1.008 0-.317-.032-.625-.097-.924a2.08 2.08 0 00-.323-.798 1.716 1.716 0 00-.644-.56c-.26-.14-.592-.21-.993-.21-.393 0-.77.084-1.135.252-.354.168-.63.373-.826.616a5.13 5.13 0 00-.013.434v.518zm8.215-1.974h-1.876v-1.092h3.178v2.786a3.38 3.38 0 01.294-.056c.13-.019.266-.037.406-.056a7.954 7.954 0 01.91-.056c.401 0 .779.047 1.134.14.354.084.662.224.924.42.27.187.485.434.644.742.158.299.238.658.238 1.078 0 .439-.075.812-.224 1.12-.15.308-.364.56-.644.756-.28.196-.616.336-1.008.42-.383.093-.812.14-1.288.14-.467 0-.924-.028-1.372-.084a10.192 10.192 0 01-1.316-.224v-6.034zm2.758 5.278c.55 0 .984-.107 1.302-.322.317-.215.476-.56.476-1.036 0-.233-.047-.434-.14-.602a1.098 1.098 0 00-.392-.406 1.531 1.531 0 00-.56-.238 2.714 2.714 0 00-.686-.084c-.252 0-.514.009-.784.028a3.245 3.245 0 00-.672.084v2.506c.056.009.14.019.252.028.112.009.233.019.364.028.14 0 .28.005.42.014h.42zm7.639-1.918h-.406l-.378-.028c-.299.448-.588.929-.868 1.442a42.02 42.02 0 00-.728 1.414h-1.316c.112-.271.243-.546.392-.826.149-.289.299-.569.448-.84a18.549 18.549 0 01.924-1.428 2.297 2.297 0 01-.644-.336 1.885 1.885 0 01-.406-.462 1.894 1.894 0 01-.224-.532 3.164 3.164 0 01-.056-.588c0-.411.075-.77.224-1.078.159-.308.373-.56.644-.756.271-.205.588-.359.952-.462a4.564 4.564 0 011.218-.154c.616 0 1.139.028 1.568.084a9.08 9.08 0 011.078.196V328h-1.288v-2.828h-1.134zm1.134-3.486a5.775 5.775 0 00-.518-.056 10.156 10.156 0 00-.812-.028c-.532 0-.961.112-1.288.336-.327.215-.49.56-.49 1.036 0 .467.168.789.504.966.336.177.77.266 1.302.266h1.302v-2.52zm4.8 5.334c.056.009.135.019.238.028.102.009.219.019.35.028.13 0 .266.005.406.014h.42c.27 0 .527-.019.77-.056.252-.037.466-.103.644-.196.186-.093.331-.215.434-.364.112-.159.168-.359.168-.602a.997.997 0 00-.154-.574 1.018 1.018 0 00-.392-.378 1.83 1.83 0 00-.602-.196 4.475 4.475 0 00-.728-.056h-1.554v2.352zm1.386-3.318c.252 0 .48-.014.686-.042a1.71 1.71 0 00.546-.182.912.912 0 00.364-.336.942.942 0 00.14-.532c0-.224-.056-.401-.168-.532a1.016 1.016 0 00-.448-.294 2 2 0 00-.616-.14 5.53 5.53 0 00-.686-.042c-.215 0-.434.005-.658.014-.215.009-.397.019-.546.028v2.058h1.386zm-.028 4.424c-.551 0-1.06-.028-1.526-.084a8.668 8.668 0 01-1.106-.168v-7.084c.27-.065.639-.121 1.106-.168.466-.056.975-.084 1.526-.084.382 0 .756.033 1.12.098.364.065.686.177.966.336.28.149.504.359.672.63.177.261.266.588.266.98 0 .355-.089.658-.266.91a1.782 1.782 0 01-.714.588c.401.14.718.35.952.63.242.271.364.653.364 1.148 0 .439-.089.803-.266 1.092a1.905 1.905 0 01-.714.7 2.991 2.991 0 01-1.064.364c-.411.075-.85.112-1.316.112zm7.572-6.314c0 .308-.01.639-.028.994-.01.345-.033.695-.07 1.05-.038.345-.089.691-.154 1.036-.066.336-.15.653-.252.952a4.358 4.358 0 01-.392.84c-.15.261-.336.495-.56.7a3.338 3.338 0 01-.784.504 3.386 3.386 0 01-1.05.252l-.182-1.092c.457-.093.816-.266 1.078-.518.27-.252.485-.56.644-.924.14-.317.242-.677.308-1.078.065-.401.112-.817.14-1.246.028-.439.042-.877.042-1.316.009-.439.014-.854.014-1.246h4.844V328h-1.302v-6.188h-2.296zm5.427 2.562c0-.644.093-1.204.28-1.68.187-.485.434-.887.742-1.204a3.025 3.025 0 011.064-.714 3.316 3.316 0 011.232-.238c.98 0 1.731.308 2.254.924.523.607.784 1.535.784 2.786v.224c0 .084-.005.163-.014.238h-4.984c.056.756.275 1.33.658 1.722.383.392.98.588 1.792.588.457 0 .84-.037 1.148-.112a4.46 4.46 0 00.714-.238l.182 1.092c-.159.084-.439.173-.84.266-.392.093-.84.14-1.344.14-.635 0-1.185-.093-1.652-.28a3.156 3.156 0 01-1.134-.798 3.31 3.31 0 01-.672-1.19 5.29 5.29 0 01-.21-1.526zm4.998-.714c.009-.588-.14-1.069-.448-1.442-.299-.383-.714-.574-1.246-.574-.299 0-.565.061-.798.182a1.802 1.802 0 00-.574.448 2.195 2.195 0 00-.378.644c-.084.243-.14.49-.168.742h3.612zm9.192 4.34h-1.302v-3.22h-3.36V328h-1.302v-7.28h1.302v2.968h3.36v-2.968h1.302V328zm8.357-7.28V328h-1.26v-5.544c-.28.355-.588.77-.924 1.246-.336.476-.672.971-1.008 1.484a56.772 56.772 0 00-1.764 2.814h-1.162v-7.28h1.26v5.236c.243-.401.518-.84.826-1.316a39.338 39.338 0 011.946-2.786c.336-.439.649-.817.938-1.134h1.148zm1.83 3.654c0-.644.093-1.204.28-1.68.187-.485.434-.887.742-1.204a3.025 3.025 0 011.064-.714 3.316 3.316 0 011.232-.238c.98 0 1.731.308 2.254.924.523.607.784 1.535.784 2.786v.224c0 .084-.005.163-.014.238h-4.984c.056.756.275 1.33.658 1.722.383.392.98.588 1.792.588.457 0 .84-.037 1.148-.112a4.46 4.46 0 00.714-.238l.182 1.092c-.159.084-.439.173-.84.266-.392.093-.84.14-1.344.14-.635 0-1.185-.093-1.652-.28a3.156 3.156 0 01-1.134-.798 3.31 3.31 0 01-.672-1.19 5.29 5.29 0 01-.21-1.526zm4.998-.714c.009-.588-.14-1.069-.448-1.442-.299-.383-.714-.574-1.246-.574-.299 0-.565.061-.798.182a1.802 1.802 0 00-.574.448 2.195 2.195 0 00-.378.644c-.084.243-.14.49-.168.742h3.612zm12.278 3.262h.98v3.108h-1.232V328h-5.558v-7.28h1.302v6.202h3.206v-6.202h1.302v6.202zm3.668.098c.056.009.135.019.238.028.102.009.219.019.35.028.13 0 .266.005.406.014h.42c.27 0 .527-.019.77-.056.252-.037.466-.103.644-.196.186-.093.331-.215.434-.364.112-.159.168-.359.168-.602a.997.997 0 00-.154-.574 1.018 1.018 0 00-.392-.378 1.83 1.83 0 00-.602-.196 4.475 4.475 0 00-.728-.056h-1.554v2.352zm1.386-3.318c.252 0 .48-.014.686-.042a1.71 1.71 0 00.546-.182.912.912 0 00.364-.336.942.942 0 00.14-.532c0-.224-.056-.401-.168-.532a1.016 1.016 0 00-.448-.294 2 2 0 00-.616-.14 5.53 5.53 0 00-.686-.042c-.215 0-.434.005-.658.014-.215.009-.397.019-.546.028v2.058h1.386zm-.028 4.424c-.551 0-1.06-.028-1.526-.084a8.668 8.668 0 01-1.106-.168v-7.084c.27-.065.639-.121 1.106-.168.466-.056.975-.084 1.526-.084.382 0 .756.033 1.12.098.364.065.686.177.966.336.28.149.504.359.672.63.177.261.266.588.266.98 0 .355-.089.658-.266.91a1.782 1.782 0 01-.714.588c.401.14.718.35.952.63.242.271.364.653.364 1.148 0 .439-.089.803-.266 1.092a1.905 1.905 0 01-.714.7 2.991 2.991 0 01-1.064.364c-.411.075-.85.112-1.316.112zm4.631-3.752c0-.644.094-1.204.28-1.68.187-.485.434-.887.742-1.204a3.025 3.025 0 011.064-.714 3.32 3.32 0 011.232-.238c.98 0 1.732.308 2.254.924.523.607.784 1.535.784 2.786v.224c0 .084-.004.163-.014.238h-4.984c.056.756.276 1.33.658 1.722.383.392.98.588 1.792.588.458 0 .84-.037 1.148-.112.318-.084.556-.163.714-.238l.182 1.092c-.158.084-.438.173-.84.266-.392.093-.84.14-1.344.14-.634 0-1.185-.093-1.652-.28a3.156 3.156 0 01-1.134-.798 3.34 3.34 0 01-.672-1.19 5.29 5.29 0 01-.21-1.526zm4.998-.714c.01-.588-.14-1.069-.448-1.442-.298-.383-.714-.574-1.246-.574-.298 0-.564.061-.798.182a1.802 1.802 0 00-.574.448 2.24 2.24 0 00-.378.644c-.084.243-.14.49-.168.742h3.612zm8.367-2.94v1.092h-2.366V328h-1.302v-6.188h-2.366v-1.092h6.034zm7.768 3.64c0 .579-.084 1.101-.252 1.568a3.522 3.522 0 01-.714 1.204 3.116 3.116 0 01-1.078.784c-.42.177-.877.266-1.372.266a3.5 3.5 0 01-1.372-.266 3.267 3.267 0 01-1.092-.784 3.659 3.659 0 01-.7-1.204 4.605 4.605 0 01-.252-1.568c0-.569.084-1.087.252-1.554.168-.476.402-.882.7-1.218a3.096 3.096 0 011.092-.77c.42-.187.878-.28 1.372-.28.495 0 .952.093 1.372.28.42.177.78.434 1.078.77.308.336.546.742.714 1.218.168.467.252.985.252 1.554zm-1.358 0c0-.821-.186-1.47-.56-1.946-.364-.485-.863-.728-1.498-.728-.634 0-1.138.243-1.512.728-.364.476-.546 1.125-.546 1.946s.182 1.475.546 1.96c.374.476.878.714 1.512.714.635 0 1.134-.238 1.498-.714.374-.485.56-1.139.56-1.96zm4.576-1.722a56.17 56.17 0 00-.21 2.772c-.047.915-.084 1.778-.112 2.59h-1.246a66.98 66.98 0 01.084-1.778 118.11 118.11 0 01.28-3.738c.056-.616.117-1.204.182-1.764h1.19c.299.485.649 1.153 1.05 2.002.401.84.863 1.811 1.386 2.912.523-1.101.985-2.072 1.386-2.912.401-.849.751-1.517 1.05-2.002h1.204c.065.56.126 1.148.182 1.764a118.11 118.11 0 01.28 3.738c.037.616.065 1.209.084 1.778h-1.288c-.028-.812-.065-1.675-.112-2.59a56.17 56.17 0 00-.21-2.772c-.149.289-.322.639-.518 1.05-.196.401-.392.812-.588 1.232-.187.42-.364.821-.532 1.204-.168.383-.299.686-.392.91h-1.092a63.843 63.843 0 00-.42-.924c-.168-.383-.35-.784-.546-1.204a31.54 31.54 0 00-.574-1.246 20.294 20.294 0 00-.518-1.022zM17.575 374.2c1.363 0 2.408.261 3.136.784.737.513 1.106 1.283 1.106 2.31 0 .56-.103 1.041-.308 1.442a2.462 2.462 0 01-.868.966c-.373.243-.83.42-1.372.532a9.093 9.093 0 01-1.834.168h-1.078V384h-1.358v-9.562a7.245 7.245 0 011.274-.182c.476-.037.91-.056 1.302-.056zm.112 1.19c-.579 0-1.022.014-1.33.042v3.808h1.022c.467 0 .887-.028 1.26-.084.373-.065.686-.168.938-.308.261-.149.462-.35.602-.602.14-.252.21-.574.21-.966 0-.373-.075-.681-.224-.924a1.51 1.51 0 00-.588-.574 2.386 2.386 0 00-.854-.308 6.128 6.128 0 00-1.036-.084zm7.95 7.672c.308 0 .578-.005.812-.014.242-.019.443-.047.602-.084v-2.17c-.094-.047-.248-.084-.462-.112a4.347 4.347 0 00-.756-.056c-.196 0-.406.014-.63.042a1.889 1.889 0 00-.602.182 1.206 1.206 0 00-.448.364c-.122.149-.182.35-.182.602 0 .467.15.793.448.98.298.177.704.266 1.218.266zm-.112-6.524c.522 0 .961.07 1.316.21a2 2 0 01.868.574c.224.243.382.537.476.882.093.336.14.709.14 1.12v4.55l-.476.084a17.713 17.713 0 01-1.498.154c-.29.028-.579.042-.868.042-.41 0-.789-.042-1.134-.126a2.62 2.62 0 01-.896-.392 1.883 1.883 0 01-.588-.728c-.14-.299-.21-.658-.21-1.078 0-.401.08-.747.238-1.036.168-.289.392-.523.672-.7.28-.177.606-.308.98-.392a5.345 5.345 0 011.176-.126c.13 0 .266.009.406.028.14.009.27.028.392.056a6.25 6.25 0 01.532.098v-.364a2.87 2.87 0 00-.07-.63 1.395 1.395 0 00-.252-.56 1.187 1.187 0 00-.504-.392c-.206-.103-.476-.154-.812-.154-.43 0-.808.033-1.134.098a3.698 3.698 0 00-.714.182l-.154-1.078c.168-.075.448-.145.84-.21a6.786 6.786 0 011.274-.112zm6.81 0c.42 0 .812.042 1.176.126.364.084.677.21.938.378.262.168.467.378.616.63.15.252.224.546.224.882 0 .215-.037.411-.112.588a2.006 2.006 0 01-.658.84c-.13.093-.256.159-.378.196.43.131.766.364 1.008.7.252.327.378.742.378 1.246 0 .691-.28 1.204-.84 1.54-.56.336-1.32.504-2.282.504a7.29 7.29 0 01-1.526-.14c-.42-.093-.719-.182-.896-.266l.224-1.106c.15.056.415.135.798.238.392.093.859.14 1.4.14.588 0 1.036-.089 1.344-.266a.907.907 0 00.462-.826c0-.261-.06-.471-.182-.63a1.06 1.06 0 00-.434-.378 1.946 1.946 0 00-.574-.168 4.264 4.264 0 00-.574-.042H31.23v-1.036h1.176c.168 0 .34-.009.518-.028a1.66 1.66 0 00.504-.154 1.06 1.06 0 00.392-.308c.103-.14.154-.322.154-.546a.713.713 0 00-.14-.448.97.97 0 00-.35-.322 1.691 1.691 0 00-.532-.182 2.633 2.633 0 00-.616-.07c-.168 0-.35.014-.546.042a5.584 5.584 0 00-.574.112 4.784 4.784 0 00-.504.126c-.15.047-.256.089-.322.126l-.238-1.12a5.815 5.815 0 01.882-.238c.205-.037.42-.07.644-.098.224-.028.444-.042.658-.042zm6.388 2.1a55.447 55.447 0 00-.21 2.772A157.26 157.26 0 0038.4 384h-1.246c.018-.569.047-1.162.084-1.778a125.648 125.648 0 01.28-3.738c.056-.616.117-1.204.182-1.764h1.19c.299.485.648 1.153 1.05 2.002.401.84.863 1.811 1.386 2.912.523-1.101.985-2.072 1.386-2.912.401-.849.751-1.517 1.05-2.002h1.204c.065.56.126 1.148.182 1.764a125.648 125.648 0 01.28 3.738c.037.616.065 1.209.084 1.778h-1.288a157.26 157.26 0 00-.112-2.59 55.447 55.447 0 00-.21-2.772c-.15.289-.322.639-.518 1.05-.196.401-.392.812-.588 1.232-.187.42-.364.821-.532 1.204-.168.383-.299.686-.392.91H40.78a57.872 57.872 0 00-.42-.924c-.168-.383-.35-.784-.546-1.204a31.114 31.114 0 00-.574-1.246 20.043 20.043 0 00-.518-1.022zm8.448 1.736c0-.644.093-1.204.28-1.68.187-.485.434-.887.742-1.204a3.022 3.022 0 011.064-.714 3.317 3.317 0 011.232-.238c.98 0 1.731.308 2.254.924.523.607.784 1.535.784 2.786v.224c0 .084-.005.163-.014.238h-4.984c.056.756.275 1.33.658 1.722.383.392.98.588 1.792.588.457 0 .84-.037 1.148-.112a4.46 4.46 0 00.714-.238l.182 1.092c-.159.084-.439.173-.84.266-.392.093-.84.14-1.344.14-.635 0-1.185-.093-1.652-.28a3.151 3.151 0 01-1.134-.798 3.321 3.321 0 01-.672-1.19 5.29 5.29 0 01-.21-1.526zm4.998-.714c.01-.588-.14-1.069-.448-1.442-.299-.383-.714-.574-1.246-.574-.299 0-.565.061-.798.182a1.798 1.798 0 00-.574.448 2.213 2.213 0 00-.378.644c-.084.243-.14.49-.168.742h3.612zm3.228 4.34v-7.28H56.7v6.202h2.688v-6.202h1.302v6.202h2.688v-6.202h1.302v6.202h.98v3.108h-1.232V384h-9.03zm11.27-3.626c0-.644.093-1.204.28-1.68.187-.485.434-.887.742-1.204a3.022 3.022 0 011.064-.714 3.317 3.317 0 011.232-.238c.98 0 1.731.308 2.254.924.523.607.784 1.535.784 2.786v.224c0 .084-.004.163-.014.238h-4.984c.056.756.275 1.33.658 1.722.383.392.98.588 1.792.588.458 0 .84-.037 1.148-.112a4.46 4.46 0 00.714-.238l.182 1.092c-.159.084-.439.173-.84.266-.392.093-.84.14-1.344.14-.634 0-1.185-.093-1.652-.28a3.151 3.151 0 01-1.134-.798 3.321 3.321 0 01-.672-1.19 5.29 5.29 0 01-.21-1.526zm4.998-.714c.01-.588-.14-1.069-.448-1.442-.299-.383-.714-.574-1.246-.574-.299 0-.565.061-.798.182a1.798 1.798 0 00-.574.448 2.213 2.213 0 00-.378.644c-.084.243-.14.49-.168.742h3.612zm9.192 4.34h-1.302v-3.22h-3.36V384h-1.302v-7.28h1.302v2.968h3.36v-2.968h1.302V384zm8.358-7.28V384h-1.26v-5.544c-.28.355-.588.77-.924 1.246-.336.476-.672.971-1.008 1.484A56.772 56.772 0 0084.259 384h-1.162v-7.28h1.26v5.236c.242-.401.518-.84.826-1.316a38.442 38.442 0 011.946-2.786c.336-.439.648-.817.938-1.134h1.148zm1.83 3.654c0-.644.092-1.204.28-1.68a3.5 3.5 0 01.741-1.204 3.021 3.021 0 011.064-.714 3.317 3.317 0 011.232-.238c.98 0 1.731.308 2.254.924.523.607.784 1.535.784 2.786v.224c0 .084-.005.163-.014.238h-4.984c.056.756.275 1.33.658 1.722.383.392.98.588 1.792.588.457 0 .84-.037 1.148-.112a4.44 4.44 0 00.714-.238l.182 1.092c-.159.084-.439.173-.84.266-.392.093-.84.14-1.344.14-.635 0-1.185-.093-1.652-.28a3.15 3.15 0 01-1.134-.798 3.318 3.318 0 01-.672-1.19 5.29 5.29 0 01-.21-1.526zm4.997-.714c.01-.588-.14-1.069-.448-1.442-.299-.383-.714-.574-1.246-.574-.299 0-.565.061-.798.182a1.797 1.797 0 00-.574.448 2.209 2.209 0 00-.378.644c-.084.243-.14.49-.168.742h3.612zm7.743 3.36c.056.009.135.019.238.028.102.009.219.019.35.028.13 0 .266.005.406.014h.42c.27 0 .527-.019.77-.056.252-.037.466-.103.644-.196.186-.093.331-.215.434-.364.112-.159.168-.359.168-.602a.997.997 0 00-.154-.574 1.018 1.018 0 00-.392-.378 1.83 1.83 0 00-.602-.196 4.475 4.475 0 00-.728-.056h-1.554v2.352zm1.386-3.318c.252 0 .48-.014.686-.042a1.71 1.71 0 00.546-.182.912.912 0 00.364-.336.942.942 0 00.14-.532c0-.224-.056-.401-.168-.532a1.016 1.016 0 00-.448-.294 2 2 0 00-.616-.14 5.53 5.53 0 00-.686-.042c-.215 0-.434.005-.658.014-.215.009-.397.019-.546.028v2.058h1.386zm-.028 4.424c-.551 0-1.06-.028-1.526-.084a8.668 8.668 0 01-1.106-.168v-7.084c.27-.065.639-.121 1.106-.168.466-.056.975-.084 1.526-.084.382 0 .756.033 1.12.098.364.065.686.177.966.336.28.149.504.359.672.63.177.261.266.588.266.98 0 .355-.089.658-.266.91a1.782 1.782 0 01-.714.588c.401.14.718.35.952.63.242.271.364.653.364 1.148 0 .439-.089.803-.266 1.092a1.905 1.905 0 01-.714.7 2.991 2.991 0 01-1.064.364c-.411.075-.85.112-1.316.112zm7.382-1.19h.784a6.4 6.4 0 00.728-1.386 8.12 8.12 0 00.42-1.47c.093-.513.154-1.045.182-1.596.028-.56.046-1.148.056-1.764h4.774v6.216h.98v3.094h-1.232V384h-5.46v2.03h-1.232v-3.094zm5.642 0v-5.124h-2.282c-.01.439-.033.882-.07 1.33a12.92 12.92 0 01-.182 1.316 7.962 7.962 0 01-.364 1.274c-.15.411-.341.812-.574 1.204h3.472zm8.743-2.562c0-.849-.21-1.503-.63-1.96-.42-.457-.98-.686-1.68-.686-.392 0-.7.014-.924.042a3.772 3.772 0 00-.518.098v4.592c.159.131.388.257.686.378.299.121.626.182.98.182.374 0 .691-.065.952-.196.271-.14.49-.327.658-.56.168-.243.29-.523.364-.84a4.69 4.69 0 00.112-1.05zm1.358 0c0 .551-.074 1.059-.224 1.526-.14.467-.35.868-.63 1.204a2.88 2.88 0 01-1.036.784c-.401.187-.863.28-1.386.28-.42 0-.793-.056-1.12-.168a3.542 3.542 0 01-.714-.322v2.912h-1.302v-9.646a21.19 21.19 0 011.148-.238 8.305 8.305 0 011.61-.14c.56 0 1.064.089 1.512.266.448.177.831.429 1.148.756.318.327.56.728.728 1.204.178.467.266.994.266 1.582zm.787 4.984c.103.047.233.089.392.126.168.047.331.07.49.07.513 0 .915-.117 1.204-.35.289-.224.551-.593.784-1.106a41.605 41.605 0 01-1.652-3.556 32.103 32.103 0 01-1.26-3.822h1.4c.103.42.224.873.364 1.358.149.485.313.985.49 1.498s.369 1.027.574 1.54c.205.513.42 1.008.644 1.484.355-.98.663-1.951.924-2.912.261-.961.509-1.951.742-2.968h1.344a56.406 56.406 0 01-1.12 3.962 40.868 40.868 0 01-1.33 3.542c-.187.42-.383.779-.588 1.078-.196.308-.415.56-.658.756a2.413 2.413 0 01-.826.434c-.299.093-.639.14-1.022.14-.103 0-.21-.009-.322-.028a2.067 2.067 0 01-.336-.056 2.751 2.751 0 01-.294-.07 1.449 1.449 0 01-.182-.07l.238-1.05zm12.321-7.546h-3.206V384h-1.302v-7.28h4.508v1.092zm7.77 2.548c0 .579-.084 1.101-.252 1.568a3.522 3.522 0 01-.714 1.204 3.126 3.126 0 01-1.078.784 3.5 3.5 0 01-1.372.266c-.495 0-.952-.089-1.372-.266a3.267 3.267 0 01-1.092-.784 3.641 3.641 0 01-.7-1.204 4.605 4.605 0 01-.252-1.568c0-.569.084-1.087.252-1.554a3.62 3.62 0 01.7-1.218 3.096 3.096 0 011.092-.77c.42-.187.877-.28 1.372-.28.494 0 .952.093 1.372.28.42.177.779.434 1.078.77.308.336.546.742.714 1.218.168.467.252.985.252 1.554zm-1.358 0c0-.821-.187-1.47-.56-1.946-.364-.485-.864-.728-1.498-.728-.635 0-1.139.243-1.512.728-.364.476-.546 1.125-.546 1.946s.182 1.475.546 1.96c.373.476.877.714 1.512.714.634 0 1.134-.238 1.498-.714.373-.485.56-1.139.56-1.96zm4.575-1.722a56.17 56.17 0 00-.21 2.772c-.046.915-.084 1.778-.112 2.59h-1.246a66.98 66.98 0 01.084-1.778c.038-.625.08-1.251.126-1.876.047-.635.098-1.255.154-1.862.056-.616.117-1.204.182-1.764h1.19c.299.485.649 1.153 1.05 2.002.402.84.864 1.811 1.386 2.912.523-1.101.985-2.072 1.386-2.912.402-.849.752-1.517 1.05-2.002h1.204a94.793 94.793 0 01.336 3.626c.047.625.089 1.251.126 1.876.038.616.066 1.209.084 1.778h-1.288c-.028-.812-.065-1.675-.112-2.59a53.83 53.83 0 00-.21-2.772c-.149.289-.322.639-.518 1.05-.196.401-.392.812-.588 1.232-.186.42-.364.821-.532 1.204-.168.383-.298.686-.392.91h-1.092a47.505 47.505 0 00-.42-.924c-.168-.383-.35-.784-.546-1.204a30.163 30.163 0 00-.574-1.246 19.482 19.482 0 00-.518-1.022zm16.603-.826h-3.206V384h-1.302v-7.28h4.508v1.092zm7.769 2.548c0 .579-.084 1.101-.252 1.568a3.522 3.522 0 01-.714 1.204 3.116 3.116 0 01-1.078.784c-.42.177-.877.266-1.372.266a3.5 3.5 0 01-1.372-.266 3.267 3.267 0 01-1.092-.784 3.659 3.659 0 01-.7-1.204 4.605 4.605 0 01-.252-1.568c0-.569.084-1.087.252-1.554.168-.476.402-.882.7-1.218a3.096 3.096 0 011.092-.77c.42-.187.878-.28 1.372-.28.495 0 .952.093 1.372.28.42.177.78.434 1.078.77.308.336.546.742.714 1.218.168.467.252.985.252 1.554zm-1.358 0c0-.821-.186-1.47-.56-1.946-.364-.485-.863-.728-1.498-.728-.634 0-1.138.243-1.512.728-.364.476-.546 1.125-.546 1.946s.182 1.475.546 1.96c.374.476.878.714 1.512.714.635 0 1.134-.238 1.498-.714.374-.485.56-1.139.56-1.96zm8.244.014c0-.849-.21-1.503-.63-1.96-.42-.457-.98-.686-1.68-.686-.392 0-.7.014-.924.042a3.772 3.772 0 00-.518.098v4.592c.159.131.388.257.686.378.299.121.626.182.98.182.374 0 .691-.065.952-.196.271-.14.49-.327.658-.56.168-.243.29-.523.364-.84a4.69 4.69 0 00.112-1.05zm1.358 0c0 .551-.074 1.059-.224 1.526-.14.467-.35.868-.63 1.204a2.88 2.88 0 01-1.036.784c-.401.187-.863.28-1.386.28-.42 0-.793-.056-1.12-.168a3.542 3.542 0 01-.714-.322v2.912h-1.302v-9.646a21.19 21.19 0 011.148-.238 8.305 8.305 0 011.61-.14c.56 0 1.064.089 1.512.266.448.177.831.429 1.148.756.318.327.56.728.728 1.204.178.467.266.994.266 1.582zm8.258-.014c0 .579-.084 1.101-.252 1.568a3.522 3.522 0 01-.714 1.204 3.116 3.116 0 01-1.078.784c-.42.177-.877.266-1.372.266a3.5 3.5 0 01-1.372-.266 3.267 3.267 0 01-1.092-.784 3.659 3.659 0 01-.7-1.204 4.605 4.605 0 01-.252-1.568c0-.569.084-1.087.252-1.554.168-.476.402-.882.7-1.218a3.096 3.096 0 011.092-.77c.42-.187.878-.28 1.372-.28.495 0 .952.093 1.372.28.42.177.78.434 1.078.77.308.336.546.742.714 1.218.168.467.252.985.252 1.554zm-1.358 0c0-.821-.186-1.47-.56-1.946-.364-.485-.863-.728-1.498-.728-.634 0-1.138.243-1.512.728-.364.476-.546 1.125-.546 1.946s.182 1.475.546 1.96c.374.476.878.714 1.512.714.635 0 1.134-.238 1.498-.714.374-.485.56-1.139.56-1.96zm2.294 2.576h.784c.308-.448.551-.91.728-1.386.187-.476.327-.966.42-1.47.094-.513.154-1.045.182-1.596.028-.56.047-1.148.056-1.764h4.774v6.216h.98v3.094h-1.232V384h-5.46v2.03h-1.232v-3.094zm5.642 0v-5.124h-2.282a20.76 20.76 0 01-.07 1.33c-.037.439-.098.877-.182 1.316a7.86 7.86 0 01-.364 1.274 7 7 0 01-.574 1.204h3.472zm3.284-2.562c0-.644.093-1.204.28-1.68.186-.485.434-.887.742-1.204a3.016 3.016 0 011.064-.714 3.316 3.316 0 011.232-.238c.98 0 1.731.308 2.254.924.522.607.784 1.535.784 2.786v.224c0 .084-.005.163-.014.238h-4.984c.056.756.275 1.33.658 1.722.382.392.98.588 1.792.588.457 0 .84-.037 1.148-.112a4.46 4.46 0 00.714-.238l.182 1.092c-.159.084-.439.173-.84.266-.392.093-.84.14-1.344.14-.635 0-1.186-.093-1.652-.28a3.14 3.14 0 01-1.134-.798 3.31 3.31 0 01-.672-1.19 5.29 5.29 0 01-.21-1.526zm4.998-.714c.009-.588-.14-1.069-.448-1.442-.299-.383-.714-.574-1.246-.574-.299 0-.565.061-.798.182a1.79 1.79 0 00-.574.448 2.195 2.195 0 00-.378.644c-.084.243-.14.49-.168.742h3.612zM80.994 187.219h-9.61l-4.29-9.515h-.085l-.944 9.515H58l2.145-22.416h8.065l-.858 8.784h.086l5.834-8.784h9.18l-8.064 10.522 6.606 11.894zm52.514 0h-7.244l1.927-22.416h7.243l-1.926 22.416zm31.033 0h-9.609l-4.29-9.515h-.086l-.944 9.515h-8.065l2.145-22.416h8.065l-.858 8.784h.086l5.834-8.784H166l-8.065 10.522 6.606 11.894z" fill="#2C2C2C"/><path d="M122.96 167.337c-8.82 9.398-17.303 21.436-19.558 26.125-2.619-4.892-6.458-11.814-11.332-19.244-4.874-7.429-9.26-11.692-13.464-15.407 0 0 .438-1.486-.244-3.532-.683-2.046-2.64-4.852-3.473-5.724.183.101 1.148.773 2.376 1.644 1.889 1.34 3.453 2.882 4.935 4.384.04-.182.451-.682.792-2.192.341-1.51-.101-2.618-.243-2.862 0 0 4.265 2.893 10.479 8.952 7.311 7.13 10.601 11.997 10.601 11.997s2.871-5.894 11.88-15.286c12.795-13.336 23.396-19.304 23.396-19.304s-11.698 9.256-19.131 16.625c-5.437 5.39-10.053 11.875-10.053 11.875s8.334-10.109 19.07-19.061C138.714 138.22 144.527 135 144.527 135s-.649 1.035-.914 2.619c-.12.72.366 1.766.366 1.766s-3.168 2.601-9.931 8.586c-4.935 4.368-8.286 8.221-8.286 8.221 5.057-4.506 13.343-10.657 19.801-14.493 0 0-3.513 3.045-5.666 6.272-2.038 3.056-1.971 5.42-1.95 6.142v.009s-7.615 5.359-14.987 13.215z" fill="url(#paint0_linear)"/></g><defs><linearGradient id="paint0_linear" x1="110.226" y1="135" x2="110.226" y2="193.462" gradientUnits="userSpaceOnUse"><stop stopColor="#52B9C5"/><stop offset="1" stopColor="#00A0AB"/></linearGradient><clipPath id="clip0"><path d="M0 8a8 8 0 018-8h208a8 8 0 018 8v464a8 8 0 01-8 8H8a8 8 0 01-8-8V8z" fill="#fff"/></clipPath></defs></svg>