<svg width="24" height="24" fill="none" xmlns="http://www.w3.org/2000/svg"><path d="M12.13 2c-1.669 0-2.086 1.044-1.738 1.74h3.13c.348 0 .391-1.74-1.391-1.74z" fill="#00A0AB"/><path fillRule="evenodd" clipRule="evenodd" d="M16.51 4.042c-.639-.2-1.308-.311-2.087-.426v7.602a.348.348 0 11-.695 0v-7.7a17.104 17.104 0 00-3.479-.07v7.77a.348.348 0 11-.695 0V3.519c-.115.014-.231.03-.348.046-.674.096-1.242.198-1.74.33v3.149a.348.348 0 01-.695 0V4.118c-.925.356-1.62.904-2.435 1.882-1.287 1.545-2.575 4.698-2.76 7.641a.954.954 0 00.642.947c2.01.733 5.101 1.847 9.77 1.847 4.866 0 7.095-.806 9.006-1.498a37.71 37.71 0 011.047-.368c.428-.14.734-.534.711-.984-.098-1.986-.628-5.102-2.763-7.237-1.065-1.065-1.924-1.67-2.783-2.047v2.743a.348.348 0 11-.696 0V4.042zM11.64 22C3.91 22 .82 19.49 1.009 16.465c.037-.586.666-.884 1.218-.685a28.68 28.68 0 009.762 1.698c5.969 0 9.068-1.4 10.231-1.925.37-.167.545-.245.552-.162.348 3.827-.348 6.61-11.13 6.61z" fill="#00A0AB"/></svg>