<svg width="24" height="24" fill="none" xmlns="http://www.w3.org/2000/svg"><path fill-rule="evenodd" clip-rule="evenodd" d="M6.982 14.933h9.183a1.768 1.768 0 003.487 0h1.35c.884 0 2.251-.81 1.957-1.989-.226-.906-1.114-1.608-2.494-1.695a51.046 51.046 0 00-1.57-.07c-1.086-.036-1.63-.055-2.157-.372-.119-.07-.24-.146-.365-.224-1.05-.651-2.407-1.494-4.799-1.543-.254-.006-.49-.012-.713-.019-1.342-.039-2.276-.065-4.296.313-.922.173-1.558.441-2.08.66-.49.208-.88.372-1.309.372-.884 0-1.768.147-1.768.883v1.18s-.81.588-.147 1.472c.393.524 1.271.825 2.223.955a1.768 1.768 0 003.498.077zm3.405-5.304l.59 1.768h4.125c.884-.59-.498-1.136-1.62-1.473-1.035-.31-1.479-.307-2.481-.298-.183.001-.386.003-.614.003zm-2.834 1.768h2.652l-.508-1.755s-.385-.004-1.38.138c-.967.138-1.243.276-1.243.276l.48 1.34zm-2.315 4.125a.884.884 0 100-1.768.884.884 0 000 1.768zm13.555-.884a.884.884 0 11-1.768 0 .884.884 0 011.768 0zm-12.41-4.444l.415 1.242h-1.38c-.415 0-.884-.469-.553-.69.332-.22 1.519-.552 1.519-.552z" fill="#8F8F8F"/></svg>