<svg width="24" height="24" fill="none" xmlns="http://www.w3.org/2000/svg"><path fill-rule="evenodd" clip-rule="evenodd" d="M16.98 14.278H6.652a1.671 1.671 0 01-3.306-.072c-.9-.123-1.729-.407-2.1-.902-.627-.836.14-1.393.14-1.393v-.7c0-.697.834-.836 1.67-.836.32 0 .736-.25 1.249-.557.823-.493 1.895-1.135 3.221-1.135h5.32c1.802 0 3.269.94 4.25 1.57.333.214.61.392.826.485.185.079.608.11 1.2.152.567.041 1.29.093 2.11.21 1.163.166 1.767.998 1.767 1.934 0 1.148-.604 1.244-1.767 1.244h-.958a1.671 1.671 0 01-3.296 0zm-4.134-3.341v-1.65s.518-.04 1.692.242c.945.226 2.176 1.088 1.088 1.408h-2.78zm-3.569.042H7.044V9.287h2.233v1.692zM5.841 14a.835.835 0 11-1.671 0 .835.835 0 011.67 0zm12.785.835a.835.835 0 100-1.67.835.835 0 000 1.67zM6.32 10.98V9.53s-1.572.483-1.693.846c-.19.573.726.604.726.604h.967zm3.626 0h2.176V9.287H9.945v1.692z" fill="#8F8F8F"/></svg>