<svg width="101" height="53" viewBox="0 0 101 53" fill="none" xmlns="http://www.w3.org/2000/svg">
<path d="M21.4122 49.3118H12.4638L8.46901 40.4824H8.38911L7.51025 49.3118H0L1.99741 28.5117H9.50766L8.7087 36.662H8.7886L14.2215 28.5117H22.7705L15.2602 38.275L21.4122 49.3118Z" fill="#2C2C2C"/>
<path d="M70.3125 49.3118H63.5675L65.3614 28.5117H72.1064L70.3125 49.3118Z" fill="#2C2C2C"/>
<path d="M99.2112 49.3118H90.2628L86.268 40.4824H86.1881L85.3093 49.3118H77.799L79.7964 28.5117H87.3067L86.5077 36.662H86.5876L92.0205 28.5117H100.569L93.0592 38.275L99.2112 49.3118Z" fill="#2C2C2C"/>
<path d="M56.6794 29.3156C48.8176 37.8358 41.2553 48.749 39.2458 53C36.9105 48.5649 33.4889 42.2897 29.1441 35.5542C24.7993 28.8187 20.8889 24.9541 17.1415 21.5864C17.1415 21.5864 17.5325 20.2394 16.9243 18.3844C16.316 16.5294 14.5708 13.9861 13.8286 13.1948C13.9915 13.2868 14.8523 13.8959 15.9467 14.6854C17.6303 15.9 19.0243 17.2986 20.3458 18.6604C20.382 18.4948 20.3458 18 20.3286 17.5C20.2238 14.4604 18.8286 11.7593 18.8286 11.7593C18.8286 11.7593 24.6369 16.7005 30.176 22.1938C36.6932 28.6572 39.626 33.0698 39.626 33.0698C39.626 33.0698 42.1851 27.7266 50.2165 19.2125C61.6217 7.1218 71.0717 1.71142 71.0717 1.71142C71.0717 1.71142 60.6441 10.1031 54.0182 16.7833C49.1714 21.6699 45.057 27.5489 45.057 27.5489C45.057 27.5489 52.4854 18.3844 62.0562 10.2688C70.7233 2.91934 75.9053 0 75.9053 0C75.9053 0 75.326 0.938542 75.0906 2.37396C74.9835 3.02745 75.4165 3.975 75.4165 3.975C75.4165 3.975 72.5924 6.33335 66.5639 11.7593C62.1648 15.7189 59.1777 19.2125 59.1777 19.2125C63.6855 15.1271 71.0717 9.55105 76.8286 6.07288C76.8286 6.07288 73.6967 8.8333 71.7777 11.7593C69.9608 14.5298 70.0211 16.6727 70.0395 17.327L70.0398 17.3354C70.0398 17.3354 63.251 22.1938 56.6794 29.3156Z" fill="#52B9C5"/>
</svg>
