<svg width="24" height="24" fill="none" xmlns="http://www.w3.org/2000/svg"><mask id="a" maskUnits="userSpaceOnUse" x="2.586" y="2.422" width="19.799" height="19.799" fill="#000"><path fill="#fff" d="M2.586 2.422h19.799v19.799H2.586z"/><path fillRule="evenodd" clipRule="evenodd" d="M4.518 12.322c0-.69.56-1.25 1.25-1.25h13.108a1.25 1.25 0 010 2.5H5.768c-.69 0-1.25-.56-1.25-1.25z"/></mask><path fillRule="evenodd" clipRule="evenodd" d="M4.518 12.322c0-.69.56-1.25 1.25-1.25h13.108a1.25 1.25 0 010 2.5H5.768c-.69 0-1.25-.56-1.25-1.25z" fill="#fff"/><path d="M5.768 11.072v-1 1zm13.108 0v1-1zm0 2.5v-1 1zm-13.108 0v1-1zm0-3.5a2.25 2.25 0 00-2.25 2.25h2a.25.25 0 01.25-.25v-2zm13.108 0H5.768v2h13.108v-2zm2.25 2.25a2.25 2.25 0 00-2.25-2.25v2a.25.25 0 01.25.25h2zm-2.25 2.25a2.25 2.25 0 002.25-2.25h-2a.25.25 0 01-.25.25v2zm-13.108 0h13.108v-2H5.768v2zm-2.25-2.25a2.25 2.25 0 002.25 2.25v-2a.25.25 0 01-.25-.25h-2z" fill="#5A5A5A" mask="url(#a)"/></svg>