<svg width="24" height="24" fill="none" xmlns="http://www.w3.org/2000/svg"><path fillRule="evenodd" clipRule="evenodd" d="M1 7a1 1 0 011-1h15v13H2a1 1 0 01-1-1V7zm17 12V6h4a1 1 0 011 1v11a1 1 0 01-1 1h-4zm2-11a1 1 0 00-1 1v1a1 1 0 001 1h1a1 1 0 001-1V9a1 1 0 00-1-1h-1zm-1 4.5a.5.5 0 01.5-.5h2a.5.5 0 110 1h-2a.5.5 0 01-.5-.5zm.5 1.5a.5.5 0 100 1h2a.5.5 0 100-1h-2zm-.5 2.5a.5.5 0 01.5-.5h2a.5.5 0 110 1h-2a.5.5 0 01-.5-.5zM4 8a1 1 0 00-1 1v7a1 1 0 001 1h10a1 1 0 001-1V9a1 1 0 00-1-1H4z" fill="#00A0AB"/></svg>