<!-- <svg width="77" height="80" viewBox="0 0 77 80" fill="none" xmlns="http://www.w3.org/2000/svg">
<g filter="url(#filter0_d_4512_50612)">
<path fill-rule="evenodd" clip-rule="evenodd" d="M40.1258 20.5441C39.7039 20.1818 39.1838 19.7578 38.6019 19.3317C37.8345 18.7698 36.9279 18.1807 35.9734 17.7266C35.0372 17.2811 33.9386 16.909 32.8182 16.9092C29.7233 16.9098 25.599 18.2226 23.2126 21.8933C20.0893 26.6977 20.0893 33.788 23.2127 38.5921C24.4281 40.4616 27.3784 43.5671 30.3967 46.5578C33.4746 49.6075 36.8065 52.714 38.9385 54.6464C39.581 55.2288 40.5322 55.2402 41.1874 54.6734C43.6359 52.555 47.396 49.1169 50.7378 45.6687C52.4076 43.9456 53.9945 42.1979 55.2666 40.5965C56.4993 39.0445 57.5738 37.4631 58.0478 36.0963C59.9992 30.4685 59.747 23.2631 53.7105 19.2837C49.8865 16.7628 46.0659 17.4389 43.3741 18.6217C42.03 19.2123 40.922 19.9443 40.1528 20.5237C40.1438 20.5306 40.1348 20.5374 40.1258 20.5441ZM38.8742 24.227C38.8741 24.2269 38.8742 24.227 38.8742 24.227C39.5436 24.8968 40.5989 24.9016 41.2726 24.2364ZM38.8742 24.227L38.8695 24.2224L38.8418 24.1951C38.8159 24.1697 38.7752 24.1303 38.7212 24.0788C38.613 23.9758 38.4517 23.8252 38.2475 23.643C37.8372 23.2767 37.2633 22.7914 36.6057 22.3099C35.9434 21.8249 35.2276 21.3671 34.5321 21.0362C33.8182 20.6966 33.2391 20.5455 32.8188 20.5455C30.4688 20.546 27.6296 21.5692 26.0902 23.937C23.7688 27.5079 23.7689 32.9778 26.0902 36.5483C27.0527 38.0287 29.6984 40.8553 32.7902 43.9188C35.3284 46.4338 38.0489 48.9945 40.1014 50.8801C42.4329 48.814 45.5192 45.9438 48.2936 43.0809C49.9209 41.4018 51.4193 39.7473 52.5898 38.2737C53.7996 36.7506 54.5249 35.5841 54.7769 34.8573C56.4553 30.0168 55.9078 25.0314 51.8545 22.3594C49.3264 20.6928 46.7948 21.0632 44.7224 21.9739C43.6845 22.43 42.8074 23.0064 42.187 23.4738C41.8791 23.7057 41.6403 23.9063 41.483 24.0446C41.4045 24.1136 41.3467 24.1667 41.3112 24.1999L41.275 24.2342L41.2726 24.2364" fill="white"/>
</g>
<defs>
<filter id="filter0_d_4512_50612" x="0.870117" y="0.90918" width="78.2637" height="78.1816" filterUnits="userSpaceOnUse" color-interpolation-filters="sRGB">
<feFlood flood-opacity="0" result="BackgroundImageFix"/>
<feColorMatrix in="SourceAlpha" type="matrix" values="0 0 0 0 0 0 0 0 0 0 0 0 0 0 0 0 0 0 127 0" result="hardAlpha"/>
<feOffset dy="4"/>
<feGaussianBlur stdDeviation="10"/>
<feColorMatrix type="matrix" values="0 0 0 0 0 0 0 0 0 0 0 0 0 0 0 0 0 0 0.1 0"/>
<feBlend mode="normal" in2="BackgroundImageFix" result="effect1_dropShadow_4512_50612"/>
<feBlend mode="normal" in="SourceGraphic" in2="effect1_dropShadow_4512_50612" result="shape"/>
</filter>
</defs>
</svg> -->

<svg width="18" height="18" viewBox="0 0 18 18" fill="none" xmlns="http://www.w3.org/2000/svg">
<path fill-rule="evenodd" clip-rule="evenodd" d="M9.05667 2.04491C8.86682 1.88184 8.63277 1.69105 8.37089 1.4993C8.02556 1.24644 7.61759 0.981362 7.18809 0.77701C6.76678 0.576559 6.27241 0.409085 5.76824 0.40918C4.37552 0.409441 2.51959 1.00021 1.44573 2.65204C0.0402169 4.81401 0.040228 8.00466 1.44575 10.1665C1.99269 11.0078 3.32032 12.4053 4.67857 13.7511C6.0636 15.1234 7.56297 16.5213 8.52237 17.3909C8.81151 17.653 9.23955 17.6582 9.53436 17.4031C10.6362 16.4498 12.3283 14.9027 13.8321 13.351C14.5835 12.5756 15.2976 11.7891 15.87 11.0685C16.4247 10.3701 16.9083 9.65845 17.1215 9.04338C17.9997 6.51085 17.8862 3.26844 15.1698 1.4777C13.449 0.343298 11.7297 0.647549 10.5184 1.17981C9.91354 1.4456 9.41496 1.77499 9.06883 2.03573C9.06476 2.0388 9.06071 2.04186 9.05667 2.04491ZM8.49343 3.7022C8.49341 3.70217 8.49346 3.70222 8.49343 3.7022C8.79466 4.00362 9.26956 4.00575 9.57272 3.70645ZM8.49343 3.7022L8.49134 3.70012L8.47887 3.68785C8.46719 3.67643 8.4489 3.65868 8.42458 3.63553C8.37589 3.58917 8.30332 3.5214 8.21143 3.43939C8.02678 3.27458 7.76854 3.05619 7.47263 2.83952C7.17457 2.62127 6.85249 2.41526 6.53947 2.26633C6.21826 2.1135 5.95763 2.04551 5.76853 2.04554C4.71101 2.04574 3.43336 2.50617 2.74064 3.57172C1.696 5.1786 1.69604 7.64007 2.74064 9.24679C3.17375 9.91296 4.36431 11.1849 5.75564 12.5635C6.89785 13.6952 8.12208 14.8476 9.04568 15.6961C10.0949 14.7664 11.4837 13.4747 12.7322 12.1865C13.4644 11.4308 14.1387 10.6863 14.6655 10.0232C15.2099 9.33782 15.5362 8.81289 15.6497 8.48581C16.4049 6.30762 16.1586 4.06417 14.3346 2.86177C13.1969 2.1118 12.0577 2.2785 11.1251 2.68829C10.6581 2.89353 10.2634 3.15294 9.98421 3.36324C9.84564 3.46763 9.7382 3.55789 9.66741 3.62011C9.63208 3.65116 9.60608 3.67505 9.59009 3.69L9.57379 3.70544L9.57272 3.70645" fill="white"/>
</svg>

