<svg width="77" height="80" viewBox="0 0 77 80" fill="none" xmlns="http://www.w3.org/2000/svg">
<g filter="url(#filter0_d_4512_50612)">
<path fill-rule="evenodd" clip-rule="evenodd" d="M40.1258 20.5441C39.7039 20.1818 39.1838 19.7578 38.6019 19.3317C37.8345 18.7698 36.9279 18.1807 35.9734 17.7266C35.0372 17.2811 33.9386 16.909 32.8182 16.9092C29.7233 16.9098 25.599 18.2226 23.2126 21.8933C20.0893 26.6977 20.0893 33.788 23.2127 38.5921C24.4281 40.4616 27.3784 43.5671 30.3967 46.5578C33.4746 49.6075 36.8065 52.714 38.9385 54.6464C39.581 55.2288 40.5322 55.2402 41.1874 54.6734C43.6359 52.555 47.396 49.1169 50.7378 45.6687C52.4076 43.9456 53.9945 42.1979 55.2666 40.5965C56.4993 39.0445 57.5738 37.4631 58.0478 36.0963C59.9992 30.4685 59.747 23.2631 53.7105 19.2837C49.8865 16.7628 46.0659 17.4389 43.3741 18.6217C42.03 19.2123 40.922 19.9443 40.1528 20.5237C40.1438 20.5306 40.1348 20.5374 40.1258 20.5441ZM38.8742 24.227C38.8741 24.2269 38.8742 24.227 38.8742 24.227C39.5436 24.8968 40.5989 24.9016 41.2726 24.2364ZM38.8742 24.227L38.8695 24.2224L38.8418 24.1951C38.8159 24.1697 38.7752 24.1303 38.7212 24.0788C38.613 23.9758 38.4517 23.8252 38.2475 23.643C37.8372 23.2767 37.2633 22.7914 36.6057 22.3099C35.9434 21.8249 35.2276 21.3671 34.5321 21.0362C33.8182 20.6966 33.2391 20.5455 32.8188 20.5455C30.4688 20.546 27.6296 21.5692 26.0902 23.937C23.7688 27.5079 23.7689 32.9778 26.0902 36.5483C27.0527 38.0287 29.6984 40.8553 32.7902 43.9188C35.3284 46.4338 38.0489 48.9945 40.1014 50.8801C42.4329 48.814 45.5192 45.9438 48.2936 43.0809C49.9209 41.4018 51.4193 39.7473 52.5898 38.2737C53.7996 36.7506 54.5249 35.5841 54.7769 34.8573C56.4553 30.0168 55.9078 25.0314 51.8545 22.3594C49.3264 20.6928 46.7948 21.0632 44.7224 21.9739C43.6845 22.43 42.8074 23.0064 42.187 23.4738C41.8791 23.7057 41.6403 23.9063 41.483 24.0446C41.4045 24.1136 41.3467 24.1667 41.3112 24.1999L41.275 24.2342L41.2726 24.2364" fill="white"/>
</g>
<defs>
<filter id="filter0_d_4512_50612" x="0.870117" y="0.90918" width="78.2637" height="78.1816" filterUnits="userSpaceOnUse" color-interpolation-filters="sRGB">
<feFlood flood-opacity="0" result="BackgroundImageFix"/>
<feColorMatrix in="SourceAlpha" type="matrix" values="0 0 0 0 0 0 0 0 0 0 0 0 0 0 0 0 0 0 127 0" result="hardAlpha"/>
<feOffset dy="4"/>
<feGaussianBlur stdDeviation="10"/>
<feColorMatrix type="matrix" values="0 0 0 0 0 0 0 0 0 0 0 0 0 0 0 0 0 0 0.1 0"/>
<feBlend mode="normal" in2="BackgroundImageFix" result="effect1_dropShadow_4512_50612"/>
<feBlend mode="normal" in="SourceGraphic" in2="effect1_dropShadow_4512_50612" result="shape"/>
</filter>
</defs>
</svg>
