<svg width="24" height="24" fill="none" xmlns="http://www.w3.org/2000/svg"><path fill-rule="evenodd" clip-rule="evenodd" d="M6 14.968h11V15a2 2 0 103.998-.095c1.225-.122 2.502-.48 2.502-1.528 0-1.59-1.568-2.688-4.704-2.688-.377 0-.864-.348-1.49-.793C16.195 9.103 14.647 8 12.524 8H2.772c-.343 0-.44.47-.124.606l-1.59 2.12v2.576c-.236.1-.672.424-.53.909.122.418.497.62 1.474.705A2 2 0 106 15v-.032zm6-4.09h2.614c.353 0 1.045-.19 1.045-.757 0-.777-1.772-1.515-2.614-1.515H12v2.272zm-4.535 0h4.012V8.606H7.818l-.353 2.272zm-.692 0l.53-2.272H4.592c-.707.404-1.286 1.067-.354 1.666.707.455 1.651.606 2.535.606zM20 15a1 1 0 11-2 0 1 1 0 012 0zM4 16a1 1 0 100-2 1 1 0 000 2z" fill="#8F8F8F"/></svg>