<svg width="24" height="24" fill="none" xmlns="http://www.w3.org/2000/svg"><path fill-rule="evenodd" clip-rule="evenodd" d="M24 12c0 6.627-5.373 12-12 12S0 18.627 0 12 5.373 0 12 0s12 5.373 12 12zm-16.853.587c-.408.804.056 1.188 1.114 1.844.9.556 2.144.759 2.942.84l-.032.032-3.115 2.996c-.916.878.559 2.286 1.474 1.427l2.478-2.39.046.045a482.1 482.1 0 012.432 2.348c.916.863 2.39-.534 1.484-1.427l-1.395-1.338-.007-.006-1.755-1.683c.808-.082 2.033-.297 2.922-.841 1.058-.66 1.522-1.043 1.12-1.847-.244-.456-.9-.837-1.773-.178 0 0-1.18.904-3.081.904-1.903 0-3.082-.904-3.082-.904-.872-.662-1.531-.278-1.772.178zm9.064-4.535c0 2.23-1.893 4.043-4.212 4.043s-4.212-1.812-4.212-4.043C7.787 5.812 9.68 4 11.999 4s4.212 1.812 4.212 4.052zm-2.143 0c0-1.105-.93-2-2.069-2-1.14 0-2.069.894-2.068 2 0 1.096.929 1.99 2.068 1.99 1.14 0 2.069-.894 2.069-1.99z" fill="#00A0AB"/></svg>