<svg width="24" height="24" fill="none" xmlns="http://www.w3.org/2000/svg"><path d="M20.882 8.137C20.5 7 20.5 7 20 5.5c-.5-1-2.31-1.657-2.31-1.657a18.806 18.806 0 00-2.436-.696V1.754A6.154 6.154 0 0012.353 1h-1.045c-.754.058-1.857.174-2.901.754v1.393s-1.16.232-2.437.696c0-.077-1.892.863-2.47 1.657-.422 1.206-.663 2.637-.663 2.637-.337.863-1.16 7.775-.929 13.229h.29v.116c0 .348.29.58.639.58h1.45c.349 0 .639-.232.639-.58v-.116h.29s-.29-8.587 1.218-10.792V21.25s2.785.754 5.106.87V2.276s-1.276.059-2.089-.232c-.174.058 0-.522 1.741-.522h1.044c1.741 0 1.973.522 1.973.522-.754.349-2.03.232-2.03.232V22.12c2.32-.116 5.106-.87 5.106-.87V10.574c1.508 2.205 1.218 10.792 1.218 10.792h.29v.116c0 .348.29.58.638.58h1.45c.35 0 .64-.232.64-.58v-.116h.29c.231-5.454-.407-10.328-.93-13.23z" fill="#00A0AB"/></svg>