<svg width="280" height="184" fill="none" xmlns="http://www.w3.org/2000/svg">
<rect width="280" height="184" rx="8" fill="#E9E9E9"/>
<mask id="path-2-inside-1" fill="white">
<path fill-rule="evenodd" clip-rule="evenodd" d="M114.911 46C112.702 46 110.911 47.7909 110.911 50V57.5627H86C83.7909 57.5627 82 59.3536 82 61.5627V134.513C82 136.722 83.7909 138.513 86 138.513H193.643C195.853 138.513 197.643 136.722 197.643 134.513V61.5627C197.643 59.3536 195.853 57.5627 193.643 57.5627H168.733V50C168.733 47.7909 166.942 46 164.733 46H114.911Z"/>
</mask>
<path d="M110.911 57.5627V59.5627H112.911V57.5627H110.911ZM168.733 57.5627H166.733V59.5627H168.733V57.5627ZM112.911 50C112.911 48.8954 113.806 48 114.911 48V44C111.597 44 108.911 46.6863 108.911 50H112.911ZM112.911 57.5627V50H108.911V57.5627H112.911ZM86 59.5627H110.911V55.5627H86V59.5627ZM84 61.5627C84 60.4582 84.8954 59.5627 86 59.5627V55.5627C82.6863 55.5627 80 58.249 80 61.5627H84ZM84 134.513V61.5627H80V134.513H84ZM86 136.513C84.8954 136.513 84 135.618 84 134.513H80C80 137.827 82.6863 140.513 86 140.513V136.513ZM193.643 136.513H86V140.513H193.643V136.513ZM195.643 134.513C195.643 135.618 194.748 136.513 193.643 136.513V140.513C196.957 140.513 199.643 137.827 199.643 134.513H195.643ZM195.643 61.5627V134.513H199.643V61.5627H195.643ZM193.643 59.5627C194.748 59.5627 195.643 60.4582 195.643 61.5627H199.643C199.643 58.249 196.957 55.5627 193.643 55.5627V59.5627ZM168.733 59.5627H193.643V55.5627H168.733V59.5627ZM166.733 50V57.5627H170.733V50H166.733ZM164.733 48C165.837 48 166.733 48.8954 166.733 50H170.733C170.733 46.6863 168.046 44 164.733 44V48ZM114.911 48H164.733V44H114.911V48Z" fill="#C7C7C7" mask="url(#path-2-inside-1)"/>
<circle cx="139.822" cy="98.039" r="27.9108" stroke="#C7C7C7" stroke-width="2"/>
<circle r="4.78217" transform="matrix(-1 0 0 1 180.297 74.9103)" stroke="#C7C7C7" stroke-width="2"/>
</svg>
