<svg width="116" height="93" fill="none" xmlns="http://www.w3.org/2000/svg">
<mask id="path-1-inside-1" fill="white">
<path fill-rule="evenodd" clip-rule="evenodd" d="M33.2421 0C31.033 0 29.2421 1.79086 29.2421 3.99999V11.5627H4.33128C2.12214 11.5627 0.331276 13.3536 0.331276 15.5627V88.5131C0.331276 90.7222 2.12214 92.5131 4.33128 92.5131H111.975C114.184 92.5131 115.975 90.7222 115.975 88.5131V15.5627C115.975 13.3536 114.184 11.5627 111.975 11.5627H87.0638V4C87.0638 1.79086 85.2729 0 83.0638 0H33.2421Z"/>
</mask>
<path d="M29.2421 11.5627V13.5627H31.2421V11.5627H29.2421ZM87.0638 11.5627H85.0638V13.5627H87.0638V11.5627ZM31.2421 3.99999C31.2421 2.89543 32.1375 2 33.2421 2V-2C29.9284 -2 27.2421 0.686283 27.2421 3.99999H31.2421ZM31.2421 11.5627V3.99999H27.2421V11.5627H31.2421ZM4.33128 13.5627H29.2421V9.56274H4.33128V13.5627ZM2.33128 15.5627C2.33128 14.4582 3.2267 13.5627 4.33128 13.5627V9.56274C1.01757 9.56274 -1.66872 12.249 -1.66872 15.5627H2.33128ZM2.33128 88.5131V15.5627H-1.66872V88.5131H2.33128ZM4.33128 90.5131C3.22671 90.5131 2.33128 89.6177 2.33128 88.5131H-1.66872C-1.66872 91.8268 1.01757 94.5131 4.33128 94.5131V90.5131ZM111.975 90.5131H4.33128V94.5131H111.975V90.5131ZM113.975 88.5131C113.975 89.6177 113.079 90.5131 111.975 90.5131V94.5131C115.288 94.5131 117.975 91.8268 117.975 88.5131H113.975ZM113.975 15.5627V88.5131H117.975V15.5627H113.975ZM111.975 13.5627C113.079 13.5627 113.975 14.4582 113.975 15.5627H117.975C117.975 12.249 115.288 9.56274 111.975 9.56274V13.5627ZM87.0638 13.5627H111.975V9.56274H87.0638V13.5627ZM85.0638 4V11.5627H89.0638V4H85.0638ZM83.0638 2C84.1684 2 85.0638 2.89543 85.0638 4H89.0638C89.0638 0.686291 86.3775 -2 83.0638 -2V2ZM33.2421 2H83.0638V-2H33.2421V2Z" fill="#C7C7C7" mask="url(#path-1-inside-1)"/>
<circle cx="58.153" cy="52.039" r="27.9108" stroke="#C7C7C7" stroke-width="2"/>
<circle r="4.78217" transform="matrix(-1 0 0 1 98.6282 28.9103)" stroke="#C7C7C7" stroke-width="2"/>
</svg>
