<svg width="24" height="24" fill="none" xmlns="http://www.w3.org/2000/svg"><path fillRule="evenodd" clipRule="evenodd" d="M6.465 14.624l10.654.08a1.682 1.682 0 003.355.007c1.447-.102 2.386-.721 2.386-1.106 0-.231-.043-.293-.08-.348-.032-.045-.06-.086-.06-.212 0-.082.04-.122.091-.171.082-.08.189-.184.189-.53 0-.56-.84-1.401-2.102-1.541a14.38 14.38 0 00-1.143-.065c-.93-.028-1.872-.057-2.64-.496a9.505 9.505 0 01-.76-.513C15.362 9.013 13.954 8 12.07 8h-1.26v2.943H1.84l-.42 2.522a.616.616 0 00-.421.56c0 .444.28.56.42.561l1.682.013a1.681 1.681 0 003.363.025zM11.93 8.56v1.821l.56.56h2.803l.7-.7c-.56-.56-2.157-1.681-4.063-1.681zm-6.306 6.025a.84.84 0 11-1.681 0 .84.84 0 011.681 0zm13.172.84a.84.84 0 100-1.68.84.84 0 000 1.68z" fill="#8F8F8F"/></svg>