<svg width="24" height="24" fill="none" xmlns="http://www.w3.org/2000/svg"><mask id="a" maskUnits="userSpaceOnUse" x="2.586" y="2.422" width="19.799" height="19.799" fill="#000"><path fill="#fff" d="M2.586 2.422h19.799v19.799H2.586z"/><path fillRule="evenodd" clipRule="evenodd" d="M5.768 11.072a1.25 1.25 0 100 2.5h5.304v5.304a1.25 1.25 0 002.5 0v-5.304h5.304a1.25 1.25 0 000-2.5h-5.304V5.768a1.25 1.25 0 00-2.5 0v5.304H5.768z"/></mask><path fillRule="evenodd" clipRule="evenodd" d="M5.768 11.072a1.25 1.25 0 100 2.5h5.304v5.304a1.25 1.25 0 002.5 0v-5.304h5.304a1.25 1.25 0 000-2.5h-5.304V5.768a1.25 1.25 0 00-2.5 0v5.304H5.768z" fill="#fff"/><path d="M4.518 12.322h1-1zm1.25-1.25v-1 1zm0 2.5v-1 1zm5.304 0h1v-1h-1v1zm0 5.304h-1 1zm1.25 1.25v1-1zm1.25-1.25h-1 1zm0-5.304v-1h-1v1h1zm5.304 0v1-1zm0-2.5v1-1zm-5.304 0h-1v1h1v-1zm0-5.304h1-1zm-1.25-1.25v-1 1zm-1.25 1.25h1-1zm0 5.304v1h1v-1h-1zm-5.554 1.25a.25.25 0 01.25-.25v-2a2.25 2.25 0 00-2.25 2.25h2zm.25.25a.25.25 0 01-.25-.25h-2a2.25 2.25 0 002.25 2.25v-2zm5.304 0H5.768v2h5.304v-2zm1 6.304v-5.304h-2v5.304h2zm.25.25a.25.25 0 01-.25-.25h-2a2.25 2.25 0 002.25 2.25v-2zm.25-.25a.25.25 0 01-.25.25v2a2.25 2.25 0 002.25-2.25h-2zm0-5.304v5.304h2v-5.304h-2zm6.304-1h-5.304v2h5.304v-2zm.25-.25a.25.25 0 01-.25.25v2a2.25 2.25 0 002.25-2.25h-2zm-.25-.25a.25.25 0 01.25.25h2a2.25 2.25 0 00-2.25-2.25v2zm-5.304 0h5.304v-2h-5.304v2zm-1-6.304v5.304h2V5.768h-2zm-.25-.25a.25.25 0 01.25.25h2a2.25 2.25 0 00-2.25-2.25v2zm-.25.25a.25.25 0 01.25-.25v-2a2.25 2.25 0 00-2.25 2.25h2zm0 5.304V5.768h-2v5.304h2zm-6.304 1h5.304v-2H5.768v2z" fill="#5A5A5A" mask="url(#a)"/></svg>