<svg width="24" height="24" fill="none" xmlns="http://www.w3.org/2000/svg"><path fill-rule="evenodd" clip-rule="evenodd" d="M2.274 7.79c-.73.548-.342 1.71.571 1.71a.95.95 0 01.95.95V22a1 1 0 001 1h13.41a1 1 0 001-1V10.5a1 1 0 011-1h.198c.97 0 1.372-1.244.584-1.811l-8.89-6.408a1 1 0 00-1.185.012L2.274 7.79zm9.226-.2a.963.963 0 100-1.926.963.963 0 000 1.926zm.963 3.89a1 1 0 011-1h1.852a1 1 0 011 1v1.851a1 1 0 01-1 1h-1.852a1 1 0 01-1-1V11.48zm1 4.778a1 1 0 00-1 1v1.852a1 1 0 001 1h1.852a1 1 0 001-1v-1.852a1 1 0 00-1-1h-1.852zm-6.778 1a1 1 0 011-1h1.852a1 1 0 011 1v1.852a1 1 0 01-1 1H7.685a1 1 0 01-1-1v-1.852zm1-6.779a1 1 0 00-1 1v1.852a1 1 0 001 1h1.852a1 1 0 001-1V11.48a1 1 0 00-1-1H7.685z" fill="#00A0AB"/></svg>