<svg width="24" height="24" fill="none" xmlns="http://www.w3.org/2000/svg"><path fillRule="evenodd" clipRule="evenodd" d="M17.095 14.037h-10a1.866 1.866 0 01-3.677.011C2.085 14.068 1 14.031 1 13.012c0-1.146.37-1.088.37-1.088V10.46h1.71l1.029-1.18c.466-.466.777-.21.932.361l.048.18c.107.42.163.64.574.64h3.012l-.058-1.025h.932l.059 1.024h3.827c.622 0 1.088-.042 1.088-.508 0-.311-.932-.727-2.487-1.4-.402-.173-.155-.776.778-.465.367.122 1.389.565 2.312.966.606.263 1.169.507 1.477.63.777.311 1.507.57 3.527.725 2.212.17 2.612 1.174 2.787 1.875.311 1.244-.31 1.753-.932 1.753h-1.211a1.866 1.866 0 01-3.68 0zm2.772-.311a.933.933 0 11-1.865 0 .933.933 0 011.865 0zm-14.612.932a.933.933 0 100-1.865.933.933 0 000 1.865z" fill="#00A0AB"/></svg>