<svg width="24" height="24" fill="none" xmlns="http://www.w3.org/2000/svg"><path fillRule="evenodd" clipRule="evenodd" d="M7.208 14.812H17.63a1.633 1.633 0 003.267 0h1.45c.328-.165.762-.618.628-1.49-.161-1.049-1.036-1.802-2.97-2.078a45.256 45.256 0 00-3.577-.378c-.13-.065-.305-.163-.515-.28-.857-.48-2.287-1.281-3.48-1.421-2.524-.297-4.751-.175-5.94.221-.817.273-1.441.696-1.92 1.02-.388.262-.68.46-.9.46H1.63v1.479s-.986.494-.493 1.48c.482.964 1.435.986 2.86.987a1.634 1.634 0 003.21 0zm3.301-3.453H7.236s.084-1.271.743-1.6c.529-.265 2.046-.297 2.375-.297l.446 1.897h-.29zM5.9 10.501c-.395.395.17.858.664.858l.227-1.303s-.496.05-.891.445zm8.555.858h-2.96l-.547-1.897c1.634 0 5.197 1.633 3.507 1.897zm-8.11 3.15a.742.742 0 11-1.484 0 .742.742 0 011.484 0zm12.918 1.04a.742.742 0 100-1.485.742.742 0 000 1.485z" fill="#8F8F8F"/></svg>