<svg width="24" height="24" fill="none" xmlns="http://www.w3.org/2000/svg"><g clip-path="url(#clip0)"><path fillRule="evenodd" clipRule="evenodd" d="M11.573 4.453a1 1 0 00-1.414 0l-1.75 1.75a1 1 0 000 1.414l7.287 7.288a1 1 0 001.415 0l1.75-1.75a1 1 0 000-1.414l-7.288-7.288zm-1.001 2.262a.808.808 0 111.143-1.144l5.832 5.832a.809.809 0 01-1.144 1.143l-5.831-5.831z" fill="#00A0AB"/><path d="M17.5 13.5l1.277 1.321-2.769 2.77-5.142-5.143-1.978 1.978" stroke="#00A0AB" strokeLinecap="round" strokeLinejoin="round"/><rect x="8.493" y="12.448" width="3.356" height="8.95" rx="1" transform="rotate(45 8.493 12.448)" fill="#00A0AB"/><path d="M18.07 10.159l-5.31-5.31a1 1 0 010-1.414L15.3.894c.391-.39.91-.306.825.24a8.69 8.69 0 00-.117 1.426c0 .678 0 .775.499 1.287.185.19.442.3.706.275.609-.057 1.128-.23 1.564-.376 1.017-.339 1.162-.387 1.682.105.192.182.31.444.243.7-.152.586-.617 1.05-1.134 1.569-.633.632-.396 1.186 0 1.582.188.188.475.127.646.064.099-.036.197-.075.3-.092.112-.02.275-.044.451-.063.55-.058.66.407.269.798l-1.75 1.75a1 1 0 01-1.415 0z" fill="#00A0AB"/></g><defs><clipPath id="clip0"><path fill="#fff" d="M0 0h24v24H0z"/></clipPath></defs></svg>