<svg width="24" height="24" fill="none" xmlns="http://www.w3.org/2000/svg"><mask id="a" fill="#fff"><path fill-rule="evenodd" clip-rule="evenodd" d="M20.105 7.65L12.053 3 4 7.65v9.298l8.053 4.649 8.052-4.65V7.65zm-8.237 8.94a4.292 4.292 0 100-8.583 4.292 4.292 0 000 8.583z"/></mask><path d="M12.053 3l.5-.866-.5-.289-.5.289.5.866zm8.052 4.65h1v-.578l-.5-.289-.5.866zM4 7.65l-.5-.867-.5.289v.577h1zm0 9.298H3v.577l.5.289.5-.866zm8.053 4.649l-.5.866.5.288.5-.288-.5-.866zm8.052-4.65l.5.867.5-.29v-.576h-1zm-8.552-13.08l8.052 4.65 1-1.733-8.052-4.649-1 1.732zM4.5 8.516l8.053-4.65-1-1.732L3.5 6.784l1 1.731zm.5 8.432V7.649H3v9.299h2zm7.553 3.783L4.5 16.08l-1 1.733 8.053 4.649 1-1.732zm7.052-4.65l-8.052 4.65 1 1.732 8.052-4.65-1-1.732zm-.5-8.432v9.299h2V7.649h-2zM15.16 12.3a3.292 3.292 0 01-3.291 3.29v2a5.292 5.292 0 005.291-5.29h-2zm-3.291-3.292a3.292 3.292 0 013.291 3.291h2a5.292 5.292 0 00-5.291-5.291v2zm-3.292 3.291a3.292 3.292 0 013.292-3.291v-2a5.292 5.292 0 00-5.292 5.291h2zm3.292 3.292a3.292 3.292 0 01-3.292-3.292h-2a5.292 5.292 0 005.292 5.292v-2z" fill="#2C2C2C" mask="url(#a)"/></svg>