<svg width="168" height="24" viewBox="0 0 168 24" fill="none" xmlns="http://www.w3.org/2000/svg">
<path fill-rule="evenodd" clip-rule="evenodd" d="M120 24C126.627 24 132 18.6274 132 12C132 5.37258 126.627 0 120 0C113.373 0 108 5.37258 108 12C108 18.6274 113.373 24 120 24ZM124 4.11801C123.438 4.03934 122.646 4 121.625 4C120.424 4 119.462 4.33599 118.74 5.00798C118.017 5.67996 117.656 6.62566 117.656 7.84506V9.98885H115V12.8997H117.656V20.3636H120.844V12.8997H123.49L123.896 9.98885H120.844V8.13024C120.844 7.65822 120.948 7.3042 121.156 7.06818C121.365 6.83217 121.767 6.71416 122.365 6.71416H124V4.11801Z" fill="#2C2C2C"/>
<path fill-rule="evenodd" clip-rule="evenodd" d="M12 24C18.6274 24 24 18.6274 24 12C24 5.37258 18.6274 0 12 0C5.37258 0 0 5.37258 0 12C0 18.6274 5.37258 24 12 24ZM19.1903 7.7222L19.1423 7.63095C19.1102 7.57619 19.0275 7.52601 18.894 7.48038C18.7605 7.43475 18.5896 7.42715 18.3814 7.45757L16.0746 7.47582C16.0372 7.46061 15.9838 7.46213 15.9144 7.48038L15.8103 7.50775L15.7703 7.53057L15.7382 7.55794C15.7115 7.57619 15.6822 7.60813 15.6501 7.65376C15.6181 7.69938 15.5914 7.75262 15.57 7.81345C15.3191 8.54955 15.0334 9.23395 14.713 9.86663C14.5154 10.2438 14.3339 10.5708 14.1684 10.8476C14.0028 11.1244 13.864 11.3282 13.7519 11.459C13.6397 11.5898 13.5383 11.6947 13.4475 11.7738C13.3567 11.8529 13.2873 11.8864 13.2392 11.8742C13.1912 11.862 13.1458 11.8499 13.1031 11.8377C13.0283 11.7829 12.9683 11.7084 12.9229 11.6141C12.8775 11.5198 12.8468 11.4012 12.8308 11.2582C12.8147 11.1153 12.8054 10.9921 12.8027 10.8887C12.8001 10.7852 12.8014 10.6392 12.8067 10.4506C12.8121 10.2621 12.8147 10.1343 12.8147 10.0674C12.8147 9.83621 12.8187 9.58527 12.8268 9.31455C12.8348 9.04384 12.8414 8.82939 12.8468 8.67122C12.8521 8.51305 12.8548 8.34576 12.8548 8.16934C12.8548 7.99291 12.8454 7.85451 12.8268 7.75414C12.8081 7.65376 12.78 7.55642 12.7427 7.46213C12.7053 7.36783 12.6505 7.29483 12.5785 7.24312C12.5064 7.19141 12.4169 7.15035 12.3101 7.11993C12.0271 7.04693 11.6667 7.00739 11.2289 7.0013C10.2357 6.98914 9.59758 7.06214 9.31458 7.22031C9.19711 7.28723 9.09565 7.37848 9.01022 7.49407C8.9141 7.6279 8.90075 7.70091 8.97017 7.71307C9.29055 7.76782 9.51749 7.89862 9.65098 8.10546L9.69904 8.21496C9.73641 8.29405 9.77379 8.43397 9.81117 8.63472C9.84855 8.83548 9.87258 9.05753 9.88326 9.30087C9.90995 9.74496 9.90995 10.1252 9.88326 10.4415C9.85656 10.7579 9.83119 11.0042 9.80717 11.1807C9.78314 11.3571 9.74709 11.5 9.69904 11.6096C9.65098 11.7191 9.61894 11.786 9.60292 11.8103C9.5869 11.8346 9.57355 11.8499 9.56287 11.8559C9.49346 11.8864 9.42137 11.9016 9.34662 11.9016C9.27186 11.9016 9.18109 11.859 9.07429 11.7738C8.9675 11.6886 8.8567 11.5715 8.7419 11.4225C8.6271 11.2734 8.49761 11.0651 8.35344 10.7974C8.20926 10.5297 8.05975 10.2134 7.9049 9.84838L7.77675 9.58375C7.69665 9.41341 7.58719 9.16551 7.44836 8.84004C7.30953 8.51457 7.18672 8.19975 7.07992 7.89558C7.0372 7.76782 6.97313 7.67049 6.88769 7.60357L6.84765 7.57619C6.82095 7.55186 6.77823 7.52601 6.71949 7.49863C6.66076 7.47125 6.59935 7.45148 6.53527 7.43932L4.34066 7.45757C4.1164 7.45757 3.96422 7.51536 3.88412 7.63095L3.85208 7.6857C3.83606 7.71611 3.82805 7.76478 3.82805 7.8317C3.82805 7.89862 3.84407 7.98075 3.87611 8.07808C4.19649 8.93586 4.54491 9.76321 4.92135 10.5601C5.2978 11.3571 5.62486 11.9989 5.90252 12.4856C6.18018 12.9723 6.46319 13.4316 6.75153 13.8635C7.03987 14.2954 7.23077 14.5722 7.32421 14.6939C7.41766 14.8156 7.49108 14.9068 7.54447 14.9676L7.74471 15.1866C7.87286 15.3327 8.06109 15.5076 8.30938 15.7114C8.55768 15.9151 8.83267 16.1159 9.13437 16.3136C9.43606 16.5113 9.78714 16.6725 10.1876 16.7973C10.5881 16.922 10.9779 16.9722 11.357 16.9478H12.2781C12.465 16.9296 12.6065 16.8627 12.7026 16.7471L12.7346 16.7014C12.756 16.6649 12.776 16.6087 12.7947 16.5326C12.8134 16.4566 12.8228 16.3729 12.8228 16.2817C12.8174 16.0201 12.8348 15.7844 12.8748 15.5745C12.9149 15.3646 12.9602 15.2064 13.011 15.1C13.0617 14.9935 13.1191 14.9038 13.1832 14.8308C13.2473 14.7578 13.2926 14.7137 13.3193 14.6984C13.346 14.6832 13.3674 14.6726 13.3834 14.6665C13.5116 14.6178 13.6624 14.665 13.836 14.808C14.0095 14.9509 14.1724 15.1273 14.3245 15.3372C14.4767 15.5471 14.6596 15.7828 14.8732 16.0444C15.0868 16.306 15.2737 16.5007 15.4339 16.6284L15.5941 16.7379C15.7008 16.8109 15.8397 16.8779 16.0105 16.9387C16.1814 16.9995 16.3309 17.0147 16.4591 16.9843L18.5095 16.9478C18.7124 16.9478 18.8699 16.9098 18.9821 16.8338C19.0942 16.7577 19.161 16.6741 19.1823 16.5828C19.2037 16.4916 19.205 16.3881 19.1863 16.2726C19.1676 16.157 19.1489 16.0764 19.1303 16.0307C19.1116 15.9851 19.0942 15.9471 19.0782 15.9167C18.8112 15.3692 18.3013 14.6969 17.5484 13.9C17.543 13.8878 17.5297 13.8757 17.5083 13.8635C17.3268 13.6749 17.1746 13.5137 17.0518 13.3798C16.929 13.246 16.8422 13.1152 16.7915 12.9875C16.7407 12.8597 16.706 12.7548 16.6874 12.6726C16.6687 12.5905 16.7007 12.4628 16.7835 12.2894C16.8662 12.116 16.9477 11.9654 17.0278 11.8377C17.1079 11.7099 17.2547 11.4909 17.4683 11.1807C17.6872 10.8582 17.8607 10.5997 17.9889 10.405C18.9127 9.00582 19.3131 8.11154 19.1903 7.7222Z" fill="#2C2C2C"/>
<path fill-rule="evenodd" clip-rule="evenodd" d="M84 24C90.6274 24 96 18.6274 96 12C96 5.37258 90.6274 0 84 0C77.3726 0 72 5.37258 72 12C72 18.6274 77.3726 24 84 24ZM89.8131 17.8912C90.1577 17.3886 90.4551 16.8421 90.7061 16.2482C90.8093 15.996 90.9073 15.7339 91 15.4593C90.5749 15.2768 90.1927 15.0201 89.8499 14.6874C89.0942 13.971 88.7085 13.0685 88.698 11.9836C88.6858 10.591 89.3041 9.50603 90.5548 8.73057C89.856 7.7145 88.8056 7.15101 87.4062 7.03563C86.8902 6.99091 86.2604 7.1045 85.5144 7.37909C84.7237 7.67515 84.2593 7.82451 84.1211 7.82451C83.9383 7.82451 83.5185 7.69751 82.8652 7.44707C82.2118 7.19663 81.6845 7.06962 81.2821 7.06962C80.5483 7.08214 79.8661 7.27802 79.2355 7.66173C78.6058 8.04454 78.102 8.56599 77.7224 9.22786C77.2405 10.0507 77 11.0337 77 12.1723C77 13.1669 77.1784 14.1937 77.5344 15.2554C77.8667 16.2366 78.2909 17.0997 78.807 17.8412C79.2889 18.537 79.6903 19.0289 80.0113 19.3152C80.5142 19.7937 81.0189 20.0209 81.5235 19.9985C81.8568 19.9878 82.2923 19.8706 82.8311 19.647C83.3707 19.4243 83.8745 19.3152 84.3442 19.3152C84.7928 19.3152 85.2826 19.4243 85.8161 19.647C86.3479 19.8706 86.8045 19.9806 87.1823 19.9806C87.7097 19.9681 88.203 19.7463 88.6621 19.3152C88.9578 19.0513 89.3435 18.5773 89.8131 17.8912ZM86.5902 5.71904C87.1945 4.98472 87.4989 4.19048 87.4989 3.34078C87.4989 3.22808 87.4937 3.11449 87.4823 3C87.0607 3.02236 86.6129 3.15295 86.1389 3.38907C85.664 3.62878 85.2721 3.9302 84.9643 4.29155C84.3459 5.00619 83.9996 5.87915 83.9996 6.69575C83.9996 6.80845 84.0057 6.91578 84.0179 7.01775C84.9756 7.09735 85.859 6.592 86.5902 5.71904Z" fill="#2C2C2C"/>
<path fill-rule="evenodd" clip-rule="evenodd" d="M156 24C162.627 24 168 18.6274 168 12C168 5.37258 162.627 0 156 0C149.373 0 144 5.37258 144 12C144 18.6274 149.373 24 156 24ZM153.5 8.25839C154.366 7.67998 155.405 7.41962 156.441 7.52167C157.477 7.62371 158.446 8.08185 159.182 8.81802L161.303 6.6967C160.076 5.46975 158.462 4.70619 156.735 4.53611C155.008 4.36604 153.276 4.79997 151.833 5.76398C150.39 6.72798 149.327 8.16242 148.823 9.82287C148.319 11.4833 148.407 13.267 149.071 14.8701C149.735 16.4732 150.934 17.7965 152.465 18.6144C153.995 19.4324 155.761 19.6944 157.463 19.3559C159.165 19.0174 160.697 18.0992 161.798 16.7579C162.898 15.4166 163.5 13.7352 163.5 12V10.5H162H156V13.5H160.243C160.07 13.9889 159.812 14.4479 159.479 14.8548C158.818 15.6595 157.899 16.2104 156.878 16.4135C155.857 16.6166 154.797 16.4594 153.879 15.9686C152.961 15.4779 152.241 14.6839 151.843 13.7221C151.444 12.7602 151.392 11.69 151.694 10.6937C151.996 9.69745 152.634 8.83679 153.5 8.25839Z" fill="#2C2C2C"/>
<path fill-rule="evenodd" clip-rule="evenodd" d="M60 12C60 18.6274 54.6274 24 48 24C41.3726 24 36 18.6274 36 12C36 5.37258 41.3726 0 48 0C54.6274 0 60 5.37258 60 12ZM43.1473 12.5874C42.7387 13.3907 43.2027 13.7747 44.2613 14.4307C45.1613 14.9867 46.4046 15.19 47.2032 15.2714L47.2033 15.2714C47.1317 15.3402 47.1476 15.3249 47.1708 15.3026L44.056 18.2987C43.14 19.1767 44.6147 20.5854 45.53 19.726L48.008 17.336L48.0543 17.3806C48.9862 18.2771 49.8761 19.1332 50.486 19.7294C51.402 20.5921 52.876 19.1954 51.97 18.302C51.94 18.2735 51.2827 17.6432 50.5748 16.9642L50.5681 16.9578C49.6734 16.0998 48.7008 15.1669 48.8127 15.2747C49.6213 15.1934 50.846 14.978 51.7353 14.434L51.7347 14.4334C52.7933 13.774 53.2573 13.3907 52.8547 12.5874C52.6113 12.1314 51.9553 11.75 51.082 12.4094C51.082 12.4094 49.9027 13.3127 48.0007 13.3127C46.098 13.3127 44.9193 12.4094 44.9193 12.4094C44.0467 11.7467 43.388 12.1314 43.1473 12.5874ZM52.2113 8.052C52.2113 10.2827 50.318 12.0947 47.9993 12.0947C45.68 12.0947 43.7866 10.2827 43.7866 8.052C43.7866 5.812 45.68 4 47.9993 4C50.318 4 52.2113 5.812 52.2113 8.052ZM50.068 8.052C50.068 6.94666 49.1386 6.05266 47.9993 6.05266C46.8593 6.05266 45.93 6.946 45.9306 8.052C45.9306 9.14799 46.86 10.042 47.9993 10.042C49.1386 10.042 50.068 9.14799 50.068 8.052Z" fill="#2C2C2C"/>
</svg>
