<svg width="24" height="48" viewBox="0 0 24 48" fill="none" xmlns="http://www.w3.org/2000/svg">
<path d="M11.0489 26.9271C11.3483 26.0057 12.6517 26.0057 12.9511 26.9271L14.4697 31.6008C14.6035 32.0128 14.9875 32.2918 15.4207 32.2918H20.335C21.3037 32.2918 21.7065 33.5314 20.9228 34.1008L16.947 36.9894C16.5966 37.244 16.4499 37.6954 16.5838 38.1074L18.1024 42.7812C18.4017 43.7025 17.3472 44.4686 16.5635 43.8992L12.5878 41.0106C12.2373 40.756 11.7627 40.756 11.4122 41.0106L7.43648 43.8992C6.65276 44.4686 5.59828 43.7025 5.89763 42.7812L7.41623 38.1074C7.55011 37.6954 7.40345 37.244 7.05296 36.9894L3.07722 34.1008C2.29351 33.5314 2.69628 32.2918 3.66501 32.2918H8.57929C9.01252 32.2918 9.39647 32.0128 9.53035 31.6008L11.0489 26.9271Z" fill="#FFF6A5"/>
<path d="M11.0489 2.92705C11.3483 2.00574 12.6517 2.00574 12.9511 2.92705L14.4697 7.60081C14.6035 8.01284 14.9875 8.2918 15.4207 8.2918H20.335C21.3037 8.2918 21.7065 9.53141 20.9228 10.1008L16.947 12.9894C16.5966 13.244 16.4499 13.6954 16.5838 14.1074L18.1024 18.7812C18.4017 19.7025 17.3472 20.4686 16.5635 19.8992L12.5878 17.0106C12.2373 16.756 11.7627 16.756 11.4122 17.0106L7.43648 19.8992C6.65276 20.4686 5.59828 19.7025 5.89763 18.7812L7.41623 14.1074C7.55011 13.6954 7.40345 13.244 7.05296 12.9894L3.07722 10.1008C2.29351 9.53141 2.69628 8.2918 3.66501 8.2918H8.57929C9.01252 8.2918 9.39647 8.01284 9.53035 7.60081L11.0489 2.92705Z" fill="#C7C7C7"/>
</svg>
