<svg width="25" height="25" viewBox="0 0 25 25" fill="none" xmlns="http://www.w3.org/2000/svg">
<path fill-rule="evenodd" clip-rule="evenodd" d="M17.8718 19.6606C18.0919 19.5539 18.363 19.6338 18.4774 19.8391L20.2594 23.036C20.3738 23.2412 20.2881 23.4941 20.068 23.6007C19.8479 23.7074 19.5767 23.6275 19.4623 23.4223L17.6804 20.2253C17.566 20.0201 17.6517 19.7673 17.8718 19.6606Z" fill="#00A0AB"/>
<path fill-rule="evenodd" clip-rule="evenodd" d="M19.5892 23.6648C19.3986 23.5168 19.3729 23.2527 19.5317 23.075L24.023 18.0497C24.1818 17.872 24.465 17.848 24.6556 17.9961C24.8461 18.1441 24.8719 18.4082 24.7131 18.5859L20.2217 23.6112C20.0629 23.7889 19.7797 23.8129 19.5892 23.6648Z" fill="#00A0AB"/>
<path d="M19.2825 6.81067C19.2825 10.2636 16.2696 13.1213 12.4782 13.1213C8.68671 13.1213 5.67383 10.2636 5.67383 6.81067C5.67383 3.35776 8.68671 0.5 12.4782 0.5C16.2696 0.5 19.2825 3.35776 19.2825 6.81067Z" stroke="#00A0AB"/>
<path d="M17.3517 15.6104C15.9169 15.1541 14.3791 14.9192 12.8261 14.9192C11.2731 14.9192 9.73525 15.1541 8.30044 15.6104C6.86564 16.0668 5.56194 16.7357 4.46378 17.5789C3.36563 18.4222 2.49452 19.4232 1.90021 20.525C1.30589 21.6267 1 22.8076 1 24.0001" stroke="#00A0AB" stroke-linecap="round" stroke-linejoin="round"/>
</svg>
