<svg width="24" height="24" fill="none" xmlns="http://www.w3.org/2000/svg"><path fill-rule="evenodd" clip-rule="evenodd" d="M16.258 13.9h-9.24a1.788 1.788 0 01-3.577 0v-.007c-1.06-.032-1.676-.195-2.236-1.036-.596-.894.298-1.34.298-1.34V9.578h1.64l1.862-.745c.025.099.135.417.373.894.239.477.994.695 1.341.745h2.534l-.745-1.64h.745l.745 1.64h3.577c.596 0 1.043 0 1.043-.447 0-.221-.572-.523-1.414-.968-.295-.156-.623-.33-.97-.523-.368-.204-.15-.894.894-.298.388.222 2.235 1.193 2.98 1.49.466.187.932.199 1.689.218.454.01 1.013.025 1.74.08 2.086.161 3.278.746 3.427 1.79.15 1.044-.192 1.44-.58 1.89a9.93 9.93 0 00-.165.196h-2.385a1.788 1.788 0 01-3.576 0zm2.682 0a.894.894 0 11-1.788 0 .894.894 0 011.788 0zm-13.71.895a.894.894 0 10-.001-1.788.894.894 0 000 1.788z" fill="#8F8F8F"/></svg>