<svg width="24" height="24" fill="none" xmlns="http://www.w3.org/2000/svg"><path fillRule="evenodd" clipRule="evenodd" d="M7.266 6h9.703a1 1 0 01.98.805l.707 3.548H5.58l.707-3.548A1 1 0 017.266 6zm-3.734 4.39l.792-3.976A3 3 0 017.266 4h9.703a3 3 0 012.942 2.414l.792 3.975a3 3 0 012.532 2.964v5.47h-2.117v1.589a1.588 1.588 0 11-3.177 0v-1.588H6.294v1.588a1.588 1.588 0 01-3.176 0v-1.588H1v-5.471a3 3 0 012.532-2.964zm2.748 2.08a1.059 1.059 0 10.028 0H6.28zm11.647 0a1.059 1.059 0 10.028 0h-.027z" fill="#00A0AB"/></svg>