<svg width="24" height="24" fill="none" xmlns="http://www.w3.org/2000/svg"><path fillRule="evenodd" clipRule="evenodd" d="M16.52 14.775H6.505c-.082 1.041-.914 1.86-1.929 1.86-1.026 0-1.866-.837-1.932-1.895-1.096-.077-1.496-.298-1.618-.81-.129-.54.27-.901.484-1.014v-2.873l1.452-2.367C2.63 7.502 2.751 7 3.125 7h11.937c.573 0 1.187.478 1.906 1.037.698.544 1.496 1.165 2.45 1.498C20.654 9.966 22 10.55 22 12.41c0 1.155-.754 1.927-1.614 2.226-.015 1.107-.876 2-1.936 2-1.015 0-1.847-.819-1.93-1.86zm-2.91-4.564h3.227c.323 0 .544-.38.323-.845-.29-.604-1.453-1.352-2.098-1.69h-2.098l.646 2.535zm-5.647 0h4.84l-.483-2.535H8.286l-.323 2.535zm-.807 0l.484-2.535H4.736c-.646.45-1.174 1.19-.323 1.86.645.506 1.936.675 2.743.675zm12.262 4.395c0 .56-.433 1.014-.968 1.014-.534 0-.968-.454-.968-1.014s.434-1.014.968-1.014c.535 0 .968.454.968 1.014zM4.575 15.62c.535 0 .968-.454.968-1.014s-.433-1.014-.968-1.014c-.534 0-.968.454-.968 1.014s.434 1.014.968 1.014z" fill="#8F8F8F"/></svg>