<svg width="24" height="24" fill="none" xmlns="http://www.w3.org/2000/svg"><path fill-rule="evenodd" clip-rule="evenodd" d="M12 24c6.627 0 12-5.373 12-12S18.627 0 12 0 0 5.373 0 12s5.373 12 12 12zm7.19-16.278l-.048-.091c-.032-.055-.114-.105-.248-.15a1.11 1.11 0 00-.513-.023l-2.306.018c-.038-.015-.091-.014-.16.004l-.105.028-.04.023-.032.027a.382.382 0 00-.088.096.652.652 0 00-.08.16c-.25.736-.537 1.42-.857 2.053-.198.377-.38.704-.545.98a4.67 4.67 0 01-.416.612 3.1 3.1 0 01-.305.315c-.09.079-.16.112-.208.1a3.925 3.925 0 01-.136-.036.583.583 0 01-.18-.224 1.11 1.11 0 01-.092-.356 4.472 4.472 0 01-.024-.807l.005-.186.003-.198a22.463 22.463 0 01.012-.752c.008-.271.014-.486.02-.644.005-.158.008-.325.008-.502 0-.176-.01-.315-.028-.415a1.57 1.57 0 00-.084-.292.528.528 0 00-.08-.139.43.43 0 00-.085-.08.865.865 0 00-.268-.123A4.7 4.7 0 0011.23 7c-.993-.012-1.631.061-1.914.22a.98.98 0 00-.305.273c-.096.134-.11.207-.04.219.32.055.547.186.681.392l.048.11c.037.08.075.219.112.42.038.2.062.422.072.666.027.444.027.824 0 1.14a21.985 21.985 0 01-.076.74c-.016.117-.037.22-.064.308a1.9 1.9 0 01-.14.322.15.15 0 01-.04.045.533.533 0 01-.216.046c-.075 0-.166-.043-.273-.128a1.63 1.63 0 01-.173-.162 2.634 2.634 0 01-.16-.19 4.738 4.738 0 01-.388-.625 11.445 11.445 0 01-.448-.949l-.128-.264a24.037 24.037 0 01-.525-1.224 14.453 14.453 0 01-.172-.464.601.601 0 00-.192-.292l-.04-.028a.383.383 0 00-.071-.049.886.886 0 00-.242-.088l-2.194.019c-.225 0-.377.057-.457.173l-.032.055a.33.33 0 00-.024.146c0 .067.016.149.048.246.32.858.669 1.685 1.045 2.482.377.797.704 1.439.982 1.926.277.486.56.945.849 1.377.145.219.266.397.362.536a7.725 7.725 0 00.33.448l.1.12.2.22c.129.146.317.32.565.524.249.204.524.405.825.603.302.197.653.358 1.054.483.4.125.79.175 1.169.15h.921c.187-.017.329-.084.425-.2l.032-.046a.665.665 0 00.06-.168 1.05 1.05 0 00.028-.251 3.416 3.416 0 01.052-.707c.04-.21.085-.369.136-.475a1.163 1.163 0 01.308-.402.486.486 0 01.064-.032c.129-.048.28-.001.453.142s.336.32.489.53c.152.21.335.445.548.706.136.166.26.305.374.417.066.065.128.12.187.167l.16.11c.063.043.137.084.222.122.06.027.124.054.195.079.17.06.32.076.448.045l2.05-.036c.203 0 .36-.038.473-.114.112-.076.179-.16.2-.251a.799.799 0 00.004-.31 1.239 1.239 0 00-.056-.242 1.325 1.325 0 00-.052-.114c-.267-.548-.777-1.22-1.53-2.017a.062.062 0 00-.018-.022.154.154 0 00-.022-.014c-.181-.19-.333-.35-.456-.484a1.308 1.308 0 01-.26-.393 3 3 0 01-.074-.201 1.446 1.446 0 01-.03-.113c-.02-.082.013-.21.096-.384a4.53 4.53 0 01.244-.451c.08-.128.227-.347.44-.657a94.12 94.12 0 00.52-.776c.925-1.4 1.325-2.293 1.202-2.683z" fill="#5181B8"/></svg>