<svg width="24" height="24" fill="none" xmlns="http://www.w3.org/2000/svg"><path fillRule="evenodd" clipRule="evenodd" d="M17.329 14.708H8.233a1.703 1.703 0 01-3.394 0H1.852c-.284-.094-.852-.425-.852-.993 0-.568.378-.9.568-.994v-1.42c.284-.661.993-1.844 1.703-2.128.522-.21 3.208-.18 5.497-.156.686.007 1.337.014 1.884.014 1.135 0 2.47.142 3.832.71 1.363.567 2.27 1.088 2.555 1.277 0 0 3.491.114 4.4.568 1.135.568 1.561 1.42 1.561 1.845 0 .27-.114.483-.198.639-.048.09-.086.16-.086.213 0 .142-.142.425-.284.425h-1.709a1.703 1.703 0 01-3.394 0zM10.51 9.741l.426 1.703h4.116c-.095-.568-1.135-1.703-4.542-1.703zm-.852 0l.426 1.703H6.109l.568-1.703h2.98zM5.4 11.444H2.561c.19-.426.568-1.136.994-1.42.46-.306 1.445-.294 2.13-.286l.283.003-.568 1.703zm14.478 3.122a.852.852 0 11-1.703 0 .852.852 0 011.703 0zm-13.342.852a.852.852 0 100-1.703.852.852 0 000 1.703z" fill="#8F8F8F"/></svg>