<svg width="24" height="24" fill="none" xmlns="http://www.w3.org/2000/svg"><path d="M21 16v3a1 1 0 01-1 1H3a1 1 0 01-1-1V8a1 1 0 011-1h17a1 1 0 011 1v3" stroke="#C7C7C7"/><path d="M18 7.125V5a1 1 0 00-1-1H3a1 1 0 00-1 1v4" stroke="#C7C7C7"/><rect x="15" y="11" width="7" height="5" rx="1" stroke="#C7C7C7"/><ellipse rx=".632" ry=".601" transform="matrix(.99473 .10253 -.11347 .99354 17.697 13.662)" fill="#C7C7C7" stroke="#C7C7C7"/><path d="M2 8v11a1 1 0 001 1h17a1 1 0 001-1v-2a1 1 0 00-1-1h-4a1 1 0 01-1-1v-3a1 1 0 011-1h4a1 1 0 001-1V8a1 1 0 00-1-1H3a1 1 0 00-1 1z" fill="#C7C7C7" stroke="#C7C7C7"/></svg>