<svg width="24" height="24" fill="none" xmlns="http://www.w3.org/2000/svg"><rect width="15" height="1" rx=".5" transform="matrix(1 0 0 -1 4 23)" fill="#00A0AB"/><circle cx="11.5" cy="13.5" r="3.5" fill="#00A0AB"/><path fill-rule="evenodd" clip-rule="evenodd" d="M3 2a1 1 0 011-1h15a1 1 0 011 1v3H3V2zm0 4h17v14a1 1 0 01-1 1H4a1 1 0 01-1-1V6zm2.889-4a1 1 0 100 2h1.778a1 1 0 000-2H5.889zM17 13.5a5.5 5.5 0 11-11 0 5.5 5.5 0 0111 0zM15 4a1 1 0 100-2 1 1 0 000 2zm4-1a1 1 0 11-2 0 1 1 0 012 0zm-7 1a1 1 0 100-2 1 1 0 000 2z" fill="#00A0AB"/></svg>