<svg width="24" height="24" fill="none" xmlns="http://www.w3.org/2000/svg"><path fillRule="evenodd" clipRule="evenodd" d="M24 12c0 6.627-5.373 12-12 12S0 18.627 0 12 5.373 0 12 0s12 5.373 12 12zM6.256 15.679l-.114.409-.677 2.447 2.447-.677.41-.114.365.216A7.477 7.477 0 0012.5 19c4.133 0 7.5-3.366 7.5-7.5C20 7.364 16.633 4 12.5 4 8.366 4 5 7.364 5 11.5c0 1.349.36 2.66 1.04 3.813l.216.366zm-1.102 3.98l-1.123.31.31-1.123.838-3.025A8.487 8.487 0 014 11.5C4 6.812 7.813 3 12.5 3c4.686 0 8.5 3.812 8.5 8.5 0 4.687-3.814 8.5-8.5 8.5a8.479 8.479 0 01-4.321-1.179l-3.025.837zm5.688-6.501c2.25 2.25 4.716 2.855 4.737 2.842.237-.158.65-.502.947-.948.26-.389.474-.947.474-.947l-2.368-1.42-1.185.71s-.603-.367-1.42-1.185c-.711-.71-1.422-1.658-1.422-1.658l.71-1.184L9.896 7c-.158 0-.474 0-1.184.71-.484.484-.711.948-.711.948s.661 2.319 2.842 4.5z" fill="#25DD21"/></svg>