<svg width="30" height="24" viewBox="0 0 30 24" fill="none" xmlns="http://www.w3.org/2000/svg">
<mask id="path-1-inside-1_5795_52592" fill="white">
<path fill-rule="evenodd" clip-rule="evenodd" d="M9.5 0C8.39543 0 7.5 0.89543 7.5 2V2.99977H2C0.895431 2.99977 0 3.8952 0 4.99977V21.9998C0 23.1043 0.89543 23.9998 2 23.9998H28C29.1046 23.9998 30 23.1043 30 21.9998V4.99977C30 3.8952 29.1046 2.99977 28 2.99977H22.5V2C22.5 0.895431 21.6046 0 20.5 0H9.5Z"/>
</mask>
<path d="M7.5 2.99977V3.99977H8.5V2.99977H7.5ZM22.5 2.99977H21.5V3.99977H22.5V2.99977ZM8.5 2C8.5 1.44772 8.94771 1 9.5 1V-1C7.84315 -1 6.5 0.343146 6.5 2H8.5ZM8.5 2.99977V2H6.5V2.99977H8.5ZM2 3.99977H7.5V1.99977H2V3.99977ZM1 4.99977C1 4.44748 1.44772 3.99977 2 3.99977V1.99977C0.343146 1.99977 -1 3.34291 -1 4.99977H1ZM1 21.9998V4.99977H-1V21.9998H1ZM2 22.9998C1.44772 22.9998 1 22.5521 1 21.9998H-1C-1 23.6566 0.343145 24.9998 2 24.9998V22.9998ZM28 22.9998H2V24.9998H28V22.9998ZM29 21.9998C29 22.5521 28.5523 22.9998 28 22.9998V24.9998C29.6569 24.9998 31 23.6566 31 21.9998H29ZM29 4.99977V21.9998H31V4.99977H29ZM28 3.99977C28.5523 3.99977 29 4.44748 29 4.99977H31C31 3.34291 29.6569 1.99977 28 1.99977V3.99977ZM22.5 3.99977H28V1.99977H22.5V3.99977ZM21.5 2V2.99977H23.5V2H21.5ZM20.5 1C21.0523 1 21.5 1.44772 21.5 2H23.5C23.5 0.343146 22.1569 -1 20.5 -1V1ZM9.5 1H20.5V-1H9.5V1Z" fill="#F7F7F7" mask="url(#path-1-inside-1_5795_52592)"/>
<circle cx="15" cy="13.5001" r="7" stroke="#F7F7F7"/>
<circle r="1" transform="matrix(-1 0 0 1 25.5002 7.50018)" stroke="#F7F7F7"/>
</svg>
