<svg width="154" height="211" viewBox="0 0 154 211" fill="none" xmlns="http://www.w3.org/2000/svg">
<path d="M75.8296 139.273C36.1226 139.273 34.6874 169.753 39.9497 183.786C40.4282 185.779 40.3325 189.622 36.1226 189.048H3.11318C1.51853 189.766 -0.713995 191.632 3.11318 193.354H37.0794C40.1093 193.992 44.351 195.602 37.0794 196.942C29.8078 198.281 31.817 200.849 33.7306 201.965L110.274 200.291C106.925 199.573 102.237 197.516 110.274 195.028C118.311 192.54 138.021 192.875 146.872 193.354C151.496 193.194 157.97 192.349 146.872 190.244C135.629 189.128 116.5 194.191 116.5 178.5C115.735 153.241 87.949 139.991 75.8296 139.273Z" stroke="black" stroke-width="2"/>
<mask id="path-2-inside-1_4604_40479" fill="white">
<ellipse cx="51.6705" cy="208.902" rx="5.74077" ry="1.91359"/>
</mask>
<path d="M55.4112 208.902C55.4112 208.29 55.7847 208.026 55.7221 208.076C55.6821 208.107 55.5003 208.223 55.0973 208.357C54.3123 208.619 53.1006 208.815 51.6705 208.815V212.815C53.4109 212.815 55.0695 212.583 56.3622 212.152C56.9982 211.94 57.657 211.644 58.198 211.217C58.7165 210.809 59.4112 210.041 59.4112 208.902H55.4112ZM51.6705 208.815C50.2403 208.815 49.0286 208.619 48.2436 208.357C47.8406 208.223 47.6588 208.107 47.6188 208.076C47.5562 208.026 47.9297 208.29 47.9297 208.902H43.9297C43.9297 210.041 44.6244 210.809 45.1429 211.217C45.6839 211.644 46.3428 211.94 46.9787 212.152C48.2714 212.583 49.93 212.815 51.6705 212.815V208.815ZM47.9297 208.902C47.9297 209.513 47.5562 209.777 47.6188 209.727C47.6588 209.696 47.8406 209.58 48.2436 209.446C49.0286 209.184 50.2403 208.988 51.6705 208.988V204.988C49.93 204.988 48.2714 205.22 46.9787 205.651C46.3428 205.863 45.6839 206.159 45.1429 206.586C44.6244 206.994 43.9297 207.762 43.9297 208.902H47.9297ZM51.6705 208.988C53.1006 208.988 54.3123 209.184 55.0973 209.446C55.5003 209.58 55.6821 209.696 55.7221 209.727C55.7847 209.777 55.4112 209.513 55.4112 208.902H59.4112C59.4112 207.762 58.7165 206.994 58.198 206.586C57.657 206.159 56.9982 205.863 56.3622 205.651C55.0695 205.22 53.4109 204.988 51.6705 204.988V208.988Z" fill="black" mask="url(#path-2-inside-1_4604_40479)"/>
<mask id="path-4-inside-2_4604_40479" fill="white">
<ellipse cx="96.1613" cy="205.074" rx="11.0031" ry="1.91359"/>
</mask>
<path d="M105.164 205.074C105.164 204.369 105.58 203.992 105.646 203.936C105.727 203.867 105.728 203.892 105.539 203.97C105.18 204.117 104.539 204.294 103.599 204.457C101.752 204.778 99.1213 204.988 96.1613 204.988V208.988C99.2782 208.988 102.149 208.769 104.284 208.398C105.336 208.215 106.306 207.979 107.06 207.669C107.428 207.518 107.862 207.302 108.236 206.984C108.595 206.679 109.164 206.044 109.164 205.074H105.164ZM96.1613 204.988C93.2014 204.988 90.5707 204.778 88.7236 204.457C87.7839 204.294 87.143 204.117 86.7835 203.97C86.5948 203.892 86.5956 203.867 86.6769 203.936C86.7424 203.992 87.1582 204.369 87.1582 205.074H83.1582C83.1582 206.044 83.728 206.679 84.0865 206.984C84.461 207.302 84.8942 207.518 85.2623 207.669C86.0164 207.979 86.9868 208.215 88.0383 208.398C90.1736 208.769 93.0444 208.988 96.1613 208.988V204.988ZM87.1582 205.074C87.1582 205.78 86.7424 206.157 86.6769 206.213C86.5956 206.282 86.5948 206.257 86.7835 206.179C87.143 206.031 87.7839 205.855 88.7236 205.692C90.5707 205.371 93.2014 205.161 96.1613 205.161V201.161C93.0444 201.161 90.1736 201.38 88.0383 201.751C86.9868 201.934 86.0164 202.17 85.2623 202.48C84.8942 202.631 84.461 202.847 84.0865 203.165C83.728 203.47 83.1582 204.105 83.1582 205.074H87.1582ZM96.1613 205.161C99.1213 205.161 101.752 205.371 103.599 205.692C104.539 205.855 105.18 206.031 105.539 206.179C105.728 206.257 105.727 206.282 105.646 206.213C105.58 206.157 105.164 205.78 105.164 205.074H109.164C109.164 204.105 108.595 203.47 108.236 203.165C107.862 202.847 107.428 202.631 107.06 202.48C106.306 202.17 105.336 201.934 104.284 201.751C102.149 201.38 99.2782 201.161 96.1613 201.161V205.161Z" fill="black" mask="url(#path-4-inside-2_4604_40479)"/>
<mask id="path-6-inside-3_4604_40479" fill="white">
<ellipse cx="134.912" cy="199.812" rx="3.82718" ry="1.91359"/>
</mask>
<path d="M136.739 199.812C136.739 199.503 136.872 199.312 136.912 199.265C136.94 199.231 136.904 199.286 136.724 199.376C136.364 199.556 135.726 199.726 134.912 199.726V203.726C136.212 203.726 137.488 203.466 138.513 202.954C139.418 202.501 140.739 201.506 140.739 199.812H136.739ZM134.912 199.726C134.098 199.726 133.461 199.556 133.1 199.376C132.921 199.286 132.884 199.231 132.913 199.265C132.952 199.312 133.085 199.503 133.085 199.812H129.085C129.085 201.506 130.406 202.501 131.311 202.954C132.336 203.466 133.612 203.726 134.912 203.726V199.726ZM133.085 199.812C133.085 200.122 132.952 200.312 132.913 200.359C132.884 200.393 132.921 200.338 133.1 200.248C133.461 200.068 134.098 199.898 134.912 199.898V195.898C133.612 195.898 132.336 196.158 131.311 196.67C130.406 197.123 129.085 198.118 129.085 199.812H133.085ZM134.912 199.898C135.726 199.898 136.364 200.068 136.724 200.248C136.904 200.338 136.94 200.393 136.912 200.359C136.872 200.312 136.739 200.122 136.739 199.812H140.739C140.739 198.118 139.418 197.123 138.513 196.67C137.488 196.158 136.212 195.898 134.912 195.898V199.898Z" fill="black" mask="url(#path-6-inside-3_4604_40479)"/>
<path d="M59.8379 127.61L137.406 7.55793C154.929 -17.4039 141.243 29.0927 118.081 143.658" stroke="black" stroke-width="2"/>
<path d="M115.703 136.524C126.995 165.051 119.146 168.308 115.703 172.778C101 136.524 74 136.524 50.9229 143.183C50.975 129.014 65.9414 121.475 88.3648 123.45" stroke="black" stroke-width="2" stroke-linecap="round"/>
<line y1="-1" x2="81.1203" y2="-1" transform="matrix(-0.50161 0.865094 -0.460703 -0.887554 131.302 25.8153)" stroke="black" stroke-width="2"/>
<line y1="-1" x2="63.7746" y2="-1" transform="matrix(-0.480984 0.87673 -0.480984 -0.87673 121.285 57.7654)" stroke="black" stroke-width="2"/>
<line y1="-1" x2="25.9687" y2="-1" transform="matrix(-0.711138 -0.703052 0.285194 -0.95847 111.583 101.127)" stroke="black" stroke-width="2"/>
<line y1="-1" x2="25.9687" y2="-1" transform="matrix(-0.711138 -0.703052 0.285194 -0.95847 112.835 91.9981)" stroke="black" stroke-width="2"/>
<line y1="-1" x2="16.7" y2="-1" transform="matrix(-0.618513 -0.785775 0.357148 -0.934048 124.729 60.048)" stroke="black" stroke-width="2"/>
<line y1="-1" x2="16.7" y2="-1" transform="matrix(-0.618513 -0.785775 0.357148 -0.934048 129.737 53.7717)" stroke="black" stroke-width="2"/>
<line y1="-1" x2="13.1888" y2="-1" transform="matrix(-0.569585 -0.821932 0.398367 -0.917226 128.798 45.2136)" stroke="black" stroke-width="2"/>
<line y1="-1" x2="20.6634" y2="-1" transform="matrix(-0.666503 -0.745502 0.319053 -0.947737 124.729 82.8694)" stroke="black" stroke-width="2"/>
<line y1="-1" x2="20.6634" y2="-1" transform="matrix(-0.666503 -0.745502 0.319053 -0.947737 124.416 69.1766)" stroke="black" stroke-width="2"/>
<line y1="-1" x2="26.723" y2="-1" transform="matrix(-0.74963 -0.661857 0.256821 -0.966459 125.98 93.1391)" stroke="black" stroke-width="2"/>
<line y1="-1" x2="17.5706" y2="-1" transform="matrix(-0.480984 0.87673 -0.480984 -0.87673 132.866 50.3483)" stroke="black" stroke-width="2"/>
<line y1="-1" x2="30.5858" y2="-1" transform="matrix(-0.480984 0.87673 -0.480984 -0.87673 118.782 80.5874)" stroke="black" stroke-width="2"/>
<line y1="-1" x2="30.5858" y2="-1" transform="matrix(-0.480984 0.87673 -0.480984 -0.87673 127.546 80.5874)" stroke="black" stroke-width="2"/>
</svg>
