<svg width="24" height="24" fill="none" xmlns="http://www.w3.org/2000/svg"><path d="M9.122 5.425C7.998 6.711 6.918 8.358 6.63 9a34.995 34.995 0 00-1.443-2.633 9.573 9.573 0 00-1.715-2.109s.056-.203-.03-.483A2.807 2.807 0 003 2.992a4.867 4.867 0 01.931.825c.005-.025.057-.094.1-.3a.632.632 0 00-.03-.392s.543.396 1.334 1.225c.931.976 1.35 1.642 1.35 1.642s.366-.807 1.513-2.092c1.63-1.825 2.98-2.642 2.98-2.642S9.688 2.525 8.74 3.533a14.156 14.156 0 00-1.28 1.625S8.522 3.775 9.89 2.55C11.128 1.44 11.868 1 11.868 1s-.083.142-.116.358c-.016.099.046.242.046.242s-.403.356-1.264 1.175C9.905 3.373 9.478 3.9 9.478 3.9c.644-.617 1.7-1.458 2.522-1.983 0 0-.447.416-.722.858-.26.418-.25.742-.248.84v.002s-.97.733-1.908 1.808zm0 7C7.998 13.711 6.918 15.358 6.63 16a34.991 34.991 0 00-1.443-2.633 9.574 9.574 0 00-1.715-2.109s.056-.203-.03-.483A2.806 2.806 0 003 9.992a4.861 4.861 0 01.931.825c.005-.025.057-.094.1-.3a.632.632 0 00-.03-.392s.543.396 1.334 1.225c.931.976 1.35 1.642 1.35 1.642s.366-.807 1.513-2.092c1.63-1.825 2.98-2.642 2.98-2.642s-1.49 1.267-2.437 2.275c-.692.738-1.28 1.625-1.28 1.625S8.522 10.775 9.89 9.55C11.128 8.44 11.868 8 11.868 8s-.083.142-.116.358a.557.557 0 00.046.242s-.403.356-1.264 1.175A13.243 13.243 0 009.478 10.9c.644-.617 1.7-1.458 2.522-1.983 0 0-.447.416-.722.858-.26.418-.25.742-.248.84v.002s-.97.733-1.908 1.808z" fill="#00A0AB"/><rect x="12" y="4" width="8" height="2" rx="1" fill="#00A0AB"/><rect x="12" y="11" width="8" height="2" rx="1" fill="#00A0AB"/><path d="M9.122 19.425C7.998 20.711 6.918 22.358 6.63 23a34.991 34.991 0 00-1.443-2.633 9.574 9.574 0 00-1.715-2.109s.056-.203-.03-.483A2.806 2.806 0 003 16.992a4.861 4.861 0 01.931.825c.005-.025.057-.094.1-.3a.632.632 0 00-.03-.392s.543.396 1.334 1.225c.931.976 1.35 1.642 1.35 1.642s.366-.807 1.513-2.092c1.63-1.825 2.98-2.642 2.98-2.642s-1.49 1.267-2.437 2.275c-.692.738-1.28 1.625-1.28 1.625s1.061-1.383 2.429-2.608c1.238-1.11 1.978-1.55 1.978-1.55s-.083.142-.116.358a.557.557 0 00.046.242s-.403.356-1.264 1.175A13.243 13.243 0 009.478 17.9c.644-.617 1.7-1.458 2.522-1.983 0 0-.447.416-.722.858-.26.418-.25.742-.248.84v.002s-.97.733-1.908 1.808z" fill="#00A0AB"/><rect x="12" y="19" width="8" height="2" rx="1" fill="#00A0AB"/></svg>