<svg width="182" height="128" fill="none" xmlns="http://www.w3.org/2000/svg"><g filter="url(#filter0_d)"><path fillRule="evenodd" clipRule="evenodd" d="M152.899 37.856c-14.581 7.957-38.064 20.64-45.592 24.24a58.763 58.763 0 003.42 3.568l7.216-4.44 2.784-3.712 19.977-10.898c.453-.672 1.216-1.166 2.292-1.166 4.639.928 3.711 5.568 1.856 6.495l-.005.003-.533.304c.43.012.861.048 1.293.111.415-.25 1.002-.418 1.76-.418 2.418.298 3.163 1.28 3.039 2.159 4.589 2.472 5.976 5.78 6.376 7.878.156.818-.632 1.093-1.149.44-1.423-1.8-3.78-4.515-7.07-5.831-3.055-1.222-7.542-.96-11.215-.358l-11.982 6.847-4.639.927-6.928 4.455c1.554 1.329 3.163 2.573 4.671 3.539 3.576-6.106 10.205-10.207 17.793-10.207 11.379 0 20.604 9.225 20.604 20.604 0 11.38-9.225 20.604-20.604 20.604-10.868 0-19.771-8.414-20.549-19.082-2.945 1.183-3.983 3.264-4.775 4.85-.608 1.219-1.071 2.145-2.141 2.145H67.944c-.95 0-1.358-1.193-.605-1.77l1.048-.803.004-.003c3.096-2.368 5.43-4.152 6.98-6.063l-4.653.997a1.021 1.021 0 01-1.211-.81C68.97 79.66 67.32 72.01 65.056 70.5c-1.383-.923-2.272-.833-3.082-.62a20.514 20.514 0 014.234 12.515c0 11.38-9.224 20.604-20.604 20.604C34.224 103 25 93.775 25 82.396c0-8.67 5.355-16.089 12.937-19.13-2.333.176-3.616.435-4.41.595-.429.086-.715.144-.946.144-.928 0 2.783-3.711 8.35-4.639 3.043-.507 6.693-.61 9.587-.427.998.063 1.171-.5.32-1.026-.194-.12-.403-.253-.628-.403-1.302-.868-4.68-1.36-7.784-1.813-2.104-.307-4.082-.596-5.206-.97-4.74-1.58-.51-6.913 1.856-9.279 1.581-1.581 6.026-5.689 10.822-9.812-.093-.324-.008-.705.354-.996 2.226-1.79 4.57-3.62 6.453-4.965 5.31-3.793 6.642-4.485 7.668-4.611.284-.073.514-.085.682-.029h.001c1.74 0 3.48 3.262 2.925 4.435.316 1.55.268 3.096-.142 3.916-.83 1.66-5.567 3.711-12.99 6.495-.873.327-1.625.658-2.27.989 6.349.117 14.42.422 20.533 1.064 1.634-2.166 6.235-4.095 11.429-4.837 6.495-.928 12.299-.361 16.701 2.784 3.544 2.53 4.326 4.785 4.907 6.463.241.695.448 1.29.802 1.766.19-.187.448-.291.698-.207 2.175.733 4.955 1.34 7.246.765a22.07 22.07 0 001.05-.367c.048-.022.096-.045.143-.07 3.621-1.81 7.079-4.56 9.076-6.357.341-.307.808-.339 1.131-.14a83.612 83.612 0 013.962-2.764c-.193-.363-.117-.845.291-1.135 1.301-.924 3.261-2.152 5.025-2.593 2.697-.674 9.169-.379 12.883-.087.452.035.755.365.679.724 1.149.036 2.275.079 3.335.123 1.006.043 1.313 1.37.429 1.854zm-27.63 37.39c1.357.623 2.896 1.347 4.475 2.107a8.293 8.293 0 011.509-1.5l-2.45-4.244a13.175 13.175 0 00-3.534 3.638zM45.604 90.64a8.22 8.22 0 01-3.093-.6l-2.448 4.24a13.063 13.063 0 005.542 1.226c2.008 0 3.91-.45 5.61-1.257l-2.447-4.239a8.216 8.216 0 01-3.164.63zm-3.998-1.033a8.242 8.242 0 01-4.23-6.71h-4.873a13.11 13.11 0 006.67 10.925l2.433-4.215zm-4.23-7.71a8.23 8.23 0 013.218-6.044l-2.449-4.243a13.098 13.098 0 00-5.642 10.288h4.874zm1.613-10.825l2.437 4.22a8.203 8.203 0 014.178-1.135c1.054 0 2.063.198 2.99.559l.16-.819 2.372-3.399a13.062 13.062 0 00-5.52-1.215 13.05 13.05 0 00-6.617 1.789zm11.75 4.88l1.337-1.112 1.773-2.642a13.087 13.087 0 014.859 9.7H53.83a8.227 8.227 0 00-3.09-5.946zm3.091 6.946a8.241 8.241 0 01-4.162 6.671l2.435 4.217a13.109 13.109 0 006.605-10.888H53.83zm88.931 10.887a13.11 13.11 0 006.605-10.888h-4.877a8.241 8.241 0 01-4.162 6.672l2.434 4.216zm-14.726-10.888a8.243 8.243 0 004.229 6.71l-2.433 4.216a13.11 13.11 0 01-6.67-10.925h4.874zm12.471-7.565a8.202 8.202 0 00-4.244-1.175 8.203 8.203 0 00-4.178 1.136l-2.437-4.221a13.05 13.05 0 016.616-1.79c2.44 0 4.724.667 6.681 1.828l-2.438 4.222zm3.983 6.566a8.23 8.23 0 00-3.156-5.998l2.452-4.247a13.097 13.097 0 015.581 10.245h-4.877zm-11.32 8.142c.955.387 1.999.6 3.093.6 1.121 0 2.19-.224 3.165-.63l2.447 4.239a13.064 13.064 0 01-5.611 1.257c-1.98 0-3.859-.439-5.542-1.225l2.448-4.241z" fill="#fff"/></g><path fillRule="evenodd" clipRule="evenodd" d="M136.263 103c11.379 0 20.604-9.225 20.604-20.604 0-11.38-9.225-20.604-20.604-20.604-11.38 0-20.605 9.225-20.605 20.604 0 11.38 9.225 20.604 20.605 20.604zm0-7.495c7.242 0 13.112-5.87 13.112-13.112 0-7.241-5.87-13.111-13.112-13.111-7.241 0-13.111 5.87-13.111 13.111 0 7.242 5.87 13.112 13.111 13.112z" fill="#5A5A5A"/><path d="M152.746 82.397h-32.967m25.069 16.002l-17.171-29.74m17.171.153l-17.171 29.74" stroke="#5A5A5A"/><circle cx="136.262" cy="82.397" r="8.242" fill="#98AEA3"/><path fillRule="evenodd" clipRule="evenodd" d="M45.604 103c11.38 0 20.604-9.225 20.604-20.604 0-11.38-9.224-20.604-20.604-20.604C34.224 61.792 25 71.017 25 82.396 25 93.776 34.225 103 45.604 103zm.001-7.495c7.242 0 13.112-5.87 13.112-13.112 0-7.241-5.87-13.111-13.112-13.111-7.241 0-13.111 5.87-13.111 13.111 0 7.242 5.87 13.112 13.111 13.112z" fill="#5A5A5A"/><path d="M62.087 82.397H29.121M54.19 98.399l-17.171-29.74m17.171.153l-17.171 29.74" stroke="#5A5A5A"/><circle cx="45.604" cy="82.397" r="8.242" fill="#98AEA3"/><path d="M155.633 62.42c-1.423-1.8-3.78-4.515-7.07-5.831-5.024-2.01-13.918-.006-16.702.922 2.475-2.165 9.342-6.978 15.774-4.64 6.834 2.485 8.676 6.637 9.147 9.11.156.817-.633 1.092-1.149.44zm-46.835 28.493H67.944c-.95 0-1.358-1.193-.605-1.77 6.808-5.224 10.31-7.572 10.31-13.479 0-9.742-4.154-10.892-4.154-10.892-10.383-13.07-17.444-15.25-20.766-15.25-3.323 0-5.538-5.808-6.23-8.713 8.306 0 26.58.436 33.226 2.178 6.645 1.743 11.075 5.084 12.46 6.536l13.697 10.771c1.855 2.784 10.206 11.134 15.375 13.192 2.857 1.137 12.527 5.667 17.447 8.464.825.469.505 1.445-.442 1.377-5.38-.388-15.912-1.236-21.246.163-6.645 1.743-5.567 7.423-8.218 7.423z" fill="#59646A"/><path d="M125.367 63.078l19.484-11.135s1.856-1.855 0-4.639c-1.091-1.638-3.711-.928-3.711-.928l-20.413 11.136-2.783 3.711-12.063 7.423s-1.67 1.3-.927 2.784c.927 1.856 2.783.928 2.783.928l12.99-8.353 4.64-.927z" fill="#98AEA3"/><path d="M81.987 80.856L70.72 83.271a1.021 1.021 0 01-1.212-.81C68.97 79.66 67.32 72.01 65.056 70.5c-3.088-2.06-3.712.927-6.495-.929-2.784-1.855-6.495-6.495-14.846-6.495-8.402 0-10.206.928-11.134.928-.928 0 2.783-3.711 8.35-4.639 3.044-.507 6.693-.61 9.587-.427.998.063 1.171-.5.32-1.026-.194-.12-.403-.253-.628-.403-2.184-1.456-10.206-1.856-12.99-2.783-4.74-1.58-.51-6.913 1.856-9.279 3.711-3.711 23.196-21.34 25.98-20.413 2.783.928 3.711 6.495 2.783 8.351-.83 1.66-5.567 3.711-12.99 6.495-7.423 2.784-6.153 5.795-3.711 7.423 2.784 1.856 10.206 2.783 23.196 4.64 9.685 1.383 18.51 6.635 22.42 9.596.437.331.5.954.158 1.382L83.13 80.15a2 2 0 01-1.143.706z" fill="#9CD6A1"/><path d="M40.932 52.871c.928-.928.928-.928 1.855-3.711l.928-3.712c.231-.693-.747-1.356-1.321-.904a127.29 127.29 0 01-2.39 1.832c-1.66 1.245-3.712 3.335-3.712 5.567 0 1.856 3.984 1.584 4.64.928z" fill="#D0F4D3"/><path d="M70.623 72.356c-.928-2.784-2.784-4.64-2.784-4.64l26.158-9.964c1.158-.441 1.926 1.203.844 1.807L75.262 70.5l9.439-2.36c1.082-.27 1.728 1.166.807 1.796l-13.03 8.915s-.975-3.854-1.855-6.495zm-5.567-47.321c1.856 0 3.711 3.712 2.784 4.64l-14.846 5.567-1.704.93c-1.056.575-1.975-.778-1.038-1.532 2.226-1.79 4.57-3.62 6.453-4.965 6.495-4.64 7.039-4.64 8.35-4.64z" fill="#59646A"/><path d="M78.974 88.13h25.052" stroke="#98AEA3" strokeLinecap="round"/><path d="M108.665 49.159c3.712.927 8.351-.928 12.99-3.712 3.093-2.783 10.949-8.535 13.918-9.277 2.452-.613 10.765-.426 16.897-.168 1.006.043 1.313 1.37.429 1.854-17.131 9.349-46.549 25.22-47.945 25.22-1.856 0-5.567-5.567-9.279-9.278-3.711-3.712-7.423-6.495-11.134-7.423-3.712-.928-12.062 0-12.062-2.783 0-2.784 5.567-5.567 12.062-6.495 6.495-.928 12.299-.361 16.701 2.784 6.495 4.639 3.712 8.35 7.423 9.278z" fill="#9CD6A1"/><path d="M149.004 36.15c-.673.858-2.263 2.237-6.008 3.733-3.375 1.349-9.206.244-12.133-.458-.773-.185-.963-1.13-.315-1.59 1.301-.924 3.261-2.152 5.025-2.593 2.697-.674 9.169-.379 12.883-.087.565.044.897.547.548.994zM119.8 51.015c6.25-1.562 7.238-5.87 6.861-8.701-.097-.721-.956-.927-1.497-.44-1.997 1.796-5.455 4.547-9.076 6.358-2.455 1.228-5.87.538-8.439-.329-.634-.213-1.312.784-.839 1.257 1.467 1.467 5.567 3.711 12.99 1.855zM52.076 74.84l6.27-9.343s.42-1.197-1.033-1.789c-.855-.348-1.873.605-1.873.605l-6.685 9.583-.424 2.152-3.762 5.988s-.461.934.203 1.314c.83.475 1.456-.364 1.456-.364L50.2 76.4l1.876-1.56zm88.136-26.607c0-1.312.928-2.786 2.784-2.785 4.639.928 3.711 5.568 1.855 6.495-1.855.928-4.639-1.854-4.639-3.71z" fill="#59646A"/><path d="M144.852 53.49c0-.729.838-1.547 2.515-1.547 4.193.516 3.355 3.094 1.678 3.61-1.678.515-4.193-1.031-4.193-2.063z" fill="#D57670"/><defs><filter id="filter0_d" x="0" y="0" width="181.867" height="128" filterUnits="userSpaceOnUse" color-interpolation-filters="sRGB"><feFlood flood-opacity="0" result="BackgroundImageFix"/><feColorMatrix in="SourceAlpha" values="0 0 0 0 0 0 0 0 0 0 0 0 0 0 0 0 0 0 127 0"/><feOffset/><feGaussianBlur stdDeviation="12.5"/><feColorMatrix values="0 0 0 0 0 0 0 0 0 0 0 0 0 0 0 0 0 0 0.15 0"/><feBlend in2="BackgroundImageFix" result="effect1_dropShadow"/><feBlend in="SourceGraphic" in2="effect1_dropShadow" result="shape"/></filter></defs></svg>