<svg width="194" height="97" fill="none" xmlns="http://www.w3.org/2000/svg"><g filter="url(#filter0_d)"><path fillRule="evenodd" clipRule="evenodd" d="M26.117 63.705c-1.188-1.938-1.339-4.94-.87-7.28.15-.752.303-1.428.48-2.049a1.205 1.205 0 01.03-.504c.091-.365.306-.793.607-1.252 1.164-2.497 3.31-4.143 8.585-6.919 7.999-4.21 20.542-5.568 26.963-6.263 1.367-.148 2.457-.266 3.166-.376 3.479-.535 9.031-3.141 14.72-5.812 5.166-2.426 10.445-4.904 14.387-5.933 11.745-3.064 41.182-2.931 50.045.61.564.226 1.164.463 1.792.71h.001l.001.002h.004l.001.001c6.762 2.668 16.718 6.597 19.138 11.033.343.63.668 1.298.969 1.995.481.69.742 1.491.978 2.214l.095.288c.405 1.213 1.13 3.389.906 4.494.556 3.85.247 7.774-1.417 10.825a7.854 7.854 0 01-1.286 1.72l.265.422c-2.808 3.432-7.636 4.767-14.508 5.287a11.729 11.729 0 01-9.493 4.827 11.724 11.724 0 01-9.239-4.493c-5.587.01-13.593.045-22.601.084h-.012c-14.686.063-32.032.138-45.9.14a11.721 11.721 0 01-9.06 4.269c-3.68 0-6.964-1.692-9.117-4.341-3.007-.036-5.165-.086-6.202-.155-1.206-.08-2.322-.133-3.356-.18h-.001c-4.792-.224-7.82-.364-9.92-2.884a.672.672 0 01-.15-.48zm110.781 3.544a8.638 8.638 0 004.778 1.432 8.641 8.641 0 01-4.778-1.432zm-86.503.195a8.64 8.64 0 004.47 1.237 8.64 8.64 0 01-4.47-1.237z" fill="#fff"/></g><path d="M135.549 67.248c15.524 0 25.532 0 30.128-5.617l-11.234-17.873-60.768 1.021c-13.448 0-40.648.103-41.874.511-1.532.51-27.913 16.039-25.533 18.895 2.553 3.063 6.478 2.61 13.277 3.063 7.66.511 76.599 0 96.004 0z" fill="#284043"/><path fillRule="evenodd" clipRule="evenodd" d="M54.865 71.745c6.486 0 11.745-5.259 11.745-11.745 0-6.487-5.259-11.745-11.745-11.745-6.487 0-11.745 5.258-11.745 11.745 0 6.486 5.258 11.745 11.745 11.745zm0-3.064a8.681 8.681 0 100-17.362 8.681 8.681 0 000 17.362z" fill="#4A686B"/><path d="M61.503 60a6.638 6.638 0 11-13.277 0 6.638 6.638 0 0113.277 0z" fill="#284043"/><path fillRule="evenodd" clipRule="evenodd" d="M54.865 68.68a8.681 8.681 0 100-17.362 8.681 8.681 0 000 17.363zm0-3.063a5.617 5.617 0 100-11.235 5.617 5.617 0 000 11.235z" fill="#C7C7C7"/><path d="M54.259 54.333c.056-.75 1.155-.75 1.211 0l.22 2.946a.607.607 0 00.909.48l2.797-1.61c.654-.376 1.272.54.678 1.005l-2.33 1.827a.607.607 0 00.168 1.05l2.878 1.04c.708.256.41 1.318-.329 1.166l-2.863-.586a.608.608 0 00-.684.826l1.08 2.637c.286.697-.7 1.188-1.084.54l-1.523-2.566a.607.607 0 00-1.045 0l-1.523 2.567c-.385.647-1.37.156-1.085-.54l1.106-2.7a.607.607 0 00-.653-.83l-2.96.452c-.744.114-.99-.96-.27-1.181l2.911-.897a.607.607 0 00.244-1.016l-2.111-2.05c-.54-.524.165-1.368.776-.93l2.312 1.651a.608.608 0 00.959-.449l.21-2.832z" fill="#E9E9E9"/><path fillRule="evenodd" clipRule="evenodd" d="M141.676 71.745c6.487 0 11.746-5.259 11.746-11.745 0-6.487-5.259-11.745-11.746-11.745-6.486 0-11.745 5.258-11.745 11.745 0 6.486 5.259 11.745 11.745 11.745zm0-3.064a8.682 8.682 0 100-17.363 8.682 8.682 0 000 17.363z" fill="#4A686B"/><path fillRule="evenodd" clipRule="evenodd" d="M141.677 68.68a8.681 8.681 0 10-8.682-8.68 8.682 8.682 0 008.682 8.68zm-.001-3.063a5.617 5.617 0 10.001-11.235 5.617 5.617 0 00-.001 11.235z" fill="#C7C7C7"/><path d="M141.071 54.333c.055-.75 1.155-.75 1.211 0l.22 2.946a.607.607 0 00.909.48l2.797-1.61c.654-.376 1.271.54.678 1.005l-2.331 1.827a.608.608 0 00.169 1.05l2.877 1.04c.709.256.41 1.318-.328 1.166l-2.864-.586a.608.608 0 00-.684.826l1.082 2.637c.285.697-.701 1.188-1.085.54l-1.523-2.566a.608.608 0 00-1.045 0l-1.524 2.567c-.384.647-1.369.156-1.084-.54l1.106-2.7a.608.608 0 00-.654-.83l-2.959.452c-.744.114-.99-.96-.271-1.181l2.912-.897a.607.607 0 00.244-1.016l-2.112-2.05c-.539-.524.165-1.368.777-.93l2.311 1.651a.607.607 0 00.959-.449l.212-2.832z" fill="#E9E9E9"/><path d="M128.152 65.616H69.018c-.682 0-1.2-.679-1.1-1.354.2-1.365.333-3.714-.287-6.816-1.634-8.17-9.703-11.234-15.32-10.213-4.085.743-8.68 4.596-9.702 9.192-.854 3.842-.46 6.302.08 8.005.194.615-.18 1.274-.822 1.334-3.794.357-10.314.308-13.046-.147-3.574-.596-4.283-5.652-3.575-9.192 1.022-5.107 2.182-6.766 9.703-10.724 9.703-5.107 26.09-6.017 30.129-6.639 6.638-1.021 20.824-9.584 29.107-11.745 11.745-3.064 39.999-3.106 49.023 0 9.192 3.164 20.335 8.528 22.98 13.377 3.064 5.618 3.574 13.177.51 18.795-2.065 3.785-7.535 5.503-10.928 5.99-.661.095-1.174-.516-1.059-1.172 2.534-14.357-10.322-20.02-18.652-16.053-7.817 3.723-7.748 11.544-6.902 16.123.118.636-.358 1.24-1.005 1.24z" fill="#D06262"/><path d="M82.95 41.617c7.354-.408 45.96-2.723 64.343-4.085 1.814-.134 3.064-.821 3.064-2.455 0-2.043-5.106-5.617-13.277-7.15-8.17-1.531-21.958-1.764-35.746-.51-13.787 1.254-29.618 11.647-31.15 13.69-1.532 2.043 3.575 1.02 12.767.51z" fill="#4A686B"/><path d="M97.25 33.034c6.981-1.163 25.154-3.42 41.873-1.12 1.172.161 4.086 1.12 3.575 0-.595-1.304-8.464-3.038-13.788-3.558s-18.384-.94-26.554 0c-7.281.837-17.362 4.678-18.894 6.21-.86.86 7.66-.51 13.787-1.532z" fill="#709296"/><path d="M83.461 44.679c14.299-.922 50.551-3.335 57.705-3.985 5.617-.51 14.808-.51 14.809-1.122 0-.41-5.617-.51-15.83 0-8.72.436-30.823 1.848-42.896 2.653-15.32 1.022-35.235 2.043-35.235 3.064 0 .61 11.751.014 21.447-.61z" fill="#F69898"/><rect x="125.846" y="40.84" width="7.149" height="2.043" rx="1" transform="rotate(-6.071 125.846 40.84)" fill="#709296"/><rect x="97.249" y="42.883" width="7.149" height="2.043" rx="1" transform="rotate(-6.071 97.25 42.883)" fill="#709296"/><path d="M79.328 36.967c1.948-.797 2.314 1.729 2.606 3.75.293 2.022-1.1 2.244-4.33 2.174-3.105-.066-3.178-.572-3.324-1.583-.146-1.01 3.344-3.644 5.048-4.341zm-16.804 3.217c-1.02.51-7.149 1.02-18.894 5.106-6.128 2.653-6.638 3.064-10.724 4.596-4.085 1.532-2.553.513-.51-1.53 2.042-2.043 6.127-3.575 12.255-5.617 6.128-2.043 18.46-2.849 17.873-2.555z" fill="#F69898"/><path d="M33.928 62.043c-3.064-1.022-3.064-.511-5.617-2.554-.93-.744-1.635-2.655-2.043-3.064-.51-.51-1.021.513-1.021 3.577s.97 3.574 3.574 3.574c3.064 0 7.66-.682 5.107-1.533zm129.196-5.106c.51-1.532 2.042-2.553 4.085-3.064 1.021-.255 1.021 1.021.511 2.553-.162.485-1.022 2.552-2.554 3.063-1.531.51-2.553-1.02-2.042-2.552z" fill="#4A686B"/><path d="M158.528 40.595c.511-1.022 2.553-1.021 5.107-.511 2.553.51 3.063 2.553 3.574 4.085.511 1.533 1.532 4.596.511 5.107-1.022.51-2.553-.51-6.128-2.043-3.575-1.532-3.575-5.617-3.064-6.638z" fill="#B41E1E"/><path d="M162.184 42.108c.176-.886 1.228-.99 2.585-.693 1.358.299 1.793 1.991 2.185 3.254.392 1.263 1.176 3.789.693 4.271-.482.483-1.357-.298-3.326-1.403-1.97-1.105-2.314-4.543-2.137-5.429z" fill="#F78282"/><path d="M36.48 50.296c-.51 2.043-2.041 2.555-7.149 4.596-1.532.34-3.982.614-3.574-1.02.51-2.043 4.891-6.057 6.638-6.639 3.064-1.02 4.596 1.02 4.085 3.063z" fill="#C7C7C7"/><defs><filter id="filter0_d" x="0" y=".138" width="193.369" height="96.607" filterUnits="userSpaceOnUse" color-interpolation-filters="sRGB"><feFlood flood-opacity="0" result="BackgroundImageFix"/><feColorMatrix in="SourceAlpha" values="0 0 0 0 0 0 0 0 0 0 0 0 0 0 0 0 0 0 127 0"/><feOffset/><feGaussianBlur stdDeviation="12.5"/><feColorMatrix values="0 0 0 0 0 0 0 0 0 0 0 0 0 0 0 0 0 0 0.15 0"/><feBlend in2="BackgroundImageFix" result="effect1_dropShadow"/><feBlend in="SourceGraphic" in2="effect1_dropShadow" result="shape"/></filter></defs></svg>