<svg width="183" height="157" fill="none" xmlns="http://www.w3.org/2000/svg"><g filter="url(#filter0_d)"><path fill-rule="evenodd" clip-rule="evenodd" d="M55.05 34.844c.34-1.415 1.12-2.885 2.503-3.992L32.241 75.847a.975.975 0 00.007-.058c.046-.502-.302-.95-.79-1.102-2.34-.727-6.08-3-6.425-8.168a13.685 13.685 0 01.021-2.182c.268-2.864 1.495-4.82 3.015-6.22l.02-.017c1.368-1.254 2.972-2.059 4.326-2.672.54-.244.755-.899.57-1.461-.439-1.342-.578-3.228.44-4.757 1.25-1.874 2.622-2.013 3.787-1.744a1.204 1.204 0 001.463-1.337c-.391-2.877.187-7.013 3.143-8.984 4.338-2.892 8.283-2.043 10.688-.951.86.39 2.321-.431 2.543-1.35zm12.493 89.089v1.773H38.67a3.147 3.147 0 000 6.294h115.393a3.147 3.147 0 000-6.294h-2.098v-11.015h-1.049v-41.23l2.782 2.782a2 2 0 102.828-2.829l-44.583-44.583a2 2 0 00-2.829 0L92.842 45.103c-.552-1.01-1.285-2.084-2.245-3.236-1.532-1.839-5.022-2.857-7.815-3.34-.914-.159-1.97-1.968-2.158-2.877-.132-.643-.451-1.257-1.042-1.65a7.932 7.932 0 00-1.26-.698c-.882-.38-2.017-2.216-2.204-3.159-.132-.67-.502-1.349-1.256-1.914-1.504-1.128-2.558-.729-3.55-.155-.582.337-1.287.001-1.568-.61-.72-1.57-2.248-2.798-4.323-2.382-1.455.29-1.923 2.423-2.063 4.126-.07.851-1.086 1.355-1.879 1.038-1.077-.431-2.475-.555-3.926.606L38.982 85.368c-.043 1.304.325 2.767 1.787 4.23 1.713 1.713 4.752 1.772 6.903 1.309a1.163 1.163 0 011.315.675c.641 1.538 1.962 3.924 4.377 5.142-.085.848-.083 1.806.02 2.885.268 2.816 1.337 4.969 2.833 6.586 3.167 3.425 8.175 4.38 11.326 4.368v1.68c-.81-.081-1.669.131-2.144 1.399-.154.41-.268.795-.348 1.156-.498 2.25.312 3.564.892 4.181.228.243.267.67.085.949-.49.751-1.008 2.215.944 3.68.187.14.378.247.571.325zm1 .177v1.596h2.647v-2.295a10.656 10.656 0 01-.246-.237c-.594.423-1.476.911-2.4.936zm3.172-20.726v6.583l-.022.003c-1.078.18-1.997 1.364-2.45 2.245-.11.215-.343.34-.575.275l-.046-.013-.079-.022v-8.811c.77-.024 1.873-.1 3.172-.26zm0-1.008v-6.377a33.629 33.629 0 01-3.172-1.141v7.785a34.935 34.935 0 003.172-.267zm-17.384-5.25a7.354 7.354 0 001.649.339c2.453.222 4.432-.06 6.018-.607-.076.642-.2 1.304-.385 1.967-.665 2.394-2.11 4.795-4.92 6.401-1.213-1.422-2.082-3.282-2.314-5.712a14.515 14.515 0 01-.048-2.388zm8.714-.69a9.786 9.786 0 002.803-1.956c.37-.37.955-.457 1.42-.216.088.047.18.093.275.14v15.159c-2.853.012-7.226-.819-10.144-3.592 2.94-1.758 4.472-4.338 5.178-6.878.25-.902.398-1.8.468-2.658z" fill="#fff"/></g><rect x="35.523" y="125.706" width="121.686" height="6.294" rx="3.147" fill="#BACF7B"/><path d="M68.043 125.706v-22.554m0 0v-11.54l18.883-.524c-1.224 2.972-4.721 9.232-8.917 10.49-4.196 1.259-8.392 1.574-9.966 1.574zm0 6.9c-3.028.121-8.255-.731-11.46-4.196m0 0c-1.42-1.537-2.444-3.587-2.702-6.294-.839-8.812 5.245-8.567 8.392-7.343.753 3.147.669 10.28-5.69 13.637z" stroke="#595353"/><path d="M57.553 30.852c-1.384 1.107-2.162 2.577-2.504 3.992-.221.919-1.682 1.74-2.543 1.35-2.405-1.092-6.35-1.941-10.688.951-2.956 1.971-3.534 6.106-3.143 8.984a1.204 1.204 0 01-1.463 1.337c-1.165-.269-2.537-.13-3.786 1.744-1.02 1.529-.88 3.415-.44 4.757.184.562-.031 1.217-.57 1.461-3.225 1.459-7.855 4.006-7.382 11.09.344 5.169 4.083 7.442 6.424 8.17.507.157.862.634.783 1.16-.24 1.587-.448 3.739 1.71 5.357 1.766 1.325 3.216 1.261 4.348.972.689-.176 1.258.314 1.07 1-.468 1.696-.962 4.057 1.4 6.42 1.713 1.714 4.752 1.773 6.903 1.31a1.164 1.164 0 011.315.675c.843 2.021 2.86 5.508 6.993 5.883 5.091.462 8.14-1.253 9.868-2.985.37-.37.955-.457 1.42-.216 2.285 1.19 6.955 2.675 9.167 2.675 2.518 0 3.497-3.322 4.196-4.72l13.04-34.426c.049-.126.07-.26.067-.396-.069-4.128 2.88-8.306-3.14-15.53-1.533-1.839-5.023-2.857-7.816-3.34-.914-.159-1.97-1.968-2.158-2.877-.132-.643-.451-1.258-1.041-1.651a7.945 7.945 0 00-1.26-.697c-.883-.38-2.018-2.216-2.204-3.16-.133-.669-.503-1.348-1.257-1.913-1.504-1.128-2.558-.729-3.55-.155-.582.337-1.287.001-1.568-.61-.72-1.57-2.248-2.798-4.323-2.382-1.454.29-1.923 2.423-2.063 4.126-.07.851-1.086 1.355-1.879 1.038-1.077-.431-2.475-.555-3.926.606z" fill="#BACF7B"/><path d="M53.357 82.253c-1.678-.336-2.873-1.1-3.721-1.986-.753-.784-5.217-2.675-6.283-2.885-1.411-.277-3.276-.999-5.732-2.472-2.886-1.732-3.39-4.417-3.26-6.482.062-.963-1.27-2.096-2.232-2.032-1.41.092-2.914-.474-3.424-3.026-.222-1.108.175-2.36.82-3.552.54-1-.62-2.47-1.456-1.7-1.878 1.729-3.308 4.307-3.035 8.4.344 5.168 4.083 7.442 6.424 8.169.507.157.862.635.783 1.16-.24 1.588-.448 3.74 1.71 5.358 1.766 1.325 3.216 1.26 4.348.971.689-.176 1.258.314 1.07 1-.468 1.697-.962 4.058 1.4 6.42 1.713 1.714 4.752 1.773 6.903 1.31a1.164 1.164 0 011.315.676c.843 2.02 2.86 5.507 6.993 5.882 5.091.462 8.14-1.253 9.868-2.984.37-.37.955-.458 1.42-.216 2.285 1.19 6.955 2.675 9.167 2.675 2.356 0 3.365-2.91 4.058-4.43.087-.19.12-.402.087-.61l-3.096-19.087c-.35-2.098-1.049 9.966-12.063 9.966-1.843 0-3.505-1.259-4.567-2.302-.563-.553-1.673-.438-2.202.149-.945 1.047-2.623 2.162-5.295 1.628z" fill="#8EA059"/><path d="M78.009 126.23h72.907V71.157L110.528 30.77l-32.52 32.52v62.94z" fill="#EBBC74"/><path d="M71.715 125.706l40.387.524V70.632l-20.98-20.98-19.407 19.931v56.123z" fill="#FFD594"/><path d="M151.965 114.691h-45.108v12.064h45.108v-12.064z" fill="#67502D"/><path d="M113.151 114.691h-41.96v12.588h41.96v-12.588z" fill="#937951"/><path d="M123.641 90.564v30.421h15.211V90.564h-15.211z" fill="#7A655E"/><path d="M118.921 123.608v-2.623h24.652v2.623h-24.652z" fill="#5A4943"/><path d="M145.671 123.608h-28.848v3.147h28.848v-3.147z" fill="#7A655E"/><circle cx="125.739" cy="109.446" r="1.049" fill="#FFD594"/><path d="M95.318 108.397V90.564h11.539v17.833h-11.54z" fill="#9FBCC4"/><path d="M95.318 108.397V90.564h11.539v17.833h-11.54zm5.769 0V91.088" stroke="#fff"/><path d="M76.435 108.397V90.564h11.54v17.833h-11.54z" fill="#9FBCC4"/><path d="M76.435 108.397V90.564h11.54v17.833h-11.54zm5.77 0V91.088" stroke="#fff"/><path d="M85.876 83.22V65.388h11.54v17.834h-11.54z" fill="#9FBCC4"/><path d="M85.876 83.22V65.388h11.54v17.834h-11.54zm5.77 0V65.913" stroke="#fff"/><path d="M125.739 83.22V65.388h11.539v17.834h-11.539z" fill="#9FBCC4"/><path d="M125.739 83.22V65.388h11.539v17.834h-11.539zm5.77 0V65.913" stroke="#fff"/><path d="M65.945 74.828l44.583-44.583 44.584 44.583" stroke="#50413C" stroke-width="4" stroke-linecap="round" stroke-linejoin="round"/><path d="M65.945 74.828l25.177-25.176 25.176 25.176" stroke="#50413C" stroke-width="4" stroke-linecap="round" stroke-linejoin="round"/><circle cx="111.053" cy="49.652" r="4.745" fill="#9FBCC4" stroke="#fff"/><path d="M111.053 44.931v8.917m-4.196-4.196h8.917" stroke="#fff"/><path d="M76.435 128.853v-4.101m0 0v-2.098l-6.294-1.144c.34.54 2.36 2.727 3.526 2.956a16.23 16.23 0 002.768.286zm0 .951c1.116.028 3.04-.166 4.221-.953m0 0c.523-.349.9-.815.995-1.43.31-2.003-1.931-1.947-3.09-1.669-.278.715-.247 2.336 2.095 3.099zm24.103 4.103v-5.468m0 0v-2.797l-5.245-.127c.34.72 1.311 2.238 2.477 2.543a12.33 12.33 0 002.768.381zm0 2.318c1.115.034 3.04-.208 4.221-1.192m0 0c.523-.437.9-1.019.995-1.788.309-2.503-1.932-2.434-3.091-2.086-.277.894-.246 2.92 2.096 3.874zm-17.858 4.342v-5.468m0 0v-2.797l4.196-.127c-.272.72-1.05 2.238-1.982 2.543a8.02 8.02 0 01-2.214.381zm0 2.318c-.893.034-2.433-.208-3.377-1.192m0 0c-.419-.437-.72-1.019-.796-1.788-.248-2.503 1.545-2.434 2.472-2.086.222.894.197 2.92-1.676 3.874z" stroke="#595353"/><path d="M80.61 109.97c-1.551.222-2.488.648-3.027 1.155-.36.339-1.379.573-1.748.244-.92-.818-2.363-1.695-4.142-1.399-1.078.18-1.997 1.364-2.45 2.245-.11.215-.343.34-.575.275-.977-.275-2.556-.752-3.27 1.152-1.111 2.966-.128 4.621.545 5.337.228.243.267.67.085.949-.49.751-1.009 2.215.944 3.68 1.668 1.251 3.667-.15 4.417-.777a.625.625 0 01.663-.078c.99.474 3.393 1.339 4.361.855.46-.23.819-.51 1.1-.808.377-.4 1.859-.482 2.261-.106.333.31.77.619 1.36.914 2.1 1.05 3.437-.562 4.453-1.376a.498.498 0 01.553-.027c.67.367 1.95.878 3.386.878 1.505 0 3.122-.843 3.944-1.395a.49.49 0 01.523-.03c1.358.796 3.11 2.523 6.548 1.95 2.119-.353 3.768-1.351 4.445-1.866a.488.488 0 01.576-.035c.764.517 2.767 1.78 5.993 1.376 2.966-.37 2.788-1.789 2.428-2.589-.134-.299-.037-.693.246-.859.621-.366 1.523-1.028 1.523-1.797 0-.614-.16-1.068-.355-1.394-.212-.353-.183-1.003.106-1.297.452-.461.824-1.166.249-2.029-.565-.847-1.8-.371-2.513.223-.19.159-.459.2-.67.071a6.296 6.296 0 00-2.063-.819c-2.076-.415-3.386.156-4.448.672-.35.17-.775-.119-.866-.497-.184-.766-.769-1.827-2.553-2.273-2.094-.523-3.86.756-4.708 1.541-.266.247-.767.21-1.046-.022-.42-.349-1.102-.741-2.114-.994-2.866-.717-3.855.335-4.7 1.121-.253.235-.64.099-.79-.213-.324-.678-.928-1.433-1.853-1.433-.674 0-1.178.401-1.527.881-.273.376-.93.402-1.194.021-.6-.868-1.731-1.765-4.098-1.427z" fill="#BACF7B"/><path d="M77.987 119.412c-2.933.419-3.67-4.184-3.671-3.151v.005c0 .074.005 3.145-3.147 3.146-2.281 0-4.286-3.03-5.218-4.699-.217-.389-.803-.35-.9.085-.498 2.25.312 3.564.892 4.181.228.243.267.67.085.949-.49.751-1.009 2.215.944 3.68 1.668 1.251 3.667-.15 4.417-.777a.625.625 0 01.663-.078c.99.474 3.393 1.339 4.361.855.46-.23.819-.51 1.1-.808.377-.4 1.859-.482 2.261-.106.333.31.77.619 1.36.914 2.1 1.05 3.437-.562 4.453-1.376a.498.498 0 01.553-.027c.67.367 1.95.878 3.386.878 1.505 0 3.122-.843 3.944-1.395a.49.49 0 01.523-.03c1.358.796 3.11 2.523 6.548 1.95 2.119-.353 3.768-1.351 4.445-1.866a.488.488 0 01.576-.035c.764.517 2.767 1.78 5.993 1.376 2.966-.37 2.788-1.789 2.428-2.589-.134-.299-.037-.693.246-.859.621-.366 1.523-1.028 1.523-1.797 0-1.449-.89-2.008-1.031-2.088-.013-.007-.025-.016-.04-.017-.276-.029-.581 2.669-3.65 4.203-1.88.94-5.017-1.217-6.273-2.184-.272-.209-.693-.112-.879.177a5.617 5.617 0 01-3.862 2.532c-2.261.377-3.169-1.141-3.5-2.026-.112-.299-.452-.486-.75-.373-.89.338-2.65.977-4.142 1.35-2.119.53-3.406.029-4.09-.446-.318-.221-.88-.177-1.141.109-.505.552-1.384 1.175-2.637.862-.715-.179-1.247-.601-1.638-1.081-.34-.416-1.842-.522-2.27-.195-.454.347-1.06.637-1.862.751z" fill="#8EA059"/><defs><filter id="filter0_d" x="0" y="0" width="182.21" height="157" filterUnits="userSpaceOnUse" color-interpolation-filters="sRGB"><feFlood flood-opacity="0" result="BackgroundImageFix"/><feColorMatrix in="SourceAlpha" values="0 0 0 0 0 0 0 0 0 0 0 0 0 0 0 0 0 0 127 0"/><feOffset/><feGaussianBlur stdDeviation="12.5"/><feColorMatrix values="0 0 0 0 0 0 0 0 0 0 0 0 0 0 0 0 0 0 0.15 0"/><feBlend in2="BackgroundImageFix" result="effect1_dropShadow"/><feBlend in="SourceGraphic" in2="effect1_dropShadow" result="shape"/></filter></defs></svg>