<svg width="183" height="145" fill="none" xmlns="http://www.w3.org/2000/svg"><g filter="url(#filter0_d)"><path fill-rule="evenodd" clip-rule="evenodd" d="M51.248 56.2c-4.346 8.757-7.001 14.809-7.957 19.544-9.722 4.904-17.525 10.835-18.267 16.768-.036.29-.031.592.013.905a8.846 8.846 0 00-.012.128c-1.091 12.893 33.84 29.289 61.13 25.786 24.508-3.146 72.935-16.529 71.176-33.155a5.308 5.308 0 00-.227-2.39c-.95-2.85-3.244-5.432-7.053-7.717.113-1.206.173-2.487.171-3.825.012-7.685-1.984-17.268-7.406-25.287.183-.31.264-.671.248-1.054a1.21 1.21 0 00-.049-.395c-.105-.515-.373-1.051-.792-1.545-.307-.47-.705-1.02-1.202-1.662-1.635-2.11-3.653-3.637-6.618-4.343-3.93-3.56-8.217-6.6-13.108-8.84.199-.075.305-.183.305-.336a.54.54 0 00-.02-.144c.055-.077-.006-.182-.193-.323-.23-.244-.639-.467-1.206-.663a46.276 46.276 0 00-1.481-.667c-3.02-1.31-8.212-2.251-14.49-1.917-3.258-.161-6.739-.04-10.476.404-20.698 2.453-31.59 8.78-42.485 30.729z" fill="#fff"/></g><path d="M157.11 84.95c-1.909-7.517-14.167-10.745-38.183-13.968-16.01-1.791-48.904-2.149-61.13 2.149-15.283 5.372-31.952 10.721-32.772 20.414-1.091 12.893 33.84 29.289 61.13 25.786 25.108-3.223 75.321-17.191 70.955-34.382z" fill="#D27A3B"/><path d="M157.104 83.785c-2.489-7.462-14.19-13.09-38.205-16.362-16.009-1.818-48.902-2.181-61.128 2.182-15.282 5.454-31.655 14.18-32.747 22.907-1.091 8.726 34.93 28.646 62.22 25.089 25.107-3.272 74.227-20.725 69.86-33.816z" fill="#F29F64"/><path d="M116.611 97.904c-16.34 3.292-37.039 2.634-50.112 0-5.447-1.098-16.34-4.939-19.609-8.78-6.537-7.681-5.051-13.966 4.359-32.923 10.895-21.95 21.787-28.276 42.485-30.729 21.789-2.583 34.861 5.738 45.755 17.558 12.139 13.17 12.261 33.46 8.715 40.607-3.268 6.585-12.937 10.508-31.593 14.267z" fill="#F29F64"/><path d="M116.641 97.893c-16.326 3.309-37.006 2.647-50.067 0-5.442-1.103-16.326-4.964-19.592-8.824-6.53-7.72-3.289-14.341-3.289-14.341 13.061-36.4-14.657 34.093 56.598 22.056 58.775-9.929 28.324-65.918 39.208-54.038 12.127 13.236 12.25 33.627 8.707 40.809-3.265 6.617-12.925 10.56-31.565 14.338z" fill="#D27A3B"/><path d="M89.297 60.766c4.306-4.451 11.842-13.352 26.914-18.917 15.073-4.45 21.51-2.557 25.815 1.896 2.153 2.228 1.076 5.566-4.282 3.67-5.194-1.84-8.613-1.115-19.379 3.336-10.766 4.45-15.073 11.13-20.456 18.919-4.888 7.072-6.46 6.118-11.842 3.337-4.307-2.226-1.077-7.79 3.23-12.241z" fill="#D27A3B"/><path d="M89.3 58.984c4.31-4.45 11.853-13.346 26.938-18.909 15.085-4.447 20.975-2.687 24.783 2.226 4.31 5.563 1.124 4.236-3.233 3.337-5.388-1.112-8.62-1.114-19.395 3.335-10.775 4.45-15.085 11.125-20.473 18.91-4.891 7.07-6.465 6.116-11.852 3.336-4.31-2.225-1.077-7.786 3.233-12.235z" fill="#FFB987"/><path d="M67.484 103.711c-4.186 0-15.7-9.612-18.84-11.748-4.186-4.272-2.093-11.747 4.187-23.495 6.28-11.748 8.374-18.156 25.12-30.972C94.698 24.68 121.6 25.666 121.6 28.782c0 1.1-5.474-.133-11.992 1.102-17.443 3.305-25.377 11.884-33.75 28.972-8.374 17.087-4.187 32.04-4.187 36.311 0 4.272 0 8.544-4.187 8.544z" fill="#D27A3B"/><path d="M64.366 103.711c-4.279 0-16.043-9.835-19.252-12.02-4.278-4.371-2.139-12.02 4.278-24.04s8.556-18.576 25.669-31.688c17.112-13.113 36.478-12.085 43.639-8.978 7.582 3.289-.916.857-11.554 2.421-13.355 1.964-25.668 10.927-34.224 28.41-8.556 17.484-4.278 32.782-4.278 37.153 0 4.371 0 8.742-4.278 8.742z" fill="#FFB987"/><defs><filter id="filter0_d" x="0" y="0" width="182.377" height="144.811" filterUnits="userSpaceOnUse" color-interpolation-filters="sRGB"><feFlood flood-opacity="0" result="BackgroundImageFix"/><feColorMatrix in="SourceAlpha" values="0 0 0 0 0 0 0 0 0 0 0 0 0 0 0 0 0 0 127 0"/><feOffset/><feGaussianBlur stdDeviation="12.5"/><feColorMatrix values="0 0 0 0 0 0 0 0 0 0 0 0 0 0 0 0 0 0 0.15 0"/><feBlend in2="BackgroundImageFix" result="effect1_dropShadow"/><feBlend in="SourceGraphic" in2="effect1_dropShadow" result="shape"/></filter></defs></svg>