<svg width="170" height="144" fill="none" xmlns="http://www.w3.org/2000/svg"><g filter="url(#filter0_d)"><path fillRule="evenodd" clipRule="evenodd" d="M46.084 27a2 2 0 012-2h74.145a2 2 0 012 2v44.699a2 2 0 01-2 2h1.323a2 2 0 011.793 1.115l18.979 38.47a1.989 1.989 0 01-.276 2.187V117a2 2 0 01-2 2H27.132a2 2 0 01-2-2v-2.795c0-.59.256-1.12.662-1.486l19.73-37.943A2 2 0 0147.3 73.7h.785a2 2 0 01-2-2V27z" fill="#fff"/></g><rect x="25.133" y="112.205" width="118.916" height="6.795" rx="2" fill="#8F8F8F"/><path d="M45.524 74.776A2 2 0 0147.3 73.7h76.253a2 2 0 011.793 1.115l18.979 38.47c.656 1.329-.312 2.885-1.794 2.885H27.294c-1.5 0-2.466-1.592-1.774-2.923l20.004-38.47z" fill="#fff"/><rect x="46.584" y="76.464" width="3.53" height="2.398" rx=".5" fill="#5A5A5A" stroke="#5A5A5A"/><rect x="52.247" y="76.464" width="3.53" height="2.398" rx=".5" fill="#5A5A5A" stroke="#5A5A5A"/><rect x="68.102" y="76.464" width="3.53" height="2.398" rx=".5" fill="#5A5A5A" stroke="#5A5A5A"/><rect x="73.765" y="76.464" width="3.53" height="2.398" rx=".5" fill="#5A5A5A" stroke="#5A5A5A"/><rect x="57.91" y="76.464" width="3.53" height="2.398" rx=".5" fill="#5A5A5A" stroke="#5A5A5A"/><rect x="63.572" y="76.464" width="2.398" height="2.398" rx=".5" fill="#5A5A5A" stroke="#5A5A5A"/><rect x="113.404" y="76.464" width="3.53" height="2.398" rx=".5" fill="#5A5A5A" stroke="#5A5A5A"/><rect x="119.066" y="76.464" width="3.53" height="2.398" rx=".5" fill="#5A5A5A" stroke="#5A5A5A"/><rect x="79.428" y="76.464" width="3.53" height="2.398" rx=".5" fill="#5A5A5A" stroke="#5A5A5A"/><rect x="85.09" y="76.464" width="3.53" height="2.398" rx=".5" fill="#5A5A5A" stroke="#5A5A5A"/><rect x="102.078" y="76.464" width="3.53" height="2.398" rx=".5" fill="#5A5A5A" stroke="#5A5A5A"/><rect x="107.741" y="76.464" width="3.53" height="2.398" rx=".5" fill="#5A5A5A" stroke="#5A5A5A"/><rect x="90.753" y="76.464" width="3.53" height="2.398" rx=".5" fill="#5A5A5A" stroke="#5A5A5A"/><rect x="96.416" y="76.464" width="3.53" height="2.398" rx=".5" fill="#5A5A5A" stroke="#5A5A5A"/><rect x="44.886" y="80.994" width="3.53" height="2.398" rx=".5" fill="#5A5A5A" stroke="#5A5A5A"/><rect x="49.982" y="80.994" width="3.53" height="2.398" rx=".5" fill="#5A5A5A" stroke="#5A5A5A"/><rect x="66.97" y="80.994" width="3.53" height="2.398" rx=".5" fill="#5A5A5A" stroke="#5A5A5A"/><rect x="72.633" y="80.994" width="3.53" height="2.398" rx=".5" fill="#5A5A5A" stroke="#5A5A5A"/><rect x="55.645" y="80.994" width="3.53" height="2.398" rx=".5" fill="#5A5A5A" stroke="#5A5A5A"/><rect x="61.307" y="80.994" width="3.53" height="2.398" rx=".5" fill="#5A5A5A" stroke="#5A5A5A"/><rect x="112.271" y="80.994" width="3.53" height="2.398" rx=".5" fill="#5A5A5A" stroke="#5A5A5A"/><rect x="117.934" y="80.994" width="6.928" height="2.398" rx=".5" fill="#5A5A5A" stroke="#5A5A5A"/><rect x="78.295" y="80.994" width="3.53" height="2.398" rx=".5" fill="#5A5A5A" stroke="#5A5A5A"/><rect x="83.958" y="80.994" width="3.53" height="2.398" rx=".5" fill="#5A5A5A" stroke="#5A5A5A"/><rect x="100.946" y="80.994" width="3.53" height="2.398" rx=".5" fill="#5A5A5A" stroke="#5A5A5A"/><rect x="106.608" y="80.994" width="3.53" height="2.398" rx=".5" fill="#5A5A5A" stroke="#5A5A5A"/><rect x="89.621" y="80.994" width="3.53" height="2.398" rx=".5" fill="#5A5A5A" stroke="#5A5A5A"/><rect x="95.283" y="80.994" width="3.53" height="2.398" rx=".5" fill="#5A5A5A" stroke="#5A5A5A"/><rect x="38.657" y="94.584" width="4.663" height="2.398" rx=".5" fill="#5A5A5A" stroke="#5A5A5A"/><rect x="46.584" y="94.584" width="3.53" height="2.398" rx=".5" fill="#5A5A5A" stroke="#5A5A5A"/><rect x="65.271" y="94.584" width="3.53" height="2.398" rx=".5" fill="#5A5A5A" stroke="#5A5A5A"/><rect x="70.934" y="94.584" width="3.53" height="2.398" rx=".5" fill="#5A5A5A" stroke="#5A5A5A"/><rect x="52.813" y="94.584" width="3.53" height="2.398" rx=".5" fill="#5A5A5A" stroke="#5A5A5A"/><rect x="59.042" y="94.584" width="3.53" height="2.398" rx=".5" fill="#5A5A5A" stroke="#5A5A5A"/><rect x="113.404" y="94.584" width="4.663" height="2.398" rx=".5" fill="#5A5A5A" stroke="#5A5A5A"/><rect x="120.199" y="94.584" width="10.325" height="2.398" rx=".5" fill="#5A5A5A" stroke="#5A5A5A"/><rect x="77.163" y="94.584" width="3.53" height="2.398" rx=".5" fill="#5A5A5A" stroke="#5A5A5A"/><rect x="83.392" y="94.584" width="3.53" height="2.398" rx=".5" fill="#5A5A5A" stroke="#5A5A5A"/><rect x="101.512" y="94.584" width="3.53" height="2.398" rx=".5" fill="#5A5A5A" stroke="#5A5A5A"/><rect x="107.741" y="94.584" width="3.53" height="2.398" rx=".5" fill="#5A5A5A" stroke="#5A5A5A"/><rect x="89.621" y="94.584" width="3.53" height="2.398" rx=".5" fill="#5A5A5A" stroke="#5A5A5A"/><rect x="95.849" y="94.584" width="3.53" height="2.398" rx=".5" fill="#5A5A5A" stroke="#5A5A5A"/><rect x="35.259" y="99.114" width="3.53" height="2.398" rx=".5" fill="#5A5A5A" stroke="#5A5A5A"/><rect x="40.922" y="99.114" width="4.663" height="2.398" rx=".5" fill="#5A5A5A" stroke="#5A5A5A"/><rect x="62.44" y="99.114" width="4.663" height="2.398" rx=".5" fill="#5A5A5A" stroke="#5A5A5A"/><rect x="47.717" y="99.114" width="4.663" height="2.398" rx=".5" fill="#5A5A5A" stroke="#5A5A5A"/><rect x="54.512" y="99.114" width="5.795" height="2.398" rx=".5" fill="#5A5A5A" stroke="#5A5A5A"/><rect x="122.464" y="99.114" width="5.795" height="2.398" rx=".5" fill="#5A5A5A" stroke="#5A5A5A"/><rect x="130.392" y="100.247" width="3.53" height="1.265" rx=".5" fill="#5A5A5A" stroke="#5A5A5A"/><rect x="69.801" y="99.114" width="29.578" height="2.398" rx=".5" fill="#5A5A5A" stroke="#5A5A5A"/><rect x="110.006" y="99.114" width="4.663" height="2.398" rx=".5" fill="#5A5A5A" stroke="#5A5A5A"/><rect x="116.801" y="100.247" width="3.53" height="1.265" rx=".5" fill="#5A5A5A" stroke="#5A5A5A"/><rect x="102.078" y="99.114" width="5.795" height="2.398" rx=".5" fill="#5A5A5A" stroke="#5A5A5A"/><rect x="42.62" y="85.524" width="4.663" height="2.398" rx=".5" fill="#5A5A5A" stroke="#5A5A5A"/><rect x="49.982" y="85.524" width="3.53" height="2.398" rx=".5" fill="#5A5A5A" stroke="#5A5A5A"/><rect x="66.97" y="85.524" width="3.53" height="2.398" rx=".5" fill="#5A5A5A" stroke="#5A5A5A"/><rect x="72.633" y="85.524" width="3.53" height="2.398" rx=".5" fill="#5A5A5A" stroke="#5A5A5A"/><rect x="55.645" y="85.524" width="3.53" height="2.398" rx=".5" fill="#5A5A5A" stroke="#5A5A5A"/><rect x="61.307" y="85.524" width="3.53" height="2.398" rx=".5" fill="#5A5A5A" stroke="#5A5A5A"/><rect x="113.404" y="85.524" width="4.663" height="2.398" rx=".5" fill="#5A5A5A" stroke="#5A5A5A"/><rect x="78.295" y="85.524" width="3.53" height="2.398" rx=".5" fill="#5A5A5A" stroke="#5A5A5A"/><rect x="83.958" y="85.524" width="3.53" height="2.398" rx=".5" fill="#5A5A5A" stroke="#5A5A5A"/><rect x="100.946" y="85.524" width="3.53" height="2.398" rx=".5" fill="#5A5A5A" stroke="#5A5A5A"/><rect x="106.608" y="85.524" width="4.663" height="2.398" rx=".5" fill="#5A5A5A" stroke="#5A5A5A"/><rect x="89.621" y="85.524" width="3.53" height="2.398" rx=".5" fill="#5A5A5A" stroke="#5A5A5A"/><rect x="95.283" y="85.524" width="3.53" height="2.398" rx=".5" fill="#5A5A5A" stroke="#5A5A5A"/><rect x="40.355" y="90.054" width="8.06" height="2.398" rx=".5" fill="#5A5A5A" stroke="#5A5A5A"/><rect x="51.114" y="90.054" width="3.53" height="2.398" rx=".5" fill="#5A5A5A" stroke="#5A5A5A"/><rect x="68.102" y="90.054" width="4.663" height="2.398" rx=".5" fill="#5A5A5A" stroke="#5A5A5A"/><rect x="74.898" y="90.054" width="3.53" height="2.398" rx=".5" fill="#5A5A5A" stroke="#5A5A5A"/><rect x="56.777" y="90.054" width="3.53" height="2.398" rx=".5" fill="#5A5A5A" stroke="#5A5A5A"/><rect x="62.44" y="90.054" width="3.53" height="2.398" rx=".5" fill="#5A5A5A" stroke="#5A5A5A"/><rect x="116.801" y="90.054" width="3.53" height="2.398" rx=".5" fill="#5A5A5A" stroke="#5A5A5A"/><mask id="a" fill="#fff"><path fillRule="evenodd" clipRule="evenodd" d="M123.051 88.09h-2.352a1 1 0 01-1-1v-1.065a1 1 0 011-1h5.542a1 1 0 011 1v5.66a1 1 0 01-1 1h-2.19a1 1 0 01-1-1V88.09z"/></mask><path fillRule="evenodd" clipRule="evenodd" d="M123.051 88.09h-2.352a1 1 0 01-1-1v-1.065a1 1 0 011-1h5.542a1 1 0 011 1v5.66a1 1 0 01-1 1h-2.19a1 1 0 01-1-1V88.09z" fill="#5A5A5A"/><path d="M123.051 88.09h1v-1h-1v1zm.965-3.065v1h.034l-.034-1zm-.965 2.064h-2.352v2h2.352v-2zm-2.352 0h-2a2 2 0 002 2v-2zm0 0v-1.064h-2v1.064h2zm0-1.064v-2a2 2 0 00-2 2h2zm0 0h3.317v-2h-3.317v2zm3.351 0h.001v-2h-.069l.068 2zm.001 0h2.19v-2h-2.19v2zm2.19 0h2a2 2 0 00-2-2v2zm0 0v5.66h2v-5.66h-2zm0 5.66v2a2 2 0 002-2h-2zm0 0h-2.19v2h2.19v-2zm-2.19 0h-2a2 2 0 002 2v-2zm0 0V88.09h-2v3.597h2z" fill="#5A5A5A" mask="url(#a)"/><rect x="80.56" y="90.054" width="3.53" height="2.398" rx=".5" fill="#5A5A5A" stroke="#5A5A5A"/><rect x="86.223" y="90.054" width="4.663" height="2.398" rx=".5" fill="#5A5A5A" stroke="#5A5A5A"/><rect x="104.343" y="90.054" width="3.53" height="2.398" rx=".5" fill="#5A5A5A" stroke="#5A5A5A"/><rect x="110.006" y="90.054" width="4.663" height="2.398" rx=".5" fill="#5A5A5A" stroke="#5A5A5A"/><rect x="93.018" y="90.054" width="3.53" height="2.398" rx=".5" fill="#5A5A5A" stroke="#5A5A5A"/><rect x="98.681" y="90.054" width="3.53" height="2.398" rx=".5" fill="#5A5A5A" stroke="#5A5A5A"/><path d="M70.714 104.791a1 1 0 01.874-.514h24.276a1 1 0 01.894.553l4.097 8.193a1 1 0 01-.895 1.447H67.037a1 1 0 01-.874-1.486l4.551-8.193z" fill="#8F8F8F"/><rect x="46.084" y="25" width="78.145" height="48.699" rx="2" fill="#8F8F8F"/><rect x="49.482" y="27.265" width="71.349" height="44.169" rx="2" fill="#A3E9CB"/><defs><filter id="filter0_d" x=".133" y="0" width="169.4" height="144" filterUnits="userSpaceOnUse" color-interpolation-filters="sRGB"><feFlood flood-opacity="0" result="BackgroundImageFix"/><feColorMatrix in="SourceAlpha" values="0 0 0 0 0 0 0 0 0 0 0 0 0 0 0 0 0 0 127 0"/><feOffset/><feGaussianBlur stdDeviation="12.5"/><feColorMatrix values="0 0 0 0 0 0 0 0 0 0 0 0 0 0 0 0 0 0 0.15 0"/><feBlend in2="BackgroundImageFix" result="effect1_dropShadow"/><feBlend in="SourceGraphic" in2="effect1_dropShadow" result="shape"/></filter></defs></svg>