<svg width="189" height="138" fill="none" xmlns="http://www.w3.org/2000/svg"><g filter="url(#filter0_d)"><path fill-rule="evenodd" clip-rule="evenodd" d="M78.528 34.883a1 1 0 01.08-1.412l8.907-7.949a1 1 0 011.412.08l1.19 1.334 1.334-1.19a1 1 0 011.412.08l.524.588a1 1 0 01-.08 1.412l-3.414 3.046.38.426 3.795-2.398a1.5 1.5 0 011.97 2.208l-2.812 3.5.758.849 3.774-2.384a1.493 1.493 0 01.967-.239 1.5 1.5 0 011.01 2.452l-2.797 3.48.758.85 3.795-2.398a1.5 1.5 0 011.972 2.209l-2.813 3.5.759.85 3.796-2.399a1.5 1.5 0 011.954 2.229l-2.797 3.479.38.425 3.414-3.046a1 1 0 011.412.08l.524.588a1 1 0 01-.08 1.411l-3.414 3.047 3.047 3.414a1 1 0 01.213.948c4.152-6.856 11.682-11.439 20.283-11.439 13.086 0 23.695 10.609 23.695 23.695 0 11.42-8.08 20.954-18.835 23.196.152.064.322.09.497.07l2.871-.321a1 1 0 011.047 1.347l-1.02 2.703a1 1 0 00.535 1.27l2.648 1.156a1 1 0 01.233 1.69l-2.235 1.831a1 1 0 00-.171 1.367l1.715 2.326a1 1 0 01-.643 1.58l-2.852.468a1 1 0 00-.831 1.099l.322 2.871a1 1 0 01-1.347 1.047l-2.704-1.02a1 1 0 00-1.269.535l-1.157 2.648a1 1 0 01-1.69.233l-1.831-2.235a1 1 0 00-1.367-.171l-2.326 1.714a1 1 0 01-1.58-.643l-.468-2.851a1 1 0 00-1.098-.832l-.828.093v2.892a1 1 0 01-1 1H67.487a1 1 0 01-1-1v-3.575a1 1 0 011-1h1.788v-4.023a31.975 31.975 0 01-11.612 2.168c-17.705 0-32.058-14.353-32.058-32.058s14.353-32.058 32.058-32.058S89.72 54.08 89.72 71.784c0 .154 0 .308-.003.462h13.01v-1.788a1 1 0 011-1h2.94a23.845 23.845 0 01-.221-3.249 23.7 23.7 0 011.106-7.177l-1.401-1.57-1.334 1.191a1 1 0 01-1.412-.08l-3.047-3.414-3.413 3.046a1 1 0 01-1.412-.08l-.524-.587a1.002 1.002 0 01-.177-.279 1.501 1.501 0 01-.618-2.336l2.812-3.498-.76-.851-3.747 2.367a1.5 1.5 0 01-1.985-2.217l2.78-3.459-.76-.852-3.737 2.36a1.502 1.502 0 01-1.983-2.226l2.767-3.442-.76-.85-3.735 2.36a1.501 1.501 0 01-1.985-2.224l2.769-3.445-.76-.85-3.795 2.397a1.5 1.5 0 01-2.25-.88.998.998 0 01-.257-.206l-.524-.588a1 1 0 01.08-1.412l1.334-1.19-1.19-1.334zm29.703 20.723l.462.518c.281-.597.587-1.18.915-1.749a1.09 1.09 0 01-.044.042l-1.333 1.19zm6.578 10.603c0 .795.06 1.575.177 2.337a1.851 1.851 0 10-.153-3.209c-.016.288-.024.58-.024.872zm3.629-.459a2.851 2.851 0 00-3.232-1.635c.075-.27.036-.566-.122-.811.224-1.168.58-2.288 1.053-3.345l5.589 5.773a1 1 0 010 1.391l-5.3 5.474a.99.99 0 00-.344-.26 15.254 15.254 0 01-.879-2.658 2.85 2.85 0 003.235-3.929zm-1.773 19.951c.728.505 1.487.97 2.272 1.392a.986.986 0 00-.276.808l.322 2.871a1 1 0 01-.832 1.099l-1.486.244V85.7zm0 19.757v-3.248l.181.08a1 1 0 01.535 1.269l-.716 1.899zM66.487 76.033a1 1 0 01.507-.87l-5.196-1.082a.607.607 0 00-.687.822l4.121 10.218c1.532-.871 2.9-2 4.043-3.325v-1.188h-1.788a1 1 0 01-1-1v-3.575zm52.965 0V77.2a15.283 15.283 0 009.19 4.268l-2.12-7.429a1 1 0 00-1.204-.695l-6.758 1.694a1 1 0 01.892.994zm-46.457-4.248c0 .154-.003.308-.007.46h-2.713a1 1 0 00-1 1v.421l-6.888-2.532a.607.607 0 01-.17-1.045l8.322-6.63a15.26 15.26 0 012.456 8.326zm3.842-13.924c-4.308-5.922-11.291-9.771-19.174-9.771-7.508 0-14.201 3.491-18.542 8.94 4.34-5.449 11.033-8.941 18.542-8.941 7.883 0 14.867 3.85 19.174 9.772zm-18.41 18.261l5.612 9.61a15.275 15.275 0 01-6.376 1.385 15.28 15.28 0 01-5.995-1.217l5.71-9.778a.607.607 0 011.05 0zm-3.708-1.28l-4.233 10.495a15.368 15.368 0 01-7.636-9.581l11.213-1.742a.607.607 0 01.656.827zm-12.388-3.057c0 .918.08 1.817.235 2.691l10.901-3.412a.607.607 0 00.245-1.012l-7.99-7.886a15.268 15.268 0 00-3.391 9.619zm13.144-4.141l-8.891-6.457a15.286 15.286 0 0110.642-4.728l-.788 10.738a.607.607 0 01-.963.447zm3.901-.331l-.795-10.833a15.306 15.306 0 0111.118 5.806l-9.41 5.507a.608.608 0 01-.913-.48zm72.209 14.161a15.316 15.316 0 0010.938-6.221l-7.612-1.908a1 1 0 00-1.205.695l-2.121 7.434zm12.406-8.682a15.269 15.269 0 001.482-6.583c0-2.24-.481-4.369-1.345-6.288l-5.625 5.81a1 1 0 000 1.392l5.488 5.67zm-1.205-15.256a15.32 15.32 0 00-11.329-6.603l2.249 7.882a1 1 0 001.205.695l7.875-1.974zm-25.298.012l7.83 1.962a1 1 0 001.204-.695l2.248-7.877a15.321 15.321 0 00-11.282 6.61zm8.824 44.707a4.18 4.18 0 103.152-7.746 4.181 4.181 0 00-3.152 7.746zm29.635-14.735a.4.4 0 00-.594-.229l-3.607 2.222a.4.4 0 01-.432-.008l-3.52-2.356a.4.4 0 00-.602.206l-1.335 4.02a.401.401 0 01-.337.272l-4.211.457a.4.4 0 00-.329.546l1.562 3.937a.4.4 0 01-.083.425l-2.932 3.057a.4.4 0 00.099.629l3.727 2.013a.4.4 0 01.209.378l-.281 4.227a.4.4 0 00.48.418l4.149-.854a.403.403 0 01.404.156l2.502 3.418a.4.4 0 00.636.012l2.63-3.321a.398.398 0 01.409-.14l4.114 1.01a.4.4 0 00.495-.4l-.121-4.234a.403.403 0 01.223-.371l3.801-1.87a.4.4 0 00.123-.625l-2.815-3.166a.4.4 0 01-.067-.427l1.71-3.876a.4.4 0 00-.308-.557l-4.191-.617a.4.4 0 01-.326-.284l-1.182-4.068zm-1.717 12.062a2.858 2.858 0 11-5.295-2.155 2.858 2.858 0 015.295 2.155zM33.97 71.478c-.002.102-.002.204-.002.306 0-.103 0-.204.002-.306z" fill="#FFB75C"/></g><path fill-rule="evenodd" clip-rule="evenodd" d="M57.663 103.841c17.705 0 32.057-14.352 32.057-32.057 0-17.705-14.352-32.058-32.057-32.058-17.705 0-32.058 14.353-32.058 32.058s14.353 32.057 32.058 32.057zm0-8.363c13.086 0 23.694-10.608 23.694-23.695 0-13.086-10.608-23.694-23.694-23.694-13.087 0-23.695 10.608-23.695 23.694 0 13.087 10.608 23.695 23.695 23.695z" fill="#2F484B"/><path fill-rule="evenodd" clip-rule="evenodd" d="M57.663 95.48c13.086 0 23.694-10.61 23.694-23.696 0-13.086-10.608-23.695-23.694-23.695-13.087 0-23.695 10.609-23.695 23.695 0 13.087 10.608 23.695 23.695 23.695zm0-8.363c8.467 0 15.332-6.865 15.332-15.332 0-8.468-6.865-15.332-15.332-15.332-8.468 0-15.332 6.864-15.332 15.332 0 8.467 6.864 15.332 15.332 15.332z" fill="#F2F4FF"/><path d="M57.297 55.493c.055-.75 1.156-.75 1.212 0l.867 11.82a.607.607 0 00.913.48l10.809-6.326c.65-.38 1.275.53.685 1l-9.565 7.622a.607.607 0 00.169 1.045l11.51 4.231c.706.26.403 1.318-.334 1.165l-11.765-2.449a.607.607 0 00-.687.822l4.456 11.048c.282.698-.708 1.184-1.088.533l-6.052-10.362a.607.607 0 00-1.049 0l-6.051 10.362c-.38.65-1.37.165-1.088-.533l4.48-11.11a.607.607 0 00-.656-.827l-11.865 1.843c-.743.115-.992-.955-.275-1.18l11.544-3.613a.607.607 0 00.245-1.012l-8.42-8.311c-.535-.528.175-1.365.783-.924l9.4 6.827c.385.28.928.028.963-.447l.859-11.704z" fill="#fff"/><path fill-rule="evenodd" clip-rule="evenodd" d="M130.141 89.904c13.086 0 23.695-10.609 23.695-23.695s-10.609-23.695-23.695-23.695-23.695 10.609-23.695 23.695 10.609 23.695 23.695 23.695zm0-8.363c8.467 0 15.332-6.864 15.332-15.332 0-8.467-6.865-15.332-15.332-15.332-8.468 0-15.332 6.865-15.332 15.332 0 8.468 6.864 15.332 15.332 15.332z" fill="#CAC3D9"/><path fill-rule="evenodd" clip-rule="evenodd" d="M130.141 89.904c13.086 0 23.695-10.609 23.695-23.695s-10.609-23.695-23.695-23.695-23.695 10.609-23.695 23.695 10.609 23.695 23.695 23.695zm0-2.788c11.546 0 20.907-9.36 20.907-20.907s-9.361-20.907-20.907-20.907c-11.547 0-20.908 9.36-20.908 20.907s9.361 20.907 20.908 20.907z" fill="#7E8BAB"/><path d="M129.153 49.598c.276-.967 1.647-.967 1.923 0l2.63 9.217a1 1 0 001.205.695l9.297-2.33c.976-.245 1.662.943.962 1.666l-6.667 6.886a1 1 0 000 1.391l6.667 6.886c.7.723.014 1.91-.962 1.666l-9.297-2.33a1 1 0 00-1.205.695l-2.63 9.217c-.276.967-1.647.967-1.923 0l-2.631-9.217a1 1 0 00-1.204-.695l-9.298 2.33c-.976.245-1.661-.943-.961-1.665l6.667-6.887a1 1 0 000-1.391l-6.667-6.886c-.7-.723-.015-1.91.961-1.666l9.298 2.33a1 1 0 001.204-.695l2.631-9.217z" fill="#fff"/><rect x="69.275" y="72.245" width="47.39" height="8.363" rx="1" fill="#5A5A5A"/><rect width="8.363" height="8.363" rx="1" transform="matrix(1 0 0 -1 74.85 77.82)" fill="#FEA4A4"/><rect x="69.275" y="75.033" width="47.39" height="36.239" rx="1" fill="#C7C7C7"/><rect width="8.363" height="8.363" rx="1" transform="matrix(1 0 0 -1 102.727 77.82)" fill="#A4E3FE"/><rect x="66.487" y="75.033" width="52.965" height="5.575" rx="1" fill="#8F8F8F"/><rect x="66.487" y="105.697" width="52.965" height="5.575" rx="1" fill="#8F8F8F"/><path fill-rule="evenodd" clip-rule="evenodd" d="M133.931 85.792a1 1 0 00-1.58-.643l-2.326 1.715a1 1 0 01-1.367-.171l-1.831-2.235a1 1 0 00-1.69.233l-1.157 2.648a1 1 0 01-1.269.535l-2.703-1.02a1 1 0 00-1.347 1.047l.322 2.871a1 1 0 01-.832 1.098l-2.851.468a1 1 0 00-.643 1.58l1.714 2.326a1 1 0 01-.171 1.367l-2.235 1.831a1 1 0 00.233 1.69l2.648 1.157a1 1 0 01.535 1.27l-1.02 2.703a1 1 0 001.047 1.347l2.872-.322a1 1 0 011.098.832l.468 2.851a1 1 0 001.58.643l2.326-1.715a1.001 1.001 0 011.367.172l1.831 2.235a1 1 0 001.69-.233l1.157-2.648a1 1 0 011.269-.535l2.704 1.02a1 1 0 001.346-1.047l-.322-2.872a1 1 0 01.832-1.098l2.852-.468a1 1 0 00.642-1.58l-1.714-2.326a1 1 0 01.171-1.367l2.235-1.831a1 1 0 00-.233-1.69l-2.648-1.157a1 1 0 01-.535-1.27l1.02-2.703a1 1 0 00-1.047-1.347l-2.871.322a1 1 0 01-1.098-.831l-.469-2.852zm-7.619 16.463a4.181 4.181 0 103.152-7.746 4.181 4.181 0 00-3.152 7.746z" fill="#5987AB"/><circle cx="127.889" cy="98.382" r="5.969" transform="rotate(22.14 127.889 98.382)" stroke="#143957" stroke-width="2"/><path fill-rule="evenodd" clip-rule="evenodd" d="M155.947 87.52a.4.4 0 00-.594-.229l-3.607 2.222a.4.4 0 01-.432-.009l-3.52-2.356a.4.4 0 00-.602.207l-1.335 4.02a.401.401 0 01-.337.271l-4.211.458a.4.4 0 00-.329.545l1.562 3.938a.4.4 0 01-.083.424l-2.932 3.058a.4.4 0 00.099.629l3.727 2.013a.4.4 0 01.209.378l-.281 4.227a.4.4 0 00.48.418l4.149-.854a.399.399 0 01.404.156l2.502 3.418a.4.4 0 00.636.012l2.63-3.321a.4.4 0 01.409-.141l4.114 1.011a.4.4 0 00.495-.4l-.121-4.235a.401.401 0 01.223-.37l3.801-1.87a.4.4 0 00.123-.625l-2.815-3.166a.4.4 0 01-.067-.427l1.71-3.876a.4.4 0 00-.308-.557l-4.191-.617a.4.4 0 01-.326-.284l-1.182-4.068zm-5.798 14.155a3.367 3.367 0 102.423-6.283 3.367 3.367 0 00-2.423 6.283z" fill="#5987AB"/><circle cx="151.582" cy="98.504" r="3.858" transform="rotate(22.14 151.582 98.504)" stroke="#143957" stroke-width="2"/><rect x="94.343" y="56.791" width="19.513" height="2.788" rx="1" transform="rotate(-41.746 94.343 56.791)" fill="#5A5A5A"/><rect x="77.638" y="38.073" width="19.513" height="2.788" rx="1" transform="rotate(-41.746 77.638 38.073)" fill="#5A5A5A"/><rect x="77.862" y="34.136" width="13.938" height="5.575" rx="1" transform="rotate(-41.746 77.862 34.136)" fill="#5A5A5A"/><rect x="104.295" y="55.382" width="2.788" height="13.938" rx="1" transform="rotate(-41.746 104.295 55.382)" fill="#5A5A5A"/><circle cx="115.828" cy="66.897" r="2.351" transform="rotate(-113.73 115.828 66.897)" stroke="#5A5A5A"/><path d="M95.383 55.863l10.623-13.216m-21.759.738L94.87 30.168m-6.912 17.375l10.623-13.216m-6.91 17.376l10.623-13.216" stroke="#A87331" stroke-width="3" stroke-linecap="round" stroke-linejoin="round"/><rect x="81.798" y="34.361" width="8.363" height="33.452" rx="1" transform="rotate(-41.746 81.798 34.36)" fill="#5A5A5A"/><path d="M80.534 39.224l14.335-9.056M91.67 51.703l14.336-9.057m-18.049 4.897l14.335-9.057m-18.046 4.897l14.335-9.056" stroke="#FFB75C" stroke-width="3" stroke-linecap="round" stroke-linejoin="round"/><defs><filter id="filter0_d" x=".605" y=".268" width="187.622" height="137.404" filterUnits="userSpaceOnUse" color-interpolation-filters="sRGB"><feFlood flood-opacity="0" result="BackgroundImageFix"/><feColorMatrix in="SourceAlpha" values="0 0 0 0 0 0 0 0 0 0 0 0 0 0 0 0 0 0 127 0"/><feOffset/><feGaussianBlur stdDeviation="12.5"/><feColorMatrix values="0 0 0 0 0 0 0 0 0 0 0 0 0 0 0 0 0 0 0.15 0"/><feBlend in2="BackgroundImageFix" result="effect1_dropShadow"/><feBlend in="SourceGraphic" in2="effect1_dropShadow" result="shape"/></filter></defs></svg>