<svg width="164" height="157" fill="none" xmlns="http://www.w3.org/2000/svg"><g filter="url(#filter0_d)"><path fill-rule="evenodd" clip-rule="evenodd" d="M25.5 25h61.22v1h17.516v.5V25h19.226v46.926H139v39.985h-15.538v23.713H73.426v-1.078H60.342v1.078H47.87v-24.057H25.5V92.762h1V80.101h-1V55.2h1V38.74h.5-1.5V25z" fill="#fff"/></g><path d="M27 26.5h95.384v108.046H49.369v-24.902H27V26.5z" fill="#FFFCF2"/><path fill="#CDCFEB" d="M83.555 106.69h38.829v27.855H83.555z"/><path fill="#FFEDD8" d="M122.384 72.926h15.194v37.985h-15.194z"/><path fill="#EBF2E3" d="M27 65.329h39.673v44.738H27z"/><path d="M86.51 26.5h17.726M27 93.184V79.68" stroke="#8BD8D3"/><path d="M86.72 26.5H27v12.24m77.236-12.24h17.726v49.802M27 55.2v24.9m94.962 23.636v30.388H73.426m-13.084 0H49.37v-24.057H27V92.762" stroke="#605964" stroke-width="3"/><path d="M121.962 72.926H138v37.985h-16.038m.422-50.225h-30.81M69.627 27.344v22.791l10.552 10.13M27.422 65.33h39.25m-17.303 44.737h17.726V91.919m54.867 14.771H83.555v8.863m.422 18.993v-8.441" stroke="#605964" stroke-width="2"/><path d="M29 107.5v-31h9v31h-9z" fill="#B6C0AE"/><path d="M37.13 92.34h-6.754v-7.597h6.753v7.597z" fill="#3F3535"/><circle cx="32.065" cy="79.679" r="1.688" fill="#F4F4F4"/><circle cx="54.011" cy="87.698" r="2.11" fill="#5A8C89"/><circle cx="38.954" cy="41.454" r="2.954" fill="#5A8C89"/><circle cx="129.137" cy="77.568" r="2.954" fill="#5A8C89"/><circle cx="129.137" cy="92.762" r="2.954" fill="#5A8C89"/><circle cx="47.681" cy="96.983" r="2.11" fill="#5A8C89"/><circle cx="60.342" cy="96.983" r="2.11" fill="#5A8C89"/><circle cx="54.011" cy="104.58" r="2.11" fill="#5A8C89"/><path d="M38 75.5h-9v-8h9v8z" fill="#fff"/><path d="M51 63.5H29v-7h22v7z" fill="#B68E65"/><path d="M51 37.5H29v-9h22v9z" fill="#76624E"/><path d="M40.743 33.526l-9.139 2.245-.748-3.046 9.139-2.245.748 3.046z" fill="#AEBFDF"/><path d="M57.81 101.626h-7.597V90.652h7.597v10.974z" fill="#C9B9AB"/><path d="M55 131.5h-3v-20h3v20zm65-64H92v-5h28v5z" fill="#B68E65"/><path d="M92.418 70.394h-3.376V88.12h3.376V70.394z" fill="#76624E"/><path d="M91.574 85.588V72.926a.844.844 0 10-1.688 0v12.662a.844.844 0 101.688 0zM109.3 58.576H94.95a.422.422 0 000 .844h14.35a.422.422 0 000-.844z" fill="#AEBFDF"/><path d="M118.43 89.808h-4.753a1 1 0 01-1-1V70.55a1 1 0 011-1h4.753a1 1 0 011 1v18.258a1 1 0 01-1 1z" fill="#964640"/><path d="M113.943 89.308h5.065a.922.922 0 010 1.844h-5.065a.922.922 0 010-1.844zm0-21.102h5.065a.922.922 0 010 1.844h-5.065a.922.922 0 010-1.844z" fill="#B8706E" stroke="#B8706E"/><path d="M75.114 45.914h-4.22V28.188h4.22v17.726z" fill="#B68E65"/><path d="M119.852 34.941h-5.909v-6.44h5.909v6.44zm-31.232 0h-5.91v-6.44h5.909v6.44z" fill="#76624E"/><path d="M111.411 52.667H91.996v-.844h19.415v.844z" fill="#B68E65"/><path d="M110.566 37.473H92.84v14.35h17.726v-14.35z" fill="#ABD0D1"/><path d="M110.566 29.876H92.84v8.441h17.726v-8.44z" fill="#F3F3F3"/><path d="M107.878 31.565h-3.908a1 1 0 00-1 1v1.376a1 1 0 001 1h3.908a1 1 0 001-1v-1.376a1 1 0 00-1-1z" fill="#ABD0D1"/><path d="M109.566 36.63H93.84a1 1 0 00-1 1v.532a1 1 0 001 1h15.726a1 1 0 001-1v-.533a1 1 0 00-1-1z" fill="#fff"/><path d="M99.437 31.565h-3.909a1 1 0 00-1 1v1.376a1 1 0 001 1h3.91a1 1 0 00.999-1v-1.376a1 1 0 00-1-1z" fill="#ABD0D1"/><path d="M121.962 76.302v15.194" stroke="#8BD8D3"/><path d="M112 30.5H91v-2h21v2z" fill="#B68E65"/><path d="M27 55.2V38.74" stroke="#8BD8D3"/><circle cx="132.091" cy="84.743" r="4.221" fill="#C9B9AB"/><path d="M83.977 126.105l-5.909-8.441m43.894-13.506l-5.909-8.441m-26.62-40.055l-9.254 4.53" stroke="#A194A8" stroke-linecap="round" stroke-linejoin="round"/><path d="M119.43 68.206h.5v22.946h-1.845V68.205h1.345z" fill="#D79794" stroke="#D79794"/><rect x="94.106" y="120.196" width="25.323" height="11.818" rx="2" fill="#DBDBDB"/><rect x="94.951" y="121.04" width="21.947" height="10.129" rx="2" fill="#fff"/><rect x="113.521" y="109.222" width="5.909" height="7.597" rx="2" fill="#DBDBDB"/><rect x="114.365" y="110.066" width="4.221" height="5.909" rx="2" fill="#fff"/><rect width="7.597" height="4.221" rx="2" transform="matrix(-1 0 0 1 94.106 109.222)" fill="#DBDBDB"/><rect x="85.665" y="108.378" width="3.376" height="5.909" rx="1.688" fill="#fff"/><path fill="#B68E65" d="M85.665 126.948h7.597v5.065h-7.597z"/><circle cx="35.441" cy="86.854" r=".922" fill="#E15F4A" stroke="#E15F4A"/><circle cx="32.065" cy="86.854" r=".922" fill="#E15F4A" stroke="#E15F4A"/><circle cx="35.441" cy="90.23" r=".922" fill="#E15F4A" stroke="#E15F4A"/><circle cx="32.065" cy="90.23" r=".922" fill="#E15F4A" stroke="#E15F4A"/><rect x="116.475" y="112.599" width="2.532" height=".844" rx=".422" fill="#BDBDBD"/><rect x="116.475" y="112.599" width="2.532" height=".844" rx=".422" fill="#BDBDBD"/><rect x="116.475" y="112.599" width="2.532" height=".844" rx=".422" fill="#BDBDBD"/><rect x="114.787" y="125.26" width="3.376" height="1.688" rx=".844" fill="#BDBDBD"/><rect x="114.787" y="125.26" width="3.376" height="1.688" rx=".844" fill="#BDBDBD"/><rect x="114.787" y="125.26" width="3.376" height="1.688" rx=".844" fill="#BDBDBD"/><rect x="86.087" y="110.911" width=".844" height=".844" rx=".422" fill="#BDBDBD"/><rect x="86.087" y="110.911" width=".844" height=".844" rx=".422" fill="#BDBDBD"/><rect x="86.087" y="110.911" width=".844" height=".844" rx=".422" fill="#BDBDBD"/><defs><filter id="filter0_d" x=".5" y="0" width="163.5" height="160.624" filterUnits="userSpaceOnUse" color-interpolation-filters="sRGB"><feFlood flood-opacity="0" result="BackgroundImageFix"/><feColorMatrix in="SourceAlpha" values="0 0 0 0 0 0 0 0 0 0 0 0 0 0 0 0 0 0 127 0"/><feOffset/><feGaussianBlur stdDeviation="12.5"/><feColorMatrix values="0 0 0 0 0 0 0 0 0 0 0 0 0 0 0 0 0 0 0.15 0"/><feBlend in2="BackgroundImageFix" result="effect1_dropShadow"/><feBlend in="SourceGraphic" in2="effect1_dropShadow" result="shape"/></filter></defs></svg>