<svg width="160" height="157" fill="none" xmlns="http://www.w3.org/2000/svg"><g filter="url(#filter0_d)"><path fillRule="evenodd" clipRule="evenodd" d="M96.607 119.748h-.002s-14.758-4.373-15.852-7.652c-.886-2.655.304-4.595 2.302-7.849.469-.764.982-1.601 1.524-2.536 1.5-2.592 3.075-5.605 4.598-8.686-1.271-.365-2.41-.923-2.41-1.696 0-1.64 2.732-7.653 3.826-9.84 1.093-2.186 1.64-3.825 0-6.558-.833-1.388-1.384-2.494-1.581-3.246-1.716-.733-3.311-1.357-4.433-1.678-1.795-.513-2.507-.183-3.21.142-.793.367-1.574.729-3.895-.142-.941-.352-2.094-.76-3.35-1.204-5.04-1.783-11.735-4.151-13.048-5.901-.469-.625-.821-1.384-1.065-2.26a2.976 2.976 0 01-.173-.05l-3.656-1.169a3 3 0 01-1.944-3.77l.794-2.481a4.374 4.374 0 01-1.834-5.033l.666-2.083-1.041-.333a5.467 5.467 0 01-3.774-4.65l-2.516-.804a2.186 2.186 0 01-1.471-1.618l-19.02-6.084a1.093 1.093 0 01.665-2.082l19.021 6.083a2.186 2.186 0 012.137-.464l2.515.805a5.467 5.467 0 015.773-1.598l1.041.333.666-2.083a4.375 4.375 0 014.415-3.035l.793-2.48a3 3 0 013.77-1.943l3.61 1.155c1.614-2 3.207-2.613 5.386-2.069 4.373 1.094 8.746 2.73 8.746 2.73s-.547 2.732 2.732 3.826c3.668 1.223 4.92-1.094 4.92-1.094s23.321 8.017 33.889 11.48c0 0 5.544 2.732 7.106 5.465.937 1.64 2.186 5.466 1.64 8.2-.304 1.515-3.28 2.186-3.827 2.186-.196 0-.181.493-.157 1.278.008.26.017.55.02.866l.138.046c.183 4.555-.546 12.026-3.279 16.945-2.164 3.894-4.347 6.456-8.222 5.866-.164 2.794-1.164 19.57-2.164 28.57-.821 7.389-2.186 12.025-10.932 10.386-6.996-1.312-9.474-2.005-9.839-2.187l.002-.004z" fill="#fff"/></g><rect x="25" y="32.234" width="2.186" height="22.957" rx="1.093" transform="rotate(-72.264 25 32.234)" fill="#504751"/><rect x="44.45" y="39.603" width="4.373" height="12.025" rx="2.186" transform="rotate(-72.264 44.45 39.603)" fill="#F8F8F8"/><rect x="47.617" y="44.058" width="10.932" height="13.118" rx="5.466" transform="rotate(-72.264 47.617 44.058)" fill="#C9C9C9"/><rect x="51.866" y="52.304" width="24.051" height="8.746" rx="4.373" transform="rotate(-72.264 51.866 52.304)" fill="#8C898C"/><rect x="53.325" y="58.51" width="34.983" height="9.839" rx="3" transform="rotate(-72.264 53.325 58.51)" fill="#504751"/><path d="M104.257 120.295c5.685.437 6.012-4.555 5.466-7.106l5.466-31.157c4.373-4.555 13.446-14.32 14.758-16.944 1.64-3.28.547-7.106 1.093-7.106.547 0 3.523-.67 3.826-2.187.547-2.733-.702-6.559-1.639-8.199-1.562-2.733-7.106-5.466-7.106-5.466-10.568-3.462-33.89-11.479-33.89-11.479s-1.251 2.317-4.92 1.094c-3.278-1.094-2.731-3.826-2.731-3.826s-4.373-1.636-8.746-2.73c-4.373-1.093-6.39 2.476-10.932 12.569-4.92 10.932-6.938 20.995-3.826 25.144 1.64 2.186 11.679 5.337 16.398 7.105 4.373 1.64 3.279-1.093 7.105 0 3.061.875 9.657 4.009 12.572 5.466-2.187 5.284-7.762 17.93-12.572 26.238-2.848 4.919-4.92 7.106-3.826 10.385 1.094 3.279 15.852 7.652 15.852 7.652s1.968.109 7.652.547z" fill="#DFF6B8"/><path d="M119.563 82.583l-9.293-3.28-13.665 40.449c.365.182 2.843.875 9.839 2.187 8.746 1.639 10.111-2.997 10.932-10.386 1.093-9.839 2.187-28.97 2.187-28.97z" fill="#3E383F"/><path d="M131.042 60.172l-4.92-1.64-15.851 20.771c.911.365 3.716 1.968 7.652 3.28 4.919 1.64 7.392-1.06 9.839-5.466 2.733-4.92 3.462-12.39 3.28-16.945z" fill="#504751"/><path d="M99.338 75.477c-.437-.874-6.741-3.644-9.839-4.92-1.093 0-.546 1.64 1.094 4.374 1.64 2.733 1.093 4.372 0 6.559-1.094 2.186-3.827 8.199-3.827 9.839 0 1.312 3.28 2.004 4.92 2.186 1.093-3.28 3.826-10.495 6.012-13.118 2.733-3.28 2.187-3.827 1.64-4.92z" fill="#3E383F"/><circle cx="106.444" cy="89.689" r="5.466" fill="#C3D5A6"/><circle cx="106.444" cy="89.689" r="3.28" fill="#504751"/><path d="M105.351 54.16L65.996 40.494l-3.827.547-3.826 10.932 1.64 3.826 39.902 14.759c1.458.364 5.029-.219 7.652-5.466 2.624-5.248-.364-9.475-2.186-10.932z" fill="#C3D5A6"/><path d="M72.008 50.333l2.733-7.105 23.504 8.199-2.186 7.105-24.05-8.199z" fill="#504751"/><path d="M99.707 56.219l6.915 2.44m-10.017 6.979l6.559 2.187m-5.466-5.466l6.56 2.186m-5.466-5.466l6.559 2.187" stroke="#3E383F" strokeLinecap="round"/><g filter="url(#filter1_d)"><path fillRule="evenodd" clipRule="evenodd" d="M65.036 78.657a2 2 0 00.752-2.885L58.3 64.494a2 2 0 00-2.584-.67l-2.947 1.522a2 2 0 00-.933 2.536l5.119 12.486a2 2 0 002.764 1.02l1.823-.936 7.234 14.726a.998.998 0 00-.064.439l.223 2.929a1 1 0 001.438.821l2.44-1.199a1 1 0 00.229-1.64l-2.182-1.967a.998.998 0 00-.386-.216l-7.25-14.757 1.812-.93zm2 28.67c0 .019 0 .037.002.055h-2.015a4 4 0 00-3.96 4.559l2.874 20.364a4 4 0 003.961 3.44h9.744a4 4 0 003.963-3.459l2.776-20.364a4 4 0 00-3.963-4.54h-2.983l.001-.055v-4.618a1 1 0 00-1-1h-8.4a1 1 0 00-1 1v4.618zm-29.63.055a4 4 0 00-3.98 4.386l1.975 20.364a4 4 0 003.981 3.613h8.086a4 4 0 003.989-3.697L53 111.684a4 4 0 00-3.989-4.302H45.98a2 2 0 001.995-2.143l-1.201-16.8a2 2 0 00-1.995-1.857h-2.707a2 2 0 00-1.995 1.852l-1.244 16.8a2 2 0 001.994 2.148h-3.42z" fill="#fff"/></g><path d="M61.062 111.941a4 4 0 013.96-4.559h15.396a4 4 0 013.963 4.54l-2.776 20.364a4 4 0 01-3.964 3.459h-9.743a4 4 0 01-3.96-3.44l-2.876-20.364z" fill="#FAB1D8"/><path d="M67.036 107.326a1 1 0 001 1h8.4a1 1 0 001-1v-4.618a1 1 0 00-1-1h-8.4a1 1 0 00-1 1v4.618zm-1.248-31.555a2 2 0 01-.752 2.886l-5.317 2.73a2 2 0 01-2.764-1.02l-5.12-12.486a2 2 0 01.933-2.535l2.947-1.523a2 2 0 012.584.67l7.489 11.278zm7.253 20.757a1 1 0 01-.228 1.64l-2.44 1.199a1 1 0 01-1.438-.822l-.224-2.928a1 1 0 01.556-.974l.482-.237a1 1 0 011.11.155l2.182 1.967z" fill="#FAB1D8"/><rect x="70.979" y="95.372" width="1.891" height="19.184" rx=".945" transform="rotate(153.837 70.979 95.372)" fill="#FAB1D8"/><path d="M78.382 133.854H67.036c-2.836-.472-3.309-11.345-3.309-11.345 1.419 5.673 2.198 8.455 6.146 8.982 7.09.945 7.859-2.009 8.981-4.255 1.847-3.692 3.393-12.492 3.758-16.279-.496 5.345-1.894 17.391-2.34 20.061-.472 2.836-1.89 2.836-1.89 2.836z" fill="#D685AF"/><path d="M33.425 111.768a4 4 0 013.982-4.386h11.605a4 4 0 013.989 4.302l-1.544 20.364a4 4 0 01-3.99 3.697h-8.085a4 4 0 01-3.981-3.613l-1.976-20.364z" fill="#8FDADF"/><path d="M38.832 105.234a2 2 0 001.994 2.148h5.153a2 2 0 001.995-2.143l-1.201-16.8a2 2 0 00-1.995-1.857H42.07a2 2 0 00-1.994 1.852l-1.244 16.8z" fill="#8FDADF"/><path d="M38.673 133.854h9.454c2.837 0 2.837-8.509 2.837-8.509s-1.419 2.536-4.728 2.837c-5.2.472-6.61-.946-8.036-3.782-1.904-3.789-3.403-10.243-3.763-13.977.502 5.422 1.886 17.859 2.345 20.595.485 2.894 1.89 2.836 1.89 2.836z" fill="#6F9D9F"/><rect x="67.982" y="102.654" width="8.509" height=".945" rx=".473" fill="#D685AF"/><rect x="67.982" y="104.545" width="8.509" height=".945" rx=".473" fill="#D685AF"/><defs><filter id="filter0_d" x=".281" y="0" width="159.719" height="147.268" filterUnits="userSpaceOnUse" color-interpolation-filters="sRGB"><feFlood flood-opacity="0" result="BackgroundImageFix"/><feColorMatrix in="SourceAlpha" values="0 0 0 0 0 0 0 0 0 0 0 0 0 0 0 0 0 0 127 0"/><feOffset/><feGaussianBlur stdDeviation="12.5"/><feColorMatrix values="0 0 0 0 0 0 0 0 0 0 0 0 0 0 0 0 0 0 0.15 0"/><feBlend in2="BackgroundImageFix" result="effect1_dropShadow"/><feBlend in="SourceGraphic" in2="effect1_dropShadow" result="shape"/></filter><filter id="filter1_d" x="8.406" y="38.601" width="101.012" height="122.145" filterUnits="userSpaceOnUse" color-interpolation-filters="sRGB"><feFlood flood-opacity="0" result="BackgroundImageFix"/><feColorMatrix in="SourceAlpha" values="0 0 0 0 0 0 0 0 0 0 0 0 0 0 0 0 0 0 127 0"/><feOffset/><feGaussianBlur stdDeviation="12.5"/><feColorMatrix values="0 0 0 0 0 0 0 0 0 0 0 0 0 0 0 0 0 0 0.15 0"/><feBlend in2="BackgroundImageFix" result="effect1_dropShadow"/><feBlend in="SourceGraphic" in2="effect1_dropShadow" result="shape"/></filter></defs></svg>