<svg width="127" height="168" fill="none" xmlns="http://www.w3.org/2000/svg"><g filter="url(#filter0_d)"><path fillRule="evenodd" clipRule="evenodd" d="M45.683 25a4 4 0 00-4 4v20.719c-.722-.267-1.39-.517-1.982-.737-1.348-.503-2.3-.859-2.611-.945-2.55-.706-5.174.02-4.206 3.518.937 3.381 4.886 6.606 8.8 8.93v4.545c-3.7.516-7.657.892-10.245 1.137h-.003c-1.431.136-2.443.232-2.76.29-2.602.478-4.646 2.277-2.248 5.001 2.93 3.328 10.079 4.331 15.255 4.342v2.7c-1.923.277-3.635.968-4.728 2.312-3.917 4.815-8.944 17.523-9.092 18.575-.148 1.052-.296 2.105 2.88 2.552 1.982.278 3.994-.735 5.768-2.474-.61 3.914-.954 7.624-.912 8.106.074.846.148 1.691 2.178 1.514 1.69-.148 3.055-2.103 3.906-4.709v11.591a4 4 0 004 4h1.611c1.394 2.791 3.618 6.02 6.581 8.983 1.608 1.608 3.553 3.007 5.506 4.413 2.723 1.959 5.463 3.931 7.328 6.495 3.494 4.805 4.312 7.826 5.086 10.682.363 1.34.716 2.643 1.33 4.077 2.2 5.133 12.834 4.491 19.25 1.283 6.346-3.173 9.554-7.601 7.142-13.905a1.239 1.239 0 00-.08-.204l-.003-.008-.002-.002c-.392-.783-.724-1.327-1.032-1.834-.703-1.151-1.284-2.104-2.175-5.221l-.194-.674v-.003c-1.159-3.994-1.696-5.846 1.477-15.365l.8-2.392c2.624-7.821 3.692-11.005 3.692-16.858 0-3.85-2.567-12.833-5.133-20.534-3.091-9.273-3.846-15.802-3.85-17.324-.006-1.967-2.567-1.926-3.85-.642V49.65c.991 1.864 1.567 3.948 1.567 6.15a1 1 0 102 0c0-3.703-1.395-7.06-3.567-9.753v-9.068c.205.142.408.288.61.436 5.816 4.282 9.94 10.894 9.94 18.386a1 1 0 002 0c0-8.255-4.538-15.42-10.754-19.996a29.062 29.062 0 00-1.796-1.222V29a4 4 0 00-4-4H45.683zm37.012 77.001V102H44v.001h38.695z" fill="#fff"/></g><path d="M46.381 62.884c5.342 2.287 8.336 2.95 8.336 2.95s6.995-10.493 1.021-11.663-17.412-5.791-18.648-6.134c-2.55-.706-5.175.02-4.206 3.518 1.331 4.806 8.748 9.296 13.497 11.329z" fill="#FAC3B1"/><path d="M43.516 75.76c5.804-.274 8.787-.984 8.787-.984s1.714-12.493-4.171-10.939c-5.886 1.555-18.194 2.389-19.456 2.62-2.602.478-4.646 2.277-2.248 5.001 3.294 3.743 11.927 4.545 17.088 4.302zM27.863 99.387c.148-1.052 5.175-13.76 9.092-18.575 2.969-3.65 10.497-2.483 14.438-1.298-.651 1.555-1.982 4.874-4.642 5.359-3.325.605-3.917 4.815-7.346 10.771-2.227 3.867-5.484 6.741-8.661 6.295-3.177-.447-3.03-1.5-2.881-2.552z" fill="#FAC3B1"/><path d="M35.6 107.571c-.075-.845 1.033-11.59 2.694-15.993 1.26-3.338 6.086-3.674 8.703-3.401-.158 1.32-.458 4.13-2.023 4.947-1.956 1.023-1.661 4.404-2.842 9.618-.767 3.384-2.326 6.166-4.356 6.343-2.03.177-2.103-.668-2.177-1.514zM92.375 155.9c6.417-3.208 9.625-7.7 7.058-14.117-8.555-10.267-21.688-25.925-23.742-26.951-2.566-1.284-27.591-3.207-29.516-1.924-1.925 1.283 1 9.343 7.7 16.042 3.85 3.85 9.631 6.505 12.833 10.908 5.133 7.059 4.492 10.267 6.417 14.759 2.2 5.133 12.833 4.491 19.25 1.283z" fill="#FAC3B1"/><path fill="#C8C8C8" d="M42.967 27.567h44.917v10.267H42.967z"/><path fill="#fff" d="M42.967 37.834h44.917v64.167H42.967z"/><path fill="#C8C8C8" d="M42.967 102.001h44.917v10.267H42.967z"/><path fillRule="evenodd" clipRule="evenodd" d="M41.683 29a4 4 0 014-4h39.484a4 4 0 014 4v86.967a4 4 0 01-4 4H45.683a4 4 0 01-4-4V29zM44 35.417a4 4 0 014-4h34.85a4 4 0 014 4V105.7a4 4 0 01-4 4H48a4 4 0 01-4-4V35.417zm15.697-7.85a.642.642 0 000 1.283h11.456a.642.642 0 100-1.283H59.697z" fill="#393939"/><path fillRule="evenodd" clipRule="evenodd" d="M53.95 55.8a2 2 0 00-2 2v15.25a2 2 0 002 2h2.492l-1.284 3.85 9.625-3.85H76.9a2 2 0 002-2V57.8a2 2 0 00-2-2H53.95z" fill="#DCED74"/><path d="M72.083 65.873c-.59 1.555-4.664 5.055-6.628 6.61-1.718-1.425-5.376-4.588-6.26-5.833-1.104-1.555-1.104-3.888 0-5.444.797-1.122 2.21-1.556 3.314-1.556 1.25 0 2.946 1.556 2.946 1.556s2.577-2.333 5.155-.778c2.047 1.236 2.21 3.5 1.473 5.445z" fill="#fff"/><path d="M87.242 75.05c.955 5.732 1.925 15.4-.642 20.533-2.567 6.417-5.133 6.417-10.267 15.4-3.183 5.572-3.528 14.759-3.208 17.967.465 4.648 3.85 11.551 4.492 12.834.513 1.027 7.058-1.07 14.116 4.491 0 0 8.984-1.923 7.7-4.491-1.283-2.567-1.925-2.567-3.208-7.058-1.283-4.491-2.063-6.002 1.283-16.042 3.209-9.625 4.492-12.834 4.492-19.25 0-3.85-2.567-12.833-5.133-20.534-3.091-9.273-3.846-15.802-3.85-17.324-.006-1.967-2.567-1.926-3.85-.642-3.525 3.527-3.209 6.417-1.925 14.117z" fill="#FAC3B1"/><path d="M73.492 47.78a1 1 0 10.55 1.923l-.55-1.923zm9.541 8.662a1 1 0 102 0h-2zm-8.992-6.739c1.89-.54 4.145-.013 5.96 1.294 1.805 1.3 3.032 3.27 3.032 5.445h2c0-2.958-1.66-5.481-3.864-7.068-2.196-1.581-5.075-2.337-7.677-1.594l.55 1.923zM69.636 31.22a1 1 0 00.561 1.92l-.56-1.92zm30.08 24.58a1 1 0 102.001 0h-2zM70.198 33.14c6.373-1.862 13.755-.014 19.58 4.274 5.816 4.282 9.94 10.894 9.94 18.386h2c0-8.255-4.539-15.42-10.754-19.996-6.206-4.57-14.224-6.659-21.327-4.584l.561 1.92z" fill="#DCED74"/><path d="M72.2 39.923a1 1 0 10.567 1.918l-.567-1.918zM90.733 55.8a1 1 0 102 0h-2zM72.767 41.84c3.842-1.134 8.333-.014 11.903 2.641 3.559 2.648 6.063 6.723 6.063 11.319h2c0-5.35-2.91-9.977-6.87-12.923-3.95-2.94-9.083-4.306-13.663-2.954l.567 1.918z" fill="#DCED74"/><defs><filter id="filter0_d" x=".363" y="0" width="126.637" height="183.391" filterUnits="userSpaceOnUse" color-interpolation-filters="sRGB"><feFlood flood-opacity="0" result="BackgroundImageFix"/><feColorMatrix in="SourceAlpha" values="0 0 0 0 0 0 0 0 0 0 0 0 0 0 0 0 0 0 127 0"/><feOffset/><feGaussianBlur stdDeviation="12.5"/><feColorMatrix values="0 0 0 0 0 0 0 0 0 0 0 0 0 0 0 0 0 0 0.15 0"/><feBlend in2="BackgroundImageFix" result="effect1_dropShadow"/><feBlend in="SourceGraphic" in2="effect1_dropShadow" result="shape"/></filter></defs></svg>